<svg id="banner-logo" xmlns="http://www.w3.org/2000/svg" xmlns:xlink="http://www.w3.org/1999/xlink" width="164.609" height="116.39" viewBox="0 0 164.609 116.39">
  <defs>
    <clipPath id="clip-path">
      <rect id="Rectangle_216" data-name="Rectangle 216" width="164.609" height="116.39" fill="#fff"/>
    </clipPath>
  </defs>
  <g id="Group_52" data-name="Group 52">
    <g id="Group_51" data-name="Group 51" clip-path="url(#clip-path)">
      <path id="Path_233" data-name="Path 233" d="M288.5,262.186c0-.034-.009-.068-.014-.1-.009.035-.017.069-.026.1h.039Z" transform="translate(-232.061 -210.84)" fill="#fff"/>
      <path id="Path_234" data-name="Path 234" d="M186.162,413.738l-.01,0c0,2.221.027,9.049.041,9.822.02.747.2,1,.821,1.18a3.255,3.255,0,0,0,.8.069c.118,0,.248,0,.392-.007a4.238,4.238,0,0,0,1.381-.191c2.082-.635,3.414-2.3,3.239-4.045a10.327,10.327,0,0,0-1.926-4.44c-.123-.161-.286-.356-.463-.561a3.709,3.709,0,0,1-1.178.359c-.049.006-.089.005-.136.009-.113.011-.226.022-.33.022h.019a24.321,24.321,0,0,1,1.594,2.21,8.053,8.053,0,0,1,.89,2,2.579,2.579,0,0,1,.016.72.184.184,0,0,0,0,.021,2.108,2.108,0,0,1-.506,1.376,3.341,3.341,0,0,1-2.264,1.112c-.338.059-.677.13-.841.164l-.027.005c-.016-.215-.016-.722-.016-1.294,0-.633-.023-1.573-.041-2.329l-.013-.552c-.005-.223-.013-.5-.022-.811-.022-.8-.05-1.794-.05-2.547v-.393l-.123-.054-.111-.1a2.874,2.874,0,0,1-.284-.3,3.008,3.008,0,0,1-.562-1.1,3.347,3.347,0,0,1-.095-.4c-.061.016-.126.031-.194.043" transform="translate(-149.755 -332.808)" fill="#fff"/>
      <path id="Path_235" data-name="Path 235" d="M227.893,437.531l-.006,0a2.918,2.918,0,0,1,1.158-1.638l.012-.007a1.272,1.272,0,0,1,.618-.182.233.233,0,0,1,.13.025l.011.008.017.012s0,.033,0,.136c0,.178,0,.178-.19.383a5.919,5.919,0,0,1-1.755,1.26m.759.939c1.385-.635,2.466-1.625,2.627-2.408a1.584,1.584,0,0,0-.933-1.575,1.8,1.8,0,0,0-.814-.184,2.623,2.623,0,0,0-1.238.331,4.3,4.3,0,0,0-1.874,4.114,2.561,2.561,0,0,0,1.953,2.427,2.466,2.466,0,0,0,.719.111,3.428,3.428,0,0,0,1.808-.623c.271-.159,1.142-.814,1.142-1.159,0-.12-.049-.408-.5-.484l-.015,0c-.044,0-.082-.007-.117-.007a.613.613,0,0,0-.466.232,3.467,3.467,0,0,1-1.982.679,1.368,1.368,0,0,1-.44-.061,1.275,1.275,0,0,1-.6-.882c-.011-.092,0-.166.735-.509" transform="translate(-182.134 -349.388)" fill="#fff"/>
      <path id="Path_236" data-name="Path 236" d="M265.466,407.545c1.567-.07,2.038-.091,2.038-.795v-.059a.556.556,0,0,0-.123-.433c-.186-.188-.489-.195-1.74-.195h-1.121c-4.046,0-4.718.044-4.754.646a.526.526,0,0,0,.106.422c.215.258.7.317,1.782.359l1.082.045.049,1.861c.017,1.111.07,2.538.109,3.172.017.568.036,2,.036,3.2,0,.456,0,.887-.005,1.247,0,.77,0,.951.006,1.025a.457.457,0,0,0,.255.343.926.926,0,0,0,.381.082.652.652,0,0,0,.5-.192l.013-.017c.135-.188.135-.188.135-2.542,0-1.271,0-3.637-.037-5.3-.028-1.511-.022-2.461-.005-2.82.242-.016.726-.037,1.3-.05" transform="translate(-208.971 -326.668)" fill="#fff"/>
      <path id="Path_237" data-name="Path 237" d="M296.661,440.247a1.929,1.929,0,0,0,.3.88.6.6,0,0,0,.565.289.538.538,0,0,0,.539-.285c0-.009.011-.017.014-.026a.99.99,0,0,0,.134-.413,19.976,19.976,0,0,1,.742-2.243c.036-.1.1-.277.157-.394.095.194.257.6.4.97.9,2.211.968,2.39,1.538,2.39a.71.71,0,0,0,.773-.517,24.2,24.2,0,0,1,.986-4.4,13.158,13.158,0,0,0,.372-1.273.085.085,0,0,0,0-.012.5.5,0,0,0-.232-.548.8.8,0,0,0-.509-.214c-.207,0-.481.106-.607.612-.007.024-.028.086-.056.172-.083.253-.237.724-.359,1.2-.146.529-.241.981-.324,1.381a11.165,11.165,0,0,1-.283,1.151,12.4,12.4,0,0,1-.643-1.607,3.81,3.81,0,0,0-.752-1.654.8.8,0,0,0-.447-.241c-.25,0-.454.213-.82,1.337-.12.372-.356.963-.53,1.364-.019-.077-.036-.151-.049-.206a10.041,10.041,0,0,0-1.193-3.178.659.659,0,0,0-.484-.288.384.384,0,0,0-.319.171,1.772,1.772,0,0,0,.064,1.384c.176.491.862,3.314,1.02,4.194" transform="translate(-237.69 -349.51)" fill="#fff"/>
      <path id="Path_238" data-name="Path 238" d="M341.729,437.531l-.006,0a2.918,2.918,0,0,1,1.158-1.638l.012-.007a1.272,1.272,0,0,1,.618-.182.234.234,0,0,1,.13.025l.011.008.017.012s0,.033,0,.136c0,.178,0,.178-.19.383a5.92,5.92,0,0,1-1.755,1.26m.759.939c1.385-.635,2.466-1.625,2.627-2.408a1.584,1.584,0,0,0-.933-1.575,1.8,1.8,0,0,0-.814-.184,2.623,2.623,0,0,0-1.238.331,4.3,4.3,0,0,0-1.874,4.114,2.561,2.561,0,0,0,1.953,2.427,2.466,2.466,0,0,0,.719.111,3.428,3.428,0,0,0,1.808-.623c.272-.159,1.142-.814,1.142-1.159,0-.12-.049-.408-.5-.484l-.015,0c-.044,0-.082-.007-.117-.007a.612.612,0,0,0-.465.232,3.469,3.469,0,0,1-1.983.679,1.368,1.368,0,0,1-.439-.061,1.275,1.275,0,0,1-.6-.882c-.011-.092,0-.166.735-.509" transform="translate(-273.713 -349.388)" fill="#fff"/>
      <path id="Path_239" data-name="Path 239" d="M374.614,442.046a.221.221,0,0,0,.032.043c.144.156.269.276.438.276a.467.467,0,0,0,.351-.216c.257-.3.286-.61.322-2.04.055-1.692.109-1.82.524-2.314a1.833,1.833,0,0,1,1.223-.725.442.442,0,0,1,.266.076,1.162,1.162,0,0,1,.4.725,12.354,12.354,0,0,1,.118,2.059,6.969,6.969,0,0,0,.146,2.042c.061.141.164.383.417.383a.547.547,0,0,0,.246-.07c.485-.229.564-.8.564-2.506a6.915,6.915,0,0,0-.5-3.367l-.006-.011a1.587,1.587,0,0,0-1.088-.739,3.058,3.058,0,0,0-.667-.1,3.005,3.005,0,0,0-.686.1,2.368,2.368,0,0,0-1.067.551,1.317,1.317,0,0,0-.19-.386l-.016-.019a.488.488,0,0,0-.353-.216.381.381,0,0,0-.24.1,1.3,1.3,0,0,0-.292.392.23.23,0,0,0-.016.032c-.107.279-.16.417-.142,2.961,0,.285,0,.582-.005.87a4.774,4.774,0,0,0,.217,2.1" transform="translate(-301.188 -350.401)" fill="#fff"/>
      <path id="Path_240" data-name="Path 240" d="M407.419,415.033c.471,0,.652-.014.831-.163a.447.447,0,0,0,.149-.526c-.138-.471-.473-.575-1.081-.611-.162-.009-.274-.021-.349-.033l-.064-1.283c-.079-2.1-.136-2.513-.387-2.787a.553.553,0,0,0-.408-.239.473.473,0,0,0-.415.341.155.155,0,0,0-.007.018,27.767,27.767,0,0,0-.193,3.492c0,.334-.009.515-.017.608-.093.015-.248.032-.449.044-.618.057-.907.138-1.113.5l-.006.011a.4.4,0,0,0-.014.326.939.939,0,0,0,.554.45,1.384,1.384,0,0,0,.5.082,2.737,2.737,0,0,0,.535-.059l.032,1.969c.038,3.1.113,3.779.443,4.062a.7.7,0,0,0,.438.141.676.676,0,0,0,.506-.2c.172-.2.167-.331.148-.814,0-.007,0-.013,0-.02-.032-.257-.064-.617-.083-.832l-.006-.065a26.848,26.848,0,0,1,.016-4.379c.133-.012.343-.024.444-.03" transform="translate(-324.904 -329.347)" fill="#fff"/>
      <path id="Path_241" data-name="Path 241" d="M431.761,439.876l-.12,0a2.766,2.766,0,0,1-1.354-.359,2.029,2.029,0,0,0-.78-.243.722.722,0,0,0-.074,0c-.29.029-.394.138-.422.447-.029.452.225.695.674.964a4.4,4.4,0,0,0,1.626.574,3.713,3.713,0,0,0,.463.03,1.967,1.967,0,0,0,1.9-.979c.4-.935-.163-2.328-1.3-3.246-.892-.729-1.027-.979-1-1.411.009-.1.029-.105.075-.105h0a1.465,1.465,0,0,1,.636.28,1.5,1.5,0,0,0,.842.419.468.468,0,0,0,.421-.255c.15-.242.112-.359-.032-.627a2.989,2.989,0,0,0-2.25-1.19,1,1,0,0,0-.565.147c-.649.4-.812,1.073-.491,2.058a2.8,2.8,0,0,0,.931,1.274,7.776,7.776,0,0,1,1.175,1.313c.155.233.155.233.126.478-.029.4-.029.4-.487.426" transform="translate(-345.127 -349.288)" fill="#fff"/>
      <path id="Path_242" data-name="Path 242" d="M461.852,437.531l-.006,0A2.917,2.917,0,0,1,463,435.9l.012-.007a1.272,1.272,0,0,1,.618-.182.232.232,0,0,1,.13.025l.011.008a.121.121,0,0,1,.017.012,1.337,1.337,0,0,1,.005.136c0,.178,0,.178-.19.383a5.918,5.918,0,0,1-1.755,1.26m.759.939c1.385-.635,2.466-1.625,2.627-2.408a1.584,1.584,0,0,0-.933-1.575,1.8,1.8,0,0,0-.814-.184,2.623,2.623,0,0,0-1.238.331,4.3,4.3,0,0,0-1.873,4.114,2.561,2.561,0,0,0,1.953,2.427,2.468,2.468,0,0,0,.719.111,3.428,3.428,0,0,0,1.808-.623c.271-.159,1.142-.814,1.142-1.159,0-.12-.049-.408-.5-.484l-.015,0c-.044,0-.082-.007-.117-.007a.613.613,0,0,0-.466.232,3.468,3.468,0,0,1-1.982.679,1.368,1.368,0,0,1-.44-.061,1.275,1.275,0,0,1-.6-.882c-.011-.092,0-.166.735-.509" transform="translate(-370.349 -349.388)" fill="#fff"/>
      <path id="Path_243" data-name="Path 243" d="M502.179,414.194a1.849,1.849,0,0,1-.254,1.365,2.25,2.25,0,0,1-1.406,1,4.314,4.314,0,0,1-.6.05,2.381,2.381,0,0,1-.862-.162,19.032,19.032,0,0,1-.06-2.712c.01-.9.021-1.723.052-1.958a3.041,3.041,0,0,1,.726-.07,2.141,2.141,0,0,1,.323.015c.366.044.615.187,1.3.906a2.319,2.319,0,0,1,.787,1.566m-3.167-5.447v-.24c0-.976,0-1.5.026-1.648l0,0a.851.851,0,0,1,.3-.03,1.987,1.987,0,0,1,.292.016l.027,0h.027c.605.017.628.021.821.131a1.5,1.5,0,0,1,.605,1.441,1.525,1.525,0,0,1-.11.708,1.907,1.907,0,0,1-1.4,1.073l-.057.017a2.127,2.127,0,0,1-.432.1h-.016a6.165,6.165,0,0,1-.082-1.569m3.525-.25a2.455,2.455,0,0,0-.794-2.4,4.058,4.058,0,0,0-2.839-.682c-.781,0-1.114.04-1.268.439a39.015,39.015,0,0,0-.07,4.84c0,2.677-.037,4.859-.071,5.144a1.556,1.556,0,0,0,.388,1.509,1.983,1.983,0,0,0,1.134.556,2.707,2.707,0,0,0,.507.037,6.928,6.928,0,0,0,1.5-.166,3.485,3.485,0,0,0,1.58-.793,2.972,2.972,0,0,0,1.021-2.374,3.48,3.48,0,0,0-.079-1.06,5.093,5.093,0,0,0-1.878-2.771l-.061-.046a3.326,3.326,0,0,0,.744-1.277,7.726,7.726,0,0,0,.187-.957" transform="translate(-400.196 -326.147)" fill="#fff"/>
      <path id="Path_244" data-name="Path 244" d="M536.614,440.107a2.361,2.361,0,0,1-.575.086.927.927,0,0,1-.793-.42,3.216,3.216,0,0,1-.479-1.275,2.123,2.123,0,0,1,.463-1.928.961.961,0,0,1,.989-.5,1,1,0,0,1,.527.073,2.227,2.227,0,0,1,.7.959,1.353,1.353,0,0,1,.144.758c0,1.238-.508,2.132-.98,2.25m.542-5.208a2.465,2.465,0,0,0-1.07-.283,1.983,1.983,0,0,0-.891.227,3.645,3.645,0,0,0-1.367,1.252,3.355,3.355,0,0,0-.411,2.015,3.51,3.51,0,0,0,.139,1.322,2.772,2.772,0,0,0,1.914,1.96,2.112,2.112,0,0,0,.612.09,2.525,2.525,0,0,0,.649-.089,2.864,2.864,0,0,0,2.1-2.29,7.186,7.186,0,0,0-.076-2.344,3.08,3.08,0,0,0-1.6-1.861" transform="translate(-429.122 -349.639)" fill="#fff"/>
      <path id="Path_245" data-name="Path 245" d="M567.881,439.876l-.12,0a2.766,2.766,0,0,1-1.354-.359,2.029,2.029,0,0,0-.78-.243.719.719,0,0,0-.074,0c-.29.029-.394.138-.422.447-.029.452.225.695.674.964a4.4,4.4,0,0,0,1.626.574,3.71,3.71,0,0,0,.463.03,1.967,1.967,0,0,0,1.9-.979c.4-.935-.163-2.328-1.3-3.246-.892-.729-1.027-.979-1-1.411.009-.1.029-.105.076-.105h0a1.465,1.465,0,0,1,.636.28,1.5,1.5,0,0,0,.842.419.466.466,0,0,0,.421-.255c.15-.242.112-.359-.032-.627a2.988,2.988,0,0,0-2.25-1.19,1,1,0,0,0-.565.147c-.649.4-.812,1.073-.491,2.058a2.8,2.8,0,0,0,.931,1.274,7.779,7.779,0,0,1,1.175,1.313c.155.233.155.233.126.478-.028.4-.028.4-.486.426" transform="translate(-454.633 -349.288)" fill="#fff"/>
      <path id="Path_246" data-name="Path 246" d="M601.8,434.123l-.019-.007a.612.612,0,0,0-.219-.031.845.845,0,0,0-.322.071c-.266.106-.375.254-.61.707-.16.285-.576,1.2-1,2.146-.35.8-.583,1.33-.721,1.634-.188-.518-.589-1.755-.865-2.707-.141-.512-.326-1.036-.389-1.184a.29.29,0,0,0-.015-.029.777.777,0,0,0-.648-.435.621.621,0,0,0-.241.05c-.308.115-.288.313-.252.674a27.872,27.872,0,0,0,1.807,6.094.6.6,0,0,0,.442.264c.392,0,.63-.445,1.4-2.2l1.156-2.547c.7-1.475.859-1.937.745-2.242a.447.447,0,0,0-.25-.258" transform="translate(-479.855 -349.212)" fill="#fff"/>
      <path id="Path_247" data-name="Path 247" d="M630.6,441.457h.017a.318.318,0,0,0,.231-.1c.169-.177.213-.583.167-1.55v-.022c-.023-.973-.1-4.193-.188-4.531-.1-.383-.316-.611-.589-.611h-.026a.667.667,0,0,0-.551.657c-.076.432.013,4.429.091,5.031.073.458.171,1.076.848,1.126" transform="translate(-506.527 -349.659)" fill="#fff"/>
      <path id="Path_248" data-name="Path 248" d="M646.19,412.639l0-.265c-.054-3.257-.054-3.293-.187-3.515-.174-.341-.385-.392-.5-.392-.182,0-.5.121-.595.931-.022.216-.057,1.967-.074,3.677-.038,2.685-.034,3.73.018,4.86.093,1.834.111,2.078.245,2.326a.524.524,0,0,0,.473.251.738.738,0,0,0,.48-.182c.408-.315.4-.553.248-3.286-.034-.5-.069-2.341-.1-4.124Z" transform="translate(-518.734 -328.602)" fill="#fff"/>
      <path id="Path_249" data-name="Path 249" d="M661.078,412.639l0-.263c-.054-3.258-.054-3.293-.188-3.517-.174-.341-.384-.392-.5-.392-.182,0-.5.121-.595.931-.022.215-.057,2-.074,3.678-.038,2.683-.033,3.728.018,4.859.094,1.835.111,2.079.246,2.326a.522.522,0,0,0,.473.251.738.738,0,0,0,.48-.182c.408-.315.395-.553.247-3.286-.034-.492-.068-2.311-.1-4.071Z" transform="translate(-530.711 -328.602)" fill="#fff"/>
      <path id="Path_250" data-name="Path 250" d="M676.653,438.834a3.732,3.732,0,0,1,.021.407c.017.5,0,.564-.065.69-.1.177-.179.264-.629.386a2.715,2.715,0,0,1-.674.1,1,1,0,0,1-.4-.064,1.8,1.8,0,0,1-.349-.181,1.363,1.363,0,0,1,.229-.166l.01-.007c.133-.092.425-.282.707-.464l.281-.182c.415-.264.7-.437.864-.514m-3.3.722a.957.957,0,0,0-.181,1.2,1.6,1.6,0,0,0,1.289.925,3.58,3.58,0,0,0,.636.047c.1,0,.187,0,.272-.008a2.219,2.219,0,0,0,1.114-.256l.348-.168.118.109a.885.885,0,0,0,.567.272.487.487,0,0,0,.376-.178c.112-.129.452-.525.1-2.868a7.269,7.269,0,0,0-1.123-3.086,1.521,1.521,0,0,0-1.206-.531,2.343,2.343,0,0,0-.7.118c-.377.108-1.6.656-1.709.982a.978.978,0,0,0,.3.906.513.513,0,0,0,.283.083,1.8,1.8,0,0,0,.87-.372,1.477,1.477,0,0,1,.69-.273c.061,0,.112-.007.155-.007.075,0,.079,0,.236.133a1.508,1.508,0,0,1,.334.51l.016.036a1.4,1.4,0,0,1,.133.35,2.516,2.516,0,0,1-.572.366,14.233,14.233,0,0,0-2.34,1.713" transform="translate(-541.443 -349.957)" fill="#fff"/>
      <path id="Path_251" data-name="Path 251" d="M270.747,393.02a.7.7,0,0,0-.013-.112,2.266,2.266,0,0,0-.506-.852l-.086-.111c-.119-.154-.239-.307-.359-.461H256.411c0,.008,0,.016-.006.024a5.05,5.05,0,0,1-.478,1.325,1.657,1.657,0,0,1-.157.208h14.981c0-.007,0-.013,0-.021" transform="translate(-205.761 -314.94)" fill="#fff"/>
      <path id="Path_252" data-name="Path 252" d="M285.384,478.915h-98.7a.778.778,0,0,0,0,1.557h98.7a.778.778,0,1,0,0-1.557" transform="translate(-149.559 -385.276)" fill="#fff"/>
      <path id="Path_253" data-name="Path 253" d="M173.793,155.006c-.346-.4-.645-.841-.993-1.239a7.788,7.788,0,0,0-.715-.646c-.06-.053-.125-.1-.181-.161q-.122-.13-.239-.263a7.194,7.194,0,0,1-1.383-2.3,4.959,4.959,0,0,0-.374-.672c.893-.021,1.229-.345,1.213-1.2a3.975,3.975,0,0,0-.176-1.079,5.4,5.4,0,0,1,.729-4.833c.125-.184.258-.363.451-.633a7.217,7.217,0,0,1,.554,1.231c0,.02.011.039.014.059.258,1.391.447,2.8.656,4.2a6.123,6.123,0,0,1,.08.852,1.074,1.074,0,0,1-.118.484.541.541,0,0,0,.162.74,1.976,1.976,0,0,1,.912,1.505,14.977,14.977,0,0,0,.437,1.931,1.515,1.515,0,0,1,.1.981.3.3,0,0,0,.035.261,2.22,2.22,0,0,1,.476.961,5.646,5.646,0,0,1,.215,1.033c.016.214-.033.312-.148.312a.551.551,0,0,1-.238-.079,1.066,1.066,0,0,1-.589-.662c-.044-.151-.222-.272-.356-.387a4.57,4.57,0,0,1-.519-.4m-7.315-6.512c-.656-.3-1.319-.583-1.986-.859-.28-.115-.576-.188-.861-.289a.5.5,0,0,1-.169-.126c-.3-.3-.6-.611-.9-.911-.354-.35-.707-.7-1.073-1.039a2.763,2.763,0,0,1-.874-1.308,5.324,5.324,0,0,0,3.651,1.353,1.122,1.122,0,0,1-.022.224c-.164.446-.139.65.236.929a8.324,8.324,0,0,0,1.12.68,2.708,2.708,0,0,1,1.448,1.724,4.288,4.288,0,0,0-.57-.378m-14.7,19.22c.235,0,.362.135.46.448.021.066.038.133.052.2.007.032.015.064.019.1a2.136,2.136,0,0,0,.666,1.4l.448.2a3.006,3.006,0,0,0,.422.031,2.759,2.759,0,0,0,.347-.024,3.256,3.256,0,0,0,1.767-.885c.2-.178.4-.346.609-.512a.833.833,0,0,1,.435-.236c.14,0,.242.135.389.424.2.4.392.808.6,1.207a1.319,1.319,0,0,0,1.155.809,1.527,1.527,0,0,0,.908-.34,3.609,3.609,0,0,0,1.242-1.853c.233-.727.391-1.477.591-2.214.045-.164.092-.327.138-.491.029-.1.056-.2.086-.3.074-.254.15-.507.23-.759.029-.093.136-.162.207-.242a1.66,1.66,0,0,1,.209.209c.1.141.174.3.275.441a.726.726,0,0,0,.58.328.635.635,0,0,0,.551-.347,3.555,3.555,0,0,0,.325-.882c.018-.068.039-.135.056-.2a8.175,8.175,0,0,0,.144-.84c.014-.1.029-.2.047-.305a.813.813,0,0,1,.093-.288c.049-.079.137-.18.212-.183h0c.067,0,.143.11.207.178a.408.408,0,0,1,.05.111.9.9,0,0,0,.465.488.665.665,0,0,0,.254.053.711.711,0,0,0,.266-.053,1.038,1.038,0,0,0,.425-.334,1.931,1.931,0,0,0,.239-.39,3.129,3.129,0,0,1,1.309-1.414,5.636,5.636,0,0,0,.486-.319c.278-.2.555-.411.833-.616q1.043-.771,2.085-1.545l.08-.059c.179-.134.348-.283.516-.43a.709.709,0,0,0,.225-.993c-.113-.188-.034-.332.173-.4a.894.894,0,0,1,.273-.036,2.493,2.493,0,0,1,1.575.573,3.361,3.361,0,0,1,.2.475,1.527,1.527,0,0,0,.344.543,8.277,8.277,0,0,1,1.187,1.067,12.451,12.451,0,0,1,1.11,1.4c.313.453.642.9.975,1.335q.436.575.881,1.144c.242.31.485.62.725.931l.086.111a2.956,2.956,0,0,1,.686,1.253,1.685,1.685,0,0,1,.028.249.238.238,0,0,0,.015.055.748.748,0,0,0,.257.324,20.456,20.456,0,0,1,2.289,2.149,4.33,4.33,0,0,1,.55.751,5.015,5.015,0,0,0,.668.966c.084.093.151.141.207.141s.123-.073.176-.22c.071-.2.119-.412.192-.613.029-.081.082-.194.149-.215.292-.094.208-.288.1-.429a6.083,6.083,0,0,0-1.359-1.577c-.046-.02-.093-.04-.139-.061-.323-.148-.6-.377-.925-.522a.391.391,0,0,1-.05-.031.908.908,0,0,1-.189-.129,1.294,1.294,0,0,1-.314-.428c-.023-.034-.04-.072-.061-.106-.06-.1-.12-.2-.174-.3a3.8,3.8,0,0,0-.265-.458c-.008-.011-.011-.023-.018-.035-.1-.141-.188-.286-.283-.428-.072-.11-.142-.221-.213-.331s-.139-.212-.207-.321c-.148-.239-.3-.479-.44-.721q-.188-.315-.372-.632c-.293-.5-.587-1-.886-1.5a4.922,4.922,0,0,0-.937-1.149c-.062-.056-.118-.117-.173-.176a3.4,3.4,0,0,1-.834-2.174,1.144,1.144,0,0,1,.555-1.122,1.612,1.612,0,0,1,.279-.145,1.472,1.472,0,0,1,.564-.116,1.729,1.729,0,0,1,.562.1c.164.056.27.294.393.457a6.341,6.341,0,0,0,.392.549c.286.3.592.591.891.883l.083.08c.217.214.42.443.648.644a1.082,1.082,0,0,0,.123.083.621.621,0,0,0,.338.121.661.661,0,0,0,.323-.092.147.147,0,0,1,.067-.014.578.578,0,0,1,.339.145,6.229,6.229,0,0,1,.482.63.529.529,0,0,0,.425.24.677.677,0,0,0,.246-.052.773.773,0,0,1,.28-.06.617.617,0,0,1,.515.329c.211.311.38.649.562.979.03.054.059.108.09.162a6.616,6.616,0,0,0,.476.782.876.876,0,0,0,.623.373c.018,0,.036.007.054.007s.039-.011.058-.012a.991.991,0,0,0,.547-.232,2.386,2.386,0,0,0,.237-.227c.064-.069.127-.139.194-.206a.548.548,0,0,1,.84-.067,5.375,5.375,0,0,1,.573.547,3.525,3.525,0,0,0,1.148.87c.023.011.046.022.07.031a1.642,1.642,0,0,0,.605.121,1.335,1.335,0,0,0,.62-.152,1.514,1.514,0,0,0,.664-.718c.229-.485.29-.612.589-.612.032,0,.074,0,.113.006.092.007.2.017.332.033a2.678,2.678,0,0,0,.318.019c.047,0,.094,0,.141-.007s.08,0,.119-.006a.968.968,0,0,0,.948-.882.975.975,0,0,1,.347-.677,1.049,1.049,0,0,1,.359-.177,2.283,2.283,0,0,0,.494-.288l.174-.392a1.235,1.235,0,0,0-.526-1.2,2.637,2.637,0,0,1-.5-.5,2.164,2.164,0,0,1-.421-1.3,1.014,1.014,0,0,0-.985-1.156c-.076-.012-.154-.022-.24-.029-.322-.025-.647-.022-.971-.03-.073,0-.147,0-.221,0-.4-.019-.464-.111-.369-.492.012-.049.021-.1.033-.149a1.615,1.615,0,0,0,.057-.542c-.039-.467-.352-.768-.941-.892-.126-.026-.252-.043-.379-.057a4.6,4.6,0,0,0-.514-.032,7.24,7.24,0,0,0-1.742.248,5.585,5.585,0,0,0-.93.347l-.316.143a.356.356,0,0,1-.049.013.36.36,0,0,1-.1.027c-.072,0-.119-.044-.157-.146-.066-.182-.124-.368-.2-.548a1.06,1.06,0,0,0-.191-.308.642.642,0,0,0-.491-.243.907.907,0,0,0-.425.119c-.056.029-.108.065-.162.1a5.27,5.27,0,0,0-.625.517c-.248.227-.453.5-.7.722a.6.6,0,0,1-.375.191c-.141,0-.267-.1-.406-.3-.151-.213-.266-.317-.394-.317s-.237.082-.4.24a.127.127,0,0,0-.022.021,1.579,1.579,0,0,1-.8.679,2.454,2.454,0,0,1-.751.141c-.087,0-.176.006-.265.006-.12,0-.241,0-.363-.007-.276-.009-.552-.056-.827-.056l-.087,0c-.138.006-.354.1-.384.2s.1.273.179.4a2.293,2.293,0,0,0,.211.267,1.335,1.335,0,0,1-.329.235,2.005,2.005,0,0,1-.484.05c-.134.009-.268.021-.4.038a1.975,1.975,0,0,0-.959.351,1.409,1.409,0,0,1,.262-1.755c.13-.1.361-.081.546-.112.049-.008.1-.014.151-.019a1.585,1.585,0,0,0,.371-.065c.479-.169.951-.357,1.423-.547a4.07,4.07,0,0,0,.8-.367.337.337,0,0,0,.04-.039.692.692,0,0,0,.208-.435.354.354,0,0,1,.309-.383c.121-.029.243-.055.365-.08s.255-.052.382-.083a.487.487,0,0,0,.392-.452c.052-.409.179-.564.579-.639.319-.059.647-.066.972-.1a8.914,8.914,0,0,0,1.09-.123,1.061,1.061,0,0,0,.3-.117.772.772,0,0,0,.319-.946,5.084,5.084,0,0,0-.2-.515.521.521,0,0,1,.267-.766c.064-.034.131-.06.2-.09.167-.074.338-.139.51-.2a5.092,5.092,0,0,0,.542-.221,2.8,2.8,0,0,0,.447-.263,2.187,2.187,0,0,0,.3-.26,1.31,1.31,0,0,0,.142-1.743c-.009-.012-.014-.026-.024-.039a2.592,2.592,0,0,0-.245-.272c-.314-.323-.311-.375-.059-.748a3.486,3.486,0,0,0,.346-.644.929.929,0,0,0-.027-.859,1.065,1.065,0,0,0-.339-.34.938.938,0,0,1-.475-.973.944.944,0,0,0-.134-.6.837.837,0,0,0-.721-.393.987.987,0,0,0-.192.019c-.053.01-.1.03-.157.043a5.667,5.667,0,0,0-.755.26l-.183.075a1.215,1.215,0,0,1-.46.11.781.781,0,0,1-.356-.088,3.185,3.185,0,0,0-.757-.235,1.739,1.739,0,0,0-.329-.041h-.017a.916.916,0,0,0-.847.586c-.055.1-.105.2-.157.3-.138.271-.27.545-.406.818-.1.2-.182.3-.286.3a.563.563,0,0,1-.311-.17c-.056-.047-.11-.085-.164-.123a1.244,1.244,0,0,0-.7-.269,1.077,1.077,0,0,0-.891.64,5.742,5.742,0,0,0-.884,3.44c.016.208-.048.281-.206.281h-.019c-.015,0-.029,0-.045,0-.172-.016-.344-.044-.517-.049h-.031a.66.66,0,0,0-.734.718,3.349,3.349,0,0,0,.191.919c.1.33.273.639.379.968.126.388.013.55-.382.629-.468.093-.608.266-.37.67a2.3,2.3,0,0,1-.247,2.415,4.353,4.353,0,0,0-.294.569,1.371,1.371,0,0,0,.005.448c.143-.007.286-.009.428-.024.111-.013.22-.044.33-.067a1.816,1.816,0,0,1,.061.348,1.106,1.106,0,0,1-.079.293c-.123.4-.247.792-.38,1.22a2.3,2.3,0,0,1-.172-.323c-.074-.212-.152-.423-.228-.635a9.814,9.814,0,0,1-.319-1.022,4.616,4.616,0,0,1-.049-1.12c0-.349.025-.683-.408-.816-.058-.017-.09-.146-.12-.228a2.457,2.457,0,0,1-.126-.931.693.693,0,0,1-.029-.166,4.881,4.881,0,0,0-.3-1.3.625.625,0,0,1-.138-.24,3.742,3.742,0,0,1-.09-.365l-.039,0a2.849,2.849,0,0,1-.162-.327,7.252,7.252,0,0,1-.249-4.449c.114-.407.017-.534-.369-.706a.414.414,0,0,1-.207-.263c-.072-.437-.157-.872-.234-1.308a10.494,10.494,0,0,1-.211-2.634.9.9,0,0,1,.671-.849,7.156,7.156,0,0,0,1.23-.583.432.432,0,0,1,.2-.071.27.27,0,0,1,.206.125c.08.1.147.176.207.242.131.144.227.218.321.218a.338.338,0,0,0,.212-.106,3.684,3.684,0,0,0,.336-.364,5.9,5.9,0,0,1,.725-.783,7.158,7.158,0,0,1,.953-.582c.023-.013.047-.024.072-.036a3.22,3.22,0,0,0,.417-.212c.37-.26.41-.417.21-.825-.1-.2-.048-.352.146-.368.118-.01.237-.016.357-.016a2.473,2.473,0,0,1,.566.059,4.524,4.524,0,0,0,1.022.182,1.416,1.416,0,0,0,.564-.111,1.246,1.246,0,0,0,.486-.345.689.689,0,0,0-.189-1.038c-.165-.126-.4-.209-.357-.479a.606.606,0,0,1,.554-.5c.583-.063,1.173-.08,1.76-.092h.034a3.939,3.939,0,0,1,.663.082,2.239,2.239,0,0,0,.372.031c.027,0,.055-.005.083-.006a2.583,2.583,0,0,0,.546-.077,2.764,2.764,0,0,0,1.988-1.776,2.287,2.287,0,0,0,.085-.631.769.769,0,0,0-.2-.541.906.906,0,0,0-.539-.236,2.464,2.464,0,0,1-.5-.184,2.092,2.092,0,0,1,.45-.294c.267-.088.536-.169.806-.248.249-.072.5-.141.75-.211a1.555,1.555,0,0,0,.2-.081l.991-1.172a3.085,3.085,0,0,0,.156-.747.722.722,0,0,0-.44-.71c-.693-.375-.773-.29-.471-1.2q.145-.436.257-.882a.782.782,0,0,0-.4-1.035c-.034-.022-.07-.043-.1-.064-.174-.1-.42-.167-.5-.318-.061-.116.109-.339.142-.52a1.49,1.49,0,0,0-.575-1.439,1.233,1.233,0,0,0-.719-.222h0a1.6,1.6,0,0,0-.353.041,1.879,1.879,0,0,0-.532.226.535.535,0,0,1-.268.085.439.439,0,0,1-.33-.174c-.054-.061-.108-.123-.16-.185a1.309,1.309,0,0,0-.772-.491,1.014,1.014,0,0,0-.166-.016,1.26,1.26,0,0,0-.933.483c-.04.045-.077.1-.115.143-.187.237-.312.352-.453.352-.123,0-.258-.087-.456-.256a.556.556,0,0,1-.044-.043,1.457,1.457,0,0,0-1.05-.536,1.607,1.607,0,0,0-1.34,1.046,8.546,8.546,0,0,0-.408,1.405c-.07.267-.144.387-.29.387a.759.759,0,0,1-.311-.1c-.32-.16-.644-.312-.955-.486a1.189,1.189,0,0,0-.579-.162,1.035,1.035,0,0,0-1,.986,3.87,3.87,0,0,0,.1,1.5c.218.75.573,1.461.86,2.191.132.337.242.683.362,1.025l-.08.082c-.144-.044-.292-.081-.433-.135a1.223,1.223,0,0,0-.417-.113.434.434,0,0,0-.3.119.64.64,0,0,0-.153.76c.15.389.349.758.529,1.135a1.048,1.048,0,0,1,.1.191c.039.171.063.345.093.519a3.075,3.075,0,0,1-.445-.12.642.642,0,0,0-.258-.057c-.3,0-.536.235-.594.627a.225.225,0,0,0,0,.092,4.826,4.826,0,0,1-.412,2.765c-.223.758-.453,1.516-.674,2.275-.05.171-.1.34-.15.511-.1.348-.117.682.318.869.2.084.158.262.005.4a1.957,1.957,0,0,1-1.1.474c-.088-.133-.166-.248-.238-.355s-.126-.191-.184-.285a1.572,1.572,0,0,1-.187-.382,20.207,20.207,0,0,1-.52-2.014,6.613,6.613,0,0,1,.024-1.362c.007-.153.069-.247.262-.265a.653.653,0,0,0,.577-.56,2.8,2.8,0,0,0,.062-.875,12.846,12.846,0,0,0-.232-1.326,3.36,3.36,0,0,1,.327-2.284,10.639,10.639,0,0,0,.542-1.264.925.925,0,0,0-.429-1.336c-.155-.108-.134-.215-.022-.325.195-.193.39-.389.6-.567a5.767,5.767,0,0,0,1.789-3.068c.245-.974-.31-1.605-1.319-1.622-.826-.014-1.065-.3-.891-1.118a2.594,2.594,0,0,1,.291-.7,4.285,4.285,0,0,0,.151-4.35c-.4-.741-.831-1.071-1.468-1.071a2.894,2.894,0,0,0-.788.129,7.2,7.2,0,0,1-.712.178.785.785,0,0,1-.134.012.509.509,0,0,1-.5-.365c-.191-.5-.374-.994-.563-1.49a1.39,1.39,0,0,0-.748-.81,1.249,1.249,0,0,0-.489-.093c-.042,0-.084,0-.125.006l-.068,0a.314.314,0,0,1-.328-.239c-.115-.292-.247-.577-.385-.9l-.643-.283c-.819.061-.989.609-1.1,1.215-.05.283-.1.371-.292.371a1.446,1.446,0,0,1-.2-.019c-.07-.011-.141-.021-.212-.03a2.023,2.023,0,0,0-.236-.016c-.47,0-.715.223-.809.757-.069.4-.072.81-.1,1.217-.042.544-.116.644-.6.644l-.112,0c-.112,0-.225,0-.337,0-.143,0-.285,0-.427.013a1.7,1.7,0,0,0-1.718,1.689,3.923,3.923,0,0,0,1.212,3.032,3.8,3.8,0,0,1,.434.51c.2.31.09.558-.268.642a3,3,0,0,1-.546.05,2.126,2.126,0,0,0-2,1.605,1.627,1.627,0,0,0,.676,1.666c.536.418,1.144.746,1.685,1.158a16.987,16.987,0,0,1,1.27,1.129c.182.17.131.329-.083.433-.184.088-.375.161-.562.245-.529.24-1.007.528-1.012,1.205a1.575,1.575,0,0,0,.983,1.525,7.644,7.644,0,0,0,1,.372,6.947,6.947,0,0,1,4.206,3.722c.225.443.331.949.573,1.38a3.4,3.4,0,0,0,.783.92,1.031,1.031,0,0,0,.662.271,1.183,1.183,0,0,0,.729-.3c.062-.05.126-.1.262-.2.037.413.055.77.106,1.123a5.122,5.122,0,0,0,.194.869,5.5,5.5,0,0,1,.346.8c.133.882.25,1.767.363,2.652q.092.721.182,1.441a.97.97,0,0,1-.07.316l-.1-.011c0-.08-.006-.16,0-.239a1.158,1.158,0,0,0-.338-.973,1.038,1.038,0,0,0-.712-.26h0a1.522,1.522,0,0,0-.318.035c-.169.036-.337.08-.505.125a.59.59,0,0,1-.151.022c-.152,0-.232-.09-.188-.3.1-.5.208-.992.344-1.48.106-.382.28-.745.389-1.128a1.383,1.383,0,0,0-.354-1.573,1.466,1.466,0,0,0-.96-.359,1.972,1.972,0,0,0-.795.184c-.184.081-.342.221-.519.32a.618.618,0,0,1-.29.091c-.181,0-.285-.148-.288-.43a4.045,4.045,0,0,1,.042-.456,3.192,3.192,0,0,0-.514-2.246,1.478,1.478,0,0,0-1.2-.722,1.7,1.7,0,0,0-.946.33c-.143.1-.278.208-.415.314a.679.679,0,0,1-.364.192c-.111,0-.21-.087-.371-.269-.174-.2-.336-.411-.523-.6a.959.959,0,0,0-.621-.363c-.189,0-.375.123-.608.372a.4.4,0,0,1-.276.163.371.371,0,0,1-.253-.14,1.717,1.717,0,0,0-.331-.268.83.83,0,0,0-.429-.138.634.634,0,0,0-.324.092.707.707,0,0,0-.382.683c.013.21.1.416.121.626a.4.4,0,0,1-.082.307,1.092,1.092,0,0,0-.455,1.324c.1.353.221.7.317,1.055a.467.467,0,0,1-.31.662c-.2.094-.419.163-.623.256a1.181,1.181,0,0,0-.806,1.328,3.365,3.365,0,0,0,2.186,2.928,2.323,2.323,0,0,1,.76.581c.242.278.167.536-.13.755a1.289,1.289,0,0,0-.647,1,4.838,4.838,0,0,0-.5-.315.666.666,0,0,0-.281-.076.5.5,0,0,0-.4.263,1.389,1.389,0,0,1-.124.174c-.08.082-.171.152-.257.228-.067-.116-.184-.227-.193-.347-.034-.405-.015-.815-.044-1.221a3.436,3.436,0,0,0-.139-.87.644.644,0,0,0-.585-.5.759.759,0,0,0-.55.284c-.1.113-.192.239-.294.352a.238.238,0,0,1-.16.1c-.063,0-.114-.057-.146-.166a3.069,3.069,0,0,1-.117-.537c-.067-.649-.123-1.3-.181-1.949a5.267,5.267,0,0,0-.666-2.428,2.627,2.627,0,0,0-.783-.786,1.044,1.044,0,0,0-.562-.174,1.078,1.078,0,0,0-.849.463c-.305.395-.573.817-.866,1.222-.125.172-.216.256-.316.256s-.192-.072-.334-.212a19.133,19.133,0,0,0-1.38-1.33,2.077,2.077,0,0,0-.931-.348,1.577,1.577,0,0,0-.265-.024,1.248,1.248,0,0,0-1.177.841c-.092.215-.158.442-.253.657-.114.258-.232.38-.41.38a.806.806,0,0,1-.337-.1,2.078,2.078,0,0,0-.911-.224,1.887,1.887,0,0,0-.454.056.984.984,0,0,0-.78.806c-.194.868-.2.871-1.048.968a1.9,1.9,0,0,0-1.157.619l-.249.56a8.71,8.71,0,0,0,.111.929.969.969,0,0,0,.545.7c.21.1.213.241.086.421a5.11,5.11,0,0,0-.375.594.808.808,0,0,0,.151,1.133c.345.374.716.724,1.076,1.084.337.337.35.47.084.875-.039.059-.088.113-.127.172a.978.978,0,0,0,.085,1.385,2.509,2.509,0,0,0,1.9,1.007,2.473,2.473,0,0,0,.671-.1c.491-.138.992-.236,1.49-.348a1.555,1.555,0,0,1,.339-.052h.023c.08,0,.215.05.223.1a.357.357,0,0,1-.082.266,1.42,1.42,0,0,1-.3.211.817.817,0,0,0-.34,1.159,2.485,2.485,0,0,0,2.046,1.367,3.863,3.863,0,0,0,.495.032,3.363,3.363,0,0,0,2.064-.7,12.728,12.728,0,0,1,1.954-1.126,1.375,1.375,0,0,1,.6-.113c.09,0,.179,0,.263.012.347.032.471.306.341.63-.038.095-.092.183-.131.277a.847.847,0,0,0,.811,1.222h0a1.973,1.973,0,0,0,1.334-.535c.243-.217.456-.472.716-.665a2.257,2.257,0,0,1,.676-.322.35.35,0,0,1,.1-.016c.137,0,.221.1.23.293.027.539.172.683.719.737.079.008.163.018.243.018a.643.643,0,0,0,.181-.023,2.17,2.17,0,0,1,.616-.088,4.521,4.521,0,0,1,1.473.331c.309.107.609.236.92.34a.772.772,0,0,0,.238.045c.2,0,.317-.135.364-.414.094-.549.107-.593.518-.593h.243a11.578,11.578,0,0,0,1.465-.186,1.169,1.169,0,0,1,.148-.014.265.265,0,0,1,.106.019c.494.218.977.463,1.475.671a4.686,4.686,0,0,1,1.09.634,4.267,4.267,0,0,1,.763.771c.426.559.891,1.088,1.316,1.647a.089.089,0,0,1,.005.011,1.849,1.849,0,0,1,.145.48.512.512,0,0,0,.113.234,5.614,5.614,0,0,0,.7.535,9.057,9.057,0,0,1,1.645,1.508c-.526-.057-1.081-.121-1.639-.176a.272.272,0,0,1-.276-.3c0-.173.011-.347,0-.519-.015-.311-.15-.456-.433-.457-.025,0-.052,0-.079,0a1.653,1.653,0,0,0-.18.027c-.1.02-.2.045-.3.064a13.589,13.589,0,0,1-1.6.276c-.039,0-.077,0-.116,0s-.049,0-.073,0a9.6,9.6,0,0,1-1.037-.149,5.946,5.946,0,0,0-.659-.113l-.1,0c-.5,0-.636.146-.747.684-.037.179-.121.3-.257.3a.341.341,0,0,1-.151-.041,2.735,2.735,0,0,1-.7-.466,8.681,8.681,0,0,1-.608-.765,2.244,2.244,0,0,0-1.411-.846,1.164,1.164,0,0,0-.195-.016.906.906,0,0,0-.887,1.209c.019.069.041.137.061.205.144.484-.041.768-.5.768-.037,0-.077,0-.118-.006a2.617,2.617,0,0,1-1.394-.655c-.656-.531-1.277-1.106-1.921-1.653a3.36,3.36,0,0,0-2.048-.609,2.964,2.964,0,0,0-1.961.64,3.09,3.09,0,0,0-.388.387.966.966,0,0,0,.152,1.5c.164.141.43.289.28.529-.022.035-.093.05-.182.05a1.374,1.374,0,0,1-.4-.066c-.676-.23-1.332-.517-2.011-.738a2.04,2.04,0,0,0-.635-.1,2.808,2.808,0,0,0-2.276,1.189.9.9,0,0,0-.056.852c.076.189.177.367.26.554.166.371.13.52-.189.763-.447.339-.908.66-1.347,1.009-.6.476-.661.782-.35,1.49.021.047.043.093.062.14.082.2.255.415.215.583-.035.145-.325.217-.48.349a1.786,1.786,0,0,0-.578.877,1.954,1.954,0,0,0-.068.641,1.521,1.521,0,0,0,.906,1.355,2.913,2.913,0,0,0,.849.231.71.71,0,0,1,.225.067.5.5,0,0,1,.271.419c.018.131.023.264.029.4a1.379,1.379,0,0,0,1.424,1.438,2.078,2.078,0,0,0,.373-.035c.16-.03.316-.083.474-.125a1.042,1.042,0,0,1,.275-.044" transform="translate(-114.812 -87.868)" fill="#fff"/>
      <path id="Path_254" data-name="Path 254" d="M629.442,419.136c.031,0,.066,0,.108-.005.5-.056.6-.428.626-.786a.8.8,0,0,0-.157-.63.491.491,0,0,0-.372-.158,1.315,1.315,0,0,0-.575.166c-.3.168-.372.242-.372.54a.747.747,0,0,0,.263.575c.162.19.255.3.48.3" transform="translate(-505.774 -335.916)" fill="#fff"/>
    </g>
  </g>
  <path id="Path_255" data-name="Path 255" d="M515.687,379.342l.021-.011-.021-.013Z" transform="translate(-414.859 -305.153)" fill="#fff"/>
  <g id="Group_54" data-name="Group 54">
    <g id="Group_53" data-name="Group 53" clip-path="url(#clip-path)">
      <path id="Path_256" data-name="Path 256" d="M514.865,382.679c-.017,0-.035,0-.052.006a.158.158,0,0,0,0,.027l.052,0,0-.029" transform="translate(-414.155 -307.857)" fill="#fff"/>
      <path id="Path_257" data-name="Path 257" d="M388.541,391.483h-.827a2.46,2.46,0,0,0,.454.045,2.266,2.266,0,0,0,.373-.045" transform="translate(-311.907 -314.939)" fill="#fff"/>
      <path id="Path_258" data-name="Path 258" d="M414.129,391.483H354.938a2.265,2.265,0,0,1-.373.045,2.455,2.455,0,0,1-.454-.045h-8.167c.05.077.1.154.151.229l.019.027.017.029.014.024a4.824,4.824,0,0,1,.3.516,2.865,2.865,0,0,0,.172.3l.042.06.032.066a.4.4,0,0,0,.091.135l.032.016.031.019h0c.088.042.168.086.245.13h67.043a.778.778,0,0,0,0-1.556" transform="translate(-278.303 -314.939)" fill="#fff"/>
      <path id="Path_259" data-name="Path 259" d="M570.489,184.008c.346.6.717,1.186,1.074,1.78.166.277.311.568.492.834a5.032,5.032,0,0,0,.847,1.119c.3.243.551.526.844.768.141.116.22.4.469.123.024-.027.162.032.235.073.1.058.185.151.289.2.132.063.238-.017.24-.223-.078-.158-.172-.373-.287-.577-.652-1.157-1.3-2.316-1.967-3.467-.937-1.625-1.9-3.238-2.821-4.87a4.365,4.365,0,0,0-.9-1.138c-.246-.218-.425-.225-.644.015-.129.142-.225.31-.435.357-.026.006-.059.131-.038.179a12.136,12.136,0,0,0,.524,1.167c.68,1.226,1.376,2.442,2.077,3.656" transform="translate(-456.848 -143.574)" fill="#fff"/>
      <path id="Path_260" data-name="Path 260" d="M521.142,122.491a.773.773,0,0,0,.062.547c.55,1.062,1.093,2.127,1.641,3.189.169.327.346.65.521.974.238.442.471.887.721,1.321.076.133.225.347.3.332.227-.043.255.13.329.228.3.395.446.9.9,1.176a.2.2,0,0,1,.05.072c.169.29.336.581.505.871a1.022,1.022,0,0,0,.464.511c.089.037.126.2.187.3l-.1.048.1.261c.116-.107.226-.007.339.01a2.058,2.058,0,0,0-.053-.325,2.293,2.293,0,0,0-.152-.32c-.245-.487-.5-.97-.735-1.462-.425-.89-.817-1.8-1.261-2.677-.558-1.105-1.148-2.194-1.736-3.284-.5-.933-1.02-1.86-1.54-2.784-.1-.173-.208-.423-.457-.333s-.106.327-.1.509a3.636,3.636,0,0,1,.007.833" transform="translate(-419.205 -97.447)" fill="#fff"/>
      <path id="Path_261" data-name="Path 261" d="M504.055,181.689c-.1-.2-.211-.406-.31-.619a49.8,49.8,0,0,0-2.748-5.1c-1.113-1.81-2.214-3.627-3.28-5.465-.762-1.314-1.461-2.665-2.182-4-.161-.3-.293-.613-.449-.914-.035-.067-.116-.111-.176-.166a1.375,1.375,0,0,0,.018.213,6.807,6.807,0,0,0,.734,1.841c.139.241.264.491.381.744.023.049-.015.127-.025.192a.519.519,0,0,1-.119-.1c-.119-.2-.23-.412-.347-.617a.551.551,0,0,0-.087-.093,1,1,0,0,0-.094.123c-.154.282.07.5.129.745.047.192.167.24.344.18-.006.149-.064.322-.008.442.179.387.4.755.6,1.129.085.155.173.309.262.462s.195.33.292.495.178.306.272.456a3.45,3.45,0,0,0,.318.478c.1.112.043.4.332.313a3.012,3.012,0,0,0,.158.521c.089.178.164.378.451.37.109,0,.224.181.144.36-.024.053-.086.164.058.136.2-.039.185.062.151.2-.083.328-.081.328.209.5a.461.461,0,0,1,.107.064,8.831,8.831,0,0,1,.768,1.055c.084.126.132.5.458.233.021-.017.156.061.2.122.4.618.816,1.228,1.181,1.867.467.818.89,1.66,1.332,2.492.249.469.5.938.749,1.406.018.034.066.052.1.078l.075-.135" transform="translate(-398.144 -133.077)" fill="#fff"/>
      <path id="Path_262" data-name="Path 262" d="M538.2,222.143a.443.443,0,0,0-.121-.072.329.329,0,0,0,0,.127c.149.32.283.651.461.954.419.713.858,1.413,1.3,2.115a.922.922,0,0,0,.294.32c.058.033.19-.078.293-.107.053-.015.12.024.173.011a.557.557,0,0,0,.436-.447.934.934,0,0,0-.05-.212,10.753,10.753,0,0,0-.624-1.217c-.695-1.044-1.406-2.077-2.02-3.172q-1.43-2.548-2.848-5.1a7.12,7.12,0,0,0-1.29-1.73.521.521,0,0,0-.182-.069.565.565,0,0,0-.023.2c.018.067.082.12.121.183.217.35.438.7.646,1.051.187.317.343.652.54.962a18.438,18.438,0,0,1,1.839,3.42.825.825,0,0,0,.174.306,1.964,1.964,0,0,1,.393.877c.058.165.089.342.159.5.149.336.334.658.468,1,.057.147.3.246.148.46-.1-.122-.187-.246-.287-.364" transform="translate(-429.583 -171.791)" fill="#fff"/>
      <path id="Path_263" data-name="Path 263" d="M479.377,159.975c-.109-.139-.227-.272-.326-.419q-1.272-1.892-2.539-3.788a.632.632,0,0,0-.079-.106c-.109-.106-.225-.076-.239.081-.017.192-.058.379-.25.428-.259.066-.207.2-.128.36a2.33,2.33,0,0,0,.149.272q1.129,1.673,2.263,3.342a15.423,15.423,0,0,1,1.612,2.586c.06.141.177.321.3.356.311.086.391.344.519.567.11.191.185.4.281.6.068.141.074.138.324.162a.163.163,0,0,1,.1.068c.07.095.129.2.2.292a.378.378,0,0,0,.1.068l.051-.117a2.549,2.549,0,0,0-.082-.256c-.279-.633-.543-1.274-.847-1.9a14.129,14.129,0,0,0-1.407-2.6" transform="translate(-382.732 -125.176)" fill="#fff"/>
      <path id="Path_264" data-name="Path 264" d="M543.079,132.515a.339.339,0,0,0,.037.252c.286.5.582.991.879,1.483.029.048.087.115.129.113.352-.01.442.279.606.5.195.258.4.506.62.746.372.412.754.814,1.135,1.218a.125.125,0,0,0,.11.035c.029-.016.035-.072.051-.11-.026-.12-.044-.238-.077-.35a6.562,6.562,0,0,0-.762-1.637c-.717-1.15-1.428-2.3-2.147-3.451a5.554,5.554,0,0,0-.419-.569.2.2,0,0,0-.173.006c-.12.279-.288.544-.116.878a1.062,1.062,0,0,1,.126.893" transform="translate(-436.734 -105.162)" fill="#fff"/>
      <path id="Path_265" data-name="Path 265" d="M552.013,185.261a1.007,1.007,0,0,0-.241-.311.307.307,0,0,0-.439-.029.286.286,0,0,0-.127.384,7.584,7.584,0,0,0,.714,1.37,7.82,7.82,0,0,1,.843,1.492c.137.292.3.574.453.856.18.323.379.635.553.961.383.715.739,1.444,1.136,2.15.376.669.782,1.321,1.191,1.97.211.335.456.648.688.969.015.021.049.029.074.042l.034-.072c-.01-.028-.017-.057-.029-.083-.305-.665-.589-1.341-.921-1.993-.6-1.17-1.216-2.326-1.833-3.485-.36-.676-.773-1.327-1.087-2.024-.331-.734-.747-1.429-1.009-2.2" transform="translate(-443.407 -148.703)" fill="#fff"/>
      <path id="Path_266" data-name="Path 266" d="M519.787,225.416c-.308-.487-.585-.995-.908-1.472s-.663-.9-1-1.343c-.024-.031-.075-.041-.114-.061,0,.053-.023.114,0,.157.225.482.455.961.686,1.441a.864.864,0,0,0,.077.108c.31.448.628.89.926,1.344.365.556.71,1.125,1.069,1.684q.491.765,1,1.52c.18.271.368.536.56.8a.247.247,0,0,0,.153.059c.011,0,.033-.07.066-.145-.125-.247-.239-.521-.394-.768-.7-1.112-1.413-2.214-2.115-3.323" transform="translate(-416.521 -179.028)" fill="#fff"/>
      <path id="Path_267" data-name="Path 267" d="M462.74,244.211c-.013.117-.013.236-.02.354-.039.647-.09,1.294-.114,1.942-.015.413.017.827.015,1.241s-.078.515-.464.561a5.255,5.255,0,0,0-1.394.227.2.2,0,0,1-.3-.165,6.772,6.772,0,0,1-.18-1.13c0-.739.05-1.478.1-2.216.066-.975.153-1.948.228-2.922.036-.469.057-.5.519-.538s.916-.071,1.374-.1c.289-.018.352.043.353.313,0,.31,0,.621,0,.931l.051,0c-.056.5-.112,1-.166,1.5m1.408-4.089a1.092,1.092,0,0,0-.468-.107c-.547-.013-1.095,0-1.642,0v.013c-.341,0-.682.01-1.022,0a5.19,5.19,0,0,0-1.442.19,2.659,2.659,0,0,0-.569.244.309.309,0,0,0-.152.333,12.492,12.492,0,0,1,0,1.417q-.167,2.348-.229,4.7a4.011,4.011,0,0,0,.507,2.036c.105.2.242.431.489.4.384-.054.522.171.664.443.25.482.376.533.87.379a4.563,4.563,0,0,1,1.432-.272,1.013,1.013,0,0,0,.368-.124c.3-.125.316-.444.463-.675a4.117,4.117,0,0,0,.6-2.06q.08-1.552.2-3.1.118-1.593.27-3.184a.576.576,0,0,0-.33-.618" transform="translate(-368.951 -193.081)" fill="#fff"/>
      <path id="Path_268" data-name="Path 268" d="M468.315,300.815c-.006-.577-.023-1.165-.061-1.72-.086-1.263-.4-2.35-.636-2.307-.423.076-.846,1.754-.826,3.43.038,3.241.1,6.477.147,9.716a2.9,2.9,0,0,0,.3,1.533c.273.412.545.835.815,1.281.238.392.319.247.342-.807.018-.805,0-1.622,0-2.434l-.015,0q-.036-4.347-.074-8.694" transform="translate(-375.523 -238.758)" fill="#fff"/>
      <path id="Path_269" data-name="Path 269" d="M416.638,300.006a7.85,7.85,0,0,0-.061-.878c-.086-.645-.4-1.2-.636-1.178-.423.039-.846.9-.826,1.751.038,1.654.1,3.307.147,4.961a.937.937,0,0,0,.3.782c.273.211.545.427.815.654.238.2.319.126.342-.412.018-.411,0-.828,0-1.243h-.015c-.024-1.479-.045-2.959-.073-4.439" transform="translate(-333.95 -239.694)" fill="#fff"/>
      <path id="Path_270" data-name="Path 270" d="M349.233,138.542a3.8,3.8,0,0,0,.69,1.418.22.22,0,0,0,.176.09.224.224,0,0,0,.124-.16c.065-.483.144-.966.168-1.451s0,.489,0,0c.009-.992.2-.643.2-1.635a2.917,2.917,0,0,0-.133-.784.363.363,0,0,0-.452-.307c-.077.018-.155.03-.232.045.049-.07.093-.144.147-.209a.957.957,0,0,1,.132-.119l2.013-1.675a.826.826,0,0,1,.143-.1c.075-.039.156-.066.234-.1a2.018,2.018,0,0,1,.034.242c.011.459,0,.918.029,1.375.068.974.152,1.948.243,2.92.043.456.107.91.182,1.362.048.29.14.571.2.859.1.49.2.982.3,1.471.01.048.059.088.09.131.03-.028.074-.05.089-.084a3.215,3.215,0,0,0,.286-.694,9.629,9.629,0,0,0,.212-2.338,44.733,44.733,0,0,1-.072-5.728,1.18,1.18,0,0,0-.035-.4.6.6,0,0,1,.218-.668c.579-.529,1.146-1.071,1.718-1.608a.662.662,0,0,1,.1-.084c.122-.074.246-.144.369-.215-.036.132-.072.264-.11.4-.012.043-.018.1-.047.123a1.35,1.35,0,0,0-.394,1.168c-.008.661-.169,1.318-.238,1.98-.048.456-.017.921-.079,1.374a18.883,18.883,0,0,0-.1,3.327c.045,1.109.094,2.218.126,3.327.021.693.046,1.386.048,2.08a55.6,55.6,0,0,0,.514,6.852c.052.225.187.276.371.309a.271.271,0,0,0,.349-.248,4.927,4.927,0,0,0,.116-.918c-.027-1.185-.108-5.457-.121-6.641-.024-2.267-.047-4.535-.006-6.8.023-1.241.181-2.48.274-3.72a9.182,9.182,0,0,0,.057-1.107,5.33,5.33,0,0,0-.179-1.534.571.571,0,0,1,.232-.8c.085-.058.152-.141.231-.208.4-.335.79-.671,1.193-1,.056-.046.157-.037.237-.053a1.182,1.182,0,0,1-.008.207c-.159.766-.338,1.528-.481,2.3a4.834,4.834,0,0,0,.254,3.047c.1.212.192.431-.091.619-.074.049-.068.245-.07.373-.007.474.014.948,0,1.422a33.289,33.289,0,0,0,.108,4.482,3.375,3.375,0,0,1-.09.962.99.99,0,0,0,.063.77,1.307,1.307,0,0,1,.1.292c.087.274.205.359.487.309a1.1,1.1,0,0,0,.84-.714,2.685,2.685,0,0,0,.211-1.125c-.009-.622-.024-1.244-.025-1.867q0-1.511.014-3.023c0-.333.034-.362.355-.362s.652.009.977.035c.468.037.472.047.457.507-.035,1.036-.078,2.072-.108,3.107a2.191,2.191,0,0,0,.049.793c.2.549.189,1.132.335,1.688.08.306-.008.409-.31.467-.407.078-.818.133-1.225.212a1.977,1.977,0,0,0-.547.166,5.889,5.889,0,0,0-.61.42l.248.563.035.082c.19.436.309.526.786.438.668-.124,1.33-.282,1.991-.443a2.457,2.457,0,0,0,.616-.245.8.8,0,0,0,.377-.952,2.7,2.7,0,0,1-.059-.519c-.011-.237.01-.475-.011-.711a24.859,24.859,0,0,1,0-3.863c.027-.4.085-.792.147-1.186.046-.292.132-.577.181-.868.145-.843-.28-1.308-1.115-1.228a3.5,3.5,0,0,1-.7.076c-.631-.072-1.257-.191-1.886-.279a.385.385,0,0,1-.371-.36,7.389,7.389,0,0,1-.076-2.651c.121-.759.27-1.514.385-2.275a9.171,9.171,0,0,0,.089-1.149.626.626,0,0,0-.131-.405c-.181-.2-.121-.336.035-.492.585-.587,1.168-1.176,1.754-1.762a1.12,1.12,0,0,1,.216-.155,1.037,1.037,0,0,1,.159-.064.616.616,0,0,1,.005.163c-.084.345-.2.685-.257,1.033-.1.582-.2,1.168-.241,1.757-.063.826-.09,1.655-.111,2.483a15.532,15.532,0,0,0,.343,2.626c.013.088.1.166.151.248.071-.065.186-.118.206-.2a8.29,8.29,0,0,0,.262-1.209c.108-1.045.166-2.1.268-3.142.065-.662.19-1.319.26-1.98a12.967,12.967,0,0,0,.079-1.46c0-.415-.158-.511-.6-.463a.711.711,0,0,1-.167-.021c.019-.063.018-.146.059-.185.256-.247.524-.48.781-.726.567-.542,1.128-1.09,1.7-1.631.044-.042.141-.082.182-.061a.256.256,0,0,1,.088.18,1.247,1.247,0,0,1-.026.219c-.044.782-.119,1.564-.122,2.346,0,.932.052,1.864.086,2.8.018.474.02.95.076,1.419a8.6,8.6,0,0,1,.132,1.712,17.183,17.183,0,0,0,.054,1.728c.01.427.014.856-.009,1.282-.019.365-.113.728-.116,1.093-.007.769.036,1.538.032,2.307,0,.383-.066.764-.092,1.147-.014.2-.006.407-.008.611,0,.1,0,.205,0,.308-.021.6-.044,1.209-.063,1.814a.811.811,0,0,0,.179.572,1.25,1.25,0,0,1,.153.544.269.269,0,0,1-.072.187c-.347-.031-.252.17-.2.361.094.378.092.39-.308.455a.759.759,0,0,0-.691.6c-.06.473-.012,16.567.047,17.045.022.181.041.24-.027.265a1.794,1.794,0,0,1,.27.445c.1.027.194.129.209.362.425.122.541-.039.043.349a2.738,2.738,0,0,1,1.075-.528.43.43,0,0,0,.01-.048c.037-.546.079-16.692.1-17.239.057-1.436.092-2.872.161-4.307.084-1.746.159-3.494.3-5.236.168-2.044.09-4.087.063-6.131-.019-1.436-.109-2.871-.141-4.306-.025-1.081,0-2.162-.014-3.243a.771.771,0,0,1,.307-.611c.29-.254.583-.5.872-.757.2-.176.394-.359.592-.537.129-.116.236-.1.319.056.028.052.071.1.1.15.352.781.707,1.561,1.047,2.347a.788.788,0,0,1,.036.391c-.072.588-.176,1.172-.236,1.76a23.2,23.2,0,0,0-.242,3.586q.066,1.263.122,2.527a4.14,4.14,0,0,0,.251,1.523,1.032,1.032,0,0,1,.032.262c.033.231.065.462.105.691.005.03.052.056.084.074.006,0,.046-.035.056-.059a1.835,1.835,0,0,0,.089-.25,17.246,17.246,0,0,0,.4-2.943c.083-1.2.14-2.395.222-3.591.03-.442.1-.882.157-1.321.01-.074.082-.139.125-.208a.716.716,0,0,1,.162.135c.217.336.428.675.638,1.015.561.906,1.126,1.81,1.68,2.721.147.241.124.27-.15.36-.545.18-.655.35-.647.935.008.562.014,1.126-.01,1.687-.017.412-.078.823-.13,1.234a4.95,4.95,0,0,0,.25,1.336c.028.2.192.233.378.19.315-.073.406-.348.479-.59a8.709,8.709,0,0,0,.418-2.08c.019-.369.084-.735.139-1.1a.807.807,0,0,1,.115-.224,1.076,1.076,0,0,1,.195.191c.388.646.77,1.3,1.153,1.946.263.445.535.886.784,1.339.224.408.176.5-.258.623a.624.624,0,0,0-.551.732c0,.295-.013.59-.023.884-.016.444-.041.888-.05,1.332-.034,1.6-.057,3.2-.1,4.8a11.186,11.186,0,0,0-.035,1.993,3.13,3.13,0,0,1,.07.7,8.854,8.854,0,0,1-.323,1.894,8.169,8.169,0,0,0-.159,2.158c-.007.189.2.427-.135.537-.023.007-.034.081-.033.124.014.531,0,1.066.06,1.592a1.428,1.428,0,0,1-.038.825.942.942,0,0,0,.312,1.3,1.22,1.22,0,0,1,.269,1.4c-.012.039-.052.069-.079.1-.033-.04-.1-.083-.093-.121a.442.442,0,0,0-.165-.4,1.548,1.548,0,0,1,.026.3,1.491,1.491,0,0,1-.155.723c0,.007,0,.015,0,.022,0,.069.006.139.006.208a5.7,5.7,0,0,1-.083.71,2.01,2.01,0,0,1-.083.2,1.339,1.339,0,0,0,.454.762c.065.054.09.152.146.22a.294.294,0,0,0,.137.086c.013,0,.062-.062.07-.1a5.02,5.02,0,0,0,.169-.822c.073-1.345.123-2.692.183-4.038.015-.34.023-.681.057-1.02.083-.839.19-1.676.265-2.515.1-1.075.17-2.152.253-3.228,0-.015,0-.029.006-.044.1-1,.226-2,.285-3,.085-1.448.131-2.9.173-4.35.025-.859.01-1.718.017-2.578a2.19,2.19,0,0,1,.038-.4c.008-.045.067-.09.114-.112.02-.009.074.036.1.067a.658.658,0,0,1,.058.119q1.121,2.19,2.244,4.379c.094.184.206.359.3.544a.57.57,0,0,1,.02.2,1.372,1.372,0,0,1-.207,0c-.041-.006-.077-.043-.118-.06a.718.718,0,0,0-1.043.68c-.014.577-.033,1.155-.047,1.732-.013.532-.034,1.065-.029,1.6,0,.265.076.529.084.794.026.932.048,1.865.051,2.8,0,.961-.019,1.922-.031,2.883a.429.429,0,0,1-.016.176,2.233,2.233,0,0,0-.1,1.048c0,.515,0,1.031-.015,1.545a7.609,7.609,0,0,1-.112,1.592,6.209,6.209,0,0,0-.108,1.4c-.019.681-.045,1.361-.046,2.042,0,1.006-.065,4.66.314,5.625a.944.944,0,0,0,.761.7.465.465,0,0,0,.59-.474,2.714,2.714,0,0,0-.063-.661,8.465,8.465,0,0,1-.276-2.329c.045-1.435.209-5.52.288-6.954.075-1.375.17-2.749.235-4.124.123-2.6-.032-5.215.183-7.817.026-.31.035-.622.071-.93a.855.855,0,0,1,.13-.258.984.984,0,0,1,.246.162,2.522,2.522,0,0,1,.232.378c.267.478.536.954.8,1.435.507.936,1.017,1.87,1.509,2.813a26.218,26.218,0,0,0,1.645,3.039c.159.226.12.328-.139.427a6.16,6.16,0,0,0-.613.25.5.5,0,0,0-.259.657,1.752,1.752,0,0,1,.072.477c0,.741-.021,1.482,0,2.223a24.764,24.764,0,0,1-.256,3.541,28.606,28.606,0,0,0-.3,3.629c.006.785.009,1.571.032,2.356.014.458.066.915.1,1.373h1.86c.035-.055.073-.11.112-.162a15.946,15.946,0,0,0,1.377-1.893,8.973,8.973,0,0,1,.569-.9c.743-1.031,1.489-2.059,2.249-3.077.8-1.066,1.58-2.142,2.421-3.172q1.459-1.786,3.014-3.492c1.207-1.323,2.459-2.605,3.7-3.9.748-.78,1.523-1.535,2.261-2.324.342-.366.627-.785.934-1.182.021-.028.013-.079.019-.119-.04,0-.088-.006-.118.013-.268.175-.495.438-.864.392a.1.1,0,0,0-.073.044,1.134,1.134,0,0,1-.84.582c-.052.011-.1.068-.14.107-.141.122-.257.307-.494.158-.031-.019-.134.045-.183.092-.223.214-.438.436-.656.655-.348.35-.821.582-1.023,1.072,0,.008-.029.006-.041.013a8.687,8.687,0,0,0-1.458,1.343,7.793,7.793,0,0,0-.585.6c-.155.192-.246.436-.408.621-.233.267-.517.488-.753.752-.254.283-.479.593-.717.892a.889.889,0,0,1-.168.2,5.564,5.564,0,0,0-1.263,1.353c-.185.243-.322.523-.493.778a1.466,1.466,0,0,1-.352.429.509.509,0,0,0-.279.41c-.01.094-.129.251-.2.252-.311,0-.387.219-.469.444a4.511,4.511,0,0,1-.189.493c-.042.083-.153.21-.2.2-.24-.056-.31.115-.41.255-.138.191-.264.392-.412.575-.529.652-1.074,1.292-1.595,1.95-.265.335-.492.7-.738,1.052-.221.315-.451.623-.665.942a7.87,7.87,0,0,0-.931,1.61c-.029.079-.147.125-.224.186a1.059,1.059,0,0,1-.087-.236,11.764,11.764,0,0,1,.051-2.837.464.464,0,0,1,.3-.385,2.167,2.167,0,0,0,.682-.538c.717-.883,1.393-1.8,2.11-2.682.792-.975,1.594-1.944,2.427-2.884,1.512-1.7,3.117-3.322,4.785-4.875.974-.907,1.979-1.783,2.993-2.647.81-.69,1.66-1.332,2.481-2.01.616-.509,1.23-1.022,1.814-1.567a3.373,3.373,0,0,0,1.021-1.685.743.743,0,0,0-.049-.277c-.091.029-.21.032-.269.093-.142.148-.253.326-.384.485a1.727,1.727,0,0,1-.271.282c-.386.3-.774.59-1.171.87a1.851,1.851,0,0,1-.714.408c-.245.03-.343.076-.444.3a.863.863,0,0,1-.716.585.8.8,0,0,0-.506.2c-.13.1-.327.2-.348.327-.042.255-.279.076-.348.213-.031.061-.1.113-.1.174-.039.319-.113.467-.354.469a.715.715,0,0,0-.738.621.367.367,0,0,1-.421.311.468.468,0,0,0-.463.2,3.637,3.637,0,0,1-.315.461c-.135.119-.353.141-.494.256-.368.3-.715.62-1.069.935-.107.1-.26.174-.152.364,0,.007-.062.078-.093.076-.346-.017-.487.229-.587.487-.06.155-.073.363-.28.324-.238-.045-.055.335-.306.254-.063-.02-.18.076-.252.142a50.412,50.412,0,0,0-4.107,4.47c-.525.614-1.054,1.225-1.58,1.838-.318.37-.637.74-.951,1.113-.181.215-.348.442-.533.654a.762.762,0,0,1-.223.123,1.02,1.02,0,0,1-.059-.281c.027-.353.077-.7.107-1.055.054-.634.1-1.269.151-1.9a.372.372,0,0,1,.02-.131c.025-.049.061-.114.1-.126s.108.041.129.083a2.216,2.216,0,0,1,.172.409.278.278,0,0,0,.37.221.852.852,0,0,0,.4-.228c.272-.31.508-.652.768-.973.568-.7,1.13-1.406,1.72-2.088.454-.525.948-1.016,1.424-1.522.1-.108.2-.217.3-.323,1.183-1.221,2.389-2.422,3.545-3.669,1.117-1.2,2.186-2.453,3.269-3.688a15.275,15.275,0,0,0,1.84-2.659,1.229,1.229,0,0,1,.784-.676c.25-.053.288-.21.318-.411.022-.148-.053-.207-.171-.175a5.992,5.992,0,0,0-.75.257c-.188.08-.344.223-.573.075-.057-.037-.222.039-.3.1a8.624,8.624,0,0,0-1.76,1.922c-.487.715-1.12,1.3-1.622,1.992a11.955,11.955,0,0,1-1.218,1.351c-.652.662-1.35,1.28-1.978,1.963a4.985,4.985,0,0,1-1.023,1.009c-.022.013-.027.053-.046.075-.175.2-.345.4-.53.591-.216.222-.453.423-.667.646-.367.383-.726.774-1.085,1.165-.731.793-1.477,1.573-2.182,2.388-.375.433-.675.931-1.012,1.4a.224.224,0,0,1-.134.076c-.02,0-.065-.058-.074-.1a.993.993,0,0,1-.023-.22c-.006-.5-.013-1.008-.012-1.511a1.2,1.2,0,0,1,.053-.25,1.265,1.265,0,0,1,.263.1c.319.215.471.207.732-.063.041-.042.072-.095.114-.136.4-.393.415-.51.116-.982-.134-.212-.3-.405-.433-.617s-.1-.294.151-.3a1.193,1.193,0,0,0,.922-.442q1.3-1.483,2.618-2.956,1.915-2.157,3.83-4.313c.637-.72,1.258-1.455,1.891-2.178.575-.657,1.159-1.306,1.735-1.962.93-1.06,1.991-1.985,3.017-2.946a.662.662,0,0,0,0-1.1,3.591,3.591,0,0,1-.859-1.064,2.274,2.274,0,0,0-.369-.551,7.578,7.578,0,0,1-.975-1.526q-1.406-2.616-2.775-5.252c-.638-1.232-1.231-2.488-1.863-3.723-.356-.7-.746-1.375-1.132-2.055a1.236,1.236,0,0,0-.3-.314c-.044-.037-.13-.024-.2-.034a.579.579,0,0,0,.012.205c.279.6.546,1.209.856,1.793a9.809,9.809,0,0,1,.87,1.829,4.653,4.653,0,0,0,.207.629c.308.678.633,1.349.947,2.026a4.64,4.64,0,0,1,.191.5.434.434,0,0,1-.015.165c-.049-.017-.1-.03-.147-.051s-.1-.05-.146-.075a.5.5,0,0,0,0,.2,6.555,6.555,0,0,1,.33.677,18.965,18.965,0,0,0,1.585,3.26.642.642,0,0,0,.071.112c.015.018.046.022.07.032.007-.027.026-.059.018-.081-.062-.166-.121-.333-.2-.493-.145-.308-.3-.609-.447-.917-.016-.034.025-.1.039-.144a.371.371,0,0,1,.1.075c.214.336.45.662.632,1.015a6.087,6.087,0,0,0,1.785,2c.141.108.252.165.161.374-.03.069.067.212.132.3.1.142.245.258.346.4a.319.319,0,0,1-.059.5,4.445,4.445,0,0,0-.37.381c-.6.575-1.223,1.121-1.784,1.727-1.106,1.193-2.178,2.417-3.259,3.633-.9,1.017-1.795,2.047-2.7,3.059-.455.506-.945.979-1.408,1.479-.693.75-1.352,1.533-2.07,2.258a18.417,18.417,0,0,1-2.215,2.1c-.176.127-.277.142-.389-.051-.192-.333-.37-.674-.541-1.018-.408-.819-.782-1.655-1.216-2.459-1-1.856-2.042-3.694-3.052-5.547-.332-.608-.612-1.245-.931-1.861-.5-.956-.989-1.914-1.512-2.856-.558-1.007-1.154-1.994-1.724-3-.7-1.232-1.372-2.482-2.095-3.7-.632-1.066-1.361-2.076-1.967-3.157-.809-1.444-1.545-2.929-2.3-4.4-.256-.5-.258-.533.163-.909.639-.572,1.289-1.134,1.967-1.659,1.25-.968,2.523-1.907,3.788-2.857.26-.2.521-.389.79-.572.18-.122.3-.087.33.1.058.4.1.812.133,1.219,0,.026-.067.083-.106.085-.178.012-.181.007-.128.138a8.908,8.908,0,0,0,.488,1.219c.272.468.4,1.015.654,1.5.612,1.181,1.246,2.351,1.893,3.513.517.929,1.068,1.839,1.6,2.761.464.806.918,1.619,1.382,2.425s.923,1.585,1.38,2.38c.28.487.541.985.832,1.465.072.118.23.183.349.273-.041-.119-.091-.237-.12-.359a.579.579,0,0,1,.019-.191.808.808,0,0,1,.128.1,2.6,2.6,0,0,0,.509.593,1.052,1.052,0,0,1,.454.452,1.042,1.042,0,0,0,.2.293.608.608,0,0,0,.22.088,1.158,1.158,0,0,0,.03-.209.507.507,0,0,0-.048-.17c-.214-.518-.4-1.049-.651-1.549-.529-1.056-1.064-2.11-1.648-3.136-.65-1.142-1.355-2.252-2.041-3.374-.848-1.386-1.725-2.756-2.543-4.159-.564-.968-1.059-1.977-1.564-2.978-.431-.855-.829-1.726-1.248-2.586-.071-.146-.064-.244.075-.338a3.533,3.533,0,0,0,.347-.276c.587-.518,1.17-1.04,1.761-1.554a1.748,1.748,0,0,1,.4-.264.781.781,0,0,0,.3-1.181,3.067,3.067,0,0,0-.274-.29.574.574,0,0,0-.8-.116,2.69,2.69,0,0,0-.58.4c-.35.338-.649.733-1.015,1.051q-1.055.917-2.166,1.77c-.751.575-1.543,1.1-2.3,1.666-1.218.915-2.422,1.848-3.632,2.773a10.846,10.846,0,0,1-1.058.794,2.983,2.983,0,0,0-.768.653,4.921,4.921,0,0,1-1.363,1.425c-.149.076-.249.248-.37.377-.05.054-.087.128-.147.164a12.646,12.646,0,0,0-1.826,1.6c-1.187,1.071-2.383,2.131-3.575,3.2-.441.394-.914.759-1.318,1.188a23.4,23.4,0,0,1-2.247,2.013c-.721.591-1.447,1.176-2.157,1.781-.506.431-.972.911-1.486,1.333-.536.44-1.121.818-1.66,1.255-1.046.846-2.076,1.713-3.111,2.573a11.257,11.257,0,0,1-1.095.9,1.135,1.135,0,0,0-.532,1.208.815.815,0,0,0,.967.848,1.642,1.642,0,0,0,1.165-.565c.267-.276.552-.536.834-.8a.174.174,0,0,1,.157-.032c.033.019.049.1.041.154-.048.291-.122.578-.157.87-.051.425-.077.854-.113,1.28" transform="translate(-278.603 -87.205)" fill="#fff"/>
    </g>
  </g>
</svg>
