<svg xmlns="http://www.w3.org/2000/svg" width="29.5" height="21.501" viewBox="0 0 29.5 21.501">
  <path id="boxes" d="M31.5,25.5H31v-2A2.5,2.5,0,0,0,28.5,21H28V14.5A3.5,3.5,0,0,0,24.5,11h-14A3.5,3.5,0,0,0,7,14.5V21H6.5A2.5,2.5,0,0,0,4,23.5v2H3.5A.5.5,0,0,0,3,26v5.5a.5.5,0,0,0,.5.5H7.165a.5.5,0,0,0,.475-.34L8,30.525a1.5,1.5,0,0,1,1.42-1H25.56a1.5,1.5,0,0,1,1.42,1l.38,1.135a.5.5,0,0,0,.5.34H31.5a.5.5,0,0,0,.5-.5V26A.5.5,0,0,0,31.5,25.5ZM8,14.5A2.5,2.5,0,0,1,10.5,12h14A2.5,2.5,0,0,1,27,14.5V21H25.41a4.678,4.678,0,0,0,.09-1.5A1.5,1.5,0,0,0,24,18H20.5A1.5,1.5,0,0,0,19,19.5a4.034,4.034,0,0,0,.09,1.5H15.91A4.678,4.678,0,0,0,16,19.5,1.5,1.5,0,0,0,14.5,18H11a1.5,1.5,0,0,0-1.5,1.5A4.678,4.678,0,0,0,9.59,21H8Zm12,6v-1a.5.5,0,0,1,.5-.5H24a.5.5,0,0,1,.5.5v1a.5.5,0,0,1-.5.5H20.5A.5.5,0,0,1,20,20.5Zm-9.5,0v-1A.5.5,0,0,1,11,19h3.5a.5.5,0,0,1,.5.5v1a.5.5,0,0,1-.5.5H11A.5.5,0,0,1,10.5,20.5ZM5,23.5A1.5,1.5,0,0,1,6.5,22h22A1.5,1.5,0,0,1,30,23.5v2H5ZM31,31h-2.8l-.265-.79a2.5,2.5,0,0,0-2.37-1.71H9.44a2.5,2.5,0,0,0-2.37,1.71L6.8,31H4V26.5H31Z" transform="translate(-2.75 -10.75)" fill="#472d16" stroke="#472d16" stroke-width="0.5"/>
</svg>
