<svg xmlns="http://www.w3.org/2000/svg" xmlns:xlink="http://www.w3.org/1999/xlink" width="504.422" height="396.989" viewBox="0 0 504.422 396.989">
  <defs>
    <clipPath id="clip-path">
      <rect x="96" y="-90" width="504.422" height="396.989" fill="none"/>
    </clipPath>
  </defs>
  <g id="experience-fore" transform="translate(-96 90)" opacity="0.365" clip-path="url(#clip-path)" style="isolation: isolate">
    <path id="Path_295" data-name="Path 295" d="M416.333,512.305c-3.044-3.525-5.681-7.4-8.74-10.909a68.6,68.6,0,0,0-6.292-5.691c-.532-.47-1.1-.9-1.591-1.413q-1.077-1.144-2.105-2.319a63.339,63.339,0,0,1-12.179-20.217c-.72-1.974-2.057-3.729-3.295-5.915,7.865-.187,10.821-3.038,10.678-10.554a35.011,35.011,0,0,0-1.551-9.5c-4.67-15.25-2.479-29.389,6.419-42.551,1.1-1.622,2.269-3.2,3.968-5.574,1.777,3.913,4.057,7.258,4.873,10.842.04.175.093.346.121.521,2.276,12.252,3.932,24.618,5.774,36.947a53.935,53.935,0,0,1,.7,7.5,9.459,9.459,0,0,1-1.036,4.26c-1.255,2.427-.833,5,1.431,6.518a17.4,17.4,0,0,1,8.032,13.255c.685,5.744,2.4,11.374,3.847,17,.735,2.861,2.033,5.569.844,8.64a2.655,2.655,0,0,0,.308,2.3,19.542,19.542,0,0,1,4.193,8.464,49.687,49.687,0,0,1,1.89,9.1c.138,1.885-.289,2.746-1.3,2.746a4.855,4.855,0,0,1-2.1-.7c-2.439-1.29-4.341-2.928-5.185-5.827-.389-1.333-1.952-2.4-3.137-3.41-1.458-1.255-3.343-2.093-4.57-3.519M351.927,454.97c-5.779-2.632-11.617-5.137-17.488-7.56-2.462-1.014-5.07-1.659-7.581-2.548a4.4,4.4,0,0,1-1.486-1.108c-2.653-2.663-5.257-5.376-7.926-8.024-3.119-3.082-6.223-6.178-9.446-9.145-3.42-3.147-6.316-6.6-7.691-11.513,9.26,8.2,19.976,11.87,32.147,11.913a9.877,9.877,0,0,1-.193,1.969c-1.448,3.93-1.227,5.727,2.078,8.179a73.3,73.3,0,0,0,9.862,5.985c6.495,3.378,10.256,7.631,12.746,15.18a37.76,37.76,0,0,0-5.021-3.328M222.544,624.2c2.068,0,3.185,1.184,4.051,3.947.181.58.336,1.172.461,1.77.06.28.131.564.163.85.565,4.768,2.238,8.99,5.867,12.284,1.32.58,2.635,1.167,3.945,1.749a26.459,26.459,0,0,0,3.718.274,24.261,24.261,0,0,0,3.052-.214c5.822-.75,10.919-3.6,15.559-7.79,1.732-1.563,3.541-3.049,5.361-4.507,1.7-1.358,2.868-2.078,3.827-2.078,1.233,0,2.131,1.19,3.42,3.729,1.787,3.525,3.448,7.115,5.278,10.623,2.439,4.677,6.1,7.122,10.168,7.122a13.448,13.448,0,0,0,8-2.994c5.526-4.138,8.886-9.91,10.937-16.314s3.443-13,5.2-19.494c.4-1.446.813-2.883,1.217-4.324.253-.893.494-1.787.757-2.675.652-2.236,1.32-4.462,2.023-6.682.258-.816,1.2-1.426,1.825-2.133a14.6,14.6,0,0,1,1.842,1.837c.878,1.245,1.536,2.648,2.424,3.882a6.394,6.394,0,0,0,5.1,2.889,5.592,5.592,0,0,0,4.848-3.054,31.289,31.289,0,0,0,2.861-7.767c.158-.6.344-1.185.492-1.777a71.992,71.992,0,0,0,1.267-7.4c.126-.893.258-1.792.411-2.686a7.16,7.16,0,0,1,.821-2.537c.434-.692,1.207-1.585,1.864-1.613h.022c.592,0,1.255.971,1.825,1.563a3.589,3.589,0,0,1,.444.976,7.948,7.948,0,0,0,4.1,4.3,5.855,5.855,0,0,0,2.236.467,6.259,6.259,0,0,0,2.341-.467,9.144,9.144,0,0,0,3.744-2.939,17,17,0,0,0,2.1-3.436,27.545,27.545,0,0,1,11.522-12.45,49.514,49.514,0,0,0,4.276-2.808c2.45-1.8,4.884-3.622,7.335-5.426q9.185-6.791,18.358-13.6c.236-.176.472-.346.7-.521,1.579-1.179,3.064-2.489,4.545-3.789,2.746-2.422,4.156-5.119,1.985-8.743-1-1.659-.3-2.921,1.523-3.536a7.866,7.866,0,0,1,2.407-.317c4.577,0,11.863,2.374,13.868,5.042.883,1.169,1.042,2.845,1.744,4.183.878,1.678,1.606,3.744,3.026,4.78a72.887,72.887,0,0,1,10.455,9.391,109.638,109.638,0,0,1,9.774,12.339c2.756,3.99,5.65,7.888,8.589,11.758q3.842,5.066,7.757,10.071c2.133,2.73,4.271,5.46,6.387,8.2.253.329.5.653.757.976,2.636,3.376,5.235,6.715,6.041,11.029a14.856,14.856,0,0,1,.246,2.193,2.085,2.085,0,0,0,.133.482,6.583,6.583,0,0,0,2.258,2.851A180.09,180.09,0,0,1,499.959,630.6a38.122,38.122,0,0,1,4.839,6.612,44.147,44.147,0,0,0,5.877,8.5c.74.821,1.327,1.239,1.821,1.239.613,0,1.085-.642,1.546-1.935.623-1.772,1.047-3.624,1.687-5.4.258-.713.719-1.7,1.31-1.9,2.567-.826,1.832-2.532.868-3.777-3.751-4.829-6.607-10.41-11.967-13.88-.406-.175-.823-.351-1.227-.537-2.846-1.3-5.269-3.322-8.141-4.593a3.4,3.4,0,0,1-.444-.276,7.977,7.977,0,0,1-1.666-1.134,11.392,11.392,0,0,1-2.763-3.772c-.2-.3-.351-.63-.537-.931-.532-.878-1.053-1.754-1.53-2.675a33.436,33.436,0,0,0-2.334-4.035c-.067-.093-.1-.2-.16-.306-.861-1.239-1.654-2.517-2.487-3.772-.637-.966-1.25-1.947-1.877-2.916-.607-.944-1.227-1.87-1.819-2.823-1.3-2.105-2.608-4.216-3.875-6.349q-1.652-2.771-3.278-5.564c-2.582-4.417-5.164-8.842-7.8-13.238a43.349,43.349,0,0,0-8.255-10.113c-.549-.494-1.036-1.026-1.525-1.553-4.834-5.2-6.874-11.84-7.341-19.143a10.073,10.073,0,0,1,4.886-9.878,14.2,14.2,0,0,1,2.455-1.277,12.966,12.966,0,0,1,4.968-1.019,15.224,15.224,0,0,1,4.949.866c1.448.494,2.379,2.587,3.458,4.023a55.734,55.734,0,0,0,3.448,4.83c2.522,2.68,5.214,5.2,7.845,7.778.241.236.489.467.73.7,1.907,1.885,3.694,3.9,5.707,5.669a9.543,9.543,0,0,0,1.085.733,5.467,5.467,0,0,0,2.976,1.064,5.825,5.825,0,0,0,2.846-.81,1.292,1.292,0,0,1,.592-.121,5.087,5.087,0,0,1,2.983,1.272,54.79,54.79,0,0,1,4.242,5.546,4.662,4.662,0,0,0,3.744,2.111,5.965,5.965,0,0,0,2.165-.454,6.81,6.81,0,0,1,2.467-.527c1.732,0,3.2.916,4.533,2.9,1.854,2.735,3.345,5.712,4.946,8.618.263.477.52.954.8,1.425a58.262,58.262,0,0,0,4.193,6.884,7.712,7.712,0,0,0,5.486,3.283c.158.012.313.062.472.062s.341-.095.509-.1a8.719,8.719,0,0,0,4.819-2.045,20.992,20.992,0,0,0,2.09-1.995c.565-.608,1.122-1.222,1.7-1.809a4.826,4.826,0,0,1,7.4-.592,47.325,47.325,0,0,1,5.049,4.818c2.954,3.126,6.106,5.937,10.1,7.664.207.093.4.193.618.273a14.452,14.452,0,0,0,5.329,1.064,11.757,11.757,0,0,0,5.459-1.337,13.328,13.328,0,0,0,5.844-6.32c2.012-4.271,2.549-5.39,5.185-5.39.286,0,.653.035.993.055.806.06,1.721.148,2.921.291a23.547,23.547,0,0,0,2.8.165c.417,0,.828-.04,1.245-.06.351-.022.7-.018,1.047-.055,4.725-.489,7.692-3.109,8.344-7.762a8.587,8.587,0,0,1,3.059-5.96,9.234,9.234,0,0,1,3.157-1.561c1.563-.449,2.911-1.668,4.352-2.534q.765-1.725,1.53-3.453c.718-4.517-1.375-8.053-4.632-10.59a23.213,23.213,0,0,1-4.407-4.434,19.056,19.056,0,0,1-3.706-11.431c-.153-6.577-2.813-9.27-8.673-10.174-.673-.1-1.353-.2-2.111-.258-2.838-.219-5.694-.2-8.545-.269-.647-.01-1.295-.01-1.942-.038-3.534-.17-4.089-.981-3.245-4.336.11-.434.181-.876.291-1.316a14.218,14.218,0,0,0,.5-4.775c-.339-4.116-3.1-6.765-8.289-7.85-1.112-.231-2.219-.379-3.333-.5a40.457,40.457,0,0,0-4.528-.279,63.743,63.743,0,0,0-15.333,2.181,49.178,49.178,0,0,0-8.184,3.059q-1.4.633-2.78,1.26a3.139,3.139,0,0,1-.432.115,3.173,3.173,0,0,1-.878.241c-.635,0-1.052-.389-1.381-1.288-.582-1.606-1.091-3.24-1.722-4.824a9.328,9.328,0,0,0-1.678-2.715A5.654,5.654,0,0,0,525.076,493a7.988,7.988,0,0,0-3.744,1.048c-.489.257-.954.57-1.425.876a46.388,46.388,0,0,0-5.5,4.555c-2.183,2-3.985,4.391-6.178,6.359a5.255,5.255,0,0,1-3.3,1.684c-1.239,0-2.352-.878-3.574-2.61-1.327-1.875-2.341-2.791-3.47-2.791-1,0-2.083.718-3.558,2.116a1.123,1.123,0,0,0-.2.181,13.9,13.9,0,0,1-7.082,5.982,21.6,21.6,0,0,1-6.61,1.237c-.768.04-1.546.055-2.331.055-1.057,0-2.126-.028-3.2-.06-2.429-.083-4.863-.492-7.28-.492-.258,0-.509.005-.762.015-1.215.05-3.113.878-3.381,1.76-.291.943.887,2.407,1.573,3.563a20.166,20.166,0,0,0,1.857,2.351,11.759,11.759,0,0,1-2.9,2.073,17.669,17.669,0,0,1-4.264.439c-1.184.083-2.364.181-3.525.334a17.386,17.386,0,0,0-8.442,3.087c-2.944-4.748-2.005-12.044,2.309-15.449,1.146-.9,3.174-.712,4.808-.986.432-.071.876-.12,1.326-.171a13.948,13.948,0,0,0,3.267-.57c4.221-1.491,8.376-3.147,12.532-4.813a35.838,35.838,0,0,0,7.044-3.235,2.976,2.976,0,0,0,.356-.339,6.089,6.089,0,0,0,1.83-3.827,3.119,3.119,0,0,1,2.72-3.376c1.064-.258,2.138-.484,3.212-.707,1.124-.231,2.248-.456,3.36-.735a4.291,4.291,0,0,0,3.448-3.98c.455-3.6,1.573-4.966,5.1-5.624,2.806-.52,5.7-.582,8.556-.866a78.511,78.511,0,0,0,9.6-1.086,9.338,9.338,0,0,0,2.66-1.034c2.806-1.623,3.8-4.562,2.806-8.333a44.731,44.731,0,0,0-1.722-4.533c-1.245-3.2-.69-5.109,2.346-6.743.559-.3,1.152-.532,1.733-.79,1.469-.652,2.977-1.227,4.49-1.749a44.92,44.92,0,0,0,4.774-1.945,24.637,24.637,0,0,0,3.937-2.314,19.284,19.284,0,0,0,2.6-2.286c4.314-4.555,4.77-10.272,1.25-15.343-.076-.11-.126-.225-.208-.339a22.824,22.824,0,0,0-2.154-2.4c-2.768-2.846-2.735-3.3-.521-6.585a30.7,30.7,0,0,0,3.043-5.667c1.145-2.851,1.057-5.41-.241-7.56a9.379,9.379,0,0,0-2.988-3c-3.217-2.1-4.577-4.677-4.178-8.564a8.311,8.311,0,0,0-1.183-5.316,7.366,7.366,0,0,0-6.349-3.46,8.678,8.678,0,0,0-1.694.165c-.467.088-.916.263-1.382.379a49.888,49.888,0,0,0-6.648,2.286c-.537.219-1.074.442-1.611.663a10.7,10.7,0,0,1-4.052.969,6.88,6.88,0,0,1-3.135-.773,28.037,28.037,0,0,0-6.665-2.066,15.306,15.306,0,0,0-2.9-.357c-.048,0-.108-.005-.153-.005-3.3,0-5.481,1.573-7.456,5.158-.487.878-.926,1.787-1.38,2.682-1.212,2.384-2.379,4.8-3.574,7.2-.9,1.782-1.6,2.63-2.522,2.63-.718,0-1.563-.515-2.736-1.5-.494-.412-.971-.745-1.448-1.081a10.955,10.955,0,0,0-6.161-2.367c-2.928,0-5.558,1.825-7.844,5.634-5.543,9.227-8.623,19.335-7.785,30.287.143,1.832-.422,2.472-1.815,2.472-.055,0-.115-.01-.165-.01-.131-.005-.256-.005-.4-.023-1.518-.143-3.032-.389-4.55-.427h-.269c-3.99,0-6.545,2.254-6.464,6.321a29.482,29.482,0,0,0,1.678,8.091c.911,2.906,2.407,5.624,3.338,8.525,1.107,3.42.115,4.846-3.36,5.542-4.121.823-5.35,2.341-3.255,5.9,4.62,7.829,1.27,14.467-2.178,21.26a38.326,38.326,0,0,0-2.592,5.009c-.389,1.179,0,2.615.045,3.942,1.255-.065,2.515-.078,3.765-.214.976-.11,1.935-.391,2.906-.592a15.991,15.991,0,0,1,.537,3.064,9.734,9.734,0,0,1-.7,2.582c-1.086,3.486-2.171,6.972-3.35,10.743a20.214,20.214,0,0,1-1.513-2.845c-.652-1.862-1.338-3.727-2.005-5.591a86.354,86.354,0,0,1-2.813-8.995c-.756-3.141-.472-6.562-.432-9.857.038-3.069.224-6.013-3.591-7.182-.509-.153-.8-1.283-1.053-2.005a21.63,21.63,0,0,1-1.107-8.2,6.087,6.087,0,0,1-.253-1.458c-.153-3.985-1.457-7.712-2.663-11.463a5.5,5.5,0,0,1-1.212-2.116,33,33,0,0,1-.8-3.217c-.115.01-.229.022-.344.038a25.125,25.125,0,0,1-1.425-2.878c-4.479-12.844-5.927-25.841-2.188-39.166,1-3.581.148-4.7-3.245-6.216a3.643,3.643,0,0,1-1.825-2.314c-.637-3.844-1.382-7.674-2.062-11.513-1.353-7.63-2.45-15.3-1.858-23.188a7.964,7.964,0,0,1,5.91-7.476,63.022,63.022,0,0,0,10.826-5.132,3.807,3.807,0,0,1,1.8-.625,2.381,2.381,0,0,1,1.814,1.1c.7.85,1.295,1.553,1.821,2.133,1.157,1.272,2,1.919,2.828,1.919a2.979,2.979,0,0,0,1.87-.933,32.482,32.482,0,0,0,2.959-3.2,51.957,51.957,0,0,1,6.382-6.895c2.527-2.045,5.548-3.488,8.392-5.127.2-.115.417-.213.63-.318a28.328,28.328,0,0,0,3.668-1.863c3.255-2.291,3.612-3.674,1.847-7.265-.861-1.747-.422-3.1,1.288-3.24,1.036-.088,2.09-.141,3.147-.141a21.774,21.774,0,0,1,4.984.52c3.009.713,5.991,1.6,8.995,1.6a12.469,12.469,0,0,0,4.961-.976,10.972,10.972,0,0,0,4.276-3.042c2.434-3.109,1.651-6.617-1.661-9.139-1.453-1.107-3.563-1.842-3.14-4.216a5.333,5.333,0,0,1,4.878-4.429c5.137-.553,10.327-.7,15.5-.811.105-.005.2-.005.3-.005a34.668,34.668,0,0,1,5.839.723,19.727,19.727,0,0,0,3.273.275c.241,0,.487-.045.728-.05a22.738,22.738,0,0,0,4.8-.675c8.206-2.083,15.639-8.452,17.5-15.634a20.142,20.142,0,0,0,.751-5.552,6.775,6.775,0,0,0-1.777-4.76,7.979,7.979,0,0,0-4.748-2.076,21.693,21.693,0,0,1-4.429-1.623c1.317-.883,2.517-2.105,3.965-2.587,2.346-.778,4.72-1.491,7.1-2.183,2.191-.635,4.4-1.243,6.6-1.858a13.655,13.655,0,0,0,1.759-.712q4.366-5.157,8.721-10.322a27.171,27.171,0,0,0,1.37-6.578c.2-2.885-1.348-4.886-3.875-6.251-6.1-3.305-6.809-2.55-4.151-10.558q1.276-3.84,2.265-7.762c1.167-4.557.362-6.517-3.553-9.117-.3-.2-.615-.377-.921-.559-1.536-.9-3.7-1.468-4.4-2.8-.537-1.024.959-2.987,1.25-4.583a13.12,13.12,0,0,0-5.065-12.673,10.857,10.857,0,0,0-6.326-1.952h-.005a14.1,14.1,0,0,0-3.1.362,16.545,16.545,0,0,0-4.686,1.99,4.708,4.708,0,0,1-2.363.745,3.866,3.866,0,0,1-2.906-1.529c-.477-.537-.948-1.081-1.408-1.629a11.526,11.526,0,0,0-6.8-4.321,8.939,8.939,0,0,0-1.463-.141c-2.84,0-5.7,1.413-8.211,4.254-.356.4-.675.838-1.009,1.26-1.646,2.09-2.747,3.1-3.99,3.1-1.081,0-2.271-.766-4.013-2.257a4.951,4.951,0,0,1-.384-.379c-3.147-3.345-6.316-4.715-9.243-4.715-5.077,0-9.451,4.113-11.8,9.21-1.777,3.859-2.5,8.211-3.6,12.372-.62,2.346-1.267,3.405-2.549,3.405a6.683,6.683,0,0,1-2.741-.888c-2.818-1.408-5.669-2.746-8.409-4.281a10.464,10.464,0,0,0-5.1-1.425c-4.539,0-8.2,3.514-8.81,8.678a34.063,34.063,0,0,0,.845,13.243c1.923,6.607,5.042,12.861,7.569,19.291,1.162,2.971,2.128,6.015,3.185,9.024l-.706.723c-1.272-.389-2.572-.713-3.816-1.19a10.774,10.774,0,0,0-3.672-1,3.818,3.818,0,0,0-2.627,1.047c-2.138,1.88-2.253,4.364-1.348,6.693,1.32,3.42,3.074,6.67,4.655,9.993a9.233,9.233,0,0,1,.854,1.678c.341,1.506.554,3.042.818,4.565a27.083,27.083,0,0,1-3.915-1.057,5.658,5.658,0,0,0-2.274-.5c-2.6,0-4.72,2.067-5.23,5.521a1.987,1.987,0,0,0-.017.806c2.462,8.66-1.282,16.4-3.624,24.345-1.963,6.676-3.985,13.343-5.931,20.026-.439,1.5-.893,2.992-1.317,4.5-.871,3.064-1.03,6.008,2.8,7.652,1.742.74,1.393,2.309.048,3.486a17.235,17.235,0,0,1-9.647,4.173c-.773-1.167-1.458-2.181-2.1-3.13-.58-.868-1.112-1.684-1.622-2.512a13.847,13.847,0,0,1-1.651-3.36c-1.634-5.882-3.563-11.732-4.577-17.728-.652-3.877.038-7.988.213-11.99.06-1.343.6-2.176,2.3-2.329,2.851-.251,4.512-2.374,5.076-4.929a24.646,24.646,0,0,0,.548-7.7,113.084,113.084,0,0,0-2.04-11.677,29.584,29.584,0,0,1,2.878-20.112,93.611,93.611,0,0,0,4.77-11.129c2.121-5.887,1.282-8.261-3.777-11.764-1.365-.947-1.179-1.89-.2-2.861,1.716-1.7,3.431-3.421,5.268-4.994,8.371-7.192,13.124-16.616,15.75-27.015,2.16-8.578-2.73-14.132-11.611-14.285-7.273-.126-9.379-2.648-7.843-9.845a22.838,22.838,0,0,1,2.565-6.163c6.989-12.558,8.271-25.314,1.325-38.3-3.491-6.524-7.318-9.428-12.925-9.428a25.475,25.475,0,0,0-6.941,1.134,63.35,63.35,0,0,1-6.266,1.568,6.914,6.914,0,0,1-1.178.1,4.484,4.484,0,0,1-4.4-3.212c-1.684-4.364-3.29-8.748-4.956-13.118a12.239,12.239,0,0,0-6.59-7.132,11,11,0,0,0-4.309-.818c-.372,0-.74.017-1.1.05-.208.015-.411.027-.6.027a2.761,2.761,0,0,1-2.889-2.1c-1.009-2.57-2.171-5.082-3.393-7.9l-5.663-2.494c-7.213.537-8.711,5.362-9.647,10.7-.439,2.494-.893,3.267-2.567,3.267a12.73,12.73,0,0,1-1.775-.17c-.62-.093-1.239-.186-1.864-.262a17.794,17.794,0,0,0-2.078-.138c-4.139,0-6.3,1.963-7.12,6.666-.609,3.515-.632,7.132-.906,10.713-.367,4.791-1.024,5.667-5.312,5.667q-.467,0-.986-.016c-.986-.022-1.978-.04-2.966-.04-1.255,0-2.51.027-3.759.115-8.941.625-14.44,5.927-15.13,14.873-.811,10.59,3.7,19.158,10.668,26.7a33.505,33.505,0,0,1,3.82,4.49c1.744,2.73.8,4.916-2.362,5.652a26.368,26.368,0,0,1-4.8.444c-8.49.384-16.089,6.457-17.579,14.132-1.2,6.168,1.32,11.052,5.953,14.67,4.72,3.684,10.071,6.567,14.839,10.2a149.637,149.637,0,0,1,11.184,9.943c1.6,1.493,1.15,2.9-.735,3.811-1.623.778-3.305,1.418-4.946,2.159-4.658,2.111-8.864,4.65-8.912,10.613-.055,6.349,3.059,10.783,8.655,13.431a67.3,67.3,0,0,0,8.831,3.278c17.284,5.362,29.015,17.017,37.036,32.772,1.985,3.9,2.911,8.354,5.042,12.153a29.936,29.936,0,0,0,6.891,8.1,9.075,9.075,0,0,0,5.832,2.384,10.418,10.418,0,0,0,6.419-2.625c.549-.439,1.114-.861,2.308-1.782.324,3.634.482,6.781.931,9.885a45.089,45.089,0,0,0,1.711,7.652c.811,2.434,2.67,4.628,3.042,7.077,1.169,7.767,2.2,15.557,3.2,23.348q.813,6.347,1.606,12.691a8.536,8.536,0,0,1-.615,2.784l-.893-.093c0-.7-.055-1.408-.005-2.105.263-3.717-.888-6.665-2.977-8.562a9.134,9.134,0,0,0-6.266-2.291h-.005a13.394,13.394,0,0,0-2.8.306c-1.491.313-2.971.708-4.447,1.1a5.188,5.188,0,0,1-1.331.2c-1.338,0-2.04-.8-1.656-2.658.893-4.369,1.83-8.738,3.026-13.032.937-3.36,2.467-6.562,3.421-9.928,1.453-5.115,1.348-10.136-3.119-13.847a12.911,12.911,0,0,0-8.454-3.162,17.356,17.356,0,0,0-7,1.623c-1.623.713-3.009,1.95-4.572,2.818a5.438,5.438,0,0,1-2.55.806c-1.594,0-2.51-1.3-2.537-3.784a35.574,35.574,0,0,1,.372-4.018c.713-7.1-.317-13.82-4.528-19.778-2.982-4.221-6.61-6.359-10.568-6.359a14.945,14.945,0,0,0-8.328,2.906c-1.26.854-2.444,1.83-3.649,2.768-1.42,1.112-2.351,1.694-3.2,1.694-.976,0-1.852-.768-3.262-2.369-1.534-1.754-2.959-3.618-4.6-5.263-2.126-2.121-3.809-3.2-5.466-3.2s-3.305,1.079-5.35,3.271a3.559,3.559,0,0,1-2.434,1.432,3.268,3.268,0,0,1-2.224-1.229,15.116,15.116,0,0,0-2.916-2.362,7.306,7.306,0,0,0-3.779-1.212,5.578,5.578,0,0,0-2.849.806,6.223,6.223,0,0,0-3.36,6.015c.114,1.852.861,3.661,1.062,5.514a3.48,3.48,0,0,1-.718,2.7c-4.193,3.185-5.465,6.568-4.007,11.66.888,3.109,1.942,6.173,2.8,9.292.845,3.1.176,4.484-2.728,5.827-1.794.828-3.689,1.436-5.488,2.253-5.433,2.467-7.571,5.772-7.1,11.692,1.014,12.57,8.02,20.683,19.242,25.775a20.455,20.455,0,0,1,6.693,5.114c2.131,2.452,1.468,4.72-1.147,6.65-3.907,2.878-4.786,4.254-5.7,8.836a42.555,42.555,0,0,0-4.407-2.773,5.86,5.86,0,0,0-2.477-.67c-1.355,0-2.444.768-3.558,2.314a12.229,12.229,0,0,1-1.091,1.536c-.7.718-1.5,1.343-2.259,2.006-.592-1.019-1.617-2-1.7-3.059-.3-3.569-.131-7.175-.389-10.749a30.263,30.263,0,0,0-1.227-7.659c-1.009-2.916-2.976-4.417-5.147-4.417a6.682,6.682,0,0,0-4.841,2.5c-.906,1-1.689,2.1-2.587,3.1a2.092,2.092,0,0,1-1.41.861c-.558,0-1-.5-1.282-1.463a27.016,27.016,0,0,1-1.029-4.732c-.592-5.712-1.081-11.439-1.6-17.163-.675-7.483-1.759-14.927-5.865-21.374a23.124,23.124,0,0,0-6.891-6.924,9.189,9.189,0,0,0-4.944-1.528,9.493,9.493,0,0,0-7.478,4.078c-2.685,3.476-5.049,7.2-7.626,10.761-1.1,1.518-1.9,2.253-2.778,2.253-.818,0-1.694-.63-2.944-1.864-4.007-3.953-7.79-8.2-12.153-11.709-2.171-1.744-5.345-2.577-8.2-3.064a13.879,13.879,0,0,0-2.334-.208c-4.73,0-8.344,2.68-10.367,7.406-.811,1.9-1.393,3.892-2.226,5.784-1,2.274-2.045,3.343-3.611,3.343a7.091,7.091,0,0,1-2.971-.861,18.3,18.3,0,0,0-8.02-1.973,16.628,16.628,0,0,0-4,.494,8.665,8.665,0,0,0-6.863,7.1c-1.709,7.642-1.727,7.669-9.231,8.52-4.143.472-7.363,2.577-10.191,5.454q-1.092,2.468-2.188,4.934a76.73,76.73,0,0,0,.976,8.18,8.528,8.528,0,0,0,4.8,6.156c1.852.854,1.874,2.126.756,3.7a45.036,45.036,0,0,0-3.305,5.23c-2.208,4.293-1.978,6.392,1.333,9.977,3.042,3.3,6.3,6.374,9.473,9.544,2.964,2.971,3.085,4.138.739,7.7-.344.522-.771.991-1.122,1.513-3.1,4.638-2.923,7.993.745,12.2,4.7,5.39,10.076,8.864,16.714,8.864a21.768,21.768,0,0,0,5.91-.859c4.319-1.212,8.738-2.078,13.118-3.066a13.683,13.683,0,0,1,2.988-.455c.066,0,.131,0,.2.005.7.023,1.89.444,1.968.851a3.141,3.141,0,0,1-.718,2.346,12.5,12.5,0,0,1-2.622,1.858c-3.935,2.593-5.1,5.977-2.992,10.208,3.679,7.368,10.076,11.029,18.013,12.038a33.985,33.985,0,0,0,4.357.284,29.607,29.607,0,0,0,18.174-6.194c5.283-3.925,11.281-6.979,17.208-9.917a12.1,12.1,0,0,1,5.268-1c.788,0,1.573.043,2.319.109,3.059.28,4.144,2.692,3,5.543-.334.833-.806,1.611-1.157,2.439-2.314,5.476,1.157,10.761,7.137,10.761h.022a17.373,17.373,0,0,0,11.747-4.71c2.143-1.907,4.018-4.154,6.3-5.853a19.867,19.867,0,0,1,5.953-2.835,3.085,3.085,0,0,1,.9-.143c1.205,0,1.945.921,2.028,2.577.241,4.743,1.518,6.015,6.332,6.492.7.07,1.431.158,2.143.158a5.665,5.665,0,0,0,1.6-.2,19.109,19.109,0,0,1,5.426-.773c4.446,0,8.71,1.43,12.971,2.916,2.718.943,5.366,2.078,8.1,2.994a6.8,6.8,0,0,0,2.1.4c1.8,0,2.791-1.19,3.209-3.644.826-4.83.941-5.219,4.56-5.219.58,0,1.255.005,2.033.012h.11c4.291,0,8.6-1.081,12.9-1.64a10.245,10.245,0,0,1,1.3-.126,2.334,2.334,0,0,1,.931.165c4.352,1.917,8.6,4.073,12.987,5.908a41.265,41.265,0,0,1,9.6,5.581,37.573,37.573,0,0,1,6.721,6.786c3.754,4.918,7.845,9.578,11.589,14.5a.764.764,0,0,1,.048.093c.8,1.124.818,2.823,1.279,4.228a4.5,4.5,0,0,0,1,2.061,49.354,49.354,0,0,0,6.173,4.708c5.935,3.581,10.124,8.946,14.483,13.277-4.627-.5-9.521-1.069-14.429-1.551a2.392,2.392,0,0,1-2.432-2.632c-.034-1.524.093-3.052.015-4.572-.136-2.734-1.32-4.018-3.809-4.023-.219,0-.455.01-.7.033a14.64,14.64,0,0,0-1.58.241c-.881.176-1.764.4-2.648.56-4.681.861-9.335,2.138-14.049,2.429-.341.015-.68.027-1.021.027-.213,0-.427-.027-.64-.039a84.505,84.505,0,0,1-9.134-1.31,52.319,52.319,0,0,0-5.8-1c-.3-.012-.6-.017-.873-.017-4.369,0-5.6,1.283-6.578,6.025-.324,1.579-1.069,2.6-2.259,2.6a3,3,0,0,1-1.332-.362,24.079,24.079,0,0,1-6.14-4.1c-2.038-1.985-3.534-4.512-5.35-6.736a19.759,19.759,0,0,0-12.42-7.451,10.264,10.264,0,0,0-1.716-.143c-5.684,0-9.4,4.8-7.812,10.646.165.61.361,1.207.537,1.809,1.267,4.259-.361,6.758-4.445,6.758-.329,0-.675-.015-1.036-.048-4.753-.434-8.716-2.889-12.274-5.767-5.779-4.676-11.243-9.737-16.917-14.55-3.789-3.217-10.821-5.366-18.036-5.366-6.3,0-12.734,1.639-17.263,5.634a27.221,27.221,0,0,0-3.42,3.41c-3.81,4.808-3.295,9.2,1.338,13.2,1.448,1.245,3.789,2.544,2.467,4.66-.191.311-.821.439-1.606.439a12.1,12.1,0,0,1-3.491-.577c-5.948-2.023-11.732-4.55-17.7-6.5a17.961,17.961,0,0,0-5.591-.845c-7.691,0-16.144,4.226-20.036,10.47a7.917,7.917,0,0,0-.494,7.5c.67,1.661,1.558,3.233,2.286,4.879,1.458,3.267,1.147,4.583-1.666,6.716-3.935,2.981-7.993,5.81-11.858,8.886-5.268,4.194-5.822,6.884-3.085,13.123.181.411.377.816.547,1.234.718,1.727,2.248,3.656,1.892,5.135-.308,1.277-2.863,1.914-4.228,3.071a15.732,15.732,0,0,0-5.092,7.717,17.194,17.194,0,0,0-.6,5.646,13.39,13.39,0,0,0,7.976,11.93,25.658,25.658,0,0,0,7.471,2.038,6.256,6.256,0,0,1,1.985.587,4.42,4.42,0,0,1,2.384,3.689c.16,1.157.2,2.324.253,3.491.346,7.807,5.323,12.663,12.537,12.663a18.289,18.289,0,0,0,3.288-.312c1.41-.263,2.785-.728,4.173-1.1a9.173,9.173,0,0,1,2.417-.389" transform="translate(-157.131 -171.967)" fill="none" stroke="#fff" stroke-width="2"/>
  </g>
</svg>
