<svg xmlns="http://www.w3.org/2000/svg" xmlns:xlink="http://www.w3.org/1999/xlink" width="143.888" height="102.698" viewBox="0 0 143.888 102.698">
  <defs>
    <clipPath id="clip-path">
      <rect width="143.888" height="102.698" fill="none"/>
    </clipPath>
    <clipPath id="clip-path-2">
      <rect id="Rectangle_216" data-name="Rectangle 216" width="168.888" height="119.416" fill="#fff"/>
    </clipPath>
  </defs>
  <g id="footer-logo" clip-path="url(#clip-path)">
    <g id="Group_67" data-name="Group 67">
      <g id="Group_52" data-name="Group 52">
        <g id="Group_51" data-name="Group 51" clip-path="url(#clip-path-2)">
          <path id="Path_233" data-name="Path 233" d="M288.5,262.189c0-.035-.01-.07-.014-.106-.009.036-.017.071-.026.106h.041Z" transform="translate(-230.595 -209.507)" fill="#fff"/>
          <path id="Path_234" data-name="Path 234" d="M186.162,413.74l-.01,0c0,2.279.027,9.285.042,10.077.02.767.2,1.027.843,1.211a3.339,3.339,0,0,0,.822.071c.121,0,.255,0,.4-.007a4.347,4.347,0,0,0,1.417-.2c2.136-.652,3.5-2.359,3.323-4.15a10.6,10.6,0,0,0-1.976-4.555c-.126-.166-.293-.365-.475-.575a3.807,3.807,0,0,1-1.208.368c-.05.006-.091.005-.139.01-.116.011-.232.023-.338.023h.019a24.951,24.951,0,0,1,1.635,2.268,8.265,8.265,0,0,1,.914,2.053,2.646,2.646,0,0,1,.016.739.188.188,0,0,0,0,.021,2.163,2.163,0,0,1-.519,1.412,3.428,3.428,0,0,1-2.323,1.141c-.347.061-.7.133-.862.168l-.028.006c-.017-.221-.017-.741-.017-1.327,0-.649-.024-1.614-.042-2.389l-.013-.567c-.005-.228-.013-.514-.022-.832-.023-.82-.052-1.841-.052-2.613v-.4l-.126-.056-.114-.1a2.94,2.94,0,0,1-.291-.306,3.086,3.086,0,0,1-.577-1.127,3.44,3.44,0,0,1-.1-.406c-.063.016-.13.031-.2.045" transform="translate(-148.808 -330.705)" fill="#fff"/>
          <path id="Path_235" data-name="Path 235" d="M227.932,437.615l-.006,0a2.994,2.994,0,0,1,1.188-1.68l.012-.007a1.3,1.3,0,0,1,.634-.187.239.239,0,0,1,.133.026l.012.008.017.013s.005.034.005.139c0,.182,0,.182-.195.392a6.073,6.073,0,0,1-1.8,1.293m.779.963c1.421-.651,2.53-1.667,2.7-2.47a1.625,1.625,0,0,0-.958-1.616,1.846,1.846,0,0,0-.835-.188,2.691,2.691,0,0,0-1.27.339,4.408,4.408,0,0,0-1.922,4.22,2.627,2.627,0,0,0,2,2.49,2.531,2.531,0,0,0,.738.114,3.516,3.516,0,0,0,1.855-.639c.278-.163,1.172-.835,1.172-1.189,0-.123-.05-.419-.516-.5l-.015,0c-.045,0-.084-.007-.12-.007a.629.629,0,0,0-.478.238,3.558,3.558,0,0,1-2.034.7,1.4,1.4,0,0,1-.451-.062,1.308,1.308,0,0,1-.62-.905c-.011-.095,0-.171.754-.523" transform="translate(-180.983 -347.18)" fill="#fff"/>
          <path id="Path_236" data-name="Path 236" d="M265.615,407.583c1.607-.072,2.091-.093,2.091-.816v-.061a.571.571,0,0,0-.126-.444c-.191-.193-.5-.2-1.785-.2h-1.151c-4.151,0-4.84.045-4.878.663a.54.54,0,0,0,.109.433c.22.264.719.325,1.828.368l1.11.047.05,1.909c.018,1.14.072,2.6.112,3.255.017.583.037,2.047.037,3.288,0,.468,0,.91-.005,1.28,0,.79,0,.976.007,1.052a.469.469,0,0,0,.261.352.95.95,0,0,0,.391.084.668.668,0,0,0,.512-.2l.013-.017c.138-.193.138-.193.138-2.608,0-1.3,0-3.731-.038-5.441-.029-1.55-.022-2.525-.005-2.893.248-.017.745-.038,1.329-.052" transform="translate(-207.651 -324.604)" fill="#fff"/>
          <path id="Path_237" data-name="Path 237" d="M296.692,440.4a1.98,1.98,0,0,0,.307.9.614.614,0,0,0,.579.3.552.552,0,0,0,.553-.292c.005-.009.011-.017.015-.026a1.016,1.016,0,0,0,.137-.423,20.488,20.488,0,0,1,.761-2.3c.037-.1.107-.284.161-.4.1.2.263.617.413,1,.919,2.268.993,2.453,1.578,2.453a.729.729,0,0,0,.793-.531A24.832,24.832,0,0,1,303,436.556a13.489,13.489,0,0,0,.382-1.306.083.083,0,0,0,0-.013.517.517,0,0,0-.238-.562.824.824,0,0,0-.522-.22c-.213,0-.493.109-.623.628-.007.024-.029.089-.058.177-.085.259-.243.743-.368,1.231-.149.542-.247,1.007-.333,1.417a11.448,11.448,0,0,1-.29,1.18,12.721,12.721,0,0,1-.66-1.649,3.91,3.91,0,0,0-.772-1.7.817.817,0,0,0-.459-.248c-.256,0-.466.218-.841,1.372-.123.382-.365.988-.544,1.4-.019-.079-.036-.155-.05-.211a10.3,10.3,0,0,0-1.224-3.26.676.676,0,0,0-.5-.3.394.394,0,0,0-.327.175,1.818,1.818,0,0,0,.065,1.42c.18.5.885,3.4,1.047,4.3" transform="translate(-236.188 -347.301)" fill="#fff"/>
          <path id="Path_238" data-name="Path 238" d="M341.768,437.615l-.006,0a2.994,2.994,0,0,1,1.188-1.68l.012-.007a1.3,1.3,0,0,1,.634-.187.24.24,0,0,1,.134.026l.011.008.017.013s0,.034,0,.139c0,.182,0,.182-.195.392a6.074,6.074,0,0,1-1.8,1.293m.779.963c1.421-.651,2.53-1.667,2.7-2.47a1.625,1.625,0,0,0-.957-1.616,1.847,1.847,0,0,0-.835-.188,2.691,2.691,0,0,0-1.27.339,4.408,4.408,0,0,0-1.922,4.22,2.627,2.627,0,0,0,2,2.49,2.531,2.531,0,0,0,.738.114,3.516,3.516,0,0,0,1.855-.639c.279-.163,1.172-.835,1.172-1.189,0-.123-.05-.419-.516-.5l-.015,0c-.045,0-.084-.007-.12-.007a.628.628,0,0,0-.478.238,3.559,3.559,0,0,1-2.034.7,1.4,1.4,0,0,1-.451-.062,1.308,1.308,0,0,1-.62-.905c-.011-.095,0-.171.754-.523" transform="translate(-271.983 -347.18)" fill="#fff"/>
          <path id="Path_239" data-name="Path 239" d="M374.62,442.214a.227.227,0,0,0,.033.044c.148.16.276.283.45.283a.479.479,0,0,0,.36-.222c.263-.311.294-.626.33-2.093.056-1.736.112-1.867.538-2.374a1.881,1.881,0,0,1,1.255-.744.453.453,0,0,1,.273.078,1.192,1.192,0,0,1,.412.744,12.68,12.68,0,0,1,.121,2.112,7.147,7.147,0,0,0,.15,2.1c.063.145.169.393.428.393a.561.561,0,0,0,.252-.071c.5-.235.579-.819.579-2.571a7.1,7.1,0,0,0-.512-3.455l-.006-.011a1.628,1.628,0,0,0-1.117-.758,3.141,3.141,0,0,0-.684-.1,3.084,3.084,0,0,0-.7.1,2.43,2.43,0,0,0-1.095.565,1.349,1.349,0,0,0-.195-.4l-.016-.02a.5.5,0,0,0-.363-.222.391.391,0,0,0-.246.1,1.33,1.33,0,0,0-.3.4.232.232,0,0,0-.016.033c-.11.286-.164.428-.146,3.038,0,.292,0,.6-.006.892a4.9,4.9,0,0,0,.223,2.157" transform="translate(-299.285 -348.187)" fill="#fff"/>
          <path id="Path_240" data-name="Path 240" d="M407.511,415.18c.483,0,.669-.015.852-.168a.458.458,0,0,0,.153-.54c-.142-.484-.485-.59-1.11-.627-.166-.009-.282-.022-.358-.033l-.066-1.316c-.081-2.15-.139-2.578-.4-2.859a.567.567,0,0,0-.418-.245.486.486,0,0,0-.426.35.171.171,0,0,0-.007.019,28.49,28.49,0,0,0-.2,3.582c0,.343-.009.528-.018.624-.1.015-.255.032-.461.045-.634.058-.931.141-1.142.511l-.006.011a.413.413,0,0,0-.014.335.963.963,0,0,0,.568.462,1.42,1.42,0,0,0,.509.084,2.809,2.809,0,0,0,.549-.061l.033,2.02c.039,3.176.116,3.877.455,4.168a.718.718,0,0,0,.45.145.693.693,0,0,0,.519-.206c.176-.206.171-.339.152-.836,0-.007,0-.013,0-.021-.033-.263-.066-.633-.086-.854l-.006-.066a27.542,27.542,0,0,1,.017-4.493c.137-.012.352-.025.456-.031" transform="translate(-322.851 -327.265)" fill="#fff"/>
          <path id="Path_241" data-name="Path 241" d="M431.832,440.024l-.123,0a2.838,2.838,0,0,1-1.39-.368,2.082,2.082,0,0,0-.8-.25.749.749,0,0,0-.076,0c-.3.03-.4.142-.433.459-.029.464.231.713.691.989a4.518,4.518,0,0,0,1.668.589,3.8,3.8,0,0,0,.475.031,2.018,2.018,0,0,0,1.947-1c.406-.96-.168-2.388-1.329-3.33-.915-.747-1.053-1-1.025-1.448.009-.107.029-.108.077-.108h0a1.5,1.5,0,0,1,.653.287,1.542,1.542,0,0,0,.864.43.48.48,0,0,0,.432-.262c.154-.248.115-.368-.033-.643a3.066,3.066,0,0,0-2.309-1.221,1.029,1.029,0,0,0-.579.151c-.666.408-.834,1.1-.5,2.112A2.872,2.872,0,0,0,431,437.75,7.978,7.978,0,0,1,432.2,439.1c.159.239.159.239.13.491-.029.408-.029.408-.5.437" transform="translate(-342.946 -347.081)" fill="#fff"/>
          <path id="Path_242" data-name="Path 242" d="M461.89,437.615l-.006,0a2.993,2.993,0,0,1,1.188-1.68l.012-.007a1.3,1.3,0,0,1,.634-.187.237.237,0,0,1,.133.026l.012.008a.124.124,0,0,1,.017.013,1.369,1.369,0,0,1,.005.139c0,.182,0,.182-.195.392a6.072,6.072,0,0,1-1.8,1.293m.779.963c1.421-.651,2.53-1.667,2.7-2.47a1.625,1.625,0,0,0-.958-1.616,1.845,1.845,0,0,0-.835-.188,2.692,2.692,0,0,0-1.27.339,4.408,4.408,0,0,0-1.922,4.22,2.627,2.627,0,0,0,2,2.49,2.534,2.534,0,0,0,.738.114,3.517,3.517,0,0,0,1.855-.639c.278-.163,1.172-.835,1.172-1.189,0-.123-.05-.419-.516-.5l-.015,0c-.045,0-.084-.007-.12-.007a.629.629,0,0,0-.478.238,3.558,3.558,0,0,1-2.034.7,1.4,1.4,0,0,1-.451-.062,1.308,1.308,0,0,1-.62-.905c-.011-.095,0-.17.754-.523" transform="translate(-368.009 -347.18)" fill="#fff"/>
          <path id="Path_243" data-name="Path 243" d="M502.3,414.423a1.9,1.9,0,0,1-.261,1.4,2.309,2.309,0,0,1-1.442,1.025,4.433,4.433,0,0,1-.618.051,2.444,2.444,0,0,1-.885-.166,19.534,19.534,0,0,1-.062-2.782c.01-.922.022-1.768.054-2.009a3.118,3.118,0,0,1,.745-.071,2.19,2.19,0,0,1,.332.015c.376.045.631.192,1.331.929a2.379,2.379,0,0,1,.807,1.607m-3.25-5.589v-.246c0-1,0-1.541.026-1.69l0,0a.876.876,0,0,1,.3-.031,2.044,2.044,0,0,1,.3.016l.027,0h.028c.621.018.645.022.843.135a1.542,1.542,0,0,1,.621,1.479,1.564,1.564,0,0,1-.113.727,1.956,1.956,0,0,1-1.438,1.1l-.058.017a2.18,2.18,0,0,1-.443.106h-.016a6.327,6.327,0,0,1-.084-1.61m3.616-.256a2.518,2.518,0,0,0-.814-2.463,4.164,4.164,0,0,0-2.912-.7c-.8,0-1.143.041-1.3.451a40.007,40.007,0,0,0-.072,4.966c0,2.747-.038,4.986-.073,5.278a1.6,1.6,0,0,0,.4,1.548,2.034,2.034,0,0,0,1.163.571,2.775,2.775,0,0,0,.521.038,7.108,7.108,0,0,0,1.536-.17,3.576,3.576,0,0,0,1.621-.813,3.049,3.049,0,0,0,1.047-2.436,3.571,3.571,0,0,0-.081-1.088,5.225,5.225,0,0,0-1.927-2.843l-.063-.047a3.413,3.413,0,0,0,.764-1.31,7.934,7.934,0,0,0,.192-.982" transform="translate(-397.667 -324.086)" fill="#fff"/>
          <path id="Path_244" data-name="Path 244" d="M536.7,440.25a2.424,2.424,0,0,1-.59.089.951.951,0,0,1-.813-.431,3.3,3.3,0,0,1-.491-1.308,2.178,2.178,0,0,1,.475-1.978.986.986,0,0,1,1.014-.517,1.023,1.023,0,0,1,.541.075,2.285,2.285,0,0,1,.722.984,1.388,1.388,0,0,1,.148.778c0,1.271-.521,2.187-1.005,2.308m.556-5.344a2.529,2.529,0,0,0-1.1-.29,2.034,2.034,0,0,0-.914.233,3.74,3.74,0,0,0-1.4,1.285,3.442,3.442,0,0,0-.422,2.067,3.6,3.6,0,0,0,.142,1.357,2.844,2.844,0,0,0,1.964,2.011,2.166,2.166,0,0,0,.628.092,2.592,2.592,0,0,0,.666-.091,2.939,2.939,0,0,0,2.159-2.35,7.374,7.374,0,0,0-.078-2.4,3.16,3.16,0,0,0-1.644-1.909" transform="translate(-426.41 -347.429)" fill="#fff"/>
          <path id="Path_245" data-name="Path 245" d="M567.952,440.024l-.123,0a2.838,2.838,0,0,1-1.39-.368,2.082,2.082,0,0,0-.8-.25.747.747,0,0,0-.076,0c-.3.03-.4.142-.433.459-.029.464.231.713.691.989a4.516,4.516,0,0,0,1.668.589,3.8,3.8,0,0,0,.475.031,2.018,2.018,0,0,0,1.947-1c.406-.96-.168-2.388-1.329-3.33-.916-.747-1.053-1-1.025-1.448.009-.107.03-.108.078-.108h0a1.5,1.5,0,0,1,.653.287,1.541,1.541,0,0,0,.864.43.479.479,0,0,0,.432-.262c.154-.248.115-.368-.033-.643a3.066,3.066,0,0,0-2.308-1.221,1.031,1.031,0,0,0-.58.151c-.666.408-.833,1.1-.5,2.112a2.872,2.872,0,0,0,.956,1.307,7.979,7.979,0,0,1,1.206,1.347c.159.239.159.239.129.491-.029.408-.029.408-.5.437" transform="translate(-451.76 -347.081)" fill="#fff"/>
          <path id="Path_246" data-name="Path 246" d="M601.938,434.124l-.02-.008a.627.627,0,0,0-.225-.031.869.869,0,0,0-.33.073c-.273.109-.385.261-.625.725-.164.292-.591,1.231-1.026,2.2-.359.821-.6,1.365-.74,1.677-.193-.531-.6-1.8-.887-2.777-.145-.526-.335-1.063-.4-1.215a.329.329,0,0,0-.015-.029.8.8,0,0,0-.664-.446.636.636,0,0,0-.247.051c-.316.118-.3.321-.258.691a28.591,28.591,0,0,0,1.854,6.253.617.617,0,0,0,.454.271c.4,0,.647-.457,1.436-2.258l1.186-2.613c.723-1.513.881-1.987.764-2.3a.458.458,0,0,0-.256-.264" transform="translate(-476.822 -347.005)" fill="#fff"/>
          <path id="Path_247" data-name="Path 247" d="M630.628,441.634h.018a.326.326,0,0,0,.237-.1c.174-.182.218-.6.171-1.591v-.023c-.024-1-.106-4.3-.193-4.649-.1-.393-.324-.627-.6-.627h-.027a.684.684,0,0,0-.565.674c-.078.443.013,4.544.093,5.162.075.47.175,1.1.87,1.156" transform="translate(-503.326 -347.449)" fill="#fff"/>
          <path id="Path_248" data-name="Path 248" d="M646.225,412.748l0-.271c-.055-3.342-.056-3.378-.192-3.607-.178-.35-.395-.4-.508-.4-.187,0-.514.124-.61.955-.022.221-.059,2.018-.076,3.773-.039,2.755-.035,3.827.019,4.987.1,1.882.114,2.132.252,2.386a.538.538,0,0,0,.485.257.757.757,0,0,0,.493-.187c.419-.323.406-.567.254-3.371-.035-.509-.071-2.4-.106-4.232Z" transform="translate(-515.456 -326.526)" fill="#fff"/>
          <path id="Path_249" data-name="Path 249" d="M661.113,412.748l0-.27c-.055-3.343-.056-3.379-.193-3.608-.178-.35-.394-.4-.508-.4-.186,0-.514.124-.61.955-.022.221-.059,2.052-.076,3.773-.039,2.753-.034,3.825.019,4.985.1,1.883.114,2.133.252,2.387a.536.536,0,0,0,.485.257.757.757,0,0,0,.492-.187c.418-.323.405-.567.254-3.371-.034-.5-.07-2.371-.1-4.177Z" transform="translate(-527.358 -326.526)" fill="#fff"/>
          <path id="Path_250" data-name="Path 250" d="M676.747,438.934a3.825,3.825,0,0,1,.022.418c.018.512,0,.578-.067.708-.1.182-.184.271-.645.4a2.785,2.785,0,0,1-.692.1,1.029,1.029,0,0,1-.406-.066,1.845,1.845,0,0,1-.358-.186,1.4,1.4,0,0,1,.235-.171l.011-.008c.136-.095.436-.289.726-.476l.288-.187c.425-.271.722-.448.887-.527m-3.387.74a.982.982,0,0,0-.186,1.229,1.642,1.642,0,0,0,1.323.949,3.677,3.677,0,0,0,.652.049c.1,0,.192,0,.279-.008a2.276,2.276,0,0,0,1.143-.263l.357-.172.121.112a.908.908,0,0,0,.582.279.5.5,0,0,0,.386-.183c.115-.133.464-.539.1-2.943a7.458,7.458,0,0,0-1.152-3.167,1.561,1.561,0,0,0-1.237-.545,2.4,2.4,0,0,0-.72.121c-.387.111-1.642.673-1.753,1.008a1,1,0,0,0,.3.93.526.526,0,0,0,.29.085,1.851,1.851,0,0,0,.893-.381,1.514,1.514,0,0,1,.708-.28c.062,0,.115-.007.159-.007.077,0,.081,0,.242.136a1.544,1.544,0,0,1,.342.523l.017.037a1.429,1.429,0,0,1,.136.359,2.576,2.576,0,0,1-.586.376,14.6,14.6,0,0,0-2.4,1.757" transform="translate(-538.022 -347.745)" fill="#fff"/>
          <path id="Path_251" data-name="Path 251" d="M271.136,393.06a.714.714,0,0,0-.013-.115,2.325,2.325,0,0,0-.519-.875l-.088-.114c-.122-.158-.245-.315-.369-.473H256.427c0,.008,0,.017-.006.024a5.181,5.181,0,0,1-.491,1.359,1.693,1.693,0,0,1-.161.213h15.37c0-.008,0-.013,0-.021" transform="translate(-204.461 -312.95)" fill="#fff"/>
          <path id="Path_252" data-name="Path 252" d="M287.971,478.915H186.706a.8.8,0,0,0,0,1.6H287.971a.8.8,0,1,0,0-1.6" transform="translate(-148.614 -382.842)" fill="#fff"/>
          <path id="Path_253" data-name="Path 253" d="M174.6,156.2c-.355-.411-.662-.862-1.018-1.271a8,8,0,0,0-.733-.663c-.062-.055-.128-.105-.185-.165q-.126-.133-.245-.27A7.38,7.38,0,0,1,171,151.471a5.093,5.093,0,0,0-.384-.689c.917-.022,1.261-.354,1.244-1.23a4.079,4.079,0,0,0-.181-1.108,5.54,5.54,0,0,1,.748-4.959c.128-.189.264-.372.462-.65a7.4,7.4,0,0,1,.568,1.263c0,.02.011.04.014.061.265,1.428.458,2.869.673,4.306a6.277,6.277,0,0,1,.082.874,1.1,1.1,0,0,1-.121.5.555.555,0,0,0,.167.759,2.027,2.027,0,0,1,.936,1.545,15.369,15.369,0,0,0,.448,1.982,1.555,1.555,0,0,1,.1,1.007.309.309,0,0,0,.036.268,2.277,2.277,0,0,1,.489.986,5.79,5.79,0,0,1,.22,1.06c.016.22-.034.32-.152.32a.565.565,0,0,1-.244-.081,1.094,1.094,0,0,1-.6-.679c-.045-.155-.227-.279-.365-.4a4.685,4.685,0,0,1-.533-.41m-7.505-6.681c-.673-.307-1.354-.6-2.038-.881-.287-.118-.591-.193-.883-.3a.513.513,0,0,1-.173-.129c-.309-.31-.613-.627-.924-.935-.364-.359-.725-.72-1.1-1.066a2.835,2.835,0,0,1-.9-1.342,5.462,5.462,0,0,0,3.746,1.388,1.15,1.15,0,0,1-.022.229c-.169.458-.143.667.242.953a8.538,8.538,0,0,0,1.149.7,2.779,2.779,0,0,1,1.485,1.769,4.4,4.4,0,0,0-.585-.388m-15.077,19.72c.241,0,.371.138.472.46.021.068.039.137.054.206.007.033.015.066.019.1a2.191,2.191,0,0,0,.684,1.432l.46.2a3.084,3.084,0,0,0,.433.032,2.832,2.832,0,0,0,.356-.025,3.341,3.341,0,0,0,1.813-.908c.2-.182.413-.355.625-.525a.855.855,0,0,1,.446-.242c.144,0,.248.139.4.435.208.411.4.829.615,1.238a1.353,1.353,0,0,0,1.185.83,1.567,1.567,0,0,0,.932-.349,3.7,3.7,0,0,0,1.274-1.9c.239-.745.4-1.515.606-2.272.046-.169.095-.336.142-.5.029-.1.058-.208.088-.312.076-.261.154-.52.236-.779.03-.1.14-.166.213-.249a1.7,1.7,0,0,1,.215.214c.1.145.179.309.282.452a.745.745,0,0,0,.595.337.652.652,0,0,0,.565-.356,3.647,3.647,0,0,0,.333-.905c.018-.07.04-.138.057-.207a8.378,8.378,0,0,0,.148-.862c.015-.1.03-.209.048-.313a.835.835,0,0,1,.1-.3c.051-.081.141-.185.217-.188h0c.069,0,.146.113.213.182a.419.419,0,0,1,.052.114.926.926,0,0,0,.477.5.682.682,0,0,0,.261.054.729.729,0,0,0,.273-.054,1.065,1.065,0,0,0,.436-.342,1.981,1.981,0,0,0,.245-.4,3.21,3.21,0,0,1,1.343-1.451,5.781,5.781,0,0,0,.5-.327c.285-.21.569-.422.855-.632q1.07-.791,2.139-1.585l.082-.061c.184-.137.357-.29.53-.441a.728.728,0,0,0,.231-1.019c-.116-.193-.035-.34.178-.412a.917.917,0,0,1,.28-.037,2.558,2.558,0,0,1,1.616.588,3.443,3.443,0,0,1,.2.487,1.568,1.568,0,0,0,.353.557,8.494,8.494,0,0,1,1.218,1.094,12.773,12.773,0,0,1,1.139,1.438c.321.465.658.919,1,1.37q.448.59.9,1.174c.249.318.5.636.744.955l.088.114a3.033,3.033,0,0,1,.7,1.285,1.729,1.729,0,0,1,.029.256.244.244,0,0,0,.016.056.767.767,0,0,0,.263.332,20.987,20.987,0,0,1,2.349,2.205,4.443,4.443,0,0,1,.564.77,5.144,5.144,0,0,0,.685.991c.086.1.155.144.212.144s.126-.075.18-.225c.073-.206.122-.422.2-.629.03-.083.084-.2.153-.221.3-.1.213-.3.1-.44a6.242,6.242,0,0,0-1.395-1.618c-.047-.02-.1-.041-.143-.063-.332-.151-.614-.387-.949-.535a.4.4,0,0,1-.052-.032.931.931,0,0,1-.194-.132,1.328,1.328,0,0,1-.322-.44c-.024-.034-.041-.073-.063-.109-.062-.1-.123-.2-.178-.312a3.905,3.905,0,0,0-.272-.47c-.008-.011-.012-.024-.019-.036-.1-.144-.193-.293-.29-.44-.074-.113-.146-.227-.219-.34s-.143-.218-.212-.329c-.152-.245-.3-.491-.452-.74q-.193-.323-.382-.648c-.3-.515-.6-1.03-.909-1.543a5.051,5.051,0,0,0-.962-1.179c-.064-.058-.121-.12-.178-.181a3.485,3.485,0,0,1-.855-2.231,1.174,1.174,0,0,1,.569-1.151,1.651,1.651,0,0,1,.286-.149,1.511,1.511,0,0,1,.579-.119,1.774,1.774,0,0,1,.577.1c.169.058.277.3.4.469a6.5,6.5,0,0,0,.4.563c.294.312.608.606.914.906l.085.082c.222.22.43.455.665.661a1.109,1.109,0,0,0,.126.085.637.637,0,0,0,.347.124.679.679,0,0,0,.332-.094.151.151,0,0,1,.069-.014.593.593,0,0,1,.348.148,6.4,6.4,0,0,1,.494.646.543.543,0,0,0,.436.246.7.7,0,0,0,.252-.053.793.793,0,0,1,.287-.061.633.633,0,0,1,.528.337c.216.319.39.666.576,1,.031.056.061.111.093.166a6.788,6.788,0,0,0,.489.8.9.9,0,0,0,.639.383c.018,0,.037.007.055.007s.04-.011.059-.012a1.016,1.016,0,0,0,.561-.238,2.447,2.447,0,0,0,.244-.232c.066-.071.131-.142.2-.211a.562.562,0,0,1,.862-.069,5.516,5.516,0,0,1,.588.562,3.616,3.616,0,0,0,1.177.893c.024.011.047.022.072.032a1.684,1.684,0,0,0,.621.124,1.37,1.37,0,0,0,.636-.156,1.553,1.553,0,0,0,.681-.736c.234-.5.3-.628.6-.628.033,0,.076,0,.116.006.094.007.2.017.34.034a2.752,2.752,0,0,0,.326.019c.049,0,.1,0,.145-.007s.082,0,.122-.006a.994.994,0,0,0,.972-.9,1,1,0,0,1,.356-.694,1.076,1.076,0,0,1,.368-.182,2.342,2.342,0,0,0,.507-.3l.178-.4a1.267,1.267,0,0,0-.54-1.234,2.705,2.705,0,0,1-.514-.517,2.221,2.221,0,0,1-.432-1.332,1.04,1.04,0,0,0-1.011-1.186c-.078-.012-.158-.023-.246-.03-.331-.025-.664-.023-1-.031-.075,0-.151,0-.226,0-.412-.02-.476-.114-.378-.505.013-.051.021-.1.034-.153a1.657,1.657,0,0,0,.059-.556c-.04-.48-.361-.788-.966-.915-.13-.027-.259-.044-.388-.059a4.722,4.722,0,0,0-.528-.033,7.428,7.428,0,0,0-1.787.254,5.728,5.728,0,0,0-.954.356l-.324.147a10.994,10.994,0,0,0-.153.042c-.074,0-.123-.045-.161-.15-.068-.187-.127-.378-.2-.562a1.088,1.088,0,0,0-.2-.316.659.659,0,0,0-.5-.25.931.931,0,0,0-.436.122c-.057.03-.111.066-.166.1a5.4,5.4,0,0,0-.641.531c-.254.233-.464.512-.72.741a.612.612,0,0,1-.385.2c-.144,0-.274-.1-.416-.3-.155-.219-.273-.325-.4-.325-.116,0-.243.084-.415.247a.129.129,0,0,0-.023.021,1.62,1.62,0,0,1-.825.7,2.518,2.518,0,0,1-.77.144c-.089,0-.18.006-.272.006-.123,0-.248,0-.372-.007-.283-.01-.567-.057-.848-.057l-.089,0c-.142.006-.363.1-.394.205s.1.28.183.415a2.351,2.351,0,0,0,.216.274,1.37,1.37,0,0,1-.338.242,2.058,2.058,0,0,1-.5.051c-.138.01-.275.021-.411.039a2.026,2.026,0,0,0-.984.36,1.446,1.446,0,0,1,.269-1.8c.134-.105.37-.083.56-.115.05-.008.1-.014.154-.02a1.627,1.627,0,0,0,.381-.066c.492-.174.976-.367,1.46-.561a4.177,4.177,0,0,0,.821-.377.346.346,0,0,0,.042-.04.71.71,0,0,0,.213-.446.364.364,0,0,1,.317-.393c.124-.03.249-.056.374-.082s.262-.053.392-.086a.5.5,0,0,0,.4-.464c.053-.42.183-.579.594-.655.327-.061.664-.068,1-.1a9.148,9.148,0,0,0,1.119-.127,1.088,1.088,0,0,0,.31-.121.792.792,0,0,0,.327-.971,5.217,5.217,0,0,0-.2-.528.534.534,0,0,1,.273-.786c.065-.035.134-.062.2-.092.171-.076.347-.143.523-.2a5.227,5.227,0,0,0,.556-.227,2.871,2.871,0,0,0,.459-.27,2.247,2.247,0,0,0,.3-.266,1.344,1.344,0,0,0,.146-1.788c-.009-.013-.015-.026-.024-.04a2.66,2.66,0,0,0-.251-.279c-.323-.332-.319-.385-.061-.767a3.575,3.575,0,0,0,.355-.66.953.953,0,0,0-.028-.881,1.092,1.092,0,0,0-.348-.349.963.963,0,0,1-.487-1,.969.969,0,0,0-.138-.62.858.858,0,0,0-.74-.4,1.013,1.013,0,0,0-.2.019c-.054.01-.107.031-.161.044a5.814,5.814,0,0,0-.775.266l-.188.077a1.246,1.246,0,0,1-.472.113.8.8,0,0,1-.365-.09,3.268,3.268,0,0,0-.777-.241,1.785,1.785,0,0,0-.337-.042h-.018a.939.939,0,0,0-.869.6c-.057.1-.108.208-.161.313-.141.278-.277.559-.416.839-.1.208-.187.307-.294.307a.577.577,0,0,1-.319-.174c-.058-.048-.113-.087-.169-.126a1.277,1.277,0,0,0-.718-.276,1.1,1.1,0,0,0-.914.657,5.891,5.891,0,0,0-.907,3.529c.017.213-.049.288-.211.288h-.019c-.015,0-.03,0-.047,0-.177-.017-.353-.045-.53-.05h-.031a.678.678,0,0,0-.753.737,3.437,3.437,0,0,0,.2.943c.106.339.28.655.389.993.129.4.013.565-.392.646-.48.1-.623.273-.379.687a2.359,2.359,0,0,1-.254,2.477,4.474,4.474,0,0,0-.3.584,1.405,1.405,0,0,0,.005.459c.146-.008.293-.009.439-.025.114-.013.225-.046.339-.069a1.866,1.866,0,0,1,.063.357,1.136,1.136,0,0,1-.081.3c-.127.406-.253.812-.39,1.252a2.353,2.353,0,0,1-.176-.332c-.076-.217-.156-.434-.234-.652a10.067,10.067,0,0,1-.328-1.048,4.738,4.738,0,0,1-.05-1.149c0-.358.026-.7-.419-.837-.059-.018-.093-.149-.123-.234a2.521,2.521,0,0,1-.129-.956.712.712,0,0,1-.029-.17,5.007,5.007,0,0,0-.31-1.336.642.642,0,0,1-.141-.247,3.84,3.84,0,0,1-.093-.375l-.04,0a2.924,2.924,0,0,1-.166-.335,7.441,7.441,0,0,1-.255-4.564c.117-.417.017-.547-.378-.724a.425.425,0,0,1-.213-.27c-.074-.448-.161-.894-.24-1.342a10.766,10.766,0,0,1-.216-2.7.928.928,0,0,1,.689-.871,7.344,7.344,0,0,0,1.262-.6.443.443,0,0,1,.209-.073.277.277,0,0,1,.211.128c.082.1.151.181.212.249.135.148.232.224.33.224a.347.347,0,0,0,.218-.109,3.782,3.782,0,0,0,.345-.373,6.052,6.052,0,0,1,.744-.8,7.344,7.344,0,0,1,.978-.6c.024-.013.049-.025.073-.037a3.306,3.306,0,0,0,.427-.217c.379-.267.421-.428.215-.847-.1-.2-.049-.361.15-.378.121-.01.244-.016.367-.016a2.536,2.536,0,0,1,.581.061,4.643,4.643,0,0,0,1.048.187,1.453,1.453,0,0,0,.578-.114,1.278,1.278,0,0,0,.5-.354.707.707,0,0,0-.194-1.065c-.169-.129-.415-.215-.366-.491a.622.622,0,0,1,.569-.516c.6-.064,1.2-.082,1.806-.094h.035a4.038,4.038,0,0,1,.68.084,2.3,2.3,0,0,0,.381.032c.028,0,.057-.005.085-.006a2.65,2.65,0,0,0,.56-.079,2.836,2.836,0,0,0,2.04-1.822,2.347,2.347,0,0,0,.087-.647.789.789,0,0,0-.207-.555.93.93,0,0,0-.553-.242,2.527,2.527,0,0,1-.516-.189,2.144,2.144,0,0,1,.462-.3c.273-.091.55-.174.827-.254.255-.074.512-.145.769-.216a1.593,1.593,0,0,0,.205-.083L190.8,128a3.167,3.167,0,0,0,.16-.767.741.741,0,0,0-.452-.728c-.711-.385-.793-.3-.484-1.23q.149-.447.264-.9a.8.8,0,0,0-.414-1.062c-.035-.023-.072-.044-.107-.065-.179-.1-.431-.171-.513-.326-.063-.119.112-.348.146-.534a1.529,1.529,0,0,0-.59-1.477,1.265,1.265,0,0,0-.737-.227h0a1.644,1.644,0,0,0-.362.042,1.929,1.929,0,0,0-.546.232.549.549,0,0,1-.275.087.45.45,0,0,1-.339-.178c-.056-.063-.111-.126-.164-.19a1.343,1.343,0,0,0-.792-.5,1.041,1.041,0,0,0-.171-.016,1.293,1.293,0,0,0-.957.5c-.042.047-.079.1-.118.147-.192.244-.32.361-.465.361-.126,0-.265-.089-.468-.263a.569.569,0,0,1-.045-.044,1.5,1.5,0,0,0-1.077-.549,1.648,1.648,0,0,0-1.375,1.073,8.767,8.767,0,0,0-.419,1.442c-.072.273-.148.4-.3.4a.779.779,0,0,1-.319-.1c-.328-.164-.661-.32-.98-.5a1.22,1.22,0,0,0-.594-.166,1.062,1.062,0,0,0-1.027,1.011,3.971,3.971,0,0,0,.1,1.543c.224.77.588,1.5.882,2.248.135.346.248.7.371,1.052l-.082.084c-.148-.045-.3-.083-.445-.139a1.255,1.255,0,0,0-.428-.116.445.445,0,0,0-.306.122.656.656,0,0,0-.157.78c.154.4.358.777.542,1.165a1.075,1.075,0,0,1,.1.2c.04.176.065.354.1.532a3.155,3.155,0,0,1-.456-.123.659.659,0,0,0-.265-.058c-.3,0-.55.241-.609.643a.231.231,0,0,0,0,.094,4.952,4.952,0,0,1-.422,2.837c-.229.778-.464,1.555-.691,2.334-.051.175-.1.349-.153.524-.1.357-.12.7.327.892.2.086.162.269.006.406a2.008,2.008,0,0,1-1.124.486c-.09-.136-.17-.254-.244-.365s-.13-.2-.189-.293a1.611,1.611,0,0,1-.192-.392,20.727,20.727,0,0,1-.533-2.066,6.787,6.787,0,0,1,.025-1.4c.007-.157.07-.254.268-.271a.67.67,0,0,0,.592-.574,2.872,2.872,0,0,0,.064-.9,13.178,13.178,0,0,0-.238-1.361,3.448,3.448,0,0,1,.335-2.344,10.918,10.918,0,0,0,.556-1.3.949.949,0,0,0-.44-1.371c-.159-.11-.137-.22-.023-.333.2-.2.4-.4.614-.582a5.917,5.917,0,0,0,1.835-3.148c.252-1-.318-1.647-1.353-1.665-.848-.015-1.093-.309-.914-1.147a2.662,2.662,0,0,1,.3-.718,4.4,4.4,0,0,0,.154-4.463c-.407-.76-.853-1.1-1.506-1.1a2.969,2.969,0,0,0-.809.132,7.392,7.392,0,0,1-.73.183.806.806,0,0,1-.137.012.523.523,0,0,1-.513-.374c-.2-.509-.383-1.019-.578-1.529a1.426,1.426,0,0,0-.768-.831,1.281,1.281,0,0,0-.5-.1c-.043,0-.086,0-.128.006-.024,0-.048,0-.07,0a.322.322,0,0,1-.337-.245c-.118-.3-.253-.592-.4-.921l-.66-.291c-.841.063-1.015.625-1.124,1.247-.051.291-.1.381-.3.381a1.484,1.484,0,0,1-.207-.02c-.072-.011-.144-.022-.217-.031a2.077,2.077,0,0,0-.242-.016c-.482,0-.734.229-.83.777-.071.41-.074.831-.106,1.248-.043.558-.119.66-.619.66l-.115,0c-.115,0-.23,0-.346,0-.146,0-.293,0-.438.013a1.748,1.748,0,0,0-1.763,1.733,4.025,4.025,0,0,0,1.243,3.111,3.9,3.9,0,0,1,.445.523c.2.318.093.573-.275.659a3.073,3.073,0,0,1-.56.052,2.182,2.182,0,0,0-2.049,1.647,1.669,1.669,0,0,0,.694,1.71c.55.429,1.174.765,1.729,1.188a17.432,17.432,0,0,1,1.3,1.159c.186.174.134.338-.086.444-.189.091-.385.165-.576.252-.543.246-1.033.542-1.039,1.237a1.616,1.616,0,0,0,1.009,1.565,7.851,7.851,0,0,0,1.029.382,7.128,7.128,0,0,1,4.316,3.819c.231.454.339.974.588,1.416a3.488,3.488,0,0,0,.8.943,1.057,1.057,0,0,0,.68.278,1.214,1.214,0,0,0,.748-.306c.064-.051.13-.1.269-.208.038.424.056.79.109,1.152a5.255,5.255,0,0,0,.2.892,5.642,5.642,0,0,1,.354.825c.136.905.256,1.813.372,2.721q.095.74.187,1.479a1,1,0,0,1-.072.324l-.1-.011c0-.082-.006-.164,0-.245a1.188,1.188,0,0,0-.347-1,1.064,1.064,0,0,0-.73-.267h0a1.563,1.563,0,0,0-.326.036c-.174.037-.346.082-.518.128a.605.605,0,0,1-.155.023c-.156,0-.238-.093-.193-.31.1-.509.213-1.018.353-1.519.109-.392.287-.765.4-1.157a1.419,1.419,0,0,0-.363-1.614,1.5,1.5,0,0,0-.985-.369,2.023,2.023,0,0,0-.816.189c-.189.083-.351.227-.533.328a.634.634,0,0,1-.3.094c-.186,0-.293-.151-.3-.441a4.157,4.157,0,0,1,.043-.468,3.275,3.275,0,0,0-.528-2.3,1.516,1.516,0,0,0-1.232-.741,1.742,1.742,0,0,0-.971.339c-.147.1-.285.213-.425.323a.7.7,0,0,1-.373.2c-.114,0-.216-.089-.38-.276-.179-.2-.345-.422-.537-.613a.984.984,0,0,0-.637-.372c-.194,0-.385.126-.624.381a.415.415,0,0,1-.284.167.381.381,0,0,1-.259-.143,1.763,1.763,0,0,0-.34-.275.851.851,0,0,0-.44-.141.65.65,0,0,0-.332.094.725.725,0,0,0-.392.7c.013.216.1.427.124.643a.406.406,0,0,1-.084.315,1.12,1.12,0,0,0-.467,1.359c.1.362.226.719.326,1.083a.479.479,0,0,1-.318.679c-.209.1-.43.167-.639.263a1.212,1.212,0,0,0-.827,1.363,3.452,3.452,0,0,0,2.242,3,2.383,2.383,0,0,1,.78.6c.248.286.171.55-.134.775a1.322,1.322,0,0,0-.664,1.03,4.962,4.962,0,0,0-.514-.323.683.683,0,0,0-.289-.078.516.516,0,0,0-.415.27,1.428,1.428,0,0,1-.127.179c-.082.084-.175.156-.263.234-.069-.119-.188-.233-.2-.357-.035-.416-.015-.836-.045-1.253a3.524,3.524,0,0,0-.143-.893.661.661,0,0,0-.6-.515.778.778,0,0,0-.564.292c-.106.116-.2.245-.3.361a.244.244,0,0,1-.164.1c-.065,0-.117-.059-.149-.171a3.146,3.146,0,0,1-.12-.551c-.069-.666-.126-1.333-.186-2a5.4,5.4,0,0,0-.683-2.491,2.7,2.7,0,0,0-.8-.807,1.071,1.071,0,0,0-.576-.178,1.106,1.106,0,0,0-.871.475c-.313.405-.588.839-.889,1.254-.128.177-.222.263-.324.263s-.2-.073-.343-.217a19.627,19.627,0,0,0-1.416-1.365,2.131,2.131,0,0,0-.955-.357,1.618,1.618,0,0,0-.272-.024,1.281,1.281,0,0,0-1.208.863c-.095.221-.162.454-.259.674-.117.265-.238.39-.421.39a.827.827,0,0,1-.346-.1,2.132,2.132,0,0,0-.935-.23,1.937,1.937,0,0,0-.466.058,1.01,1.01,0,0,0-.8.827c-.2.89-.2.894-1.076.993a1.953,1.953,0,0,0-1.188.636l-.255.575a8.936,8.936,0,0,0,.114.953.994.994,0,0,0,.56.717c.216.1.218.248.088.432a5.245,5.245,0,0,0-.385.609.829.829,0,0,0,.155,1.163c.354.384.735.743,1.1,1.112.345.346.359.482.086.9-.04.061-.09.116-.131.176a1,1,0,0,0,.087,1.421,2.574,2.574,0,0,0,1.948,1.033,2.537,2.537,0,0,0,.689-.1c.5-.141,1.018-.242,1.529-.357a1.6,1.6,0,0,1,.348-.053h.024c.082,0,.22.052.229.1a.366.366,0,0,1-.084.273,1.457,1.457,0,0,1-.306.216.839.839,0,0,0-.349,1.19,2.55,2.55,0,0,0,2.1,1.4,3.966,3.966,0,0,0,.508.033,3.45,3.45,0,0,0,2.118-.722,13.061,13.061,0,0,1,2.005-1.156,1.411,1.411,0,0,1,.614-.116c.092,0,.183.005.27.013.356.033.483.314.35.646-.039.1-.094.188-.135.284a.869.869,0,0,0,.832,1.254h0a2.024,2.024,0,0,0,1.369-.549c.25-.222.468-.484.735-.682a2.316,2.316,0,0,1,.694-.33.359.359,0,0,1,.1-.017c.14,0,.227.107.236.3.028.553.177.7.738.756.081.008.167.018.25.018a.66.66,0,0,0,.186-.024,2.227,2.227,0,0,1,.632-.09,4.639,4.639,0,0,1,1.512.34c.317.11.625.242.943.349a.793.793,0,0,0,.245.047c.21,0,.325-.139.374-.425.1-.563.11-.608.531-.608h.25a11.879,11.879,0,0,0,1.5-.191,1.2,1.2,0,0,1,.151-.015.272.272,0,0,1,.109.019c.507.223,1,.475,1.513.688a4.807,4.807,0,0,1,1.119.65,4.377,4.377,0,0,1,.783.791c.438.573.914,1.116,1.35,1.69a.093.093,0,0,1,.006.011,1.9,1.9,0,0,1,.149.493.525.525,0,0,0,.116.24,5.761,5.761,0,0,0,.719.549,9.293,9.293,0,0,1,1.688,1.547c-.539-.059-1.11-.125-1.681-.181a.279.279,0,0,1-.283-.307c0-.178.011-.356,0-.533-.016-.319-.154-.468-.444-.469-.025,0-.053,0-.081,0a1.7,1.7,0,0,0-.184.028c-.1.02-.206.046-.309.065a13.939,13.939,0,0,1-1.637.283c-.04,0-.079,0-.119,0s-.05,0-.075,0a9.854,9.854,0,0,1-1.064-.153,6.092,6.092,0,0,0-.676-.116l-.1,0c-.509,0-.652.149-.767.7-.038.184-.125.3-.263.3a.35.35,0,0,1-.155-.042,2.806,2.806,0,0,1-.716-.478,8.9,8.9,0,0,1-.623-.785,2.3,2.3,0,0,0-1.447-.868,1.193,1.193,0,0,0-.2-.017.93.93,0,0,0-.91,1.241c.019.071.042.141.063.211.148.5-.042.788-.518.788-.038,0-.079,0-.121-.006a2.685,2.685,0,0,1-1.43-.672c-.673-.545-1.31-1.135-1.971-1.7a3.448,3.448,0,0,0-2.1-.625,3.041,3.041,0,0,0-2.012.657,3.17,3.17,0,0,0-.4.4.991.991,0,0,0,.156,1.538c.169.145.442.3.287.543-.022.036-.1.051-.187.051a1.411,1.411,0,0,1-.407-.067c-.693-.236-1.367-.53-2.063-.758a2.093,2.093,0,0,0-.652-.1,2.881,2.881,0,0,0-2.335,1.22.923.923,0,0,0-.058.874c.078.194.182.377.266.568.17.381.134.534-.194.783-.459.347-.931.677-1.382,1.035-.614.489-.678.8-.359,1.529.021.048.044.1.064.144.084.2.262.426.22.6-.036.149-.334.223-.493.358a1.833,1.833,0,0,0-.593.9,2.006,2.006,0,0,0-.07.658,1.56,1.56,0,0,0,.929,1.39,2.988,2.988,0,0,0,.871.237.729.729,0,0,1,.231.068.515.515,0,0,1,.278.43c.019.135.024.271.029.407a1.415,1.415,0,0,0,1.461,1.476,2.129,2.129,0,0,0,.383-.036c.164-.031.325-.085.486-.128a1.068,1.068,0,0,1,.282-.045" transform="translate(-114.086 -87.313)" fill="#fff"/>
          <path id="Path_254" data-name="Path 254" d="M629.462,419.177c.031,0,.068,0,.11-.005.514-.057.613-.439.642-.806a.821.821,0,0,0-.161-.647.5.5,0,0,0-.382-.162,1.349,1.349,0,0,0-.59.171c-.307.173-.382.248-.382.554a.766.766,0,0,0,.27.59c.167.195.261.3.493.3" transform="translate(-502.578 -333.793)" fill="#fff"/>
        </g>
      </g>
      <path id="Path_255" data-name="Path 255" d="M515.687,379.342l.022-.012-.021-.013Z" transform="translate(-412.237 -303.224)" fill="#fff"/>
      <g id="Group_54" data-name="Group 54">
        <g id="Group_53" data-name="Group 53" clip-path="url(#clip-path-2)">
          <path id="Path_256" data-name="Path 256" d="M514.866,382.679c-.018,0-.036,0-.053.006a.161.161,0,0,0,0,.028l.053,0,0-.03" transform="translate(-411.538 -305.911)" fill="#fff"/>
          <path id="Path_257" data-name="Path 257" d="M388.563,391.483h-.849a2.527,2.527,0,0,0,.466.046,2.326,2.326,0,0,0,.383-.046" transform="translate(-309.936 -312.949)" fill="#fff"/>
          <path id="Path_258" data-name="Path 258" d="M415.9,391.483h-60.73a2.326,2.326,0,0,1-.383.046,2.523,2.523,0,0,1-.466-.046h-8.38c.051.079.1.158.155.235l.019.027.017.029.014.024a4.953,4.953,0,0,1,.3.53,2.941,2.941,0,0,0,.176.312l.043.062.032.067a.405.405,0,0,0,.093.139l.033.017.031.02h0c.09.043.172.088.252.134H415.9a.8.8,0,0,0,0-1.6" transform="translate(-276.545 -312.949)" fill="#fff"/>
          <path id="Path_259" data-name="Path 259" d="M570.557,184.152c.355.616.736,1.217,1.1,1.827.171.284.319.583.5.856a5.163,5.163,0,0,0,.869,1.148c.305.249.566.54.866.788.144.119.226.407.481.126.025-.027.167.033.242.075.1.059.19.155.3.206.135.065.244-.017.247-.229-.08-.162-.177-.383-.294-.592-.669-1.187-1.337-2.376-2.018-3.557-.961-1.667-1.944-3.322-2.894-5a4.478,4.478,0,0,0-.925-1.167c-.253-.224-.436-.231-.661.016-.133.145-.231.318-.446.367-.027.006-.06.134-.039.184a12.481,12.481,0,0,0,.538,1.2c.7,1.257,1.412,2.506,2.131,3.751" transform="translate(-453.961 -142.666)" fill="#fff"/>
          <path id="Path_260" data-name="Path 260" d="M521.144,122.527a.793.793,0,0,0,.063.561c.564,1.089,1.121,2.182,1.684,3.272.173.336.355.667.535,1,.244.453.483.91.74,1.356.078.136.23.356.312.34.232-.044.262.133.338.234.3.4.458.922.921,1.207a.2.2,0,0,1,.051.074c.173.3.345.6.519.893a1.048,1.048,0,0,0,.476.525c.091.038.13.2.192.309l-.1.049.1.267c.119-.11.232-.008.347.01a2.12,2.12,0,0,0-.055-.333,2.351,2.351,0,0,0-.156-.328c-.252-.5-.513-1-.754-1.5-.436-.913-.838-1.844-1.294-2.747-.572-1.134-1.178-2.251-1.781-3.369-.517-.957-1.047-1.908-1.58-2.856-.1-.177-.213-.434-.469-.341s-.108.335-.1.522a3.732,3.732,0,0,1,.008.855" transform="translate(-416.556 -96.831)" fill="#fff"/>
          <path id="Path_261" data-name="Path 261" d="M504.293,182.112c-.1-.2-.217-.417-.318-.635a51.11,51.11,0,0,0-2.819-5.236c-1.142-1.857-2.272-3.722-3.366-5.607-.782-1.348-1.5-2.734-2.239-4.106-.165-.306-.3-.629-.461-.938-.036-.069-.119-.114-.18-.17a1.4,1.4,0,0,0,.018.219,6.981,6.981,0,0,0,.753,1.889c.142.248.27.5.391.763.024.051-.016.131-.026.2a.531.531,0,0,1-.122-.107c-.123-.209-.236-.423-.356-.633a.565.565,0,0,0-.089-.1,1.033,1.033,0,0,0-.1.126c-.158.289.072.513.133.765.048.2.171.246.353.185-.006.153-.065.33-.008.454.183.4.408.774.619,1.158.087.159.178.317.269.474s.2.338.3.507.183.314.279.468a3.536,3.536,0,0,0,.327.49c.1.115.045.413.341.321a3.091,3.091,0,0,0,.162.534c.092.182.168.388.463.38.112,0,.23.186.147.369-.024.054-.088.168.06.14.209-.04.19.064.155.2-.085.337-.084.337.214.517a.471.471,0,0,1,.11.066,9.066,9.066,0,0,1,.788,1.083c.086.129.136.508.47.239.022-.017.161.062.2.125.411.634.837,1.26,1.211,1.915.479.839.913,1.7,1.366,2.556.255.481.51.963.768,1.442.019.035.068.054.1.08l.077-.139" transform="translate(-395.628 -132.237)" fill="#fff"/>
          <path id="Path_262" data-name="Path 262" d="M538.307,222.367a.455.455,0,0,0-.124-.074.336.336,0,0,0,0,.13c.153.329.29.668.473.979.43.731.88,1.45,1.329,2.17a.946.946,0,0,0,.3.328c.059.034.195-.08.3-.11.054-.015.123.024.178.011a.571.571,0,0,0,.447-.458.956.956,0,0,0-.051-.217,11.04,11.04,0,0,0-.64-1.249c-.713-1.072-1.443-2.131-2.073-3.254q-1.467-2.614-2.922-5.234a7.305,7.305,0,0,0-1.323-1.775.535.535,0,0,0-.187-.071.578.578,0,0,0-.023.209c.018.069.084.124.124.188.223.359.449.715.663,1.078.191.325.352.669.554.987a18.916,18.916,0,0,1,1.887,3.509.846.846,0,0,0,.179.314,2.015,2.015,0,0,1,.4.9c.059.17.091.351.164.514.153.345.343.675.48,1.026.059.15.305.253.152.472-.1-.125-.192-.253-.295-.374" transform="translate(-426.869 -170.705)" fill="#fff"/>
          <path id="Path_263" data-name="Path 263" d="M479.471,160.089c-.112-.143-.233-.279-.334-.43q-1.305-1.941-2.6-3.887a.652.652,0,0,0-.081-.109c-.112-.109-.231-.078-.245.083-.018.2-.06.389-.256.439-.266.068-.212.2-.131.369a2.4,2.4,0,0,0,.153.279q1.159,1.716,2.321,3.429a15.828,15.828,0,0,1,1.654,2.653c.061.144.182.33.311.366.319.089.4.353.532.582.113.2.19.412.289.617.07.145.076.141.333.166a.167.167,0,0,1,.1.069c.071.1.132.2.2.3a.387.387,0,0,0,.1.07l.053-.12a2.624,2.624,0,0,0-.084-.263c-.286-.65-.557-1.307-.869-1.945a14.5,14.5,0,0,0-1.443-2.669" transform="translate(-380.313 -124.385)" fill="#fff"/>
          <path id="Path_264" data-name="Path 264" d="M543.084,132.562a.348.348,0,0,0,.038.258c.294.511.6,1.016.9,1.521.03.049.089.118.133.116.361-.011.454.287.621.509.2.265.414.519.636.765.382.422.774.835,1.164,1.249a.128.128,0,0,0,.113.036c.029-.016.036-.073.053-.113-.026-.123-.045-.244-.079-.36a6.734,6.734,0,0,0-.782-1.68c-.735-1.18-1.465-2.363-2.2-3.541a5.709,5.709,0,0,0-.43-.584.2.2,0,0,0-.177.006c-.123.286-.3.559-.119.9a1.09,1.09,0,0,1,.129.916" transform="translate(-433.974 -104.498)" fill="#fff"/>
          <path id="Path_265" data-name="Path 265" d="M552.035,185.272a1.034,1.034,0,0,0-.248-.319.315.315,0,0,0-.45-.03.293.293,0,0,0-.13.394,7.776,7.776,0,0,0,.732,1.405,8.025,8.025,0,0,1,.865,1.53c.141.3.3.589.465.878.185.331.389.652.568.986.393.733.758,1.481,1.166,2.206.386.686.8,1.355,1.222,2.021.216.343.468.664.706.994.015.021.05.029.076.044l.035-.074c-.01-.029-.018-.058-.03-.085-.313-.682-.6-1.376-.945-2.045-.611-1.2-1.248-2.387-1.88-3.576-.369-.694-.793-1.362-1.116-2.076-.34-.753-.767-1.466-1.035-2.253" transform="translate(-440.605 -147.763)" fill="#fff"/>
          <path id="Path_266" data-name="Path 266" d="M519.84,225.49c-.317-.5-.6-1.021-.931-1.51-.32-.474-.68-.921-1.026-1.378-.024-.032-.077-.042-.117-.062,0,.054-.024.117,0,.161.231.495.467.986.7,1.478a.885.885,0,0,0,.079.11c.318.459.644.913.95,1.379.374.571.728,1.154,1.1,1.728q.5.784,1.023,1.56c.185.278.377.55.575.819a.253.253,0,0,0,.157.061c.011,0,.034-.072.067-.148-.128-.253-.245-.534-.4-.788-.717-1.141-1.449-2.271-2.17-3.41" transform="translate(-413.889 -177.897)" fill="#fff"/>
          <path id="Path_267" data-name="Path 267" d="M462.847,244.32c-.013.12-.013.242-.02.363-.04.664-.093,1.328-.117,1.992-.015.424.018.849.016,1.274s-.08.529-.476.576a5.391,5.391,0,0,0-1.43.233.209.209,0,0,1-.31-.169,6.953,6.953,0,0,1-.185-1.159c0-.758.051-1.517.1-2.274.068-1,.157-2,.234-3,.037-.481.059-.512.532-.552s.939-.073,1.409-.1c.3-.018.361.044.362.321,0,.318,0,.637,0,.955l.052,0c-.057.512-.115,1.023-.17,1.535m1.445-4.2a1.121,1.121,0,0,0-.48-.109c-.561-.013-1.123-.005-1.685-.005v.014c-.35,0-.7.011-1.049,0a5.324,5.324,0,0,0-1.479.195,2.725,2.725,0,0,0-.584.25.317.317,0,0,0-.156.341,12.815,12.815,0,0,1,0,1.454q-.172,2.409-.235,4.822a4.114,4.114,0,0,0,.521,2.089c.108.2.249.442.5.406.394-.055.536.175.681.454.257.495.386.546.893.389a4.682,4.682,0,0,1,1.469-.279,1.039,1.039,0,0,0,.377-.127c.306-.129.324-.456.475-.692a4.224,4.224,0,0,0,.613-2.114q.082-1.593.2-3.184.121-1.635.277-3.267a.591.591,0,0,0-.339-.634" transform="translate(-366.62 -191.861)" fill="#fff"/>
          <path id="Path_268" data-name="Path 268" d="M468.355,300.92c-.006-.592-.023-1.2-.062-1.765-.088-1.3-.407-2.411-.653-2.367-.434.078-.868,1.8-.848,3.519.039,3.325.1,6.646.151,9.969a2.977,2.977,0,0,0,.311,1.573c.28.423.559.857.836,1.314.244.4.327.253.351-.828.019-.826,0-1.664,0-2.5l-.016,0q-.037-4.46-.076-8.92" transform="translate(-373.15 -237.249)" fill="#fff"/>
          <path id="Path_269" data-name="Path 269" d="M416.678,300.06a8.057,8.057,0,0,0-.062-.9c-.088-.661-.407-1.231-.653-1.208-.434.04-.868.919-.848,1.8.039,1.7.1,3.393.151,5.09a.962.962,0,0,0,.311.8c.28.216.559.438.836.671.244.206.327.129.351-.423.019-.422,0-.85,0-1.275h-.016c-.025-1.518-.047-3.036-.075-4.554" transform="translate(-331.84 -238.179)" fill="#fff"/>
          <path id="Path_270" data-name="Path 270" d="M349.309,139.326a3.9,3.9,0,0,0,.708,1.455.225.225,0,0,0,.18.092.23.23,0,0,0,.127-.164c.067-.5.148-.991.172-1.489s0,.5,0,0c.01-1.018.2-.66.2-1.678a2.993,2.993,0,0,0-.137-.8.372.372,0,0,0-.464-.315c-.079.019-.159.031-.238.046.05-.072.1-.147.151-.215a.981.981,0,0,1,.135-.122l2.065-1.719a.845.845,0,0,1,.147-.107c.077-.04.16-.068.24-.1a2.062,2.062,0,0,1,.035.249c.011.47,0,.942.03,1.411.07,1,.156,2,.25,3,.044.468.11.934.187,1.4.049.3.144.586.206.881.106.5.2,1.007.307,1.51.01.049.061.09.093.135.031-.028.076-.051.092-.086a3.3,3.3,0,0,0,.294-.712,9.881,9.881,0,0,0,.217-2.4,45.894,45.894,0,0,1-.073-5.877,1.209,1.209,0,0,0-.036-.406.617.617,0,0,1,.223-.686c.594-.543,1.176-1.1,1.763-1.65a.679.679,0,0,1,.106-.086c.125-.075.253-.147.379-.22-.037.135-.074.271-.113.406-.012.044-.018.1-.049.126a1.385,1.385,0,0,0-.4,1.2c-.008.678-.173,1.353-.244,2.032-.049.468-.018.945-.081,1.41a19.368,19.368,0,0,0-.106,3.413c.046,1.138.1,2.275.13,3.414.021.711.047,1.422.049,2.134a57.055,57.055,0,0,0,.527,7.03c.053.231.192.283.381.317a.278.278,0,0,0,.358-.254,5.052,5.052,0,0,0,.119-.942c-.028-1.215-.111-5.6-.124-6.814-.024-2.326-.048-4.652-.006-6.977.023-1.273.185-2.544.281-3.816a9.41,9.41,0,0,0,.058-1.136,5.47,5.47,0,0,0-.184-1.574.585.585,0,0,1,.238-.821c.087-.06.156-.144.237-.213.406-.343.811-.689,1.224-1.023.058-.047.161-.038.243-.055a1.217,1.217,0,0,1-.008.212c-.164.786-.346,1.568-.493,2.357a4.96,4.96,0,0,0,.261,3.126c.1.217.2.443-.093.635-.076.05-.07.251-.072.383-.007.486.014.973,0,1.459a34.153,34.153,0,0,0,.111,4.6,3.463,3.463,0,0,1-.092.987,1.016,1.016,0,0,0,.065.79,1.338,1.338,0,0,1,.106.3c.09.281.211.368.5.317a1.127,1.127,0,0,0,.861-.732,2.755,2.755,0,0,0,.217-1.154c-.009-.638-.025-1.277-.025-1.915q0-1.551.015-3.1c0-.341.035-.371.364-.372s.669.01,1,.036c.48.038.484.048.468.52-.036,1.063-.08,2.125-.111,3.188a2.247,2.247,0,0,0,.05.814c.207.563.194,1.162.344,1.732.082.314-.009.42-.318.479-.417.08-.839.137-1.256.217a2.03,2.03,0,0,0-.562.17,6.047,6.047,0,0,0-.626.431l.255.578.036.084c.2.447.317.54.806.45.686-.127,1.365-.29,2.043-.455a2.522,2.522,0,0,0,.632-.251.824.824,0,0,0,.387-.977,2.774,2.774,0,0,1-.06-.533c-.011-.243.01-.487-.011-.729a25.5,25.5,0,0,1,0-3.964c.028-.407.087-.813.151-1.217.047-.3.135-.592.186-.891.148-.865-.287-1.342-1.144-1.26a3.6,3.6,0,0,1-.72.078c-.648-.074-1.289-.2-1.935-.286a.4.4,0,0,1-.381-.369,7.581,7.581,0,0,1-.078-2.72c.124-.779.277-1.554.395-2.334a9.42,9.42,0,0,0,.091-1.179.643.643,0,0,0-.135-.416c-.186-.2-.124-.344.036-.5.6-.6,1.2-1.207,1.8-1.807a1.147,1.147,0,0,1,.222-.159,1.063,1.063,0,0,1,.163-.066.63.63,0,0,1,.005.168c-.086.354-.2.7-.263,1.06-.1.6-.2,1.2-.248,1.8-.065.847-.093,1.7-.114,2.547a15.941,15.941,0,0,0,.352,2.694c.013.09.1.17.154.255.073-.066.191-.121.211-.2a8.51,8.51,0,0,0,.268-1.24c.11-1.073.17-2.151.275-3.224.067-.679.195-1.353.267-2.032a13.31,13.31,0,0,0,.081-1.5c0-.426-.162-.525-.613-.475a.729.729,0,0,1-.172-.022c.019-.065.019-.149.061-.19.262-.253.538-.493.8-.745.582-.556,1.157-1.118,1.74-1.673.046-.043.145-.084.187-.063a.263.263,0,0,1,.09.184,1.276,1.276,0,0,1-.026.225c-.046.8-.122,1.6-.125,2.407,0,.956.053,1.912.089,2.868.018.486.021.974.078,1.456a8.828,8.828,0,0,1,.136,1.757,17.644,17.644,0,0,0,.056,1.773c.01.438.014.878-.009,1.315-.02.375-.116.747-.119,1.121-.008.789.036,1.578.033,2.367,0,.393-.068.784-.094,1.177-.014.208-.006.418-.008.627,0,.105,0,.211,0,.316-.021.621-.045,1.241-.064,1.862a.832.832,0,0,0,.183.587,1.283,1.283,0,0,1,.157.558.276.276,0,0,1-.073.192c-.356-.032-.259.174-.21.37.1.388.094.4-.316.467a.779.779,0,0,0-.709.617c-.062.485-.012,17,.048,17.488.023.186.042.246-.028.272a1.843,1.843,0,0,1,.277.457c.106.027.2.132.215.371.436.126.555-.04.044.358a2.81,2.81,0,0,1,1.1-.541.428.428,0,0,0,.011-.05c.038-.56.081-17.126.1-17.687.059-1.473.094-2.947.165-4.419.086-1.792.163-3.585.31-5.372.172-2.1.092-4.194.065-6.29-.019-1.473-.112-2.945-.145-4.418-.025-1.109,0-2.218-.014-3.327a.791.791,0,0,1,.314-.627c.3-.26.6-.516.895-.777.205-.181.4-.368.607-.551.132-.119.242-.1.328.057.028.054.073.1.1.154.361.8.725,1.6,1.074,2.408a.809.809,0,0,1,.036.4c-.074.6-.18,1.2-.243,1.806a23.81,23.81,0,0,0-.248,3.68q.068,1.3.125,2.592a4.248,4.248,0,0,0,.257,1.562,1.059,1.059,0,0,1,.033.269c.033.237.067.474.108.709.005.03.053.057.086.076.006,0,.047-.036.057-.061a1.881,1.881,0,0,0,.091-.257,17.692,17.692,0,0,0,.415-3.02c.085-1.228.144-2.457.228-3.685.031-.454.1-.905.161-1.356.01-.076.084-.142.129-.213a.735.735,0,0,1,.166.139c.223.344.439.693.655,1.041.576.929,1.155,1.857,1.723,2.791.151.248.127.277-.154.37-.56.184-.672.359-.664.959.008.577.014,1.155-.01,1.731-.018.423-.08.845-.134,1.266a5.076,5.076,0,0,0,.257,1.371c.029.208.2.239.388.2.324-.074.416-.357.492-.6a8.935,8.935,0,0,0,.429-2.134c.02-.378.086-.754.143-1.129a.826.826,0,0,1,.118-.23,1.1,1.1,0,0,1,.2.2c.4.663.79,1.33,1.183,2,.269.457.549.909.8,1.374.23.419.18.515-.264.639a.64.64,0,0,0-.565.751c0,.3-.013.6-.024.907-.016.456-.042.911-.051,1.367-.035,1.641-.058,3.282-.1,4.923a11.48,11.48,0,0,0-.036,2.045,3.215,3.215,0,0,1,.072.723,9.088,9.088,0,0,1-.331,1.943,8.383,8.383,0,0,0-.163,2.214c-.007.194.206.439-.138.551-.023.008-.035.083-.034.127.014.545,0,1.093.062,1.633a1.466,1.466,0,0,1-.039.847.967.967,0,0,0,.32,1.33,1.252,1.252,0,0,1,.276,1.432c-.012.04-.053.071-.081.106-.034-.041-.1-.085-.1-.124a.453.453,0,0,0-.169-.409,1.586,1.586,0,0,1,.027.307,1.53,1.53,0,0,1-.16.741c0,.008,0,.015,0,.022,0,.071.006.143.006.214a5.833,5.833,0,0,1-.085.729,2.052,2.052,0,0,1-.085.2,1.374,1.374,0,0,0,.466.781c.066.056.093.156.15.225a.3.3,0,0,0,.14.088c.013,0,.063-.064.072-.1a5.145,5.145,0,0,0,.173-.843c.074-1.38.126-2.762.187-4.143.016-.349.024-.7.058-1.046.085-.861.195-1.719.272-2.58.1-1.1.174-2.208.26-3.312,0-.015,0-.03.006-.045.1-1.027.232-2.053.293-3.083.087-1.486.134-2.975.178-4.463.026-.881.01-1.763.017-2.645a2.249,2.249,0,0,1,.038-.406c.009-.046.069-.092.117-.115.02-.009.076.037.1.068a.673.673,0,0,1,.059.123q1.15,2.247,2.3,4.493c.1.189.211.368.305.558a.585.585,0,0,1,.02.2,1.409,1.409,0,0,1-.212,0c-.043-.006-.079-.044-.121-.061a.737.737,0,0,0-1.07.7c-.015.592-.034,1.185-.048,1.777-.013.546-.035,1.093-.029,1.639,0,.272.078.542.086.815.027.956.049,1.913.052,2.87,0,.986-.019,1.972-.032,2.958a.438.438,0,0,1-.017.18,2.29,2.29,0,0,0-.1,1.076c0,.528,0,1.058-.015,1.586a7.806,7.806,0,0,1-.115,1.633,6.368,6.368,0,0,0-.111,1.438c-.019.7-.046,1.4-.047,2.1,0,1.033-.066,4.781.322,5.772a.969.969,0,0,0,.781.717.477.477,0,0,0,.605-.486,2.787,2.787,0,0,0-.065-.679,8.689,8.689,0,0,1-.284-2.39c.046-1.472.215-5.663.3-7.135.077-1.411.174-2.82.241-4.231.127-2.672-.033-5.351.188-8.02.027-.318.036-.638.072-.954a.877.877,0,0,1,.134-.265,1.008,1.008,0,0,1,.253.167,2.59,2.59,0,0,1,.238.388c.274.49.549.979.817,1.473.52.96,1.043,1.918,1.548,2.886a26.9,26.9,0,0,0,1.687,3.118c.163.232.123.337-.142.438a6.321,6.321,0,0,0-.629.257.509.509,0,0,0-.265.674,1.8,1.8,0,0,1,.074.489c0,.76-.022,1.521,0,2.281a25.409,25.409,0,0,1-.263,3.633,29.346,29.346,0,0,0-.313,3.723c.007.806.009,1.612.033,2.417.014.47.067.939.1,1.409h1.909c.036-.057.074-.113.115-.166a16.36,16.36,0,0,0,1.413-1.942,9.207,9.207,0,0,1,.583-.92c.762-1.057,1.528-2.113,2.308-3.157.816-1.094,1.621-2.2,2.484-3.254q1.5-1.832,3.093-3.583c1.239-1.357,2.523-2.673,3.8-4,.768-.8,1.562-1.575,2.32-2.385.351-.375.643-.805.959-1.213.022-.029.013-.081.019-.122-.041,0-.09-.006-.121.014-.275.18-.508.449-.886.4a.1.1,0,0,0-.075.046,1.163,1.163,0,0,1-.862.6c-.053.011-.1.07-.143.11-.145.125-.264.315-.507.162-.032-.02-.137.046-.188.094-.228.22-.449.447-.673.672-.357.359-.842.6-1.05,1.1,0,.009-.03.006-.042.014a8.914,8.914,0,0,0-1.5,1.378,7.994,7.994,0,0,0-.6.618c-.159.2-.253.448-.418.637-.239.274-.53.5-.773.772-.261.291-.491.609-.736.915a.911.911,0,0,1-.172.2,5.71,5.71,0,0,0-1.3,1.388c-.19.25-.331.537-.506.8a1.5,1.5,0,0,1-.361.44.523.523,0,0,0-.287.421c-.01.1-.132.258-.205.259-.319,0-.4.224-.481.455a4.632,4.632,0,0,1-.194.506c-.043.086-.157.215-.21.2-.246-.058-.318.118-.42.261-.141.2-.271.4-.423.59-.543.669-1.1,1.325-1.636,2-.272.344-.5.719-.757,1.079-.226.323-.463.639-.682.967a8.076,8.076,0,0,0-.956,1.651c-.03.081-.151.128-.23.191a1.089,1.089,0,0,1-.089-.242,12.071,12.071,0,0,1,.052-2.91.476.476,0,0,1,.312-.4,2.222,2.222,0,0,0,.7-.552c.736-.906,1.429-1.846,2.165-2.752.813-1,1.635-1.995,2.491-2.959,1.551-1.749,3.2-3.408,4.909-5,1-.931,2.031-1.83,3.071-2.716.831-.708,1.7-1.367,2.546-2.063.632-.522,1.262-1.049,1.861-1.607a3.461,3.461,0,0,0,1.048-1.729.762.762,0,0,0-.05-.284c-.094.03-.216.033-.276.1-.146.152-.259.334-.394.5a1.773,1.773,0,0,1-.278.289c-.4.3-.794.606-1.2.893a1.9,1.9,0,0,1-.733.419c-.251.031-.352.078-.456.308a.885.885,0,0,1-.734.6.822.822,0,0,0-.52.208c-.134.1-.336.206-.357.335-.043.261-.286.078-.358.218-.031.062-.1.116-.106.179-.04.328-.116.479-.363.482a.733.733,0,0,0-.757.637.377.377,0,0,1-.432.32.48.48,0,0,0-.475.2,3.732,3.732,0,0,1-.323.473c-.138.122-.362.145-.507.262-.378.3-.734.637-1.1.959-.11.1-.267.178-.156.373,0,.007-.064.08-.1.078-.355-.018-.5.235-.6.5-.062.159-.074.373-.287.333-.244-.046-.056.343-.314.261-.065-.021-.185.078-.259.146a51.712,51.712,0,0,0-4.214,4.586c-.539.63-1.081,1.257-1.621,1.886-.326.38-.653.759-.976,1.142-.186.221-.357.454-.547.671a.782.782,0,0,1-.229.127,1.047,1.047,0,0,1-.06-.288c.028-.362.079-.721.11-1.083.056-.651.1-1.3.154-1.954a.381.381,0,0,1,.021-.134c.025-.051.062-.117.107-.13s.111.043.133.085a2.273,2.273,0,0,1,.176.419.285.285,0,0,0,.38.227.875.875,0,0,0,.415-.234c.279-.319.521-.669.788-1,.583-.718,1.159-1.443,1.765-2.142.466-.539.972-1.042,1.461-1.562.1-.111.206-.223.312-.332,1.214-1.253,2.452-2.485,3.638-3.764,1.146-1.236,2.243-2.517,3.354-3.784a15.675,15.675,0,0,0,1.887-2.728,1.261,1.261,0,0,1,.8-.693c.256-.055.3-.215.326-.421.023-.152-.054-.213-.175-.179a6.157,6.157,0,0,0-.77.263c-.192.082-.353.228-.588.077-.059-.038-.228.04-.312.107a8.85,8.85,0,0,0-1.806,1.972c-.5.734-1.149,1.329-1.664,2.044a12.261,12.261,0,0,1-1.25,1.386c-.669.679-1.385,1.313-2.03,2.014a5.116,5.116,0,0,1-1.049,1.035c-.023.014-.027.055-.047.077-.18.2-.354.412-.543.607-.222.227-.465.434-.684.663-.377.393-.745.795-1.114,1.2-.75.814-1.516,1.613-2.239,2.45-.384.445-.692.955-1.039,1.433a.229.229,0,0,1-.138.078c-.021,0-.067-.06-.076-.1a1.013,1.013,0,0,1-.023-.225c-.006-.517-.013-1.034-.012-1.55a1.23,1.23,0,0,1,.055-.257,1.3,1.3,0,0,1,.27.106c.327.221.483.212.751-.065.042-.044.074-.1.117-.14.406-.4.426-.523.119-1.008-.137-.217-.305-.416-.444-.633s-.1-.3.155-.306a1.224,1.224,0,0,0,.946-.454q1.337-1.521,2.686-3.033,1.965-2.213,3.93-4.425c.653-.739,1.291-1.493,1.94-2.235.59-.674,1.19-1.34,1.78-2.013.954-1.088,2.043-2.037,3.1-3.023a.68.68,0,0,0,0-1.128,3.683,3.683,0,0,1-.881-1.091,2.334,2.334,0,0,0-.379-.565,7.776,7.776,0,0,1-1-1.565q-1.443-2.684-2.848-5.388c-.654-1.264-1.263-2.552-1.911-3.82-.365-.714-.765-1.41-1.161-2.108a1.268,1.268,0,0,0-.306-.322c-.045-.038-.133-.025-.2-.035a.594.594,0,0,0,.013.21c.286.616.56,1.24.878,1.84a10.065,10.065,0,0,1,.892,1.876,4.774,4.774,0,0,0,.212.645c.316.7.65,1.385.971,2.078a4.754,4.754,0,0,1,.2.509.445.445,0,0,1-.015.17c-.051-.017-.1-.031-.151-.052s-.1-.051-.15-.077a.514.514,0,0,0,0,.2,6.718,6.718,0,0,1,.339.694,19.457,19.457,0,0,0,1.626,3.345.655.655,0,0,0,.073.115c.015.018.048.022.072.033.007-.028.027-.061.018-.083-.063-.17-.124-.342-.2-.505-.149-.316-.311-.625-.458-.941-.016-.035.025-.1.04-.148a.38.38,0,0,1,.1.076c.22.345.462.679.648,1.041a6.245,6.245,0,0,0,1.831,2.048c.144.111.259.169.165.384-.031.071.068.217.136.309.107.146.252.265.355.413a.328.328,0,0,1-.06.514,4.568,4.568,0,0,0-.379.391c-.611.59-1.254,1.15-1.831,1.772-1.134,1.224-2.235,2.48-3.344,3.728-.928,1.044-1.841,2.1-2.775,3.138-.466.519-.97,1-1.444,1.517-.711.769-1.387,1.573-2.123,2.317a18.9,18.9,0,0,1-2.273,2.155c-.18.13-.284.146-.4-.053-.2-.341-.38-.691-.555-1.044-.418-.84-.8-1.7-1.248-2.523-1.03-1.9-2.095-3.79-3.131-5.691-.34-.624-.628-1.277-.956-1.909-.509-.981-1.015-1.964-1.551-2.93-.573-1.034-1.184-2.046-1.768-3.073-.72-1.264-1.408-2.547-2.149-3.8-.648-1.094-1.4-2.13-2.018-3.239-.83-1.481-1.586-3.005-2.361-4.517-.263-.513-.265-.547.167-.933.656-.586,1.323-1.163,2.018-1.7,1.283-.994,2.589-1.957,3.887-2.931.267-.2.535-.4.811-.586.185-.126.311-.089.339.1.06.415.1.833.136,1.251,0,.027-.069.085-.108.087-.183.012-.185.008-.131.141a9.133,9.133,0,0,0,.5,1.251c.279.48.415,1.042.671,1.537.628,1.212,1.279,2.412,1.942,3.6.53.953,1.1,1.887,1.641,2.833.476.827.942,1.661,1.418,2.488s.947,1.626,1.416,2.442c.287.5.555,1.011.854,1.5.074.121.236.188.358.28a3.878,3.878,0,0,1-.123-.368.594.594,0,0,1,.02-.2.831.831,0,0,1,.131.1,2.671,2.671,0,0,0,.522.609,1.079,1.079,0,0,1,.466.464,1.068,1.068,0,0,0,.2.3.624.624,0,0,0,.226.09,1.178,1.178,0,0,0,.031-.215.519.519,0,0,0-.049-.175c-.219-.531-.411-1.077-.668-1.589-.543-1.083-1.092-2.165-1.691-3.217-.667-1.171-1.391-2.311-2.095-3.461-.87-1.422-1.77-2.827-2.609-4.267-.578-.993-1.087-2.028-1.6-3.055-.442-.877-.85-1.771-1.281-2.654-.073-.15-.066-.251.077-.347a3.63,3.63,0,0,0,.356-.283c.6-.531,1.2-1.067,1.807-1.595a1.793,1.793,0,0,1,.413-.271.8.8,0,0,0,.311-1.212,3.152,3.152,0,0,0-.281-.3.589.589,0,0,0-.82-.119,2.759,2.759,0,0,0-.595.411c-.359.347-.666.752-1.042,1.079q-1.083.941-2.222,1.816c-.771.59-1.583,1.126-2.359,1.709-1.25.939-2.485,1.9-3.727,2.846a11.127,11.127,0,0,1-1.085.814,3.061,3.061,0,0,0-.788.67,5.048,5.048,0,0,1-1.4,1.462c-.153.078-.255.254-.379.387-.052.055-.089.131-.15.168a12.972,12.972,0,0,0-1.874,1.647c-1.218,1.1-2.445,2.186-3.668,3.278-.453.4-.938.779-1.352,1.219a24,24,0,0,1-2.306,2.066c-.74.607-1.485,1.207-2.213,1.827-.519.443-1,.935-1.524,1.367-.55.451-1.151.84-1.7,1.287-1.074.868-2.13,1.758-3.192,2.64a11.55,11.55,0,0,1-1.123.927,1.165,1.165,0,0,0-.546,1.24.836.836,0,0,0,.992.87,1.684,1.684,0,0,0,1.2-.579c.274-.284.566-.55.856-.817a.179.179,0,0,1,.161-.033c.034.02.05.106.042.158-.05.3-.125.593-.161.893-.052.436-.079.876-.116,1.314" transform="translate(-276.843 -86.654)" fill="#fff"/>
        </g>
      </g>
    </g>
  </g>
</svg>
