<svg xmlns="http://www.w3.org/2000/svg" xmlns:xlink="http://www.w3.org/1999/xlink" width="76" height="76" viewBox="0 0 76 76">
  <defs>
    <clipPath id="clip-path">
      <rect id="Rectangle_450" data-name="Rectangle 450" width="40.466" height="49.777" fill="#899c88"/>
    </clipPath>
  </defs>
  <g id="round-discover1" transform="translate(-284 -2587.26)">
    <g id="Group_64" data-name="Group 64" transform="translate(184.162 1797.422)">
      <circle id="Ellipse_2" data-name="Ellipse 2" cx="38" cy="38" r="38" transform="translate(99.838 789.838)" fill="#fff"/>
      <g id="Ellipse_1" data-name="Ellipse 1" transform="translate(104.838 794.838)" fill="none" stroke="#899c88" stroke-linecap="round" stroke-width="1" stroke-dasharray="3">
        <circle cx="33" cy="33" r="33" stroke="none"/>
        <circle cx="33" cy="33" r="32.5" fill="none"/>
      </g>
    </g>
    <g id="Group_73" data-name="Group 73" transform="translate(301.767 2598.583)">
      <g id="Group_72" data-name="Group 72" clip-path="url(#clip-path)">
        <path id="Path_528" data-name="Path 528" d="M182.565,209.14c-.065.026-.115-.034-.059-.068a.127.127,0,0,0-.016-.193c-.071-.027-.1-.191-.113-.543a1.57,1.57,0,0,0-.031-.321.1.1,0,0,1,.011-.089.091.091,0,0,0-.011-.106.438.438,0,0,1-.054-.2.851.851,0,0,0-.066-.263c-.032-.062-.048-.127-.036-.145s0-.033-.016-.033-.034-.021-.03-.046a4.83,4.83,0,0,0-.112-.816c-.029-.114-.061-.249-.07-.3a2.567,2.567,0,0,0-.271-.7c-.031-.024-.045-.062-.032-.083a.733.733,0,0,0-.036-.275c-.05-.2-.087-.362-.222-.986a4.61,4.61,0,0,0-.233-.632.881.881,0,0,1-.075-.208.387.387,0,0,0-.059-.146.325.325,0,0,1-.049-.154.856.856,0,0,0-.073-.239,1.246,1.246,0,0,1-.073-.186c-.053-.263-.071-.329-.092-.315s-.026-.031-.028-.086a.9.9,0,0,0-.072-.249.876.876,0,0,1-.073-.225,2.52,2.52,0,0,0-.161-.507.2.2,0,0,1-.014-.082,1.169,1.169,0,0,0-.083-.225,1.719,1.719,0,0,1-.14-.435.169.169,0,0,0-.032-.066.792.792,0,0,1-.076-.178c-.024-.077-.057-.133-.072-.124s-.028-.021-.03-.066c0-.177-.014-.217-.048-.2s-.029-.154.017-.491c.026-.182.021-.2-.094-.319-.067-.07-.151-.165-.189-.211-.078-.1-.18-.077-.337.072a1.438,1.438,0,0,0-.275.526.3.3,0,0,1-.057.12.357.357,0,0,0-.063.145c-.008.047-.041.2-.075.33s-.071.295-.083.356a.912.912,0,0,1-.092.236,1.33,1.33,0,0,0-.1.264c-.02.077-.079.3-.132.488a3.32,3.32,0,0,0-.1.451.383.383,0,0,1-.032.139,1.442,1.442,0,0,0-.071.281,1.8,1.8,0,0,1-.117.385,1.109,1.109,0,0,0-.088.225.869.869,0,0,1-.076.2.509.509,0,0,0-.06.175,2.915,2.915,0,0,1-.18.557.468.468,0,0,0-.023.081.12.12,0,0,1-.032.054.159.159,0,0,0-.028.1c0,.038-.014.07-.029.07a1.092,1.092,0,0,0-.139.394.08.08,0,0,1-.027.057,1.132,1.132,0,0,0-.089.264,2.669,2.669,0,0,1-.132.39.757.757,0,0,0-.071.265.76.76,0,0,1-.072.265,1.37,1.37,0,0,0-.1.335.868.868,0,0,1-.083.272.651.651,0,0,0-.072.225.776.776,0,0,1-.1.272.882.882,0,0,0-.109.282c-.037.238-.043.258-.111.356a.471.471,0,0,0-.065.23c0,.088-.021.147-.056.16a.09.09,0,0,0-.056.075,4.631,4.631,0,0,1-.227.709.355.355,0,0,0,.006.318c.05.05.014.123-.062.123-.031,0-.055.038-.057.085s-.007.123-.012.171a.269.269,0,0,0,.051.169,2.839,2.839,0,0,1,.188.467,1.679,1.679,0,0,0,.158.385c.016,0,.021.022.01.05a.543.543,0,0,0,.061.235c.044.1.123.3.175.447a2.817,2.817,0,0,0,.143.337.777.777,0,0,1,.072.182.487.487,0,0,0,.1.186.264.264,0,0,1,.073.129.383.383,0,0,0,.061.143c.033.05.049.092.034.092s.014.055.061.121a.622.622,0,0,1,.093.171c.018.125.143.415.17.4s.022,0,.011.033a.935.935,0,0,0,.076.315,1.672,1.672,0,0,1,.1.354.865.865,0,0,0,.073.248.416.416,0,0,1,.055.16c-.01,0,.007.049.039.109a.926.926,0,0,1,.074.254,4,4,0,0,0,.092.4,1.278,1.278,0,0,1,.06.253.88.88,0,0,0,.057.208,6.126,6.126,0,0,1,.152.61,2.458,2.458,0,0,0,.115.438.176.176,0,0,1,.033.1c0,.037.02.067.042.067s.033.022.023.049a.994.994,0,0,0,.1.424.257.257,0,0,1,.027.131.652.652,0,0,0,.044.21c.023.059.045.114.049.125a.76.76,0,0,0,.114.263.539.539,0,0,1,.077.187c.017.073.038.158.046.188a1.322,1.322,0,0,1,.023.207c.007.159.088.319.159.319.024,0,.052.035.063.079s.035.07.054.059a.1.1,0,0,1,.087.015h0a.26.26,0,0,0,.143.027c.071-.009.1-.058.181-.273a4.127,4.127,0,0,0,.221-.874c-.01-.01,0-.039.029-.065a.673.673,0,0,0,.1-.211c.027-.09.062-.2.078-.239.092-.244.14-.472.1-.494s-.017-.035.018-.055a.3.3,0,0,0,.083-.172,1.118,1.118,0,0,1,.082-.248c.032-.06.048-.117.037-.128s0-.044.034-.073a.226.226,0,0,0,.055-.142.19.19,0,0,1,.055-.132.608.608,0,0,0,.1-.348c0-.016.016-.028.044-.028.056,0,.154-.237.192-.469a.94.94,0,0,1,.1-.275.525.525,0,0,0,.072-.2c0-.04.012-.073.028-.073a1.542,1.542,0,0,0,.171-.524.093.093,0,0,1,.021-.076,1.042,1.042,0,0,0,.193-.361.51.51,0,0,1,.056-.165.9.9,0,0,0,.07-.176.982.982,0,0,1,.056-.175.227.227,0,0,0,.023-.139.393.393,0,0,1,.064-.194,1.98,1.98,0,0,0,.09-.188.392.392,0,0,1,.016-.056.152.152,0,0,0,0-.062.07.07,0,0,1,.036-.061.273.273,0,0,0,.055-.161.609.609,0,0,1,.039-.18.276.276,0,0,0,.034-.1.592.592,0,0,1,.048-.155,5.325,5.325,0,0,0,.235-.8.67.67,0,0,1,.078-.237.146.146,0,0,0,.035-.108.378.378,0,0,1,.078-.187c.067-.085.072-.11.028-.163s-.033-.052,0-.035.1-.048.124-.144c0-.021.023-.077.042-.125.054-.142.042-.281-.022-.257m-4.452-3.712c-.028-.034-.031-.055-.005-.055s.04-.029.04-.065a4.626,4.626,0,0,1,.082-.841.708.708,0,0,0,.056-.205.73.73,0,0,1,.055-.205,3.449,3.449,0,0,0,.223-.7.142.142,0,0,1,.037-.105,1.134,1.134,0,0,0,.082-.46.227.227,0,0,1,.031-.12.68.68,0,0,0,.055-.2c.018-.144.084-.33.117-.33a.375.375,0,0,1,.013.18.584.584,0,0,0,.018.225.086.086,0,0,1,.007.078,5.506,5.506,0,0,0-.039.6,3.636,3.636,0,0,1-.055.637.1.1,0,0,0-.006.1,1.05,1.05,0,0,1-.022.353c-.028.176-.065.4-.081.507a1.115,1.115,0,0,1-.077.275c-.037.065-.037.1,0,.138s.033.13,0,.364c-.024.171-.044.353-.044.406a3.694,3.694,0,0,1-.126.6c-.008.032-.032.125-.053.207s-.04.159-.043.169l-.018.056c0,.021-.03.1-.056.17a3.476,3.476,0,0,0-.073.562,4.323,4.323,0,0,1-.1.7,1.856,1.856,0,0,0-.068.346.1.1,0,0,1-.045.1c-.027.011-.05,0-.05-.015,0-.048-.149-.065-.276-.032a.272.272,0,0,1-.188-.016.338.338,0,0,0-.169-.033c-.078.01-.087,0-.065-.077a3.513,3.513,0,0,0,.065-.369,2.026,2.026,0,0,1,.088-.395,1.534,1.534,0,0,0,.076-.235c.013-.066.04-.121.06-.121s.034-.043.034-.094.013-.094.029-.094.033-.043.038-.1a.5.5,0,0,1,.045-.167.392.392,0,0,0,.038-.159.219.219,0,0,1,.044-.133.639.639,0,0,0,.076-.242c.018-.109.037-.227.043-.264a.234.234,0,0,1,.053-.108.1.1,0,0,0,.022-.094.131.131,0,0,1,.031-.114.358.358,0,0,0,.056-.181,1.115,1.115,0,0,1,.05-.258c.035-.11.037-.152,0-.2m-1.377,3.186c.058-.038.065-.282.006-.259s-.007-.269.055-.409c.092-.209.116-.291.1-.323s-.006-.034.012-.034.051-.072.074-.16a4.949,4.949,0,0,1,.249-.8.558.558,0,0,0,.06-.217.761.761,0,0,1,.057-.241c.03-.075.107-.34.171-.59a7.4,7.4,0,0,1,.472-1.468l.056-.112-.021.154a1.527,1.527,0,0,1-.092.319.753.753,0,0,0-.061.287c.006.067,0,.129-.016.138a1.541,1.541,0,0,0-.021.385,1.787,1.787,0,0,1-.021.407.889.889,0,0,0-.073.177c-.025.078-.058.142-.073.142-.048,0-.116.183-.116.312a.413.413,0,0,1-.056.2.5.5,0,0,0-.068.2.354.354,0,0,1-.037.139.885.885,0,0,0-.049.245.641.641,0,0,1-.056.241,1.266,1.266,0,0,0-.184.416c0,.028-.015.051-.033.051-.048,0-.083.161-.043.2s-.006.131-.1.251a.226.226,0,0,0-.04.131.762.762,0,0,1-.041.215h0c-.026.077-.071.14-.1.14-.066,0-.071-.1-.006-.138m2.259,7.65c.012-.02,0-.057-.025-.087a.934.934,0,0,1-.1-.134c-.04-.071-.038-.088.011-.106s.054-.029,0-.087c-.032-.035-.048-.075-.036-.087s0-.061-.026-.109a.253.253,0,0,1-.041-.115,5.846,5.846,0,0,0-.258-.986,1.485,1.485,0,0,1-.084-.4c0-.035-.015-.065-.029-.065s-.026-.039-.027-.086a.9.9,0,0,0-.111-.425,1.146,1.146,0,0,1-.1-.271.439.439,0,0,0-.057-.17.2.2,0,0,1-.036-.12,1.321,1.321,0,0,0-.164-.533.63.63,0,0,1-.083-.207,1.065,1.065,0,0,0-.209-.442.728.728,0,0,1-.115-.271A4.545,4.545,0,0,0,177.3,211c-.075-.155-.14-.3-.144-.32s-.06-.164-.122-.319c-.111-.278-.163-.414-.17-.45a.313.313,0,0,0-.035-.068.6.6,0,0,1-.05-.169.845.845,0,0,0-.071-.221.673.673,0,0,1-.053-.117c0-.024.158,0,.525.087a3.192,3.192,0,0,0,.431.054c.144.007.276.016.291.017.043.006.034.192-.008.192a.038.038,0,0,0-.038.038c0,.021.023.038.053.038a.073.073,0,0,1,.067.039.087.087,0,0,0,.068.048.317.317,0,0,1,.1.037c.05.032.182-.136.218-.276.019-.081.044-.092.2-.092a.346.346,0,0,1,.262.08c.088.082.116.2.045.2-.021,0-.027.021-.011.046.039.064.045.178.011.2a1.608,1.608,0,0,0,.051.679.726.726,0,0,1-.031.345.2.2,0,0,0,.02.1c.022.055.02.092,0,.1a1.278,1.278,0,0,0-.071.528,1.009,1.009,0,0,0,.062.263.869.869,0,0,1,.058.253c0,.051,0,.178,0,.281,0,.2,0,.357,0,.507,0,.051.006.381.016.732.027,1.012.024,1.069-.028,1.069s-.005.2.046.227c.031.018.031.034,0,.051s-.028.055,0,.122a1.711,1.711,0,0,1,.031.422,2.651,2.651,0,0,0,.023.445c.021.085.016.122-.016.122s-.034-.016-.023-.034m.14.241-.028.107-.051-.123c-.043-.1-.043-.127,0-.155a.051.051,0,0,1,.079.016.265.265,0,0,1,0,.155m.03-8.482a.213.213,0,0,0-.018.162c.022.1.012.114-.082.135a.964.964,0,0,0-.406.462c0,.036-.041.064-.106.073l-.107.014.022-.256a4.419,4.419,0,0,1,.076-.49c.029-.129.082-.434.117-.676a3.753,3.753,0,0,1,.11-.552.445.445,0,0,0,.035-.187.177.177,0,0,1,.03-.122c.022-.025.032-.048.021-.048a2.5,2.5,0,0,1,.136-.551c.011-.011.063.078.118.2s.084.229.065.248a.528.528,0,0,0,0,.248.968.968,0,0,1,.011.275.313.313,0,0,0,.02.16c.026.066.026.1,0,.1s-.026.023,0,.066a1.834,1.834,0,0,1-.033.743m.814-6.253c.048,0,.126.115.126.183a1.584,1.584,0,0,0,.092.326.846.846,0,0,1,.069.307.071.071,0,0,0,.013.079,4.8,4.8,0,0,1,.376.981c.113.32.211.626.219.678a11.8,11.8,0,0,0,.359,1.426,10.29,10.29,0,0,1,.393,1.509.551.551,0,0,0,.05.216c.013,0,.027.046.029.1.011.2.053.556.089.758a2.288,2.288,0,0,1,.037.329h0c0,.123,0,.125-.168.125a.289.289,0,0,1-.263-.1.352.352,0,0,1-.1-.186.138.138,0,0,0-.038-.105.18.18,0,0,1-.038-.127.245.245,0,0,0-.047-.149c-.038-.037-.037-.052,0-.077s.035-.056-.016-.165c-.037-.075-.079-.127-.1-.117s-.022,0-.012-.029a.7.7,0,0,0-.04-.255,1.371,1.371,0,0,1-.055-.3.442.442,0,0,0-.033-.169c-.074-.157-.111-.318-.078-.339s-.029-.232-.133-.435c-.044-.084-.051-.128-.022-.138s.031-.036,0-.089-.032-.084-.022-.094-.007-.081-.039-.156a1.1,1.1,0,0,1-.068-.289,2.294,2.294,0,0,0-.187-.665c-.053-.1-.04-.216.023-.216.019,0,.034.031.034.069a.28.28,0,0,0,.055.14.292.292,0,0,1,.056.137.619.619,0,0,0,.045.169.4.4,0,0,1,.036.153c0,.026.007.046.027.046s.046.081.061.178.035.237.046.309a.47.47,0,0,0,.052.173c.018.022.023.05.011.062s.005.061.038.109a.357.357,0,0,1,.06.174.387.387,0,0,0,.038.158.7.7,0,0,1,.054.2,3.407,3.407,0,0,0,.247.809c.021.006.038.066.038.131,0,.21.155.322.261.194.027-.031.032-.056.012-.056s-.034-.072-.032-.16a1.117,1.117,0,0,0-.064-.336.52.52,0,0,1-.043-.234.379.379,0,0,0-.056-.208c-.047-.088-.061-.15-.038-.15s.03-.016,0-.046a.7.7,0,0,1-.09-.3,1.223,1.223,0,0,0-.169-.445c-.038-.042-.043-.07-.016-.087.05-.031.012-.2-.062-.29a.191.191,0,0,1-.031-.175c.015-.065.008-.122-.016-.135a.147.147,0,0,1-.039-.108.509.509,0,0,0-.057-.191c-.031-.06-.048-.117-.037-.128s-.008-.049-.04-.084a.641.641,0,0,1-.077-.282.688.688,0,0,0-.188-.478.1.1,0,0,1-.052-.069c0-.025.025-.021.063.011.07.058.072.081-.047-.324a1.408,1.408,0,0,0-.1-.266.055.055,0,0,1-.006-.066c.013-.013.007-.024-.015-.024-.052,0-.137-.21-.106-.26.015-.023,0-.067-.033-.1a.2.2,0,0,1-.059-.112c0-.029-.015-.054-.032-.054a1.151,1.151,0,0,1-.093-.534.4.4,0,0,0-.038-.215c-.032-.062-.049-.115-.039-.115m1.344,7.012c-.082.172-.244-.045-.3-.4-.012-.072-.031-.165-.043-.205-.021-.07-.017-.07.068-.014.049.034.084.088.078.121s.006.06.027.06.049.064.063.142a.363.363,0,0,0,.084.183c.043.031.049.062.022.117m-1.519-5.66a.305.305,0,0,0,0-.1c0-.046.009-.085.027-.085s.036-.054.038-.119a.267.267,0,0,1,.049-.159c.034-.033.039,0,.023.122a.535.535,0,0,0,.015.235c.018.039.049.1.067.137a1.014,1.014,0,0,1,.06.2l.028.129-.1-.09c-.128-.118-.162-.042-.083.188.063.181.079.5.023.467s-.084.048-.059.169c.014.061.049.111.077.111s.045.022.015.1a1.021,1.021,0,0,0,.04.557.121.121,0,0,1,.016.106.3.3,0,0,0,.057.192.408.408,0,0,1,.066.292,3.225,3.225,0,0,0,.109.817,1.062,1.062,0,0,1,.038.2.755.755,0,0,0,.047.207,1.388,1.388,0,0,1,.057.467c0,.1.018.136.051.124s.046.017.046.076a.4.4,0,0,0,.06.186,1.273,1.273,0,0,1,.076.514c.01.234.021.5.026.589h0c.01.18,0,.186-.207.164-.109-.011-.145-.033-.16-.1a4.627,4.627,0,0,1-.07-.523c0-.058-.016-.1-.029-.1s-.022-.021-.02-.047a2.7,2.7,0,0,0-.065-.347c-.039-.165-.075-.318-.078-.338a.948.948,0,0,0-.028-.093c-.011-.032-.041-.15-.067-.263a.971.971,0,0,0-.092-.264,1.809,1.809,0,0,1-.032-.638,15.419,15.419,0,0,0-.047-2.027,4.1,4.1,0,0,1,.021-1.051m-.076,4.994c.056-.105.109-.1.153.027a1.169,1.169,0,0,0,.074.17.135.135,0,0,1,.007.123c-.027.049-.045.046-.131-.021-.121-.1-.158-.2-.1-.3m-.3.756c.057-.037.072-.034.072.007,0,.081-.1.15-.123.088-.011-.028.012-.071.051-.1m2.356.894c-.018,0-.032.031-.032.067a.176.176,0,0,1-.034.1,2.481,2.481,0,0,0-.129.412,4.167,4.167,0,0,1-.249.779.42.42,0,0,0-.038.176.2.2,0,0,1-.033.132c-.032.02-.054.114-.1.444-.011.077-.037.14-.055.14s-.033.057-.033.129a.229.229,0,0,1-.038.152.1.1,0,0,0-.038.079.84.84,0,0,1-.076.223,2.563,2.563,0,0,0-.122.346,1.148,1.148,0,0,1-.12.287.561.561,0,0,0-.109.288,1.12,1.12,0,0,1-.076.2,1.259,1.259,0,0,0-.076.185.828.828,0,0,1-.071.162.546.546,0,0,0-.063.2,2.574,2.574,0,0,1-.207.5,2.6,2.6,0,0,0-.207.5.671.671,0,0,1-.077.233.347.347,0,0,0-.055.183.37.37,0,0,1-.059.187.707.707,0,0,1-.094.153.289.289,0,0,1-.016-.132c0-.072-.012-.131-.028-.131a8.8,8.8,0,0,1-.053-1.389c0-.258,0-.579,0-.712s0-.409,0-.611a1.55,1.55,0,0,0-.025-.365.939.939,0,0,1-.018-.272,1.449,1.449,0,0,0-.059-.446c-.062-.181-.064-.256-.022-1.534.022-.655.05-.8.159-.819a.349.349,0,0,0,.16-.1c.075-.079.1-.083.221-.045.144.045.365.236.3.259-.021.006.007.043.065.081.094.061.107.062.163.007s.054-.064-.006-.108a.2.2,0,0,1-.072-.132c0-.046-.019-.083-.035-.083a.029.029,0,0,1-.029-.029.6.6,0,0,1,.26-.021.785.785,0,0,1,.4.09c.166.1.345.077.374-.038.015-.053.056-.069.193-.07.1,0,.222,0,.28-.01a.255.255,0,0,1,.128.014.558.558,0,0,1-.144.325" transform="translate(-159.235 -179.691)" fill="#899c88"/>
        <path id="Path_529" data-name="Path 529" d="M40.422,28.5c.056,0,.057-.008.007-.048a.237.237,0,0,1-.059-.158c0-.062-.011-.21-.023-.329-.015-.135-.009-.216.016-.216s.026-.016,0-.046a.708.708,0,0,1-.065-.235,3.5,3.5,0,0,0-.107-.544c-.029-.114-.075-.337-.1-.5s-.066-.286-.088-.281-.046-.024-.055-.063,0-.06.026-.044.042,0,.042-.033a.763.763,0,0,0-.161-.359c-.017,0-.022-.013-.011-.031a.582.582,0,0,0-.038-.216,2.446,2.446,0,0,1-.148-.721.393.393,0,0,0-.077-.148.62.62,0,0,1-.092-.175.914.914,0,0,0-.073-.192.79.79,0,0,1-.075-.214.111.111,0,0,0-.039-.087.044.044,0,0,1-.017-.058c.012-.02,0-.036-.035-.036s-.056-.037-.054-.122a.745.745,0,0,0-.059-.263,1.16,1.16,0,0,1-.062-.169.308.308,0,0,0-.05-.1,2.733,2.733,0,0,1-.15-.376c-.056-.165-.113-.325-.126-.356a.394.394,0,0,1-.026-.094,1.074,1.074,0,0,0-.071-.181,1.24,1.24,0,0,1-.087-.244,1.762,1.762,0,0,0-.232-.524.751.751,0,0,1-.1-.233,1.409,1.409,0,0,0-.115-.3c-.048-.093-.122-.253-.166-.357a3.12,3.12,0,0,0-.391-.714.328.328,0,0,1-.09-.145.844.844,0,0,0-.114-.22c-.055-.082-.134-.205-.176-.274a1.7,1.7,0,0,0-.141-.2.269.269,0,0,1-.065-.1.4.4,0,0,0-.076-.123.356.356,0,0,1-.074-.152,1.459,1.459,0,0,0-.308-.433.246.246,0,0,1-.07-.114.517.517,0,0,0-.11-.174c-.061-.07-.1-.14-.093-.156s-.016-.039-.058-.053-.076-.045-.076-.072a.325.325,0,0,0-.084-.143,1.213,1.213,0,0,1-.233-.3.253.253,0,0,0-.092-.091,1.771,1.771,0,0,1-.225-.214c-.075-.082-.182-.2-.238-.253a.448.448,0,0,1-.1-.135,2.036,2.036,0,0,0-.281-.3,1.734,1.734,0,0,1-.281-.305c0-.04-.108-.1-.16-.091-.015,0-.028-.016-.028-.042s-.055-.084-.122-.131a3.1,3.1,0,0,1-.269-.215.587.587,0,0,0-.2-.133.092.092,0,0,1-.07-.065,1.9,1.9,0,0,0-.5-.423c-.02,0-.058-.043-.086-.094s-.061-.094-.076-.094a10.17,10.17,0,0,1-.813-.742c-.089-.087-.162-.15-.162-.138s-.055-.021-.123-.072a1.644,1.644,0,0,0-.292-.166,1.27,1.27,0,0,1-.306-.2,3.4,3.4,0,0,0-.355-.275,3.847,3.847,0,0,1-.413-.332,2.278,2.278,0,0,0-.35-.273,2.446,2.446,0,0,1-.295-.2.548.548,0,0,0-.186-.114c-.027,0-.048-.012-.048-.028s-.055-.051-.122-.081a.9.9,0,0,1-.188-.109c-.035-.031-.065-.045-.065-.031s-.1-.022-.216-.082a11.706,11.706,0,0,0-1.29-.608.156.156,0,0,1-.105-.053.389.389,0,0,0-.182-.078,1.366,1.366,0,0,1-.253-.074c-.061-.026-.26-.1-.442-.171a1.951,1.951,0,0,1-.349-.155.142.142,0,0,0-.1-.032.517.517,0,0,1-.207-.076c-.068-.042-.139-.067-.158-.055a.438.438,0,0,1-.2-.076c-.1-.054-.189-.087-.21-.073s-.047,0-.058-.034a.057.057,0,0,0-.07-.038.533.533,0,0,1-.213-.037,1.553,1.553,0,0,0-.48-.1.082.082,0,0,1-.076-.021A3.584,3.584,0,0,0,23.4,9.613a3.329,3.329,0,0,1-.393-.062.416.416,0,0,0-.113-.026.078.078,0,0,1-.059-.079c0-.041-.007-.1-.01-.136-.01-.084-.222-.122-.323-.059-.157.1-.209.1-.2.016s.121-.128.422-.192a.878.878,0,0,0,.244-.133.356.356,0,0,1,.1-.06,9.011,9.011,0,0,0,1.38-1.33,2.587,2.587,0,0,0,.455-.8c.016-.07.034-.143.04-.164a1.562,1.562,0,0,0,.07-.495c-.011-.044,0-.087.019-.094.054-.018.087-.243.04-.273-.022-.013-.023-.066,0-.139a.277.277,0,0,0,.012-.152,2.078,2.078,0,0,1-.032-.36,1.862,1.862,0,0,0-.047-.42,1.959,1.959,0,0,1-.044-.433,1.431,1.431,0,0,0-.061-.446.649.649,0,0,1-.055-.248,2.961,2.961,0,0,0-.209-.775.781.781,0,0,1-.054-.143c0-.051-.164-.242-.193-.223s-.021-.006-.01-.037-.01-.077-.056-.105-.078-.07-.078-.1a2.486,2.486,0,0,0-.585-.573.425.425,0,0,1-.166-.194c0-.017-.022-.032-.049-.032a.385.385,0,0,1-.158-.113c-.06-.062-.128-.106-.15-.1s-.062-.016-.087-.055-.062-.071-.083-.071a.411.411,0,0,1-.137-.065.514.514,0,0,0-.147-.071.655.655,0,0,1-.172-.1.913.913,0,0,0-.205-.119.16.16,0,0,1-.1-.074.3.3,0,0,0-.126-.105A1.816,1.816,0,0,1,21.772.3,1.982,1.982,0,0,0,21.187.13a.8.8,0,0,1-.263-.075,2.366,2.366,0,0,0-.837-.034,3.96,3.96,0,0,1-.6.062A4.126,4.126,0,0,0,18,.472a.214.214,0,0,1-.128.057.13.13,0,0,0-.1.06c-.019.033-.049.061-.069.061a1.814,1.814,0,0,0-.34.128.635.635,0,0,1-.2.051c-.044,0-.079.017-.079.038a.04.04,0,0,1-.042.038.19.19,0,0,0-.1.068.614.614,0,0,1-.183.121.3.3,0,0,0-.143.117.47.47,0,0,1-.226.142,1.4,1.4,0,0,0-.472.262c-.034.032-.114.1-.177.147s-.108.1-.1.122-.006.033-.038.033a.056.056,0,0,0-.06.047,1.459,1.459,0,0,1-.223.31,2.218,2.218,0,0,0-.225.288,2.791,2.791,0,0,1-.2.307,1,1,0,0,0-.231.48c-.016.11-.034.235-.042.276s-.022.284-.033.538a4.014,4.014,0,0,1-.037.493,8.728,8.728,0,0,0,.073,1.072c.012.062.045.214.074.339a4.064,4.064,0,0,1,.069.582,1.515,1.515,0,0,0,.288.957,1.969,1.969,0,0,1,.184.264,1.009,1.009,0,0,0,.188.216,1.214,1.214,0,0,1,.154.154,1.471,1.471,0,0,0,.352.32c.055.029.1.069.1.087s.016.023.035.011a.054.054,0,0,1,.066.029,3.094,3.094,0,0,0,.612.38,2.245,2.245,0,0,0,1.044.192c.378-.013.479.007.451.1-.02.056-.139.065-1.1.087-.372.009-.717.026-.769.037a1.182,1.182,0,0,0-.413.142c0,.016-.031.026-.066.022a1.025,1.025,0,0,0-.253.057c-.1.034-.237.072-.3.084a.159.159,0,0,0-.126.1c-.011.041-.035.073-.055.073s-.024-.017-.012-.038c.025-.038-.044-.051-.2-.039a5.474,5.474,0,0,0-.563.174,4.7,4.7,0,0,1-.535.166.489.489,0,0,0-.186.094.477.477,0,0,1-.2.094c-.037,0-.067.015-.067.033s-.077.044-.171.059a1.7,1.7,0,0,0-.419.154,1.373,1.373,0,0,1-.3.129.247.247,0,0,0-.13.066,2.085,2.085,0,0,1-.271.177c-.109.062-.319.193-.465.292a1.47,1.47,0,0,1-.321.177.163.163,0,0,0-.1.066.687.687,0,0,1-.2.14,3.156,3.156,0,0,0-.319.192,2.324,2.324,0,0,1-.225.14c-.032.013-.082.039-.114.056-.178.1-.3.156-.3.132s-.033,0-.073.045a1.991,1.991,0,0,1-.5.341.533.533,0,0,0-.178.132c0,.017-.021.032-.048.032a.491.491,0,0,0-.178.111.462.462,0,0,1-.233.113c-.058,0-.1.022-.1.05a.184.184,0,0,1-.079.1c-.044.031-.131.1-.193.154a2.187,2.187,0,0,1-.32.205.71.71,0,0,0-.224.155.085.085,0,0,1-.074.048c-.049,0-.116.045-.338.226a.182.182,0,0,1-.066.037.29.29,0,0,0-.086.054l-.329.266a6.189,6.189,0,0,0-.722.671.492.492,0,0,1-.159.136c-.022,0-.039.012-.039.028a.837.837,0,0,1-.133.179c-.074.082-.2.232-.291.334s-.2.223-.242.273a.4.4,0,0,0-.084.111,6.254,6.254,0,0,1-.587.694,1.491,1.491,0,0,0-.2.239,1.633,1.633,0,0,1-.244.321.205.205,0,0,0-.056.1.041.041,0,0,1-.037.044c-.021,0-.081.068-.133.152a2.456,2.456,0,0,1-.244.309.785.785,0,0,0-.149.193.546.546,0,0,1-.094.156.532.532,0,0,0-.094.161,4.6,4.6,0,0,1-.428.739,2.709,2.709,0,0,0-.232.4,4.631,4.631,0,0,1-.37.606c-.248.327-.36.512-.335.551.01.017,0,.032-.014.032a.516.516,0,0,0-.124.2,3.078,3.078,0,0,1-.2.364c-.105.158-.232.377-.539.935a1.068,1.068,0,0,0-.131.338.292.292,0,0,1-.037.145.115.115,0,0,0-.016.1c.011.032.007.058-.01.058-.061,0-.122.193-.077.245a.088.088,0,0,1,.013.1.412.412,0,0,0-.037.133,2.9,2.9,0,0,1-.092.342c-.045.139-.088.279-.094.309a5.861,5.861,0,0,1-.215.731,2.7,2.7,0,0,0-.117.414.477.477,0,0,1-.038.161.128.128,0,0,0-.011.1c.011.028,0,.058-.017.063s-.04.076-.045.153-.017.141-.031.141-.034.072-.047.16-.03.2-.04.253c-.026.132-.066.451-.072.568,0,.055-.017.093-.031.084s-.023.039-.021.107-.009.282-.027.479-.037.567-.041.826S.033,29,.019,29.36a6.516,6.516,0,0,0,.024,1.491c.022.027.023.049.005.049a4.711,4.711,0,0,0,.02,1.089A.881.881,0,0,1,.1,32.2c0,.07.02.13.049.141s.04.032.009.072-.033.1,0,.233c.023.1.048.249.056.33a2.488,2.488,0,0,0,.076.351.619.619,0,0,1,.039.225c-.011.011,0,.055.025.1a.448.448,0,0,1,.047.117c0,.021.018.105.037.187s.036.168.038.188c.016.148.071.315.1.3s.023.006.011.038a.417.417,0,0,0,.038.21,1.424,1.424,0,0,1,.079.3,1.3,1.3,0,0,0,.059.252,1.01,1.01,0,0,1,.055.213,1.169,1.169,0,0,0,.124.3,2.5,2.5,0,0,1,.171.4,2.08,2.08,0,0,0,.106.282c.057.1.073.281.024.281-.023,0-.007.029.033.066a.6.6,0,0,1,.123.2c.027.072.1.232.155.354a1.415,1.415,0,0,1,.106.265,1.258,1.258,0,0,0,.1.247,1.065,1.065,0,0,1,.1.23,3.289,3.289,0,0,0,.3.781c.074.134.2.372.276.526a1.583,1.583,0,0,0,.171.294c.016.007.028.045.028.084s.017.072.038.072.038.026.038.056.015.056.033.056.043.029.056.066a1.626,1.626,0,0,0,.116.216c.053.082.127.209.167.281a1.232,1.232,0,0,0,.146.211A1.624,1.624,0,0,1,3.4,41a1.908,1.908,0,0,0,.275.378,5.658,5.658,0,0,1,.527.612,1.583,1.583,0,0,0,.2.224c.109.111.235.25.281.309a3.63,3.63,0,0,0,.541.594,5,5,0,0,1,.673.644,1.566,1.566,0,0,0,.259.222,7.261,7.261,0,0,1,.562.495,2.031,2.031,0,0,0,.367.311c.025,0,.043.015.038.033s.033.071.084.116.156.139.233.21a.567.567,0,0,0,.179.128.041.041,0,0,1,.039.042,1.685,1.685,0,0,0,.424.409c.029,0,.1.054.315.226a.175.175,0,0,0,.072.037.257.257,0,0,1,.1.062,1.064,1.064,0,0,0,.139.1,8.045,8.045,0,0,1,.737.473,1.328,1.328,0,0,0,.273.158,2.082,2.082,0,0,1,.271.148.3.3,0,0,0,.125.052.2.2,0,0,1,.126.077.091.091,0,0,0,.081.052.921.921,0,0,1,.25.11,4.92,4.92,0,0,0,.526.266,5.9,5.9,0,0,0,.76.283c.067.013.122.038.122.054,0,.049.275.2.375.208a2.56,2.56,0,0,1,.638.218.993.993,0,0,0,.207.079,7.422,7.422,0,0,1,.844.287.527.527,0,0,0,.178.05.9.9,0,0,1,.3.122.727.727,0,0,0,.273.108,1.75,1.75,0,0,1,.625.133.233.233,0,0,0,.146.033.239.239,0,0,1,.148.033,1.022,1.022,0,0,0,.491.1,2.359,2.359,0,0,1,.431.073c.135.037.277.07.319.076s.134.02.207.033.208.032.3.043l.506.062.489.059c.082.01.187.018.232.018s.075.018.059.059a.1.1,0,0,0,.048.109h0c.086.062.077.063.188-.01.071-.046.172-.059.44-.052,1.075.026,2.918,0,3.106-.037a6.183,6.183,0,0,1,.9-.1c.331-.021.4-.03.432-.061a.074.074,0,0,1,.074-.006.166.166,0,0,0,.119-.018,2.406,2.406,0,0,1,.445-.08,3.58,3.58,0,0,0,1.126-.233c.1-.04.214-.081.244-.088a2.906,2.906,0,0,0,.555-.182c.067-.035.141-.054.161-.04s.067,0,.1-.033a1.216,1.216,0,0,1,.588-.214c.028.023.077,0,.147-.061s.112-.087.125-.075.056,0,.1-.034a.3.3,0,0,1,.139-.055,1.438,1.438,0,0,0,.561-.3A.08.08,0,0,1,28.437,48c.03.011.055,0,.055-.016s.089-.073.2-.119a2.4,2.4,0,0,0,.792-.462c.06-.056.121-.094.137-.084s.05-.009.077-.04a1.59,1.59,0,0,1,.42-.226.422.422,0,0,0,.056-.016.167.167,0,0,1,.051-.006.323.323,0,0,0,.11-.089c.1-.1.186-.121.186-.035,0,.03.019.056.043.056.056,0,.22-.179.22-.24,0-.027.047-.072.1-.1.148-.077.273-.191.273-.248s.046-.065.121-.055c.014,0,.059-.038.1-.089a.284.284,0,0,1,.105-.094,8.238,8.238,0,0,0,.765-.548,1.18,1.18,0,0,0,.206-.217.5.5,0,0,1,.155-.154,1.619,1.619,0,0,0,.265-.226,6.035,6.035,0,0,1,.728-.656c.018,0,.033-.024.033-.055a1.733,1.733,0,0,1,.448-.47c.02,0,.045-.029.059-.066a1.629,1.629,0,0,1,.3-.291,1.409,1.409,0,0,0,.28-.263,1.262,1.262,0,0,1,.207-.26,1.349,1.349,0,0,0,.207-.259.273.273,0,0,1,.084-.114,1.3,1.3,0,0,0,.156-.191c.058-.089.448-.59.756-.969a.238.238,0,0,0,.054-.118c0-.071.249-.436.277-.407.012.012.023,0,.023-.033a4.556,4.556,0,0,1,.65-.9c.017-.013.026-.03.02-.038-.023-.029.215-.27.353-.358.077-.049.141-.116.141-.149,0-.055-.009-.055-.094,0-.051.034-.094.055-.094.046a1.4,1.4,0,0,1,.179-.312.532.532,0,0,0,.086-.15.553.553,0,0,1,.061-.144A5.972,5.972,0,0,0,38.1,38.2a.379.379,0,0,1,.075-.132.365.365,0,0,0,.075-.14,7.823,7.823,0,0,1,.4-.835.434.434,0,0,0,.054-.157.11.11,0,0,1,.035-.086c.02-.012.026-.059.015-.105a.718.718,0,0,1,.026-.4.4.4,0,0,0,.036-.162c0-.051.018-.1.04-.106a.85.85,0,0,0,.127-.388,4.248,4.248,0,0,1,.281-1.07c.039-.093.082-.194.094-.225s.064-.131.115-.222a.791.791,0,0,0,.094-.213,1.079,1.079,0,0,1,.151-.315.455.455,0,0,0,.028-.15,3.483,3.483,0,0,1,.1-.451,5.756,5.756,0,0,0,.258-1.614.185.185,0,0,1,.033-.1.772.772,0,0,0,.049-.254,1.851,1.851,0,0,1,.04-.29,2.819,2.819,0,0,0,.031-.431A1.442,1.442,0,0,1,40.283,30a4.568,4.568,0,0,0,.041-.861.384.384,0,0,1,.056-.273c.033-.036.045-.067.026-.067s-.038-.068-.042-.15c0-.119.007-.15.057-.152M18.188,7.84a2.772,2.772,0,0,1-.083.406c-.048.152-.075.189-.139.187a.3.3,0,0,1-.123-.029.122.122,0,0,0-.1-.006.2.2,0,0,1-.137-.022,2.615,2.615,0,0,0-.387-.119,2.868,2.868,0,0,1-.439-.144c-.072-.038-.186-.088-.253-.114a.259.259,0,0,1-.143-.115c-.012-.039-.034-.069-.048-.067-.067.01-.13-.007-.108-.029s-.035-.083-.11-.155a2.715,2.715,0,0,1-.39-.513c0-.011-.066-.159-.147-.33a2.469,2.469,0,0,1-.215-1.512c.015-.123.033-.251.042-.281s.027-.149.04-.263c.037-.313.045-.374.092-.638a2.326,2.326,0,0,1,.066-.3.736.736,0,0,0,.031-.134,2.343,2.343,0,0,1,.29-.817c.087-.142.173-.286.194-.322a3.338,3.338,0,0,1,.851-.866,1.653,1.653,0,0,0,.4-.307c.006-.015.034-.018.062-.007a.192.192,0,0,0,.139-.039.546.546,0,0,1,.175-.071.194.194,0,0,0,.121-.067c.018-.028.034-.042.034-.027a1.114,1.114,0,0,0,.3-.122,2.027,2.027,0,0,1,.743-.242c.011.01.041,0,.069-.023s.051-.033.051-.022.075,0,.166-.031c.126-.038.17-.039.182-.006s.027.034.067,0a1.609,1.609,0,0,1,.5-.051,2.409,2.409,0,0,1,.788.039l.279.06a.825.825,0,0,1,.15.049,1.738,1.738,0,0,0,.255.077.606.606,0,0,1,.238.1.143.143,0,0,0,.083.053.526.526,0,0,1,.161.094.5.5,0,0,0,.167.094.69.69,0,0,1,.2.1,2.925,2.925,0,0,0,.3.171c.077.037.14.082.14.1s.026.036.056.036a.2.2,0,0,1,.116.094c.034.051.082.094.105.094a.187.187,0,0,1,.1.065,1.389,1.389,0,0,0,.342.273c.016,0,.031.022.031.05a.677.677,0,0,0,.169.216.7.7,0,0,1,.169.213c0,.026.015.047.034.047a2.423,2.423,0,0,1,.323,1.036.464.464,0,0,0,.029.152.1.1,0,0,1-.011.089.086.086,0,0,0,0,.1,1.376,1.376,0,0,1,.013.576,2.261,2.261,0,0,0-.035.264,2.938,2.938,0,0,1-.1.775.453.453,0,0,0-.05.169c-.009.07-.048.253-.088.407a1.2,1.2,0,0,0-.056.31c.01.016,0,.028-.022.028s-.04.036-.04.078a1.815,1.815,0,0,1-.319.636c-.022,0-.043.034-.047.076a1.807,1.807,0,0,1-.289.414,2.738,2.738,0,0,0-.284.374.039.039,0,0,1-.04.036.587.587,0,0,0-.178.131.677.677,0,0,1-.169.132.189.189,0,0,0-.087.056.188.188,0,0,1-.092.056c-.018,0-.034-.026-.034-.056s.012-.056.028-.058a.68.68,0,0,0,.037-.263.556.556,0,0,0-.026-.263,2.549,2.549,0,0,1-.044-.705.486.486,0,0,0-.032-.194c-.03-.056-.013-.088.1-.176a1.731,1.731,0,0,0,.5-.573c0-.028.029-.036.084-.022s.073.016.021-.017-.056-.061-.026-.162a3.093,3.093,0,0,0,.106-.744c0-.068.152-.147.281-.147.069,0,.1-.026.114-.113a.294.294,0,0,0,0-.145c-.021-.033-.166-.034-.282,0-.072.019-.092-.139-.08-.648.006-.233-.019-.217.339-.222.175,0,.237-.055.178-.15a.148.148,0,0,0-.1-.072.162.162,0,0,1-.1-.042.134.134,0,0,0-.13-.012c-.262.084-.445.029-.445-.137a.341.341,0,0,0-.092-.213c-.084-.09-.1-.189-.018-.14.018.012.072,0,.119-.026a.646.646,0,0,1,.18-.06c.117-.017.166-.063.139-.133-.016-.042-.1-.053-.371-.051-.35,0-.486-.039-.612-.187a1.44,1.44,0,0,0-.245-.153c-.569-.3-.6-.331-.462-.359a1.469,1.469,0,0,0,.218-.066,1.624,1.624,0,0,1,.507-.081,1.625,1.625,0,0,0,.268-.036c.1-.021.205-.042.244-.049a.062.062,0,0,0,.057-.082.161.161,0,0,0-.219-.145,2.759,2.759,0,0,1-.435.03,1.254,1.254,0,0,0-.329.026.912.912,0,0,1-.359.107.764.764,0,0,0-.192.016.324.324,0,0,0-.233.134c-.042.059-.066.119-.053.132.033.033-.022.029-.176-.012a3.6,3.6,0,0,0-1.314-.054,2.514,2.514,0,0,0-.367.143,1.158,1.158,0,0,1-.243.1.656.656,0,0,0-.184.084c-.435.264-.564.331-.6.318a.322.322,0,0,0-.175.051.309.309,0,0,1-.155.051c-.016-.01-.037,0-.048.033a.217.217,0,0,1-.142.076.531.531,0,0,0-.182.072.7.7,0,0,1-.371.123c-.018-.011-.07.016-.115.058s-.093.067-.1.056c-.033-.033-.225.078-.251.146a.209.209,0,0,0,.037.151c.072.108.143.1.484-.057.3-.137.357-.156.357-.112a.035.035,0,0,1-.033.037c-.019,0-.043.029-.055.065a.576.576,0,0,1-.161.244A.232.232,0,0,0,17.064,4c-.013.051-.046.094-.072.094a.261.261,0,0,0-.128.075.8.8,0,0,1-.452.134c-.01-.011-.054.006-.1.037a.326.326,0,0,1-.145.055c-.045,0-.067.028-.067.089,0,.2.2.217.687.075.055-.017.067,0,.066.1s.018.42.046.7c.007.076-.018.1-.142.149a.667.667,0,0,0-.169.081.49.49,0,0,1-.368.078c-.053-.028-.1-.02-.191.036-.144.088-.175.153-.12.257.037.068.071.074.331.065a1.305,1.305,0,0,0,.459-.088c.33-.149.34-.147.5.114.13.215.136.236.075.277-.035.026-.088.066-.116.09a.326.326,0,0,1-.169.049.514.514,0,0,0-.193.046.934.934,0,0,1-.235.068.414.414,0,0,0-.181.06.145.145,0,0,1-.109.034.2.2,0,0,0-.17.264c.033.063.064.071.194.05a.485.485,0,0,0,.224-.094.279.279,0,0,1,.126-.074,1.669,1.669,0,0,0,.488-.182c.042-.018.139-.055.219-.082.142-.048.143-.048.293.111.09.094.129.158.1.158a.152.152,0,0,0-.1.054.314.314,0,0,1-.213.05c-.2,0-.25.037-.233.183.011.1.024.107.163.107a.784.784,0,0,0,.281-.063.756.756,0,0,1,.511-.109c.042,0,.055.027.042.078s-.005.076.013.076.027.071.018.159a.376.376,0,0,0,.025.207c.025.031.025.047,0,.047s-.049.1-.063.216m3.451.83c.015.038,0,.045-.045.024-.131-.055-.235-.063-.235-.022,0,.024-.043.06-.094.079-.1.038-.112.064-.056.15.031.046.037.044.037-.017s.012-.062.042-.033c.045.045.185.022.185-.029,0-.018.021-.033.047-.033s.048.065.051.187c0,.1-.011.188-.028.188s-.033.023-.033.053a.08.08,0,0,1-.046.071c-.037.013-.038.033,0,.093s.037.077-.159.076a.8.8,0,0,1-.22-.02c-.01-.009-.5-.022-1.081-.028s-1.075-.015-1.091-.016-.028-.038-.028-.078-.017-.076-.038-.076-.037-.094-.037-.209a.846.846,0,0,0-.042-.286c-.027-.05-.029-.085,0-.1a1.24,1.24,0,0,0,.105-.511,4.473,4.473,0,0,1,.173-.77,2.981,2.981,0,0,0,.089-.374c.019-.14.175-.332.274-.337a6.641,6.641,0,0,0,.727-.076c.17-.037.181-.005.028.082-.114.065-.159.169-.056.128.032-.012.057,0,.057.015s.026.037.059.037a4.677,4.677,0,0,0,.761-.253c.1-.048.131-.05.155-.011a.1.1,0,0,0,.109.029c.056-.015.1.007.155.075s.069.1.06.111a.611.611,0,0,1-.178.018.627.627,0,0,0-.2.025c-.044.027-.061.032-.269.074a1.516,1.516,0,0,0-.31.114.759.759,0,0,1-.212.081.09.09,0,0,0-.077.052c-.012.032-.07.052-.152.049a.239.239,0,0,0-.156.033.64.64,0,0,1-.128.1.18.18,0,0,0-.057.281.85.85,0,0,0,.468-.115c.057-.037.777-.284.949-.325a.8.8,0,0,1,.225-.019l.139.014c.024,0,.044.05.042.106a2.625,2.625,0,0,0,.064.385c.122.535.129.629.071.8a.466.466,0,0,0-.035.21m-1-2.707c-.279-.016-.441-.011-.441.012s-.072.035-.159.035a3.4,3.4,0,0,0-.538.051.346.346,0,0,0-.113.032,1.034,1.034,0,0,1-.358.073.134.134,0,0,0-.107.049.163.163,0,0,1-.1.057c-.028,0-.051.013-.051.028s-.043.032-.094.034c-.181.01-.273.05-.292.126-.028.108-.233.09-.311-.027-.051-.078-.044-.1.027-.092.014,0,.045-.022.071-.053s.033-.07-.019-.128a.118.118,0,0,0-.158-.037c-.139.054-.138.054-.276-.205l-.13-.241.108-.1c.1-.088.1-.106.053-.155a.249.249,0,0,0-.133-.061c-.087-.006-.138-.153-.121-.347,0-.061.012-.154.017-.206s.011-.153.015-.225a.308.308,0,0,1,.241-.314c.125-.013.152-.038.168-.157.01-.072,0-.093-.065-.093-.041,0-.076-.012-.075-.028a.443.443,0,0,1,.174-.2,1,1,0,0,0,.209-.16c.1-.088.216-.188.263-.225l.182-.138a.655.655,0,0,1,.2-.1c.055-.015.1-.04.1-.057s.071-.051.159-.075a.682.682,0,0,0,.218-.094.528.528,0,0,1,.215-.076.656.656,0,0,0,.219-.071c.048-.034.149-.033.461.01a1.88,1.88,0,0,1,.418.083.4.4,0,0,0,.169.058,1.343,1.343,0,0,1,.334.126c.572.307.6.325.566.42-.018.06,0,.068.12.063.078,0,.148.015.155.039a.076.076,0,0,0,.07.044A.092.092,0,0,1,22.1,3.7a.083.083,0,0,0,.067.056c.088,0,.2.17.222.337.013.093.033.287.045.433a3.8,3.8,0,0,0,.053.406.2.2,0,0,1-.059.24.213.213,0,0,0-.071.2c.016.093-.009.177-.144.5-.046.11-.1.13-.165.061a.1.1,0,0,0-.111-.013,4.44,4.44,0,0,1-1.3.045M39.551,28.927a1.564,1.564,0,0,0-.1.566,1.463,1.463,0,0,1-.008.488,4.641,4.641,0,0,0-.046.582,8.021,8.021,0,0,1-.1,1.317c-.017.034-.024.071-.014.081s0,.064-.026.117c-.035.076-.034.11,0,.155s.038.058-.013.058c-.072,0-.115.1-.151.352a1.321,1.321,0,0,1-.058.244,3,3,0,0,0-.165.736.173.173,0,0,1-.029.094.665.665,0,0,0-.05.216,1.091,1.091,0,0,1-.078.3.471.471,0,0,0-.054.16.17.17,0,0,1-.045.1c-.024.024-.034.045-.022.045a3.808,3.808,0,0,1-.264.749,1.647,1.647,0,0,0-.178.411,1.667,1.667,0,0,1-.139.281.7.7,0,0,0-.109.277.109.109,0,0,1-.047.106.279.279,0,0,0-.1.139,4.362,4.362,0,0,1-.2.457,1.087,1.087,0,0,0-.163.384c.012.012-.012.064-.052.115a.328.328,0,0,0-.075.154.74.74,0,0,1-.094.225.723.723,0,0,0-.094.23.166.166,0,0,1-.056.114c-.061.05-.077.187-.021.187.018,0-.016.05-.078.112s-.1.128-.09.148a.043.043,0,0,1-.016.059.158.158,0,0,0-.038.115c0,.051-.016.092-.035.092a2.09,2.09,0,0,0-.289.557.813.813,0,0,1-.1.188,3.731,3.731,0,0,0-.328.567,5.718,5.718,0,0,1-.7.7c-.076.061-.2.169-.265.237s-.15.116-.179.105-.043,0-.032.032-.027.067-.111.1a.259.259,0,0,0-.149.116c-.012.045-.039.061-.078.046s-.071.009-.1.074a.128.128,0,0,1-.123.1.178.178,0,0,0-.133.076.15.15,0,0,1-.1.075,2.815,2.815,0,0,0-.6.461.4.4,0,0,1-.148.1.307.307,0,0,0-.128.084c-.161.154-.24.216-.278.216a.963.963,0,0,0-.22.112,1.171,1.171,0,0,1-.209.112.342.342,0,0,0-.109.086.934.934,0,0,1-.222.15,3.175,3.175,0,0,1-.545.218c-.016,0-.167.078-.337.167a1.218,1.218,0,0,1-.31.138c0-.015-.014-.008-.028.015a.256.256,0,0,1-.122.07c-.111.033.36-.42.9-.859a.8.8,0,0,1,.2-.134.038.038,0,0,0,.034-.04,1.463,1.463,0,0,1,.262-.287c.143-.137.25-.264.238-.285s0-.026.019-.011.058-.007.077-.06a.975.975,0,0,1,.159-.225c.07-.077.208-.232.307-.346a.849.849,0,0,1,.319-.25,2.24,2.24,0,0,0,.4-.218c.143-.1.354-.233.472-.306s.26-.169.319-.215a.44.44,0,0,1,.139-.084,1.688,1.688,0,0,0,.373-.354c-.01-.079.01-.1.108-.1a.2.2,0,0,0,.141-.046.551.551,0,0,1,.157-.119,1.531,1.531,0,0,0,.373-.29,1.192,1.192,0,0,1,.214-.158,1.326,1.326,0,0,0,.221-.154c.086-.076.1-.108.065-.148s-.066-.041-.193.022c-.082.04-.149.088-.149.105s-.133.089-.21.093a.216.216,0,0,0-.1.065.641.641,0,0,1-.221.111.727.727,0,0,0-.219.1,2.234,2.234,0,0,1-.2.152c-.077.051-.251.192-.388.312-.313.275-.32.28-.435.333-.053.024-.1.06-.1.079s-.023.027-.051.016a.288.288,0,0,0-.174.054c-.067.042-.13.066-.141.055s.138-.285.181-.285c.018,0,.034-.032.034-.071a.1.1,0,0,1,.057-.093c.04-.016.05-.052.033-.117s-.012-.09.037-.072.061,0,.061-.034a.178.178,0,0,1,.048-.107,2.6,2.6,0,0,0,.2-.293c.081-.134.166-.27.192-.3a1.927,1.927,0,0,0,.127-.207c.07-.126.079-.133.059-.044s-.022.1.048.038a1.6,1.6,0,0,0,.18-.266.665.665,0,0,1,.137-.2c.016,0,.028-.02.028-.044a2.583,2.583,0,0,1,.353-.395,3.787,3.787,0,0,0,.623-.693c0-.017.021-.033.046-.033a1.442,1.442,0,0,0,.309-.244,1.969,1.969,0,0,1,.329-.264.1.1,0,0,0,.066-.089c0-.036.064-.11.141-.162a4.436,4.436,0,0,0,.4-.342,1.536,1.536,0,0,1,.307-.247c.055,0,.1-.1.05-.133s-.144.054-.307.219c-.057.059-.121.1-.142.082s-.039.011-.039.056c0,.063-.016.074-.076.056s-.075-.006-.077.082c0,.059-.011.087-.021.062-.025-.06-.215.039-.287.149a.212.212,0,0,1-.13.091,1,1,0,0,0-.406.363.209.209,0,0,1-.139.1.213.213,0,0,0-.137.068.937.937,0,0,1-.147.126,2.7,2.7,0,0,0-.455.435c-.056.1-.092.026-.036-.079a5.116,5.116,0,0,1,.451-.737c.017,0,.032-.031.033-.066a.627.627,0,0,1,.074-.2c.039-.073.089-.175.111-.226s.154-.335.293-.629c.229-.484.26-.534.336-.516s.1.013.733-.55c.119-.1.208-.2.2-.217s.025-.05.076-.077.092-.063.092-.082.033-.031.073-.031c.1,0,.113-.037.072-.145-.029-.078-.05-.087-.171-.067a.337.337,0,0,0-.159.056.249.249,0,0,1-.106.06c-.047.015-.075.043-.062.064s-.026.055-.084.077a.726.726,0,0,0-.234.205c-.088.115-.153.164-.219.164-.05,0-.086-.014-.078-.028a5.319,5.319,0,0,0,.319-.873,1.235,1.235,0,0,1,.072-.216,3.123,3.123,0,0,0,.121-.375,2,2,0,0,1,.114-.341.209.209,0,0,0,.028-.14c-.023-.06.045-.279.088-.279a3.287,3.287,0,0,0,.21-.846c.034-.186.093-.456.129-.6a4.328,4.328,0,0,0,.089-.451c.012-.1.033-.247.045-.319s.027-.351.034-.62c.016-.582.016-.585.076-.656a.177.177,0,0,0,.028-.132,5.555,5.555,0,0,1,.033-1.262.721.721,0,0,0,.2-.067,1.293,1.293,0,0,1,.233-.067c.132-.022.168-.1.11-.227-.029-.069-.065-.084-.171-.081a.608.608,0,0,1-.2-.021c-.037-.016-.065-.012-.065.01s-.033.029-.073.019c-.057-.015-.077-.062-.092-.213-.01-.106-.017-.227-.016-.269a3.387,3.387,0,0,0-.043-.356c-.024-.155-.051-.341-.06-.413s-.024-.184-.035-.248c-.017-.1,0-.122.074-.159a.252.252,0,0,0,.119-.1c.03-.082-.1-.166-.217-.143-.083.017-.1,0-.144-.106-.026-.069-.061-.159-.077-.2s-.05-.15-.076-.243c-.039-.144-.154-.518-.218-.714a.332.332,0,0,1-.011-.122c0-.037-.006-.066-.025-.066a.8.8,0,0,1-.192-.314c.007,0,.06-.028.117-.053s.1-.067.1-.094c0-.044-.225-.156-.318-.158a1.559,1.559,0,0,1-.287-.6.5.5,0,0,0-.07-.132.794.794,0,0,1-.1-.187.815.815,0,0,0-.1-.194.676.676,0,0,1-.07-.112.55.55,0,0,1,.141-.083c.078-.038.172-.086.21-.105s.078-.027.089-.017.044-.005.075-.034a.2.2,0,0,1,.125-.055.12.12,0,0,0,.093-.038.044.044,0,0,1,.061-.015c.047.028.188-.1.161-.139-.054-.087-.661-.013-.9.108a.28.28,0,0,1-.17.038.847.847,0,0,1-.181-.259c-.07-.131-.16-.284-.2-.339s-.062-.116-.05-.138a.045.045,0,0,0-.015-.062,2.382,2.382,0,0,1-.331-.446c.006,0,.105-.03.219-.059a1.055,1.055,0,0,0,.244-.08.824.824,0,0,1,.254-.041c.119-.006.216-.029.218-.05s.008-.065.014-.1c.01-.051-.029-.06-.26-.06a1.185,1.185,0,0,1-.315-.026c-.054-.033-.191.006-.273.078-.053.046-.063.045-.084-.006s-.039-.051-.1-.021c-.1.055-.154.049-.154-.016a.2.2,0,0,0-.093-.117c-.051-.033-.084-.076-.073-.1s-.089-.209-.208-.336c-.032-.034-.1-.116-.152-.185s-.123-.155-.159-.193a.235.235,0,0,1-.066-.105.1.1,0,0,0-.046-.066c-.09-.057-.149-.2-.105-.254a.629.629,0,0,1,.348-.1.061.061,0,0,0,.066-.055c0-.029.033-.054.072-.054s.078-.018.085-.042.056-.045.106-.048c.077,0,.1-.027.105-.133s0-.122-.039-.087a.207.207,0,0,1-.125.039,1.781,1.781,0,0,0-.318.056c-.134.034-.3.07-.375.079a.3.3,0,0,0-.169.071c-.042.056-.132.044-.132-.018a1.633,1.633,0,0,0-.257-.295c-.141-.142-.373-.39-.516-.55A11.457,11.457,0,0,0,32.2,16.5c-.089-.066-.213-.168-.274-.225s-.172-.15-.244-.207-.207-.167-.3-.249l-.167-.149.139-.083c.121-.071.246-.214.207-.238a.363.363,0,0,0-.287-.055,1.5,1.5,0,0,1-.419.079,1.8,1.8,0,0,1-.594-.356.074.074,0,0,0-.066-.029c-.029,0-.054-.016-.054-.034a.874.874,0,0,0-.243-.178,1.227,1.227,0,0,1-.244-.169,1.091,1.091,0,0,1,.476-.17c.093-.013.176-.045.187-.072s.073-.045.162-.04.135-.006.125-.023,0-.028.031-.023a.413.413,0,0,0,.162-.038.357.357,0,0,1,.177-.028c.07.018.159-.059.117-.1-.013-.015.012-.026.057-.026.09,0,.105-.045.034-.1a1.363,1.363,0,0,0-.607,0,.793.793,0,0,1-.465.025.059.059,0,0,0-.092,0,.224.224,0,0,1-.133.043.37.37,0,0,0-.187.076.211.211,0,0,1-.161.055c-.087-.027-.2.125-.146.192.1.12-.068.078-.406-.1l-.517-.272c-.235-.123-.247-.136-.2-.216a.128.128,0,0,1,.09-.071c.028,0,.058-.012.064-.028a.458.458,0,0,1,.126-.092c.275-.154.071-.385-.215-.243-.078.039-.142.085-.142.1s-.044.034-.1.034c-.073,0-.108.027-.139.112-.049.13-.057.13-.457-.056a3.088,3.088,0,0,0-.37-.148l-.108-.025.2-.142a2.7,2.7,0,0,1,.276-.174l.093-.04c.011,0,.057-.021.1-.035s.084-.039.084-.054a.583.583,0,0,1,.2-.1,1.526,1.526,0,0,0,.271-.12.294.294,0,0,1,.137-.05.782.782,0,0,0,.207-.064,1.144,1.144,0,0,1,.305-.105c.068-.016.122-.053.122-.083s-.043-.051-.216-.037a1.687,1.687,0,0,0-.731.18.164.164,0,0,1-.118.011.445.445,0,0,0-.216.052c-.09.04-.231.1-.314.123a.823.823,0,0,0-.209.1,1.123,1.123,0,0,1-.243.11.88.88,0,0,0-.27.15.335.335,0,0,1-.12.088,2.82,2.82,0,0,1-.434-.148,2.255,2.255,0,0,0-.282-.081,1.81,1.81,0,0,1-.263-.074,1.516,1.516,0,0,0-.23-.077c-.139-.038-.169-.06-.154-.116.01-.039.026-.062.035-.053s.038,0,.061-.017a1.536,1.536,0,0,1,.395-.234c.188-.029.642-.4.533-.432a.544.544,0,0,0-.208.067.38.38,0,0,1-.207.057.087.087,0,0,0-.083.005.414.414,0,0,1-.132.037.279.279,0,0,0-.145.068.2.2,0,0,1-.117.059.288.288,0,0,0-.147.1.357.357,0,0,0-.09.324c.006.055-.008.065-.061.043s-.679-.186-.9-.231l-.112-.023.094-.043a1.354,1.354,0,0,0,.15-.078.3.3,0,0,1,.1-.044.259.259,0,0,0,.106-.066.2.2,0,0,1,.111-.06c.088,0,.243-.086.243-.133,0-.064-.139-.094-.184-.042a.586.586,0,0,1-.205.093.371.371,0,0,0-.191.106.083.083,0,0,1-.087.046.5.5,0,0,0-.208.061c-.139.068-.148.068-.563-.013-.232-.045-.458-.082-.5-.082a.143.143,0,0,1-.105-.036c-.028-.046.113-.189.187-.189.03,0,.056-.018.056-.042s.033-.034.076-.023.083.006.093-.01a.775.775,0,0,1,.442-.17c.1,0,.147-.016.161-.065s.037-.066.056-.066.036-.043.036-.094c0-.1-.078-.125-.149-.039-.03.038-.07.044-.128.022a.191.191,0,0,0-.148,0,.632.632,0,0,1-.129.051,1,1,0,0,0-.346.135c0,.015-.069.037-.15.05s-.15.036-.15.051a1.462,1.462,0,0,1-.453.225,1.19,1.19,0,0,1-.618,0c-.012-.022-.056-.03-.1-.016s-.072,0-.072-.015-.038-.045-.084-.053c-.082-.015-.081-.016.018-.059.057-.023.1-.059.1-.078s.038-.049.084-.063a1.148,1.148,0,0,0,.378-.269.107.107,0,0,1,.08-.047.155.155,0,0,0,.1-.057.169.169,0,0,1,.111-.056.226.226,0,0,0,.133-.075c.038-.042.074-.068.084-.06a.324.324,0,0,0,.148-.039c.072-.031.142-.047.153-.036s.121-.143.121-.183c0-.023-.15.008-.193.04a.186.186,0,0,1-.106.034.166.166,0,0,0-.106.045.278.278,0,0,1-.161.048,1.178,1.178,0,0,0-.589.3.639.639,0,0,1-.221.139.166.166,0,0,0-.115.1q-.02.073-.088.055a.12.12,0,0,0-.114.037c-.1.117-.3.162-.684.155-.209,0-.533,0-.718.017-.424.029-1.441.044-1.464.022a.707.707,0,0,1,.217-.121c.129-.059.267-.123.307-.144a3.57,3.57,0,0,1,.456-.228.574.574,0,0,0,.251-.165.076.076,0,0,1,.09-.022c.041.016.053.008.034-.021s.009-.043.086-.043.12-.023.133-.066.065-.069.171-.072a1.5,1.5,0,0,0,.61-.219c.016-.021.028-.023.028-.005s.022.016.048,0a.534.534,0,0,1,.181-.061.507.507,0,0,0,.216-.1c.045-.042.082-.065.082-.051s.021.009.047-.012a.507.507,0,0,1,.15-.062c.057-.013.1-.043.1-.066,0-.062-.271-.009-.31.061a.112.112,0,0,1-.087.058c-.029,0-.054.014-.054.031s-.021.033-.046.035a1.874,1.874,0,0,0-.5.089.95.95,0,0,1-.292.049,1.254,1.254,0,0,0-.465.118,1.321,1.321,0,0,1-.263.1c-.026,0-.046.015-.046.032s-.029.032-.066.032a.465.465,0,0,0-.193.129c-.071.071-.143.121-.16.11s-.078.013-.136.054a.716.716,0,0,1-.25.1.519.519,0,0,0-.207.072.769.769,0,0,1-.236.1c-.1.027-.178.065-.178.083s-.016.026-.035.013a.041.041,0,0,0-.056.012.349.349,0,0,1-.161.061c-.187.034-.239.083-.213.192.02.075.007.092-.066.1a1.22,1.22,0,0,0-.471.115,9.306,9.306,0,0,1-.979.358.209.209,0,0,0-.106.051.113.113,0,0,1-.088.033,1.414,1.414,0,0,0-.326.13,3.016,3.016,0,0,1-.466.187c-.112.032-.344.106-.513.166a1.212,1.212,0,0,1-.327.09c-.011-.011-.063.01-.117.046s-.1.057-.114.049a2.188,2.188,0,0,1,.5-.329,2.457,2.457,0,0,0,.464-.224,7.277,7.277,0,0,1,.7-.34.523.523,0,0,0,.12-.069,1.553,1.553,0,0,1,.267-.134,1,1,0,0,0,.235-.125c.037-.033.066-.048.066-.033s.056-.016.126-.07a.455.455,0,0,1,.2-.1.235.235,0,0,0,.143-.074.229.229,0,0,1,.137-.076.544.544,0,0,0,.191-.066c.068-.037.225-.108.348-.158a1.338,1.338,0,0,0,.244-.115.823.823,0,0,1,.315-.085.085.085,0,0,1,.088.039c.009.026-.009.048-.039.048a.113.113,0,0,0-.083.149c.021.034.163.006.225-.043.287-.229.286-.226.275-.365-.01-.12-.025-.137-.123-.148a.316.316,0,0,1-.145-.044c-.019-.017-.07,0-.114.043a.907.907,0,0,1-.431.2c-.017-.01-.067.015-.111.056s-.081.06-.081.042-.043-.026-.094-.016-.094.034-.094.055-.025.028-.055.016a.067.067,0,0,0-.077.015.151.151,0,0,1-.11.037.122.122,0,0,0-.11.057.072.072,0,0,1-.07.05.518.518,0,0,0-.178.051.33.33,0,0,1-.155.044c-.013-.009-.045.01-.071.042a.149.149,0,0,1-.094.055.153.153,0,0,0-.093.056,1.249,1.249,0,0,1-.324.159.745.745,0,0,0-.3.16.117.117,0,0,1-.1.062,1.794,1.794,0,0,0-.549.247c-.006.016-.053.029-.1.029s-.092.017-.092.038a.037.037,0,0,1-.038.037,1.38,1.38,0,0,0-.492.269.488.488,0,0,1-.22.12.5.5,0,0,0-.206.093.427.427,0,0,1-.138.082,1.275,1.275,0,0,0-.24.132,1.277,1.277,0,0,1-.238.131.154.154,0,0,0-.078.056c-.026.03-.057.05-.071.043s-.084.021-.345.193a1.077,1.077,0,0,1-.264.121,1.764,1.764,0,0,0-.367.188,1.233,1.233,0,0,1-.283.15.142.142,0,0,0-.094.053.612.612,0,0,1-.165.113c-.066.033-.145.076-.176.1s-.154.076-.273.128c-.176.076-.214.109-.206.175s-.046.111-.309.249a7.669,7.669,0,0,0-.853.516c-.024.022-.149.116-.275.209s-.354.275-.507.4a3.389,3.389,0,0,1-.293.235c-.022,0-.253.236-1.094,1.112-.778.811-1.08,1.119-1.239,1.259a1.966,1.966,0,0,0-.225.242c-.062.078-.146.177-.188.22A1.98,1.98,0,0,0,5.8,19.3l-.169.263c-.034.053-.11.187-.17.3s-.176.315-.257.447-.163.276-.181.319-.066.13-.1.192a3.447,3.447,0,0,0-.345.692.152.152,0,0,1-.028.093.1.1,0,0,0-.029.054,4.292,4.292,0,0,1-.224.626,4.46,4.46,0,0,0-.225.535.634.634,0,0,1-.11.187,3.94,3.94,0,0,0-.6,1.8,1.6,1.6,0,0,1-.089.463,1.1,1.1,0,0,0-.057.237.513.513,0,0,1-.054.2c-.016.01-.024.071-.021.136a1.105,1.105,0,0,1-.063.33.706.706,0,0,0-.055.255.087.087,0,0,1-.033.088.329.329,0,0,0-.073.167.221.221,0,0,1-.082.149c-.032.012-.049.037-.038.054s-.013.067-.054.111-.06.087-.032.1.027.035.008.049a1.21,1.21,0,0,0-.14.162.531.531,0,0,1-.176.163c-.04.012-.072.045-.072.073a.517.517,0,0,1-.131.191c-.126.133-.149.179-.134.258a.8.8,0,0,1-.188.359c-.132.173-.165.285-.1.313s.144-.061.114-.139c-.016-.041,0-.061.039-.061s.085-.056.117-.131.072-.132.094-.132.028-.017.015-.039a.088.088,0,0,1,.02-.092.09.09,0,0,0,.019-.093c-.013-.022,0-.039.04-.039.07,0,.189-.122.223-.23a1.276,1.276,0,0,1,.268-.358l.083-.094-.015.163c-.009.089-.023.238-.034.331s-.031.33-.044.526a3.606,3.606,0,0,1-.038.381c-.008.012-.022.27-.031.571-.016.518-.022.555-.114.675a.475.475,0,0,0-.1.191.515.515,0,0,1-.09.2.31.31,0,0,0-.07.191c.014.034-.013.083-.065.122a.286.286,0,0,0-.1.185.971.971,0,0,1-.106.287.5.5,0,0,0-.076.166c.01,0-.018.042-.061.091s-.076.1-.071.1a.7.7,0,0,1-.052.163.674.674,0,0,0-.027.4c0,.029.184.013.216-.018a.863.863,0,0,0,.022-.252c0-.161.016-.236.051-.25s.043-.034.031-.054a.9.9,0,0,1,.2-.42.052.052,0,0,0,.026-.066c-.012-.02,0-.062.038-.1a.373.373,0,0,0,.082-.167.384.384,0,0,1,.092-.17.209.209,0,0,0,.071-.121c0-.031.009-.048.019-.038a5.662,5.662,0,0,1,.071.917,1.884,1.884,0,0,0,.055.457c.048.089.059.309.015.309-.028,0-.054.054-.174.348a.344.344,0,0,1-.116.164.1.1,0,0,0-.058.084,4.446,4.446,0,0,1-.191.625c-.06.156-.073.281-.032.281.023,0,.033.026.021.058-.023.06.068.172.2.241.08.041.193.018.193-.039,0-.018.026-.033.056-.033a.065.065,0,0,0,.058-.071c0-.052-.037-.078-.136-.1s-.128-.038-.107-.089a.447.447,0,0,0,.022-.161.2.2,0,0,1,.051-.146.15.15,0,0,0,.058-.089,1.457,1.457,0,0,1,.113-.268,1.352,1.352,0,0,0,.111-.273c0-.206.219.366.254.675a.8.8,0,0,0,.032.176,1.015,1.015,0,0,1-.227.313c-.024.017-.024.028,0,.029s0,.022-.056.048a.389.389,0,0,0-.145.159.9.9,0,0,1-.12.187.517.517,0,0,0-.093.179c-.013.057-.04.1-.059.1s-.034.048-.034.106a.593.593,0,0,1-.054.216c-.07.14-.1.315-.056.315.02,0,.035.046.035.1,0,.145.05.207.154.191.071-.01.088-.032.08-.106-.006-.051-.027-.1-.046-.106-.05-.017-.047-.068.017-.207.029-.065.1-.23.164-.366a1.093,1.093,0,0,1,.154-.275.413.413,0,0,0,.093-.145,1.084,1.084,0,0,1,.16-.243l.11-.125.044.125a1.6,1.6,0,0,1,.061.225c.01.055.055.218.1.361l.083.259-.122.117a.787.787,0,0,1-.183.137.381.381,0,0,0-.155.271c0,.027-.017.049-.037.049s-.047.059-.06.132a1.186,1.186,0,0,1-.1.27.719.719,0,0,0-.07.183.151.151,0,0,1-.056.09c-.031.025-.049.058-.04.072a.778.778,0,0,1-.1.331c-.034.054,0,.2.048.2s.164-.188.138-.214.022-.073.076-.137a2.3,2.3,0,0,0,.225-.4c.071-.156.145-.309.165-.34s.083-.15.141-.264c.154-.308.2-.315.253-.034a1.667,1.667,0,0,0,.137.464.159.159,0,0,1,.032.1,2.287,2.287,0,0,0,.134.378c.075.175.146.351.158.391a1.067,1.067,0,0,0,.071.17.455.455,0,0,1,.05.127,2.211,2.211,0,0,0,.115.281c.228.494.418.89.486,1.019.039.072.108.211.152.309A.447.447,0,0,0,5,38.633c.018,0,.033.027.033.059a.29.29,0,0,0,.084.144,1.721,1.721,0,0,1,.193.286c.1.187.1.2.031.178-.047-.012-.086,0-.1.032a.124.124,0,0,1-.11.052.2.2,0,0,0-.137.055c-.026.031-.062.046-.081.036s-.042.006-.055.038a.092.092,0,0,1-.076.059.206.206,0,0,0-.117.076.22.22,0,0,1-.132.075.583.583,0,0,0-.327.167c-.042.05-.042.077,0,.153.066.123.142.117.363-.029a1.736,1.736,0,0,1,.4-.24c.037-.012.066-.043.066-.067s.059-.065.131-.092a.629.629,0,0,0,.192-.107c.081-.081.148-.035.266.176a3.091,3.091,0,0,0,.185.285.575.575,0,0,1,.09.147.5.5,0,0,0,.1.143l.1.114-.105.07a.445.445,0,0,1-.15.07c-.024,0-.05.038-.056.084s-.041.088-.118.1c-.1.012-.257.2-.239.289.009.044.11.063.138.027a1.087,1.087,0,0,1,.2-.12.533.533,0,0,0,.178-.122c0-.016.024-.028.056-.028s.056-.016.056-.035a.258.258,0,0,1,.15-.153.609.609,0,0,1,.155.178,3.322,3.322,0,0,0,.261.329,7.1,7.1,0,0,0,1.017.957c.016,0,.055.04.087.089a2.812,2.812,0,0,0,.376.345,2.169,2.169,0,0,1,.318.286c0,.017.026.031.056.031s.056.016.056.033a.931.931,0,0,0,.215.2c.117.091.241.19.274.22s.115.1.183.149.2.165.3.253a1.188,1.188,0,0,0,.241.182c.036.012.066.038.066.056a.033.033,0,0,0,.032.036,4.854,4.854,0,0,1,.958.681l.152.137-.336.337c-.436.438-.629.673-.64.783s.051.116.094,0a.609.609,0,0,1,.131-.176.309.309,0,0,0,.1-.14.046.046,0,0,1,.042-.05.809.809,0,0,0,.21-.187.871.871,0,0,1,.2-.188.691.691,0,0,0,.175-.131c.166-.153.209-.16.314-.054.044.043.1.068.131.058a.1.1,0,0,1,.1.044.227.227,0,0,0,.1.077.14.14,0,0,1,.076.042,3.993,3.993,0,0,0,.694.416,2.261,2.261,0,0,1,.282.153.34.34,0,0,0,.121.048.971.971,0,0,1,.243.121c.139.1.221.165.133.114-.045-.026-.2.034-.237.1a.264.264,0,0,1-.139.046.566.566,0,0,0-.213.075.359.359,0,0,1-.149.061.216.216,0,0,0-.117.064c-.056.055-.067.056-.1.006s-.313-.073-.4-.018c-.056.034-.063.175-.01.175.021,0,.034.021.028.046s.048.051.15.059.16,0,.16-.024.021-.034.046-.033a.792.792,0,0,0,.5-.167,1.545,1.545,0,0,0,.273-.187c.007-.017.071-.032.142-.032s.127-.017.127-.036c0-.062.176-.086.269-.034a1.106,1.106,0,0,0,.258.076,6.019,6.019,0,0,1,1.018.311.744.744,0,0,0,.263.071,1.11,1.11,0,0,1,.22.036,2.817,2.817,0,0,0,.422.068,1.315,1.315,0,0,1,.15.039,1.907,1.907,0,0,0,.254.058c.2.029.224.079.094.186-.062.05-.164.136-.225.189a1.259,1.259,0,0,1-.235.156c-.067.032-.122.078-.122.1a.087.087,0,0,1-.056.067.091.091,0,0,0-.056.08c0,.1.1.1.236,0a.5.5,0,0,1,.171-.1.042.042,0,0,0,.043-.04c0-.022.016-.031.033-.019s.073-.01.122-.048a1.493,1.493,0,0,1,.211-.132c.067-.034.122-.089.122-.121s.013-.049.029-.039a.8.8,0,0,0,.27-.089c.167-.073.261-.1.3-.073s.071.025.083.012.04-.01.065,0a.763.763,0,0,0,.237.037,2.227,2.227,0,0,1,.343.049c.083.022.234.05.334.065l.183.025-.123.074a1.592,1.592,0,0,0-.172.12c-.127.112-.163.133-.263.149a.808.808,0,0,0-.24.094c-.072.043-.242.132-.375.2-.364.18-.451.282-.335.4.051.052.351-.039.465-.139a.16.16,0,0,1,.123-.048c.027.01.083-.026.125-.08a.244.244,0,0,1,.143-.1.328.328,0,0,0,.166-.092c.055-.051.1-.084.1-.075,0,.027.192-.1.3-.2a1.313,1.313,0,0,1,.246-.159c.14-.068.209-.072.957-.054a10.437,10.437,0,0,0,1.314,0c.093-.009.787-.019,1.542-.024,1.324-.01,1.37-.009,1.266.055a.45.45,0,0,1-.148.066,1.683,1.683,0,0,0-.44.234c-.006.016-.035.028-.065.028a.932.932,0,0,0-.391.2c0,.037.145,0,.214-.055.032-.026.043-.015.039.038s-.026.066-.055.055c-.07-.027-.169.065-.143.132.016.04.008.046-.027.018-.155-.122-.367-.064-.367.1,0,.088.187.267.242.232a.351.351,0,0,1,.059-.029,1.205,1.205,0,0,0,.125-.048,1.094,1.094,0,0,1,.119-.044,2.756,2.756,0,0,0,.241-.225,1.7,1.7,0,0,1,.255-.227.52.52,0,0,0,.142-.092,2.117,2.117,0,0,1,.5-.319.157.157,0,0,0,.094-.069,1.474,1.474,0,0,1,.725-.328c.065,0,.225-.031.712-.115a.415.415,0,0,0,.149-.049c.072-.055.209-.073.209-.028,0,.029.011.028.031-.005a.182.182,0,0,1,.1-.061,8.475,8.475,0,0,0,.866-.234.654.654,0,0,1,.19-.05.188.188,0,0,0,.115-.045.218.218,0,0,1,.093-.053,1.564,1.564,0,0,0,.153-.035l.106-.027-.1.1a.419.419,0,0,1-.131.1.555.555,0,0,0-.163.121c-.186.174-.266.236-.293.228s-.046.034-.073.085-.071.086-.107.072-.115.037-.117.1c0,.045.275.066.352.026a7.906,7.906,0,0,0,.838-.622.822.822,0,0,1,.148-.122,2.534,2.534,0,0,0,.434-.315.375.375,0,0,1,.141-.1.235.235,0,0,0,.107-.065,1.034,1.034,0,0,1,.307-.235c.021,0,.038-.026.038-.056s.012-.052.028-.049a2.366,2.366,0,0,0,.528-.335,2.532,2.532,0,0,1,.362-.218,2,2,0,0,0,.372-.233.282.282,0,0,1,.121-.084.328.328,0,0,0,.128-.094.606.606,0,0,1,.213-.134c.07-.023.126-.057.126-.076s.022-.034.049-.034c.069,0,.251-.089.252-.121a.662.662,0,0,1,.209-.127.709.709,0,0,0,.226-.143c.01-.024.063-.048.12-.052a1.164,1.164,0,0,0,.308-.107l.269-.131c.043-.019.069-.011.085.029.023.061.171.046.259-.027.025-.019.159-.129.3-.242a1.129,1.129,0,0,0,.226-.207c-.017,0,.021-.029.086-.066a1.5,1.5,0,0,0,.463-.334,2.147,2.147,0,0,1,.555-.434.5.5,0,0,0,.159-.134c0-.016.055-.061.122-.1a2.77,2.77,0,0,0,.44-.33,2.348,2.348,0,0,1,.253-.187c.089-.056.161-.121.161-.142s.047-.059.1-.083a.87.87,0,0,0,.187-.119c.117-.1.105-.036-.028.164a.8.8,0,0,0-.113.216.042.042,0,0,1-.037.047c-.019,0-.061.046-.09.1a2.207,2.207,0,0,1-.274.33c-.32.332-.776.842-.816.913s-.172.193-.215.193c-.017,0-.031.023-.031.051a.092.092,0,0,1-.06.076.061.061,0,0,0-.039.078c.012.033-.029.1-.106.159a.616.616,0,0,0-.165.205c-.029.075-.057.1-.114.081-.081-.022-.263.1-.508.334a.761.761,0,0,1-.178.142c-.017,0-.031.025-.031.054a.091.091,0,0,1-.066.075,1.314,1.314,0,0,0-.253.191,1.313,1.313,0,0,1-.254.191.942.942,0,0,0-.226.2,2.819,2.819,0,0,1-.85.722c-.022,0-.039.024-.039.056a.054.054,0,0,1-.05.056.287.287,0,0,0-.138.094.322.322,0,0,1-.125.093.517.517,0,0,0-.16.094.537.537,0,0,1-.161.094.988.988,0,0,0-.353.247.113.113,0,0,1-.076.055.536.536,0,0,0-.175.113.523.523,0,0,1-.175.111.074.074,0,0,0-.062.049.361.361,0,0,1-.173.1c-.084.028-.154.063-.154.079s-.064.049-.14.075a.369.369,0,0,0-.171.1.108.108,0,0,1-.078.051.55.55,0,0,0-.167.059.372.372,0,0,1-.184.047c-.048-.01-.018-.045.111-.136a1.2,1.2,0,0,0,.225-.188.769.769,0,0,1,.181-.147.784.784,0,0,0,.186-.157c.031-.043.073-.078.1-.078s.07-.05.106-.112.082-.113.1-.113a4.782,4.782,0,0,0,.6-.395,4.645,4.645,0,0,0,.457-.4.36.36,0,0,1,.153-.1.411.411,0,0,0,.167-.11c.066-.061.128-.1.142-.088s.022,0,.022-.021a.053.053,0,0,1,.057-.044.064.064,0,0,0,.056-.068c0-.048.048-.085.155-.121.086-.028.164-.081.172-.116a.168.168,0,0,1,.122-.088.378.378,0,0,0,.171-.1.214.214,0,0,1,.126-.072c.061,0,.175-.142.141-.176s-.28.1-.3.16a.079.079,0,0,1-.062.053.354.354,0,0,0-.138.076.34.34,0,0,1-.152.075.287.287,0,0,0-.143.094.3.3,0,0,1-.128.094.081.081,0,0,0-.061.055.817.817,0,0,1-.261.172c-.132.063-.241.138-.241.164a.051.051,0,0,1-.055.046c-.1,0-.32.142-.32.208,0,.043-.019.059-.056.044s-.121.045-.227.152a.643.643,0,0,1-.238.172.257.257,0,0,0-.138.066,2.112,2.112,0,0,1-.225.165,2.526,2.526,0,0,0-.3.235.716.716,0,0,1-.175.136.736.736,0,0,0-.153.206.806.806,0,0,1-.151.207,1,1,0,0,0-.306.309c-.016.048-.054.061-.136.051s-.115,0-.115.029-.12.044-.341.05a1.209,1.209,0,0,0-.393.05,2.976,2.976,0,0,1-.682.2c-.046,0-.084.018-.084.034s-.026.028-.057.028a.362.362,0,0,0-.131.038l-.152.076a.146.146,0,0,1-.11.018.043.043,0,0,0-.058.018.11.11,0,0,1-.087.038.49.49,0,0,0-.171.056.558.558,0,0,1-.15.057.692.692,0,0,0-.319.166c0,.021-.059.041-.127.044a2.109,2.109,0,0,0-.235.032c-.062.012-.181.029-.263.038s-.205.025-.272.037-.169.027-.225.034-.213.044-.347.078a1.658,1.658,0,0,1-.346.06,2.872,2.872,0,0,0-.431.073,5.615,5.615,0,0,1-1.1.17c-.072.005-.225.02-.339.032l-.379.041a1.269,1.269,0,0,0-.282.06,1.8,1.8,0,0,1-.39.06h0a10.409,10.409,0,0,1-1.453,0c-.011-.017-.053-.023-.092-.013a.458.458,0,0,1-.193-.015,2.462,2.462,0,0,0-.3-.05.861.861,0,0,1-.21-.037,1.03,1.03,0,0,0-.254-.027.751.751,0,0,1-.268-.043,1.766,1.766,0,0,0-.617-.077.662.662,0,0,1-.241-.036.324.324,0,0,0-.154-.028,1.668,1.668,0,0,1-.395-.093,1.641,1.641,0,0,0-.375-.094.466.466,0,0,1-.172-.034,1.287,1.287,0,0,0-.215-.071c-.082-.021-.269-.073-.413-.115s-.335-.1-.422-.119-.16-.055-.16-.073-.072-.044-.16-.059a1.349,1.349,0,0,1-.3-.1.32.32,0,0,0-.183-.046.045.045,0,0,1-.06-.012,2.505,2.505,0,0,0-.7-.276c-.052,0-.1-.017-.1-.039s-.017-.029-.037-.017-.038.007-.038-.013-.055-.048-.122-.062a1.633,1.633,0,0,1-.27-.1.706.706,0,0,0-.231-.071.119.119,0,0,1-.106-.062c-.012-.033-.033-.052-.044-.04-.031.031-.236-.045-.4-.146-.075-.048-.148-.075-.162-.061s-.033-.011-.044-.055-.084-.1-.187-.147-.165-.087-.165-.109-.034-.043-.076-.046A.237.237,0,0,1,10.9,46.5a.5.5,0,0,0-.21-.081,1.623,1.623,0,0,1-.39-.154,1.307,1.307,0,0,0-.292-.127.161.161,0,0,1-.1-.059.766.766,0,0,0-.21-.132c-.091-.04-.164-.089-.164-.107s-.088-.077-.2-.129a4.269,4.269,0,0,1-.666-.4,1.165,1.165,0,0,0-.169-.089l-.15-.07.131-.067a1.271,1.271,0,0,0,.232-.161c.056-.051.111-.084.122-.073s.022-.006.022-.041.041-.072.1-.087a.505.505,0,0,0,.15-.061c.026-.021.046-.026.046-.011s.026,0,.056-.03a.189.189,0,0,0,.056-.112c0-.1-.083-.112-.152-.022-.052.07-.077.078-.118.044s-.089-.024-.22.049a2.885,2.885,0,0,1-.458.22.2.2,0,0,0-.1.116c-.046.121-.066.119-.205-.021a2.436,2.436,0,0,0-.441-.373.035.035,0,0,1-.031-.039.62.62,0,0,0-.158-.178c-.087-.077-.243-.224-.348-.328A1.909,1.909,0,0,0,6.7,43.72c-.076-.04-.138-.088-.138-.106a2.291,2.291,0,0,0-.44-.428c-.286-.239-.349-.3-.349-.343,0-.025-.012-.043-.028-.043a5.685,5.685,0,0,1-.646-.624,3.945,3.945,0,0,0-.3-.342,2.1,2.1,0,0,1-.3-.367.827.827,0,0,0-.186-.226,1.185,1.185,0,0,1-.181-.2,1.12,1.12,0,0,0-.3-.486c-.105-.111-.183-.215-.173-.231s-.007-.049-.038-.073a.152.152,0,0,1-.056-.084.76.76,0,0,0-.1-.192,2.677,2.677,0,0,1-.17-.294.506.506,0,0,0-.093-.15,1,1,0,0,1-.129-.219c-.184-.379-.346-.732-.352-.77a3.9,3.9,0,0,0-.183-.451c-.027-.061-.079-.205-.116-.319a1.016,1.016,0,0,0-.091-.225,1.309,1.309,0,0,1-.172-.385.264.264,0,0,0-.058-.125.153.153,0,0,1-.034-.11.161.161,0,0,0-.034-.111.259.259,0,0,1-.06-.133c-.013-.061-.039-.112-.057-.112s-.061-.093-.094-.208A2.32,2.32,0,0,0,1.7,36.05a.454.454,0,0,1-.054-.159.169.169,0,0,0-.045-.1c-.024-.025-.033-.045-.02-.045a.926.926,0,0,0-.1-.27,1.424,1.424,0,0,1-.131-.354.219.219,0,0,0-.051-.134,1.05,1.05,0,0,1-.12-.423,1.274,1.274,0,0,0-.1-.453.2.2,0,0,1-.032-.128.19.19,0,0,0-.038-.132.273.273,0,0,1-.038-.169.3.3,0,0,0-.03-.165.984.984,0,0,1-.078-.293,3.059,3.059,0,0,0-.082-.361.754.754,0,0,1-.034-.221,4.735,4.735,0,0,0-.152-.88.087.087,0,0,1,.009-.1.458.458,0,0,0,.024-.23c-.006-.106,0-.2.021-.2s.015-.046-.007-.089a1.592,1.592,0,0,1-.054-.419,1.555,1.555,0,0,0-.039-.367c-.015-.015-.006-.051.02-.082a2.262,2.262,0,0,0,.024-.817.062.062,0,0,1-.01-.07.066.066,0,0,0-.022-.077.05.05,0,0,1-.015-.067.931.931,0,0,0,.02-.278c0-.143.01-.237.033-.237s.034-.1.031-.272c-.007-.239,0-.486.059-1.436a2.392,2.392,0,0,1,.059-.391.854.854,0,0,0,.029-.273c-.009-.059,0-.106.01-.106a1.741,1.741,0,0,0,.1-.562c.006-.052.016-.14.023-.2.016-.131.075-.193.4-.423a1,1,0,0,0,.265-.235c0-.026.015-.048.029-.048a3.225,3.225,0,0,0,.657-.606c0-.017.009-.032.032-.032s.033-.022.023-.049.029-.07.1-.1a1.3,1.3,0,0,0,.271-.186c.084-.073.216-.184.293-.247s.188-.159.247-.216a.423.423,0,0,1,.145-.1,1.125,1.125,0,0,0,.307-.344c0-.053-.139-.034-.188.026a.2.2,0,0,1-.133.056.249.249,0,0,0-.16.092c-.039.052-.084.081-.1.066s-.047,0-.071.034a.3.3,0,0,1-.128.087.112.112,0,0,0-.084.1.065.065,0,0,1-.07.072,1.4,1.4,0,0,0-.5.385.568.568,0,0,1-.184.141c-.023,0-.033.011-.02.023s0,.049-.032.078-.046.07-.035.088c.028.044-.114.116-.179.092-.032-.012-.115.054-.209.166a.908.908,0,0,1-.224.208.388.388,0,0,0-.14.133c-.093.142-.148.146-.111.01a1.892,1.892,0,0,0,.038-.189.305.305,0,0,1,.05-.133.576.576,0,0,0,.065-.2c.014-.086.038-.149.054-.139s.094-.3.078-.385c0-.026.009-.046.027-.046a2.124,2.124,0,0,0,.088-.611c0-.015.011-.028.032-.028.065,0,.167-.128.181-.226a2.7,2.7,0,0,1,.158-.506c.026-.061.06-.146.076-.187a2.033,2.033,0,0,1,.351-.648c.054-.042.1-.087.1-.1a1.145,1.145,0,0,1,.142-.2,2.085,2.085,0,0,0,.233-.393.649.649,0,0,1,.122-.214c.016,0,.028-.026.028-.056a.062.062,0,0,1,.066-.057c.067,0,.229-.219.375-.509a1.6,1.6,0,0,1,.176-.27,1.8,1.8,0,0,0,.19-.285,1.792,1.792,0,0,1,.226-.319.675.675,0,0,0,.131-.167.534.534,0,0,1,.089-.15,1.871,1.871,0,0,0,.143-.232c.031-.062.073-.147.1-.188s.078-.155.123-.253a.448.448,0,0,1,.112-.178c.017,0,.042-.05.055-.111a.634.634,0,0,1,.139-.235,2.246,2.246,0,0,0,.2-.255,1.351,1.351,0,0,1,.182-.225.33.33,0,0,0,.1-.148.4.4,0,0,1,.122-.17,3.02,3.02,0,0,0,.241-.265c.066-.082.154-.187.2-.232a.278.278,0,0,0,.078-.12c0-.044.1-.144.379-.379.11-.093.252-.221.314-.284a2.753,2.753,0,0,1,.253-.216.525.525,0,0,0,.161-.172.241.241,0,0,1,.13-.115.779.779,0,0,0,.214-.158.685.685,0,0,1,.183-.144,4.279,4.279,0,0,0,.478-.371,4.182,4.182,0,0,1,.435-.342.763.763,0,0,0,.178-.111.621.621,0,0,1,.194-.112.045.045,0,0,0,.046-.04c0-.021.038-.052.084-.071a1.912,1.912,0,0,0,.281-.168,1.254,1.254,0,0,1,.226-.136.628.628,0,0,0,.16-.1,3.056,3.056,0,0,1,.394-.24,8.2,8.2,0,0,0,.958-.541.514.514,0,0,1,.169-.074.778.778,0,0,0,.2-.082c.046-.031.084-.04.085-.022s.012.015.028-.006a.443.443,0,0,1,.263-.131.3.3,0,0,0,.14-.052.645.645,0,0,1,.179-.076.573.573,0,0,0,.2-.109.324.324,0,0,1,.163-.083.245.245,0,0,0,.119-.039,1.984,1.984,0,0,1,.578-.263,5.879,5.879,0,0,0,.94-.423,1.118,1.118,0,0,1,.275-.1.942.942,0,0,0,.187-.1,2.47,2.47,0,0,1,.363-.176c.123-.048.3-.117.395-.155a1.57,1.57,0,0,1,.337-.089,1.77,1.77,0,0,0,.582-.138c.153-.07.433-.1.433-.039,0,.016-.086.051-.188.078-.188.048-.262.118-.1.1.241-.03.366-.071.366-.118s.037-.065.179-.054c.067.006.082-.01.075-.078-.005-.048.007-.088.028-.088a.213.213,0,0,0,.083-.031,12.5,12.5,0,0,1,1.587-.084,9.35,9.35,0,0,1,1.052,0c.133.009.657.022,1.163.031s1.055.029,1.22.045.364.027.441.026.142.01.142.022.062.028.141.032a4.182,4.182,0,0,1,.859.147.62.62,0,0,0,.189.051,1.792,1.792,0,0,1,.295.062,2.383,2.383,0,0,0,.308.069.234.234,0,0,1,.11.032.149.149,0,0,0,.092.026.2.2,0,0,1,.121.055.361.361,0,0,0,.181.068.685.685,0,0,1,.208.058.374.374,0,0,0,.142.044c.062,0,.094.013.342.14.094.049.171.067.2.048.063-.039.142-.011.276.1a.389.389,0,0,0,.154.087,1.639,1.639,0,0,1,.3.114,1.576,1.576,0,0,0,.3.112.6.6,0,0,1,.191.076c.075.042.149.067.166.056a1.143,1.143,0,0,1,.321.131,1.612,1.612,0,0,0,.358.15c.036,0,.073.017.079.039a.093.093,0,0,0,.069.049.524.524,0,0,1,.149.07.767.767,0,0,0,.2.089,1.135,1.135,0,0,1,.207.077.434.434,0,0,0,.138.051.356.356,0,0,1,.138.09,1.657,1.657,0,0,0,.315.194,1.6,1.6,0,0,1,.329.21.37.37,0,0,0,.164.105.734.734,0,0,1,.23.178c.2.2.286.273.33.273.016,0,.051.034.077.076a.155.155,0,0,0,.1.075c.029,0,.058.037.065.082a.1.1,0,0,0,.09.087.538.538,0,0,1,.21.106.557.557,0,0,0,.174.1.531.531,0,0,1,.175.116c.105.093.128.135.11.206s-.007.091.048.094l.132.01a1.333,1.333,0,0,1,.319.234c.385.345.489.428.534.428a.038.038,0,0,1,.042.032.355.355,0,0,0,.183.193.041.041,0,0,1,.043.038.035.035,0,0,0,.031.038,1.479,1.479,0,0,1,.393.385c.014.037.037.063.052.056s.164.1.385.309a2.194,2.194,0,0,0,.206.169c.057.042.226.188.373.326s.324.3.394.355a2.748,2.748,0,0,1,.308.331,8.11,8.11,0,0,0,1.083,1.147c.022,0,.04.032.04.072s.014.077.03.084a3.811,3.811,0,0,1,.412.538c.022.041.126.191.231.332a3.814,3.814,0,0,1,.288.459,1.51,1.51,0,0,0,.187.3c.049.053.076.1.063.1s0,.022.029.048a.456.456,0,0,1,.15.278.488.488,0,0,0,.058.175.33.33,0,0,1,.046.15,1.1,1.1,0,0,0,.2.466.706.706,0,0,1,.106.214.1.1,0,0,0,.038.076.041.041,0,0,1,.021.052,3.323,3.323,0,0,0,.5,1.246.461.461,0,0,1,.116.182.277.277,0,0,0,.055.13c.029.039.044.087.032.106a.156.156,0,0,0,.016.116,3.133,3.133,0,0,1,.115.345c.042.144.113.389.158.541s.084.315.09.357a1.066,1.066,0,0,0,.071.222.791.791,0,0,1,.062.207,2.456,2.456,0,0,0,.11.371,1.355,1.355,0,0,1,.089.309c-.011,0,0,.021.017.046a2.142,2.142,0,0,1,.131.629.2.2,0,0,0,.029.094,3.913,3.913,0,0,1,.13,1.239,4.267,4.267,0,0,0,.113,1.175c.011.011,0,.055-.031.1M30.023,43.674a2.663,2.663,0,0,1-.453.357,1.491,1.491,0,0,0-.252.158.31.31,0,0,1-.138.076c-.028,0-.05.015-.05.032a1.014,1.014,0,0,1-.246.192,3.474,3.474,0,0,0-.356.259c-.106.1-.337.249-.337.221a3.1,3.1,0,0,1,.225-.251c.2-.209.291-.348.191-.286a.043.043,0,0,1-.059-.017c-.043-.068-.165-.039-.337.082a.6.6,0,0,0-.17.15c0,.016-.038.027-.085.023-.1-.008-.365.113-.368.171,0,.087-.221.22-.319.2-.065-.016-.1-.006-.115.033a5.028,5.028,0,0,1-1.06.53c-.018-.011-.051.021-.073.071a.143.143,0,0,1-.109.088,2.314,2.314,0,0,0-.657.233,1.357,1.357,0,0,1-.573.153c-.066-.017-.285.037-.267.067s-.046.032-.127.035a.9.9,0,0,0-.238.04.5.5,0,0,1-.213.021c-.079-.01-.125,0-.138.04s-.076.055-.177.055a1.347,1.347,0,0,0-.287.035c-.072.02-.181.043-.243.054a2.127,2.127,0,0,0-.226.051,1.6,1.6,0,0,1-.406.011,1.233,1.233,0,0,0-.348.01.579.579,0,0,1-.259-.011.66.66,0,0,0-.237-.023.7.7,0,0,1-.141.042h0a2.262,2.262,0,0,1-.655.023c0-.016.018-.123.039-.241a6.954,6.954,0,0,0,.091-.866,1.29,1.29,0,0,1,.048-.3.309.309,0,0,0,.034-.08c.126-.583.13-.764.016-.835a3.164,3.164,0,0,0-.623-.232c-.041,0-.125-.011-.187-.015a.319.319,0,0,1-.165-.058.148.148,0,0,0-.122-.032c-.038.01-.07,0-.07-.012s-.089-.036-.2-.046a1.214,1.214,0,0,1-.259-.043.116.116,0,0,0-.132.043.458.458,0,0,1-.127.093c-.065.022-.06-.04-.093,1.418a4.218,4.218,0,0,1-.056.82.05.05,0,0,0-.037.041c0,.057.2.227.265.227a.124.124,0,0,1,.1.043c.019.033-.054.037-.29.016-.174-.016-.482-.034-.684-.042-.352-.012-.626-.067-.626-.124,0-.015-.063-.032-.138-.037a.628.628,0,0,1-.166-.027A2.049,2.049,0,0,0,17,46.272a3.942,3.942,0,0,1-.406-.041,3.254,3.254,0,0,0-.6-.067,1.534,1.534,0,0,1-.375-.059,1.022,1.022,0,0,0-.314-.048A.946.946,0,0,1,14.98,46a.676.676,0,0,0-.263-.041.767.767,0,0,1-.285-.045c-.026-.021-.058-.027-.071-.013s-.024,0-.024-.034-.024-.052-.067-.041a.319.319,0,0,1-.178-.04.51.51,0,0,0-.2-.059c-.046,0-.084-.016-.084-.034s-.043-.044-.094-.056-.094-.04-.094-.06-.028-.025-.062-.011-.054.009-.038-.016,0-.061-.032-.087-.067-.037-.11,0-.053.032-.04-.033c.008-.044,0-.079-.021-.079a.037.037,0,0,0-.036.038c0,.021-.033,0-.074-.038a.276.276,0,0,0-.16-.075.544.544,0,0,1-.224-.094.556.556,0,0,0-.2-.094.093.093,0,0,1-.081-.071c-.011-.042-.088-.1-.182-.133a.686.686,0,0,1-.208-.116.166.166,0,0,0-.115-.055.065.065,0,0,1-.071-.056c0-.03-.017-.056-.039-.056a1.028,1.028,0,0,1-.238-.15.8.8,0,0,0-.271-.15.919.919,0,0,1-.43-.271.246.246,0,0,0-.105-.066c-.02,0-.044-.025-.055-.055a.628.628,0,0,0-.182-.159,1.63,1.63,0,0,1-.181-.128.81.81,0,0,0-.145-.088c-.088-.045-.113-.074-.081-.1s.034-.035,0-.054a.079.079,0,0,0-.077,0c-.02.012-.056-.017-.081-.064-.043-.079-.179-.2-.221-.2a.126.126,0,0,1-.061-.038,1.043,1.043,0,0,0-.131-.1,1.8,1.8,0,0,1-.228-.2.888.888,0,0,0-.255-.182c-.062-.022-.114-.056-.114-.076s-.016-.027-.034-.016-.044,0-.056-.038-.042-.046-.066-.032-.033.011-.021-.009-.018-.082-.07-.136a.486.486,0,0,1-.092-.122c0-.041-.087-.11-.291-.235-.225-.138-.266-.149-.192-.055.046.059.045.06-.016.012-.037-.028-.057-.061-.046-.072s-.025-.067-.081-.126-.086-.106-.066-.106-.041-.054-.136-.121a2.679,2.679,0,0,1-.246-.2c-.043-.04-.142-.126-.222-.187s-.165-.134-.192-.16a.16.16,0,0,0-.069-.046,1.028,1.028,0,0,1-.343-.362,1.463,1.463,0,0,0-.232-.309,1.063,1.063,0,0,1-.171-.205.927.927,0,0,0-.149-.184,1.73,1.73,0,0,1-.235-.317c-.04-.08-.118-.211-.17-.293a5.451,5.451,0,0,1-.409-.821.382.382,0,0,0-.1-.147c-.051-.056-.084-.1-.072-.1s-.007-.05-.044-.112-.08-.112-.1-.112-.065-.07-.109-.155c-.066-.131-.068-.153-.018-.133s.026-.021-.042-.105a.868.868,0,0,1-.142-.29c-.022-.089-.054-.156-.072-.15a1.342,1.342,0,0,1-.192-.519c.01-.016-.007-.049-.038-.075a.162.162,0,0,1-.056-.11.892.892,0,0,0-.1-.249,1.447,1.447,0,0,1-.114-.275.661.661,0,0,0-.087-.188.281.281,0,0,1-.057-.165.386.386,0,0,0-.059-.188,1.878,1.878,0,0,1-.132-.4c-.034-.154-.072-.307-.084-.337a.234.234,0,0,1-.012-.106.142.142,0,0,0-.027-.094.975.975,0,0,1-.105-.351.562.562,0,0,0-.078-.187c-.038-.057-.047-.09-.02-.074.061.038.034-.086-.094-.427a1.871,1.871,0,0,1-.105-.375c-.007-.072-.032-.216-.055-.319s-.05-.273-.061-.375a.411.411,0,0,0-.064-.215c-.034-.022-.033-.037,0-.062.058-.037.058-.031-.011-.226a.728.728,0,0,1-.04-.254.329.329,0,0,0-.018-.163,1.882,1.882,0,0,1-.055-.357,3.48,3.48,0,0,0-.041-.361c-.03-.105.07-.149.259-.114.132.024.193.019.251-.021s.076-.046.076.008.018.055.066.034a.476.476,0,0,1,.15-.029c.121,0,.1-.062-.019-.064-.075,0-.088-.01-.05-.034a.126.126,0,0,1,.094-.018,2.4,2.4,0,0,0,.28.029.471.471,0,0,1,.273.067c.017.028.032.034.033.013s.017-.012.038.018c.032.049.035.048.037-.007s.028-.06.1-.051c.136.015.271-.049.246-.115-.011-.031.005-.051.042-.051.127,0,.361-.1.366-.15,0-.032.009-.1.014-.15a.231.231,0,0,0-.029-.142c-.029-.037-.022-.042.029-.022s.059.012.04-.017c-.055-.09-.054-.323,0-.364.04-.031.063-.164.087-.508a2.418,2.418,0,0,0,0-.5.359.359,0,0,0-.156-.04.889.889,0,0,1-.183-.033c-.127-.048-.227-.056-.249-.021a.654.654,0,0,1-.446-.034.644.644,0,0,0-.291-.056.76.76,0,0,1-.253-.033,1.492,1.492,0,0,0-.482-.039.341.341,0,0,0-.178.045c-.044.037-.055.028-.059-.045,0-.049,0-.1,0-.107a5.645,5.645,0,0,1,.126-1.111.151.151,0,0,0,.032-.106.716.716,0,0,1,.056-.223.76.76,0,0,0,.056-.23c0-.081.017-.1.11-.1.141,0,.167-.044.083-.136-.106-.114-.043-.39.089-.39.042,0,.1-.228.148-.563a1.588,1.588,0,0,1,.167-.562c.048,0,.153-.243.153-.353,0-.054.017-.1.038-.1a.041.041,0,0,0,.038-.044.219.219,0,0,1,.057-.109c.054-.057.053-.07,0-.126A.142.142,0,0,0,4.2,23.9c-.061.019-.065.008-.036-.1a.543.543,0,0,1,.078-.17c.023-.029.029-.053.013-.053s0-.022.028-.048a.652.652,0,0,0,.121-.237,1.939,1.939,0,0,1,.191-.39.661.661,0,0,0,.112-.227c-.008-.015.026-.065.076-.113a.458.458,0,0,0,.116-.212c.012-.069.035-.125.05-.125a.855.855,0,0,0,.093-.429c-.026-.065.044-.2.144-.292.04-.035.062-.079.051-.1s0-.056.033-.082a.249.249,0,0,0,.056-.169c0-.077.022-.132.059-.145s.049-.04.035-.061,0-.037.017-.037.039-.026.039-.058.017-.056.037-.056.048-.041.061-.094a.3.3,0,0,1,.1-.148c.042-.028.063-.071.05-.093s-.006-.037.018-.032.05-.017.055-.05a1.163,1.163,0,0,1,.08-.206.8.8,0,0,0,.069-.19.658.658,0,0,1,.132-.189,1.659,1.659,0,0,0,.2-.276,1.989,1.989,0,0,1,.5-.629c.184-.187.4-.411.468-.5a3,3,0,0,1,.239-.255c.06-.055.14-.132.179-.173a.3.3,0,0,1,.131-.082.857.857,0,0,0,.336-.334.98.98,0,0,1,.16-.187c.048-.042.14-.133.206-.2.2-.216.376-.386.68-.66.16-.144.348-.318.418-.385A.473.473,0,0,1,9.765,16a.329.329,0,0,0,.142-.109,1.043,1.043,0,0,1,.213-.178,2.635,2.635,0,0,0,.244-.169,3.275,3.275,0,0,1,.389-.24c.144-.077.373-.2.507-.275a6.786,6.786,0,0,1,.882-.407,1.661,1.661,0,0,0,.47-.24c0-.016.05-.04.112-.054s.112-.038.112-.054a.425.425,0,0,1,.178-.1c.1-.037.347-.145.554-.243a3.611,3.611,0,0,1,.6-.225,1.367,1.367,0,0,0,.263-.076.511.511,0,0,1,.151-.054,4.077,4.077,0,0,0,.506-.138l.395-.142c.144-.053.28-.106.3-.12a.991.991,0,0,1,.187-.073.878.878,0,0,0,.193-.081.114.114,0,0,1,.1-.01c.034.012.061.007.061-.012,0-.037.161-.122.23-.122.021,0,.026.019.012.04s0,.029.051,0a.331.331,0,0,0,.1-.077.066.066,0,0,1,.077-.015c.031.012.055,0,.055-.023s.021-.038.048-.028a.218.218,0,0,0,.141-.05,1.028,1.028,0,0,1,.263-.109,3.567,3.567,0,0,0,.365-.121.574.574,0,0,1,.258-.054.135.135,0,0,0,.12-.023c.031-.027.067-.044.08-.039a.209.209,0,0,0,.089-.012.136.136,0,0,1,.116.019c.027.023.059.03.07.019a6.3,6.3,0,0,1,1-.027c.043.011.067.054.069.117s.011.351.022.657a3.776,3.776,0,0,1-.011.639.293.293,0,0,0,0,.171c.025.064.021.1-.014.121s-.036.031,0,.032.039.044.029.122c-.029.238.24.43.62.441.281.009.275.01.368-.077.045-.042.082-.059.082-.037,0,.045.1.053.12.008a1.583,1.583,0,0,1,.466-.2.393.393,0,0,0,.271-.153c.026-.04.033-.071.017-.067-.127.019-.158-.039-.066-.131a.323.323,0,0,0,.068-.164.482.482,0,0,1,.039-.153.087.087,0,0,0,0-.084,5.143,5.143,0,0,1-.006-.852c.01-.111.064-.225.064-.133,0,.022.054.041.121.044l.178,0a.831.831,0,0,0,.3-.055c.022-.015.05,0,.062.033s.039.048.06.035a.046.046,0,0,1,.063.018.7.7,0,0,0,.286.065,1.411,1.411,0,0,1,.358.075,7,7,0,0,0,.751.186c.359.075.721.159.8.187s.3.087.478.128a4.194,4.194,0,0,1,.464.133.76.76,0,0,0,.242.058.258.258,0,0,1,.155.05.106.106,0,0,0,.093.035.063.063,0,0,1,.068.026.136.136,0,0,0,.105.039,1.044,1.044,0,0,1,.251.06c.178.063.206.074.5.2.14.06.2.069.236.035s.048-.032.032.009.1.108.365.235c.373.177.444.211.581.284.036.019.133.068.217.109a5.076,5.076,0,0,1,.506.272.741.741,0,0,0,.14.07c.067.028.122.065.122.083s.043.033.094.033.094.017.094.037.023.038.05.038a.2.2,0,0,1,.114.07,1.059,1.059,0,0,0,.236.159.845.845,0,0,1,.251.193c.042.057.1.1.122.1a.085.085,0,0,1,.067.056.126.126,0,0,0,.114.056.112.112,0,0,1,.117.076.355.355,0,0,0,.161.147,1.025,1.025,0,0,1,.232.171.835.835,0,0,0,.218.159.894.894,0,0,1,.244.208,2.632,2.632,0,0,0,.224.244.337.337,0,0,1,.1.147c0,.028.012.05.028.051a3.581,3.581,0,0,1,.379.336,2.845,2.845,0,0,0,.422.358c.04.013.072.039.072.06a3.267,3.267,0,0,0,.467.516,8.2,8.2,0,0,1,.86.917c-.011.018.015.042.057.054a.148.148,0,0,1,.1.082.743.743,0,0,0,.124.18c.056.064.156.182.222.261s.205.247.309.372a1.265,1.265,0,0,1,.191.263.348.348,0,0,0,.094.126.3.3,0,0,1,.094.133.255.255,0,0,0,.065.118,1.092,1.092,0,0,1,.133.2,1.741,1.741,0,0,0,.224.366,2.846,2.846,0,0,1,.309.535c.032.072.083.18.114.237a.517.517,0,0,1,.056.145.813.813,0,0,0,.06.175L36,22.66c.018.042.077.193.131.337s.124.331.155.413a1.551,1.551,0,0,1,.066.207.549.549,0,0,0,.029.112,3.806,3.806,0,0,1,.2.772.079.079,0,0,0,.048.089.3.3,0,0,1,.1.2c.016.088.035.186.045.218a1.861,1.861,0,0,1,.029.2,1.57,1.57,0,0,0,.147.408.932.932,0,0,1,.114.3c-.011.017,0,.032.02.032s.039.057.039.128.017.141.039.153a.043.043,0,0,1,.016.059c-.012.02,0,.035.015.035.073,0,.139.6.079.716a.129.129,0,0,1-.089.072.085.085,0,0,0-.068.067c-.011.044-.11.1-.291.157a1.676,1.676,0,0,0-.315.131,2.179,2.179,0,0,1-.488.19.244.244,0,0,0-.09.036c-.011.011-.039,0-.063-.016s-.088-.013-.175.033-.148.061-.2.032-.061-.027-.043,0,.009.043-.013.043a.041.041,0,0,0-.04.04.185.185,0,0,1-.056.1c-.068.069-.072.126-.008.126.031,0,.029.011-.008.036s-.046.044,0,.094c.059.071.117.353.077.377-.015.009-.019.059-.01.111.023.118-.022.365-.061.341-.056-.034-.019.251.037.294a.263.263,0,0,1,.081.1c.028.076.217.128.254.07a.062.062,0,0,1,.06-.032.673.673,0,0,0,.353-.077c0-.017.1-.044.215-.059a1.216,1.216,0,0,0,.254-.05.28.28,0,0,1,.075-.033c.021,0,.131-.034.244-.066a1.7,1.7,0,0,1,.329-.059h.122l.006.216c0,.119,0,.414,0,.656-.006.315,0,.441.035.441s.034.031.016.084a6.94,6.94,0,0,0-.144.939c0,.065-.028.1-.062.1s-.046.007,0,.033.038.04.009.059c-.055.034-.052.257,0,.314.029.028.031.045,0,.045a.812.812,0,0,0-.166.356.993.993,0,0,1-.076.178c-.039.078-.06.14-.045.14s.007.021-.018.045a.2.2,0,0,0-.044.125.2.2,0,0,1-.033.114,2.783,2.783,0,0,0-.214.6,2.353,2.353,0,0,1-.114.317.183.183,0,0,0-.029.125c.01.017-.016.08-.058.138a.887.887,0,0,0-.111.265.616.616,0,0,1-.1.225.186.186,0,0,0,0,.266c.076.064.071.1-.017.124a.284.284,0,0,0-.131.144c-.032.07-.072.152-.092.183s-.1.182-.175.337a1.557,1.557,0,0,1-.2.327c-.033.026-.04.047-.017.047.049,0,.023.152-.026.152a.446.446,0,0,0-.092.188c-.035.1-.078.187-.1.187a.038.038,0,0,0-.034.04.528.528,0,0,1-.094.164.455.455,0,0,0-.094.182.087.087,0,0,1-.047.077c-.037.016-.036.027,0,.054s.027.05-.05.1l-.1.066.076.081.076.082-.166.126a.705.705,0,0,0-.165.154.458.458,0,0,1-.1.132,1.468,1.468,0,0,0-.189.3c-.05.106-.116.235-.147.287a.294.294,0,0,0-.046.15.293.293,0,0,1-.093.165.431.431,0,0,0-.1.144.372.372,0,0,1-.075.13c-.041.053-.066.11-.055.128s0,.033-.017.033-.031.034-.023.076,0,.075-.021.075c-.048,0-.045.126,0,.174s-.181.3-.366.409c-.067.039-.122.092-.122.116a.078.078,0,0,1-.048.065c-.033.014-.025.036.027.078s.059.058.017.058a.289.289,0,0,0-.184.188c0,.021-.026.038-.058.038s-.087.05-.122.113-.077.112-.093.112-.028.025-.028.054a.161.161,0,0,1-.067.1c-.092.065-.123.161-.072.212.031.032.021.043-.04.043s-.083.023-.084.066a.249.249,0,0,1-.158.207.1.1,0,0,0-.066.082c0,.032-.118.134-.263.23-.161.106-.263.2-.263.239a.225.225,0,0,1-.1.138,6.073,6.073,0,0,0-.5.429,3.375,3.375,0,0,0-.631.645c-.024.057-.071.1-.1.1s-.059.017-.059.038a.041.041,0,0,1-.044.037.208.208,0,0,0-.1.056l-.348.33m.308.027c-.042.077-.151.105-.151.039,0-.034.117-.114.168-.114.012,0,0,.033-.017.075m-.25.18c-.082.082-.227.156-.254.129-.043-.043-.019-.084.049-.084a.361.361,0,0,0,.169-.077c.11-.087.134-.065.037.032m-2.228,1.1a.842.842,0,0,0-.2.15.7.7,0,0,1-.208.15.053.053,0,0,0-.048.056c0,.031-.041.066-.093.078s-.094.042-.094.064-.011.029-.026.015-.055,0-.093.036a.28.28,0,0,1-.162.061c-.051,0-.094.013-.094.031s-.127.083-.207.089a1.67,1.67,0,0,0-.453.137.126.126,0,0,1-.1.034c-.108,0-.062-.051.115-.131.083-.038.151-.083.151-.1s.026-.032.057-.032a.593.593,0,0,0,.2-.088c.077-.049.253-.142.39-.207a.822.822,0,0,0,.271-.177c.012-.033.04-.048.062-.034.045.027.183-.055.3-.177.042-.044.088-.069.1-.056s.067,0,.117-.033.1-.051.109-.042c.027.027-.059.175-.1.175m-7.488.489a2.123,2.123,0,0,1-.053.44c-.041.223-.086.477-.1.563-.022.14-.036.158-.117.152a.375.375,0,0,1-.137-.037,1.144,1.144,0,0,0-.318-.029.916.916,0,0,1-.273-.022.246.246,0,0,1,.071-.086.379.379,0,0,0,.014-.539,1.874,1.874,0,0,1-.032-.676c.016-.651.049-.8.172-.77a.178.178,0,0,0,.117-.012c.031-.02.125.01.248.078a.577.577,0,0,0,.246.09c.065-.025.253.157.253.246a2.374,2.374,0,0,1-.057.319.845.845,0,0,0-.036.282M4.84,29.6c.037.045.037.059,0,.059s-.041.048-.032.148,0,.154-.043.169-.076.031-.1.04-.048.013-.057,0a4.933,4.933,0,0,0-1.38-.044l-.163.032.021-.2c.034-.324.072-.825.076-1.018,0-.1.016-.179.032-.179a.03.03,0,0,1,.028.029c0,.046.233.12.378.121a1.24,1.24,0,0,1,.263.037,2.472,2.472,0,0,0,.3.056c.092.01.192.023.223.031.451.1.5.119.525.192a.2.2,0,0,1,0,.142.381.381,0,0,0-.033.152.211.211,0,0,1-.044.132c-.033.033-.032.057,0,.1M20.768,12.654c.237,0,.255,0,.29.09a.61.61,0,0,1,.015.237,1.425,1.425,0,0,0-.018.189c.023.388.012.473-.076.54a.326.326,0,0,1-.127.069c-.021,0-.059.034-.083.076a.332.332,0,0,1-.169.106c-.067.018-.12.05-.116.07s-.038.038-.093.038a.531.531,0,0,0-.167.031c-.036.015-.066.021-.067.013a9.5,9.5,0,0,1-.052-.961,1.49,1.49,0,0,0-.035-.423c-.018,0-.012-.026.014-.057s.094-.053.24-.037a4.373,4.373,0,0,0,.445.018M37.374,27.718l.006.393c.006.363,0,.394-.068.412-.04.011-.074.043-.074.072,0,.062-.064.068-.083.008-.011-.032-.054-.029-.162.008a.616.616,0,0,1-.179.043.209.209,0,0,0-.1.028,1.3,1.3,0,0,1-.342.094,1.489,1.489,0,0,0-.169.054l-.156.06c-.032.011-.042-.051-.032-.218.006-.127.013-.3.016-.385,0-.152,0-.153.276-.276s.446-.2.572-.248a1.289,1.289,0,0,1,.285-.038Z" transform="translate(0 0)" fill="#899c88"/>
        <path id="Path_530" data-name="Path 530" d="M202.118,426.583a.063.063,0,0,1-.054-.069c0-.136-.394-.226-.676-.157-.093.023-.194.045-.226.05a.158.158,0,0,0-.074.026c-.011.01-.1.077-.188.148-.236.181-.336.278-.337.324a.4.4,0,0,1-.113.147c-.241.232-.171.594.161.832a2.026,2.026,0,0,1,.233.184.629.629,0,0,0,.17.107c.384.182.47.249.5.388.016.085-.04.2-.1.2a1.21,1.21,0,0,0-.181.114c-.386.274-.444.306-.571.312-.186.011-.325.158-.264.277.023.046.052.074.063.064s.069,0,.128.035c.138.076.218.075.425,0a3.408,3.408,0,0,0,.7-.445c.023-.023.091-.083.15-.133a.606.606,0,0,0,.175-.586c-.022-.238-.027-.248-.208-.391a3.934,3.934,0,0,0-.435-.284c-.315-.174-.469-.327-.435-.439a.81.81,0,0,1,.3-.325.382.382,0,0,0,.132-.074c.125-.1.264-.1.29,0a.1.1,0,0,0,.088.074.117.117,0,0,1,.089.034c.033.054.247-.169.284-.3.026-.089.021-.114-.021-.114" transform="translate(-181.268 -385.81)" fill="#899c88"/>
        <path id="Path_531" data-name="Path 531" d="M198.686,162.964a1.848,1.848,0,0,0,.043.33,6.106,6.106,0,0,1,.051.826c0,.536.011.61.076.684.084.1.321.121.321.032a.178.178,0,0,1,.053-.106.388.388,0,0,0,.072-.181,2.272,2.272,0,0,1,.059-.254,1.428,1.428,0,0,0-.029-.66.082.082,0,0,1,0-.1.088.088,0,0,0,0-.093,2.583,2.583,0,0,1-.1-.685c.011-.012.087.037.167.106l.326.277a3.244,3.244,0,0,1,.478.484c.206.24.243.292.258.381a.528.528,0,0,0,.288.242.154.154,0,0,1,.081.056c.062.075.18.011.21-.113.014-.05.039-.093.058-.093s.033-.023.033-.051a.775.775,0,0,1,.092-.215,5,5,0,0,0,.323-.991,2.518,2.518,0,0,1,.2-.655c.067-.082.054-.173-.026-.159-.053.008-.061-.007-.043-.081.014-.05.005-.1-.017-.117-.063-.039-.048-.084.038-.108s.08-.021-.009-.109-.1-.084-.2-.05-.357.209-.3.209c.016,0,.007.025-.018.056a.218.218,0,0,0-.025.17.335.335,0,0,1-.009.178,3.464,3.464,0,0,0-.155.673.988.988,0,0,1-.215.5c-.026,0-.048-.013-.048-.029a2.581,2.581,0,0,0-.618-.665c-.12-.1-.254-.223-.3-.263-.138-.133-.509-.359-.509-.311,0,.025-.026.008-.059-.037a.187.187,0,0,0-.118-.085c-.033,0-.05-.01-.038-.022s-.033-.081-.1-.15c-.129-.133-.29-.161-.387-.066a.316.316,0,0,1-.085.057c-.026.008-.02.077.018.2a5.413,5.413,0,0,1,.166.984" transform="translate(-179.62 -146.191)" fill="#899c88"/>
        <path id="Path_532" data-name="Path 532" d="M69.632,295.06a.543.543,0,0,0-.43.017.116.116,0,0,0-.059.129c.009.048,0,.1-.016.106a.216.216,0,0,0-.033.139,1.456,1.456,0,0,1-.148.506,2.588,2.588,0,0,0-.188.478c-.013.06-.082.131-.128.131a2.168,2.168,0,0,1-.336-.591c-.021-.045-.05-.084-.065-.084s-.039-.075-.053-.167c-.031-.2-.086-.247-.175-.137-.059.072-.077.077-.144.034-.1-.063-.188-.008-.277.181-.039.081-.1.223-.149.315a3.191,3.191,0,0,1-.447.676c-.016,0-.03.023-.03.051,0,.054-.129.106-.166.07a.154.154,0,0,1-.022-.089,1.012,1.012,0,0,0-.177-.4.22.22,0,0,1-.054-.113.974.974,0,0,0-.11-.4c-.073-.16-.1-.414-.046-.463.076-.071.062-.1-.077-.176-.162-.087-.27-.048-.533.2-.156.145-.192.2-.2.319s.005.141.05.141.06.013.06.029.038.045.084.065a.719.719,0,0,1,.187.488,1.3,1.3,0,0,0,.28.761.853.853,0,0,1,.131.2c.026.058.06.1.076.087s.03,0,.03.021.071.071.159.111a.92.92,0,0,0,.24.077,1.527,1.527,0,0,0,.656-.276,1.346,1.346,0,0,0,.334-.487c0-.033.017-.059.037-.059s.052-.055.071-.122L68,296.7l.039.094a1.74,1.74,0,0,0,.136.236.862.862,0,0,1,.1.165.451.451,0,0,0,.1.117c.123.115.234.119.459.012a1.019,1.019,0,0,1,.21-.079c.079,0,.232-.176.312-.358.018-.043.077-.169.131-.28a1.244,1.244,0,0,0,.1-.243,3.019,3.019,0,0,1,.1-.34.956.956,0,0,0,.053-.609.86.86,0,0,0-.1-.354" transform="translate(-59.335 -266.982)" fill="#899c88"/>
        <path id="Path_533" data-name="Path 533" d="M336.941,289.629c.025.114.067.293.1.4.06.223.066.351.018.351-.068,0-.068.186,0,.248.038.034.061.076.051.092a.116.116,0,0,0,.079.149.152.152,0,0,1,.1.074c.051.083.1.1.1.034,0-.023.027-.032.06-.018a.241.241,0,0,0,.16-.033,1.217,1.217,0,0,1,.506-.186.068.068,0,0,0,.079-.02.135.135,0,0,1,.1-.04c.129,0,.2-.109.2-.307,0-.164-.019-.2-.1-.186-.061.01-.023-.066.044-.088.144-.045.117-.125-.061-.186s-.194-.06-.384.12c-.05.048-.112.078-.139.068a.06.06,0,0,0-.071.017c-.049.079-.128.029-.152-.1-.013-.072-.042-.132-.062-.132s-.028-.022-.017-.05a1.487,1.487,0,0,0-.036-.347c-.1-.562-.12-.5.147-.507.128,0,.292,0,.366.007a.834.834,0,0,0,.469-.043c.087-.071.071-.248-.024-.274-.067-.017-.077-.039-.057-.137s.01-.121-.066-.15a.272.272,0,0,1-.115-.074.044.044,0,0,0-.058-.02.039.039,0,0,1-.054-.017,2.237,2.237,0,0,0-.83.037c-.043.035-.059.031-.076-.026-.012-.038-.036-.1-.052-.144a.581.581,0,0,1,.147-.412,1.9,1.9,0,0,1,.78,0,.232.232,0,0,0,.216.011c.05-.023.082-.057.071-.074a1.462,1.462,0,0,1-.018-.314c0-.21-.011-.281-.049-.281a.148.148,0,0,1-.094-.051,2.263,2.263,0,0,0-.912.007.325.325,0,0,1-.159.016c-.027-.027-.246.065-.356.148-.049.037-.077.067-.064.067s.013.022,0,.048a.22.22,0,0,0-.032.084.759.759,0,0,1-.092.319c-.014,0-.029.072-.03.16a6.364,6.364,0,0,0,.293,1.416c.018.072.052.225.077.338" transform="translate(-304.58 -259.706)" fill="#899c88"/>
        <path id="Path_534" data-name="Path 534" d="M128.006,128.652c.03,0,.056-.006.056-.015s-.026-.025-.056-.036-.056-.006-.056.015.026.035.056.035" transform="translate(-115.789 -116.373)" fill="#899c88"/>
        <path id="Path_535" data-name="Path 535" d="M139.174,120.4a.089.089,0,0,1,.094-.027c.088.021.176-.04.141-.1-.022-.036-.038-.031-.063.016a.085.085,0,0,1-.1.042.119.119,0,0,0-.115.036.153.153,0,0,1-.083.056.188.188,0,0,0-.092.056.208.208,0,0,1-.131.057c-.041,0-.065.016-.053.035.034.055.342-.077.4-.173" transform="translate(-125.577 -108.824)" fill="#899c88"/>
        <path id="Path_536" data-name="Path 536" d="M151.825,117.821c.01,0,.017-.017.017-.038a.039.039,0,0,0-.04-.037c-.022,0-.029.016-.016.037s.031.038.039.038" transform="translate(-137.353 -106.554)" fill="#899c88"/>
        <path id="Path_537" data-name="Path 537" d="M403.285,301.464a1.345,1.345,0,0,0-.4.138c-.083.037-.214.089-.291.116-.125.044-.141.065-.141.175,0,.067.016.123.037.123s.038.024.038.054a.078.078,0,0,0,.066.067c.068.015.347-.109.347-.154,0-.015.055-.057.122-.1.188-.109.326-.255.327-.351,0-.073-.016-.084-.1-.072" transform="translate(-364.198 -272.806)" fill="#899c88"/>
        <path id="Path_538" data-name="Path 538" d="M402.811,312.1a.123.123,0,0,1-.1.055c-.045,0-.088.024-.1.045a.065.065,0,0,1-.06.039.542.542,0,0,0-.285.276c0,.034-.016.062-.033.062s-.043.038-.054.084-.032.122-.047.169c-.021.068-.012.084.05.084.126,0,.2-.042.2-.116a.066.066,0,0,1,.066-.072.946.946,0,0,0,.282-.207.818.818,0,0,1,.291-.205c.076,0,.1-.084.051-.2-.028-.072-.235-.081-.261-.011" transform="translate(-363.905 -282.396)" fill="#899c88"/>
        <path id="Path_539" data-name="Path 539" d="M396.064,338.368a1.316,1.316,0,0,0-.461.452.375.375,0,0,1-.094.122c-.045,0-.017.192.033.221a.178.178,0,0,0,.237-.084.61.61,0,0,1,.093-.129.172.172,0,0,0,.05-.1.109.109,0,0,1,.048-.082.939.939,0,0,0,.136-.131c.116-.132.089-.3-.042-.266" transform="translate(-357.897 -306.203)" fill="#899c88"/>
        <path id="Path_540" data-name="Path 540" d="M171.229,117.733c-.056,0-.221.148-.221.2s.237-.1.255-.158c.007-.022-.009-.04-.034-.04" transform="translate(-154.754 -106.543)" fill="#899c88"/>
        <path id="Path_541" data-name="Path 541" d="M83.777,114.4a.129.129,0,0,0,.1-.061c.012-.036-.012-.042-.09-.026a2.9,2.9,0,0,0-.576.247,1.831,1.831,0,0,1-.507.239.42.42,0,0,0-.215.111.109.109,0,0,1-.075.04.819.819,0,0,0-.2.07c-.082.038-.183.082-.225.1s-.148.065-.238.109a.778.778,0,0,1-.254.081.386.386,0,0,0-.155.034c-.037.018-.128.061-.205.1a.444.444,0,0,0-.172.118c-.018.032-.047.057-.067.057-.077,0-.2.042-.185.069s-.083.066-.208.111a.7.7,0,0,0-.271.155.165.165,0,0,1-.127.072.139.139,0,0,0-.106.038.13.13,0,0,1-.1.038.1.1,0,0,0-.1.076c-.015.054-.04.069-.09.054s-.071,0-.071.042-.012.052-.048.023a.086.086,0,0,0-.1-.007.1.1,0,0,1-.083.015c-.017-.011-.03,0-.03.018s-.058.059-.131.086-.132.061-.132.077-.025.031-.056.031a.057.057,0,0,0-.056.059c0,.033-.021.053-.046.044a.094.094,0,0,0-.09.041.244.244,0,0,1-.169.06c-.071,0-.123.019-.118.043s-.03.034-.085.025-.093,0-.093.027-.016.033-.037.021-.038-.006-.038.016a.044.044,0,0,1-.047.041.454.454,0,0,0-.17.115c-.067.062-.138.105-.156.093a.042.042,0,0,0-.059.017.158.158,0,0,1-.115.038c-.05,0-.092.015-.092.033s-.046.043-.1.054a.586.586,0,0,0-.211.117.4.4,0,0,1-.16.1c-.028,0-.05.015-.05.034s-.034.046-.076.059c-.122.039-.447.271-.419.3s-.017.021-.068.015a.436.436,0,0,0-.3.117,1.6,1.6,0,0,1-.235.148.665.665,0,0,0-.215.158c0,.019-.015.028-.031.017s-.089.032-.16.092a.493.493,0,0,1-.175.111c-.025,0-.062.032-.084.072a.239.239,0,0,1-.121.1.672.672,0,0,0-.2.134.627.627,0,0,1-.2.131.159.159,0,0,0-.105.088.179.179,0,0,1-.132.089c-.079.016-.1.038-.088.08s0,.057-.034.057-.065.034-.076.077c-.017.063-.007.073.061.054a2.555,2.555,0,0,0,.588-.289c0-.016.021-.029.045-.029a1.181,1.181,0,0,0,.362-.234.063.063,0,0,1,.056-.029.858.858,0,0,0,.231-.169.855.855,0,0,1,.234-.169.218.218,0,0,0,.114-.066,1.056,1.056,0,0,1,.2-.132,2.545,2.545,0,0,0,.242-.14,2.868,2.868,0,0,1,.266-.149,1.73,1.73,0,0,0,.244-.143,1.2,1.2,0,0,1,.213-.123c.067-.029.122-.064.122-.077a1.183,1.183,0,0,1,.362-.218c0,.009.039-.015.08-.051a.311.311,0,0,1,.159-.075.118.118,0,0,0,.1-.073.1.1,0,0,1,.109-.066.87.87,0,0,0,.287-.108,2.411,2.411,0,0,1,.345-.155.59.59,0,0,0,.17-.076.881.881,0,0,1,.169-.109l.3-.165a2.912,2.912,0,0,1,.281-.137.884.884,0,0,0,.188-.1.507.507,0,0,1,.151-.073.33.33,0,0,0,.113-.053,1.39,1.39,0,0,1,.206-.116,1.976,1.976,0,0,0,.207-.112.6.6,0,0,1,.112-.062,9.557,9.557,0,0,0,1.017-.524c.023-.028.056-.043.073-.032.033.02.072,0,.655-.265a6.6,6.6,0,0,0,1.136-.588.221.221,0,0,1,.129-.074" transform="translate(-67.367 -103.439)" fill="#899c88"/>
        <path id="Path_542" data-name="Path 542" d="M105.626,139.865l.093-.057-.093.023a1.249,1.249,0,0,1-.142.028c-.026,0-.046.017-.046.034,0,.048.083.035.188-.028" transform="translate(-95.416 -126.519)" fill="#899c88"/>
        <path id="Path_543" data-name="Path 543" d="M111.161,137.531c0-.021-.009-.037-.017-.037s-.027.016-.04.037-.005.038.017.038a.039.039,0,0,0,.04-.038" transform="translate(-100.538 -124.425)" fill="#899c88"/>
        <path id="Path_544" data-name="Path 544" d="M121.945,130.9c-.011-.011-.084.015-.164.056s-.133.077-.121.078c.05,0,.3-.116.285-.134" transform="translate(-110.095 -118.455)" fill="#899c88"/>
        <path id="Path_545" data-name="Path 545" d="M167.845,120.718c0,.016.051,0,.115-.028s.108-.065.1-.073-.214.067-.214.1" transform="translate(-151.892 -109.149)" fill="#899c88"/>
        <path id="Path_546" data-name="Path 546" d="M32.343,166.427a1.992,1.992,0,0,0-.259.189.458.458,0,0,1-.177.112c-.03,0-.04.025-.026.064s.01.053-.018.035-.117.048-.216.146-.188.16-.208.149-.034.006-.034.04a.1.1,0,0,1-.076.082c-.041.01-.075.036-.075.054s-.051.054-.112.074c-.077.027-.114.066-.115.121,0,.071-.007.073-.044.019s-.052-.049-.132.045c-.053.063-.079.128-.062.155s.013.035,0,.02-.071.008-.119.054-.088.067-.088.049-.067.033-.15.114a.575.575,0,0,0-.15.2c0,.028-.016.04-.036.027s-.038-.008-.038.009a.58.58,0,0,1-.192.143,1.048,1.048,0,0,0-.27.225.642.642,0,0,1-.127.142.116.116,0,0,0-.049.087c0,.031-.017.046-.037.034-.091-.056-.734.5-.662.571.012.012-.037.062-.109.112s-.131.106-.131.127-.017.028-.038.015-.038,0-.038.036-.017.059-.039.059c-.067,0-.22.191-.2.248.015.038-.005.05-.068.043s-.086.009-.08.038,0,.043-.018.039a2.237,2.237,0,0,0-.459.447c0,.017-.038.048-.084.069a.125.125,0,0,0-.08.1c0,.035-.011.065-.031.065s-.026.017-.012.038.006.038-.016.038a2.612,2.612,0,0,0-.529.508c0,.019-.033.057-.075.083a.163.163,0,0,0-.074.122c0,.04-.017.075-.037.075a.79.79,0,0,0-.3.334h0c0,.035.012.044.028.022a.678.678,0,0,1,.128-.1.337.337,0,0,0,.125-.139.11.11,0,0,1,.1-.077c.04,0,.072-.015.072-.034a14.145,14.145,0,0,1,1.061-1.131,2.461,2.461,0,0,0,.328-.37.04.04,0,0,1,.039-.04,1.052,1.052,0,0,0,.238-.207,1.056,1.056,0,0,1,.236-.206c.021,0,.068-.055.105-.123a.542.542,0,0,1,.177-.187c.061-.036.1-.078.09-.1s.022-.051.072-.075.093-.06.093-.081.026-.038.056-.038a.055.055,0,0,0,.059-.048.545.545,0,0,1,.153-.178c.225-.194.653-.589.908-.836a2.491,2.491,0,0,1,.3-.257c.04-.021.064-.061.054-.088s.021-.058.092-.072a.185.185,0,0,0,.147-.116c.019-.052.061-.1.093-.1a.768.768,0,0,0,.332-.253.281.281,0,0,1,.11-.084.682.682,0,0,0,.178-.15.739.739,0,0,1,.175-.15,1.5,1.5,0,0,0,.257-.208c.175-.161.2-.191.094-.132" transform="translate(-23.935 -150.583)" fill="#899c88"/>
        <path id="Path_547" data-name="Path 547" d="M28.559,208.621a.041.041,0,0,1-.056.018c-.045-.028-.291.215-.335.331-.027.071-.055.089-.113.075s-.078,0-.078.04a.056.056,0,0,1-.05.061c-.027,0-.07.043-.094.1s-.059.087-.077.076-.054.005-.079.035a.152.152,0,0,1-.088.056c-.023,0-.077.05-.117.113s-.093.109-.114.1c-.1-.02-.408.243-.467.4a.131.131,0,0,1-.118.1,1.339,1.339,0,0,0-.482.474c0,.023-.039.053-.086.065a.432.432,0,0,0-.178.164.935.935,0,0,1-.16.191c-.037.028-.059.063-.048.08s.062.031.115.031a2.888,2.888,0,0,0,.863-.735,5.569,5.569,0,0,1,.676-.663c.081-.061.174-.137.207-.169a2.4,2.4,0,0,1,.2-.162c.077-.057.139-.131.139-.161s.017-.047.037-.034c.044.027.109-.02.3-.215a.487.487,0,0,1,.2-.142c.059,0,.215-.167.215-.23,0-.046-.178-.042-.208,0" transform="translate(-23.361 -188.758)" fill="#899c88"/>
        <path id="Path_548" data-name="Path 548" d="M155.241,116.241a.038.038,0,0,0,.038-.038.037.037,0,0,0-.075,0,.038.038,0,0,0,.037.038" transform="translate(-140.452 -105.126)" fill="#899c88"/>
        <path id="Path_549" data-name="Path 549" d="M185.264,298.777a.256.256,0,0,0,.037-.112c0-.05,0-.05-.037,0a.252.252,0,0,0-.037.112c0,.05,0,.05.037,0" transform="translate(-167.621 -270.243)" fill="#899c88"/>
        <path id="Path_550" data-name="Path 550" d="M213.6,89.824c-.022,0-.032-.025-.02-.056.032-.083-.043-.069-.088.017s-.145.066-.2-.025c-.039-.065-.176-.063-.176,0,0,.029-.058.061-.14.075-.187.032-.289.165-.233.309.028.073.05.09.079.061a.092.092,0,0,1,.088-.022.417.417,0,0,0,.193-.045,1.149,1.149,0,0,1,.294-.081.479.479,0,0,0,.2-.056c.059-.049.063-.18.006-.18" transform="translate(-192.506 -81.185)" fill="#899c88"/>
        <path id="Path_551" data-name="Path 551" d="M237.019,73.271a.08.08,0,0,1-.078-.015c-.069-.051-.216-.049-.236,0a.393.393,0,0,0,.042.189c.059.142.062.143.216.119a.343.343,0,0,0,.182-.068c.033-.052-.081-.257-.126-.229" transform="translate(-214.204 -66.26)" fill="#899c88"/>
        <path id="Path_552" data-name="Path 552" d="M213.453,89.345c0-.02-.007-.037-.017-.037s-.027.017-.039.037-.005.038.016.038a.039.039,0,0,0,.04-.038" transform="translate(-193.108 -80.819)" fill="#899c88"/>
        <path id="Path_553" data-name="Path 553" d="M209.281,82.81a1.147,1.147,0,0,0-.574.09c-.031.024-.054.035-.054.022s-.054.01-.117.049a.275.275,0,0,1-.17.051.133.133,0,0,0-.112.031.221.221,0,0,1-.148.04c-.105-.015-.328.1-.3.144.012.021,0,.037-.017.037-.057,0-.049.048.023.138s.115.077.369-.024c.042-.016.2-.067.357-.113s.307-.093.338-.1a.728.728,0,0,1,.122-.029.3.3,0,0,0,.075-.015c.006,0,.1-.016.215-.027.221-.02.263-.052.264-.2,0-.093,0-.1-.273-.087" transform="translate(-188.007 -74.937)" fill="#899c88"/>
        <path id="Path_554" data-name="Path 554" d="M180.716,14.973a1.359,1.359,0,0,0,.235-.054,1.053,1.053,0,0,1,.169-.045.584.584,0,0,0,.158-.056.368.368,0,0,1,.15-.045.321.321,0,0,0,.148-.055c.044-.031.088-.046.1-.036a.33.33,0,0,0,.165-.036c.173-.065.678-.219.782-.237a.249.249,0,0,0,.111-.05.187.187,0,0,1,.114-.037.508.508,0,0,0,.186-.058c.06-.031.117-.048.128-.038s.043,0,.072-.024a.3.3,0,0,1,.182-.037c.08,0,.128-.008.128-.036s.01-.034.022-.022.064.007.113-.011c.07-.027.09-.022.09.018a.132.132,0,0,1-.066.093c-.057.033-.059.044-.01.077a.418.418,0,0,0,.38-.078c.054-.038.1-.062.112-.055.029.028.315-.189.326-.248.018-.093-.1-.194-.165-.14-.029.023-.052.032-.052.017s-.029,0-.066.04c-.059.059-.066.059-.077,0s-.026-.053-.142.012c-.143.081-.241.094-.241.035s-.213.059-.238.121c-.015.037-.028.034-.059-.009s-.04-.038-.04-.015-.054.037-.117.033a.793.793,0,0,0-.318.1c-.131.066-.205.087-.216.06s-.028-.031-.062,0a.1.1,0,0,1-.1.024c-.028-.011-.051,0-.051.028s-.011.037-.024.023-.075.012-.137.058a.377.377,0,0,1-.244.072.281.281,0,0,0-.2.055c-.049.044-.071.049-.071.016s-.015-.037-.047-.011a.341.341,0,0,1-.16.042.516.516,0,0,0-.329.09.672.672,0,0,1-.2.082.408.408,0,0,0-.173.082.443.443,0,0,1-.209.079c-.16.016-.171.023-.186.121-.01.063.008.07.128.053" transform="translate(-163.421 -12.44)" fill="#899c88"/>
        <path id="Path_555" data-name="Path 555" d="M399.589,409.006c-.144.131-.145.133-.03.075a.476.476,0,0,0,.144-.1.043.043,0,0,1,.059-.016c.02.011.034-.005.034-.038,0-.087-.04-.072-.206.078" transform="translate(-361.507 -370.012)" fill="#899c88"/>
        <path id="Path_556" data-name="Path 556" d="M159.807,113.939l.132-.049-.17.01c-.207.013-.2.011-.169.056s.04.044.207-.017" transform="translate(-144.417 -103.065)" fill="#899c88"/>
        <path id="Path_557" data-name="Path 557" d="M14.321,272.4c0-.007-.026-.025-.056-.035s-.056-.006-.056.015.025.035.056.035.056-.006.056-.015" transform="translate(-12.858 -246.47)" fill="#899c88"/>
        <path id="Path_558" data-name="Path 558" d="M138.881,489.331a.408.408,0,0,1,.194-.076.959.959,0,0,0,.215-.059,2.116,2.116,0,0,1,.261-.1c.162-.05.2-.076.2-.148s-.024-.09-.122-.105a.232.232,0,0,0-.181.033.344.344,0,0,1-.188.054c-.272,0-.634.148-.634.254a.31.31,0,0,0,.076.113c.089.1.123.1.182.031" transform="translate(-125.447 -442.379)" fill="#899c88"/>
        <path id="Path_559" data-name="Path 559" d="M72.54,452.514c.127.034.168.023.331-.087a.814.814,0,0,1,.207-.113c.021,0,.029-.025.017-.056s.02-.074.11-.11a.322.322,0,0,0,.152-.111.152.152,0,0,1,.09-.078.111.111,0,0,0,.063-.183c-.062-.082-.344-.016-.469.109a.323.323,0,0,1-.138.093.658.658,0,0,0-.2.112.766.766,0,0,1-.188.113c-.04,0-.08.182-.054.249a.126.126,0,0,0,.081.064" transform="translate(-65.565 -408.801)" fill="#899c88"/>
        <path id="Path_560" data-name="Path 560" d="M31.807,390.509c0,.051.028.07.109.07.062,0,.107-.021.106-.048a.229.229,0,0,1,.132-.243c.067-.045.181-.134.253-.2a.474.474,0,0,1,.2-.114c.067,0,.129-.094.125-.187,0-.065-.218-.067-.238,0a.045.045,0,0,1-.06.019,1.216,1.216,0,0,0-.6.332c-.088.116-.106.219-.048.276a.17.17,0,0,1,.026.1" transform="translate(-28.73 -352.696)" fill="#899c88"/>
        <path id="Path_561" data-name="Path 561" d="M29.252,256.763a.038.038,0,0,0-.038.038.037.037,0,0,0,.038.037.036.036,0,0,0,.037-.037.037.037,0,0,0-.037-.038" transform="translate(-26.437 -232.358)" fill="#899c88"/>
        <path id="Path_562" data-name="Path 562" d="M163.744,112.659c0-.031-.006-.056-.015-.056s-.025.026-.037.056-.005.056.016.056.035-.025.035-.056" transform="translate(-148.129 -101.9)" fill="#899c88"/>
        <path id="Path_563" data-name="Path 563" d="M18.167,258.346a.541.541,0,0,0-.34.191,4.685,4.685,0,0,1-.7.71c-.018,0-.033.026-.033.056a.054.054,0,0,1-.046.058c-.033,0-.031.011.007.034s.046.044,0,.093h0c-.027.033-.037.06-.022.06a1.208,1.208,0,0,0,.319-.339.04.04,0,0,1,.043-.037,2.913,2.913,0,0,0,.559-.585c0-.022.059-.067.131-.1.134-.063.176-.138.077-.138" transform="translate(-15.408 -233.791)" fill="#899c88"/>
        <path id="Path_564" data-name="Path 564" d="M202.22,499.516c.039-.01.068,0,.068.028s.026.035.06.023a.407.407,0,0,1,.13-.023c.04,0,.072-.025.072-.054s.051-.064.113-.077.112-.039.112-.056.073-.067.163-.11a1.243,1.243,0,0,0,.236-.144,1.578,1.578,0,0,1,.345-.22.565.565,0,0,0,.18-.142c.03-.044.067-.078.083-.075a.621.621,0,0,0,.287-.145.246.246,0,0,1,.117-.066c.056,0,.242-.144.242-.187s-.231-.02-.33.033a.427.427,0,0,1-.172.042.157.157,0,0,0-.116.037.458.458,0,0,1-.178.078.925.925,0,0,0-.29.152.461.461,0,0,1-.218.109.6.6,0,0,0-.241.112.586.586,0,0,1-.227.112.287.287,0,0,0-.154.078.466.466,0,0,1-.187.1.348.348,0,0,0-.175.11.162.162,0,0,0-.031.2c.029.077.06.1.11.089" transform="translate(-182.881 -450.889)" fill="#899c88"/>
        <path id="Path_565" data-name="Path 565" d="M14.684,307c-.055.018-.081.121-.052.2.039.1.1.054.1-.081,0-.091-.016-.13-.048-.119" transform="translate(-13.23 -277.822)" fill="#899c88"/>
        <path id="Path_566" data-name="Path 566" d="M15.962,269.561a.042.042,0,0,0-.013.058.042.042,0,1,0,.071-.044.042.042,0,0,0-.058-.014" transform="translate(-14.427 -243.934)" fill="#899c88"/>
        <path id="Path_567" data-name="Path 567" d="M15.965,304.154c-.009,0-.027.017-.039.038s-.005.038.017.038a.039.039,0,0,0,.039-.038c0-.021-.007-.038-.017-.038" transform="translate(-14.407 -275.245)" fill="#899c88"/>
        <path id="Path_568" data-name="Path 568" d="M336.574,465.425a.073.073,0,0,0,.09,0c.05-.051,0-.088-.079-.059-.056.022-.059.031-.011.06" transform="translate(-304.552 -421.123)" fill="#899c88"/>
        <path id="Path_569" data-name="Path 569" d="M202.9,501.514c0-.013.055-.026.122-.028.171,0,.248-.022.294-.069.029-.029.018-.049-.043-.067s-.094-.01-.111.018-.038.043-.052.041a.324.324,0,0,0-.3.109c-.119.107-.12.11-.02.065.056-.025.1-.056.1-.07" transform="translate(-183.452 -453.69)" fill="#899c88"/>
        <path id="Path_570" data-name="Path 570" d="M156.847,115.8c.071.045.076.045.076,0,0-.021-.029-.038-.066-.038-.056,0-.057.006-.01.038" transform="translate(-141.908 -104.763)" fill="#899c88"/>
      </g>
    </g>
  </g>
</svg>
