<svg xmlns="http://www.w3.org/2000/svg" xmlns:xlink="http://www.w3.org/1999/xlink" width="134" height="134" viewBox="0 0 134 134">
  <defs>
    <clipPath id="clip-path">
      <rect id="Rectangle_441" data-name="Rectangle 441" width="30.692" height="93.046" fill="#899c88"/>
    </clipPath>
  </defs>
  <g id="round-box-c" transform="translate(-633 -2452.667)">
    <g id="Group_59" data-name="Group 59" transform="translate(533 1662.667)">
      <circle id="Ellipse_2" data-name="Ellipse 2" cx="67" cy="67" r="67" transform="translate(100 790)" fill="#fff"/>
      <g id="Ellipse_1" data-name="Ellipse 1" transform="translate(110 800)" fill="none" stroke="#899c88" stroke-linecap="round" stroke-width="1" stroke-dasharray="6">
        <circle cx="57" cy="57" r="57" stroke="none"/>
        <circle cx="57" cy="57" r="56.5" fill="none"/>
      </g>
    </g>
    <g id="Group_63" data-name="Group 63" transform="matrix(0.966, 0.259, -0.259, 0.966, 692.731, 2470.757)">
      <g id="Group_62" data-name="Group 62" clip-path="url(#clip-path)">
        <path id="Path_286" data-name="Path 286" d="M19.008,0a.782.782,0,0,0-.493.364c-.337.481-.34,2.611-.01,5.528.286,2.532.294,2.743.114,2.743-.488,0-1.895-3.948-1.9-5.32,0-.97-.281-1.5-.8-1.5-.59,0-.575.42.119,3.159A18.2,18.2,0,0,0,18.182,10c.766,1.33.9,1.792.514,1.792a13,13,0,0,1-2.255-3.284,17.44,17.44,0,0,1-1.476-3.933c.031-.226-.093-.407-.389-.551-.517-.25-.977-.127-.977.265a51.385,51.385,0,0,0,3.408,7,21.537,21.537,0,0,1,1.205,2.12c.221.48.471.873.556.873s.151.15.151.333-.042.332-.094.332a22.18,22.18,0,0,1-2.987-3.242,20.407,20.407,0,0,1-2.66-4.453c-.149-.7-.369-.951-.826-.951-.565,0-.857.432-.541.795.138.158.677,1.034,1.2,1.948s1.275,2.111,1.668,2.66a45.216,45.216,0,0,0,3.933,4.541c.347.246.423,1.029.1,1.029-.374,0-.993-.5-2.837-2.307a16.867,16.867,0,0,1-3.527-4.255c-.186-.444-.346-.587-.655-.587a.858.858,0,0,0-.753.738c0,.05,1.039,1.272,2.307,2.717,3.009,3.433,4.27,4.492,5.242,4.686l.442.125-.01,1.263c-.588-.407-2.571-1.614-2.925-1.876a4.143,4.143,0,0,0-.785-.5,16.944,16.944,0,0,1-3.445-2.92c-.478-.7-1.048-.953-1.377-.624-.417.417.442,1.423,2.712,3.169,1.052.809,2.286,1.719,2.743,2.026s2.541,1.559,2.738,1.735a1.023,1.023,0,0,0,.333.192c-.045,2.163-.287,2.459-1.05,1.7a36.649,36.649,0,0,0-3.46-2.894c-1.805-1.272-2.957-2.56-3.216-3.59a.633.633,0,0,0-.972-.426c-.417.233-.348.445.634,1.912a7.917,7.917,0,0,0,2.353,2.411c.8.579,2.1,1.633,2.9,2.343a12,12,0,0,0,2.052,1.538c.52.217.592.324.592.821a1.017,1.017,0,0,1-.176.681,6.8,6.8,0,0,1-1.917-.946,21.449,21.449,0,0,1-5.009-4.51c-.469-.574-.837-.579-.977-.021-.1.383.1.637,1.7,2.25A26.332,26.332,0,0,0,18.359,26.6a.651.651,0,0,1,.421.447,2.28,2.28,0,0,1-.182,1.263c-.174.177-1.985-.593-3.159-1.34a40.585,40.585,0,0,1-4.572-3.647c-.633-.652-1.3-.717-1.387-.135-.034.238.205.527.826,1,.48.364,1.571,1.238,2.421,1.943a21.789,21.789,0,0,0,2.665,1.9,13.4,13.4,0,0,1,1.387.847A2.832,2.832,0,0,0,17.9,29.2l.852.1v.9c0,1.145-.282,1.292-1.127.577a22.829,22.829,0,0,0-2.364-1.527c-3.075-1.777-4.427-2.859-4.749-3.793-.174-.506-.286-.608-.681-.608-.557,0-.708.482-.359,1.143a18.211,18.211,0,0,0,3.751,2.956c2.634,1.659,3.417,2.225,4.011,2.9a2.365,2.365,0,0,0,.909.733.451.451,0,0,1,.353.156c.142.23-.091,1.507-.275,1.507-.615,0-6.421-4.463-8.188-6.3-.763-.791-1.424-.927-1.424-.291a2.165,2.165,0,0,0,1.2,1.538,22.47,22.47,0,0,1,2.166,1.616c2.4,1.956,3.891,3.106,5.118,3.933s1.317.923,1.205,1.351-.411.391-.888-.119a4.36,4.36,0,0,0-1-.738A65.991,65.991,0,0,1,10.629,31.3c-.88-.691-1.279-1.131-1.413-1.548-.159-.494-.263-.582-.686-.582-.389,0-.509.084-.551.374a1.126,1.126,0,0,0,.171.691,51.294,51.294,0,0,0,7.03,5.341c.732.486,1.544,1.059,1.8,1.273s.675.533.811.644c.328.268.254.479.192,1.548-.07,1.22-.307,1.276-1.346.478-.386-.3-1.022-.769-1.413-1.05A40.5,40.5,0,0,1,9.885,33.9c-1.18-1.244-1.922-1.66-1.922-1.076,0,.281.429.842,1.216,1.616a70.851,70.851,0,0,0,5.9,5.04c2.149,1.618,2.438,1.9,2.484,2.364a1.827,1.827,0,0,1-.13.873l-.187.343-.53-.364c-.293-.2-1.171-.9-1.948-1.559s-2.229-1.779-3.232-2.5c-2.227-1.6-4.208-3.654-4.208-4.136,0-.291-.1-.359-.5-.359-.592,0-.791.357-.5.883a36.989,36.989,0,0,0,5.227,4.661,52.991,52.991,0,0,1,4.822,4.13c.5.472.722.817.722,1.122,0,.838-.494.594-4.931-2.416A35.421,35.421,0,0,1,6.6,37.893c-.724-.859-1.223-1.141-1.512-.852s.352,1.1,1.876,2.38c.772.649,1.664,1.412,1.985,1.7,1.654,1.481,7.111,5.258,7.6,5.258.4,0,.416.023.307.873-.035.273-.089.6-.14.893-.722-.41-1.846-.894-2.707-1.356-3.242-1.739-8.036-5.241-8.3-6.063-.153-.48-1.032-.911-1.341-.655a.644.644,0,0,0-.239.374c0,.644,6.022,5.177,9.461,7.123a16.123,16.123,0,0,1,2.717,1.47,1.4,1.4,0,0,1,.171.218c-.04.176-.088.37-.114.488-.127.564-.626.607-1.346.114a8.6,8.6,0,0,0-.831-.5c-.546-.269-1.73-.995-3.741-2.291a31.034,31.034,0,0,1-5.274-3.985c-.736-.791-.917-.908-1.164-.753-.606.382-.4.687,1.486,2.172a77.273,77.273,0,0,0,10.074,6.557c.362.137.39.22.286.774-.148.787-.233.924-.473.738a3.622,3.622,0,0,0-.774-.348,18.059,18.059,0,0,1-2.162-1.133c-4.98-2.951-7.162-4.529-7.933-5.751-.425-.673-.766-.735-.852-.156-.094.639,1.592,2.208,4.551,4.234,1.539,1.054,3.637,2.377,4.744,2.993.419.233.92.521,1.117.644.694.423,1.319.474,1.351.769-.045.709-.215,1.205-.431,1.205a19.9,19.9,0,0,1-4.629-2.816c-.664-.5-1.24-.9-2.837-1.959A12.208,12.208,0,0,1,6.072,49.1c-.652-.634-1.167-.685-1.247-.13-.047.326.644.9,3.122,2.572.32.216.919.668,1.33,1.008a49.253,49.253,0,0,0,5,3.315c.61.311.67.4.572.795a1.654,1.654,0,0,1-.255.592,5.166,5.166,0,0,1-1.86-.816,38.889,38.889,0,0,1-8.022-5.72C4.026,50,3.63,49.879,3.3,50.274c-.16.193-.028.36.691.909.486.371,1.477,1.167,2.208,1.766,1.929,1.581,7.155,5.042,7.648,5.066a1.034,1.034,0,0,1,.395.151c.3.192.085.849-.281.847a33.923,33.923,0,0,1-5.045-2.9A48,48,0,0,1,3.49,51.952c-1.148-1.069-1.232-1.118-1.5-.847s-.234.329.483.982A67.678,67.678,0,0,0,12.52,59.345c1.3.7,1.413.8,1.413,1.257,0,.581-.171.9-.478.9a7.322,7.322,0,0,1-1.6-.769c-.729-.423-1.528-.874-1.772-1-.4-.21-2.14-1.359-4.328-2.858a8.921,8.921,0,0,1-1.439-1.3c-.558-.653-.715-.748-1.086-.655-.264.066-.431.22-.426.395.008.284,2.3,2.054,5.279,4.079.8.541,1.788,1.234,2.2,1.538a6.939,6.939,0,0,0,2.909,1.237c.315,0,.407.087.405.374,0,.613-.192,1.122-.411,1.122a24.8,24.8,0,0,1-2.6-1.205,36.568,36.568,0,0,1-6.245-3.891C2.519,56.876,1.8,56.453,1.8,57.075c0,.788,5.294,4.558,9.321,6.64,2.033,1.051,2.069,1.084,2.12,1.678.042.5,0,.6-.25.592-.468-.017-1.631-.663-4.509-2.5-.519-.332-1.617-1.015-2.442-1.522a30.892,30.892,0,0,1-2.556-1.766,6.959,6.959,0,0,0-1.205-.847c-.865,0,2.024,2.527,4.842,4.234.595.36,1.905,1.2,2.91,1.87a14.162,14.162,0,0,0,2.452,1.387c.445.12.624.263.624.488a.542.542,0,0,1-.161.416,10.42,10.42,0,0,1-3.5-1.512c-.5-.33-1.147-.723-1.434-.873A72.286,72.286,0,0,1,.97,60.478c-.353-.367-.722-.617-.821-.556-.436.269.029.8,2.063,2.353,3.623,2.768,9.5,6.38,10.38,6.38.279,0,.369.314.187.655-.166.309-.215.313-.868.083-.381-.134-1.336-.553-2.12-.93s-2.24-1.044-3.237-1.486a23.783,23.783,0,0,1-4.535-2.525c-.412-.365-.863-.243-.54.145.518.624,3.424,2.37,6.484,3.892,2.822,1.4,3.5,1.679,4.016,1.631l.623-.057v.785a1.6,1.6,0,0,1-.161.883,4.983,4.983,0,0,1-1.538-.343c-.756-.244-2.05-.662-2.873-.93a19.081,19.081,0,0,1-4.936-2.369c-.762-.583-1.3-.761-1.3-.431a12.9,12.9,0,0,0,3.33,2.369c3.155,1.443,6.328,2.528,6.941,2.374.374-.094.386-.068.338.779l-.052.878-.613.052a11.07,11.07,0,0,1-4.416-1.371A45.486,45.486,0,0,1,1.6,69.076a1.811,1.811,0,0,0-.722-.421c-.508,0-.383.352.307.868.4.3,1.352,1.031,2.115,1.621,2.786,2.152,6.351,3.868,8.022,3.865.893,0,.961.029.914.359-.036.256-.173.362-.488.374a2.733,2.733,0,0,0-.7.114c-.593.228-3.34-1.085-7.424-3.548a8.844,8.844,0,0,0-1.206-.655c-.294-.008-.224.5.5,1.029C6.5,75.3,9.9,76.907,11.288,77.093c.642.086.756.245.551.779-.129.337-.894.342-2.073.011a19.194,19.194,0,0,1-3.346-1.1c-.726-.364-1.133-.4-1.133-.088,0,.429,4.178,2.2,5.736,2.426.466.069.68.188.722.405.109.568-.2.607-1.974.249-2.226-.449-2.988-.508-2.988-.229,0,.117.206.26.457.317a19.574,19.574,0,0,1,3.9,1.294c.376.289.343.3-1.455.3a19.878,19.878,0,0,1-2.8-.177c-.9-.167-1.6-.106-1.377.119a3.624,3.624,0,0,0,1.226.452c1.013.206,2.452.317,3.46.447a5.165,5.165,0,0,1,1.5.338,19.761,19.761,0,0,1,.275,3.445,33.859,33.859,0,0,0,.3,4.011,2,2,0,0,1,.01,1.237c-.16.46-.128.546.39,1.034a2.156,2.156,0,0,0,2.421.494c.6-.31.613-.455.354-3.782-.088-1.125-.2-2.945-.244-4.042s-.127-2.231-.187-2.52c-.126-.611.083-.773,1.21-.945a6.818,6.818,0,0,0,3.429-1.839c1.025-.963,1.15-1.429.374-1.429-.272,0-.706.3-1.293.883a4.042,4.042,0,0,1-2.878,1.47c-.656.045-.837,0-.878-.208-.037-.191.223-.364.935-.624a7.584,7.584,0,0,0,3.045-2.39c.351-.494.35-.51.047-.732-.283-.207-.411-.129-1.4.847-1.1,1.093-2.245,1.746-2.535,1.455a1.413,1.413,0,0,1-.1-.8l.052-.649.92-.1a4.719,4.719,0,0,0,1.3-.3c.462-.247.415-.785-.062-.712-1.429.22-1.846.222-2.026.005-.285-.344,0-.657.727-.805l1.517-.312c.964-.2,1.533-.445,1.533-.675,0-.316-.708-.353-1.8-.088a6.2,6.2,0,0,1-1.538.218c-.366-.052-.405-.135-.405-.888v-.831l1.829-.1a10.86,10.86,0,0,0,3.076-.525,16.669,16.669,0,0,1,1.865-.53c.778-.133.913-.34.426-.66-.349-.228-.514-.209-1.927.234a9.9,9.9,0,0,1-4.271.592c-.712-.107-.759-.148-.712-.561.05-.435.081-.449,1.46-.551a15.845,15.845,0,0,0,2.208-.306,6.227,6.227,0,0,1,1.746-.13,4.23,4.23,0,0,0,1.325-.057c.418-.156.507-.725.135-.868A23.788,23.788,0,0,0,18,70a8.321,8.321,0,0,1-1.662.125c-.595-.049-.656-.1-.7-.566a.887.887,0,0,1,.187-.712A16.447,16.447,0,0,1,20,68.219a15.057,15.057,0,0,0,2.328-.426c.64-.18,1.42-.391,1.73-.468.805-.2,1.052-.622.587-1.008-.217-.18-.325-.176-.623.01a11.957,11.957,0,0,1-4.1,1.013c-.96.1-2.195.242-2.743.317-1.236.168-1.5-.009-1.289-.847l.146-.561,1.985-.1a29.226,29.226,0,0,0,4.4-.624c1.139-.247,2.308-.451,2.826-.5a4.919,4.919,0,0,0,1.07-.119c.378-.145.321-.648-.1-.93a2.565,2.565,0,0,0-1.164.083c-1.09.2-2.116.511-2.92.691-2.695.6-4.582.748-5.429.426-.711-.271-.482-.871.405-1.06.228-.048,1.271-.134,2.322-.187s2.6-.212,3.429-.353,1.7-.21,2.442-.343c.783-.142,1.618-.387,1.049-.81-.2-.144-.472-.187-1.231-.094-.506.062-1.225.187-2.281.379a26.012,26.012,0,0,1-4.068.358c-1.967.024-2.248-.007-2.3-.249-.146-.729,1.716-1.546,3.414-1.5a22.912,22.912,0,0,0,3.865-.551c1.553-.318,3.048-.577,3.32-.577.553,0,1.007-.567.7-.873-.152-.152-1.861.135-5.351.9-.411.09-1.609.231-2.66.312s-2.155.195-2.452.255c-.518.1-.54.084-.54-.416,0-.456.129-.6,1.018-1.174A5.9,5.9,0,0,1,19.4,58.42c2.09-.355,7.931-2.091,8.308-2.468a.427.427,0,0,0-.307-.759,2.409,2.409,0,0,0-.868.265,33.538,33.538,0,0,1-6.624,1.974c-.769.137-1.59.3-1.818.364-.379.1-.393.087-.177-.177a2.481,2.481,0,0,1,1.507-.764,10.1,10.1,0,0,0,1.964-.738,14.444,14.444,0,0,1,2.27-.857,19.675,19.675,0,0,0,2.993-1.309c2.038-1.039,2.333-1.241,2.333-1.6,0-.639-.759-.643-1.533-.005a2.6,2.6,0,0,1-.8.509,6.684,6.684,0,0,0-1.252.649,9.661,9.661,0,0,1-2.151.92,14.8,14.8,0,0,0-2.156.774,7.794,7.794,0,0,1-1.829.6,3.448,3.448,0,0,0-1.117.322c-.644.4-.883.3-.883-.395,0-.653.374-1.369.717-1.372a49.243,49.243,0,0,0,7.263-3.18A7.906,7.906,0,0,1,27.95,50a2.937,2.937,0,0,0,.9-.192c.207-.207-.279-.935-.624-.935a12.547,12.547,0,0,0-3.387,1.559,15.349,15.349,0,0,1-3.59,1.777c-.686.249-1.678.623-2.208.831-1.182.463-1.4.335-1.18-.681.147-.676.169-.7,1.31-1.065a24.164,24.164,0,0,0,2.836-1.226,25.557,25.557,0,0,1,2.956-1.273,18.393,18.393,0,0,0,2.094-.826,9.226,9.226,0,0,1,1.574-.6c.751-.189.871-.352.665-.888-.178-.463-1.007-.287-2.6.545a21.119,21.119,0,0,1-2.458,1.1,30.549,30.549,0,0,0-2.9,1.294c-2.136,1.066-3.037,1.28-2.951.7a3.914,3.914,0,0,1,.109-.52,43.982,43.982,0,0,1,6.037-2.977,6.79,6.79,0,0,0,2.447-1.33A20.252,20.252,0,0,1,30.246,43.4c.807-.4.431-1.283-.437-1.023a23.758,23.758,0,0,0-3.528,2.291,16.41,16.41,0,0,1-2.743,1.45c-1.121.484-2.6,1.146-3.289,1.47a3.393,3.393,0,0,1-1.382.457,1.2,1.2,0,0,1,.042-.774c.208-.747.419-.89,3.5-2.411,3.443-1.7,7.664-4.324,7.887-4.9a.58.58,0,0,0-.5-.727,4.654,4.654,0,0,0-1.184.795,30.512,30.512,0,0,1-6.344,3.892,23.6,23.6,0,0,1-2.806,1.3c-.209,0-.239-.142-.151-.784.131-.959.273-1.091,1.434-1.361a17.839,17.839,0,0,0,5.58-2.993,23.1,23.1,0,0,1,2.9-1.865c1.127-.536,1.358-.737,1.288-1.122-.081-.454-.735-.524-1.273-.135-3.622,2.617-5.535,3.951-6.084,4.24a9.386,9.386,0,0,1-2.909,1.07c-.561.042-.584.02-.634-.582-.044-.536.012-.644.369-.779a40.224,40.224,0,0,0,7.165-5.092,4.789,4.789,0,0,1,1.039-.8c.65-.334.757-1.009.187-1.19-.288-.091-.566.107-1.476,1.044a19.423,19.423,0,0,1-2.26,1.959c-4.055,2.856-4.6,3.171-4.863,2.852-.126-.152-.1-.333.109-.644A25.34,25.34,0,0,1,23.757,35.8a7.091,7.091,0,0,0,.9-.665,14.323,14.323,0,0,1,1.413-.966c2.294-1.445,2.684-1.767,2.629-2.151-.081-.562-.589-.519-1.283.109-.351.317-1.715,1.305-3.029,2.192s-2.708,1.847-3.1,2.13c-.9.654-1.069.5-1-.9l.047-1.065.925-.5a52.6,52.6,0,0,0,5.611-3.865c.633-.537.868-.843.831-1.1-.093-.649-.6-.5-1.548.442-1.238,1.238-4.921,3.772-5.481,3.772-.243,0-.437-.581-.307-.92a.7.7,0,0,1,.405-.333,10.264,10.264,0,0,0,1.621-1.21c.714-.61,1.886-1.6,2.6-2.193s1.645-1.385,2.063-1.761a8.121,8.121,0,0,1,1.133-.878.68.68,0,0,0,.374-.587c0-.718-.932-.753-1.309-.047C26.9,25.977,20.929,31,20.733,30.8a1.593,1.593,0,0,1-.228-.546c-.133-.539.312-1.137,1.824-2.447.64-.555,1.912-1.732,2.827-2.619a18.428,18.428,0,0,1,2.12-1.85c.251-.131.457-.308.457-.39a1.479,1.479,0,0,1,.1-.4c.058-.153-.043-.32-.26-.437-.32-.171-.462-.083-1.387.888-1.6,1.677-4.957,4.593-5.294,4.593-.223,0-.3-.122-.3-.457.018-.863.406-1.5,1.455-2.39.577-.49,1.675-1.417,2.437-2.058,3.86-3.246,3.886-3.271,3.543-3.7s-.827-.178-2,1a36.937,36.937,0,0,1-5.092,4.349c-.195.014-.28-.152-.317-.587-.044-.532.035-.672.665-1.216A8.519,8.519,0,0,1,22.6,21.6a12.273,12.273,0,0,0,2-1.787,21,21,0,0,1,2.265-2.1,3.451,3.451,0,0,0,.873-.764,1.374,1.374,0,0,0-.6-.665c-.277,0-.9.545-2.655,2.307-1.888,1.9-3.442,3.108-3.746,2.92s-.147-1.029.229-1.283c.206-.139,1.23-1.085,2.276-2.1a23.087,23.087,0,0,1,2.026-1.844,6.225,6.225,0,0,0,.956-1.122c.46-.617,1-1.326,1.195-1.58.294-.38.318-.508.145-.717-.389-.469-.873-.2-1.387.758a17.18,17.18,0,0,1-2.8,3.159,22.5,22.5,0,0,1-2.5,2.244c-.106,0-.217-.188-.244-.421a8.748,8.748,0,0,1,1.85-3.164c.2-.242.733-.977,1.19-1.637s1.131-1.564,1.5-2.006C26.684,9.955,26.9,9.639,26.9,9.25c0-.405-.386-.7-.681-.52a6.814,6.814,0,0,0-.753,1.039c-.331.517-1.243,1.8-2.026,2.852s-1.683,2.277-2.005,2.712c-.643.868-.9.923-.987.213a1.171,1.171,0,0,1,.436-.982,16.557,16.557,0,0,0,1.05-1.289c.309-.421.935-1.218,1.392-1.772a33.794,33.794,0,0,0,2.748-4.167c.138-.244.568-.866.956-1.377.752-.992.869-1.427.431-1.6-.4-.154-.752.135-1.309,1.076a40.135,40.135,0,0,1-4.037,5.938,7.8,7.8,0,0,1-1.673,1.74.291.291,0,0,1,.125-.317A27.83,27.83,0,0,0,23,7.473a22.68,22.68,0,0,1,1.912-4.245c.382-.346.428-1.163.073-1.3-.613-.235-.673-.126-2.582,4.66-1.457,3.652-2.119,4.671-2.38,3.673-.07-.267.035-.494.379-.831.5-.488.718-1.32,1.018-3.871.075-.64.253-1.875.395-2.743.324-1.992.324-2.1-.016-2.229-.526-.2-.947.451-.92,1.434a13.243,13.243,0,0,1-.218,2.208c-.133.732-.3,1.739-.369,2.234-.131.93-.408,1.249-.629.727A30.857,30.857,0,0,1,19.5,3.623a30.011,30.011,0,0,0-.156-3.45A.337.337,0,0,0,19.075,0a.309.309,0,0,0-.067,0ZM15.455,59.678a.091.091,0,0,1,.062.031,28.64,28.64,0,0,1-.582,5.621,29.514,29.514,0,0,0-.458,3.232c-.144,1.46-.319,2.235-.337,3.3-.008.361-.1.783-.135,1.265a102.064,102.064,0,0,0,.047,11.659c.112,1.508.25,3.567.307,4.572a17.094,17.094,0,0,0,.171,1.933c.1.167-.391.522-.571.411a5.3,5.3,0,0,1-.93-2.094c-.151-.91-.207-9.049-.073-10.807.066-.869.237-2.589.379-3.824s.267-2.656.275-3.159a29.128,29.128,0,0,1,.353-3.242c.073-.457.247-1.954.39-3.325.355-3.42.785-5.577,1.1-5.57" transform="translate(0 0)" fill="#899c88"/>
      </g>
    </g>
  </g>
</svg>
