<svg xmlns="http://www.w3.org/2000/svg" width="134" height="134" viewBox="0 0 134 134">
  <g id="round-box" transform="translate(-100 -790)">
    <circle id="Ellipse_2" data-name="Ellipse 2" cx="67" cy="67" r="67" transform="translate(100 790)" fill="#fff"/>
    <g id="Ellipse_1" data-name="Ellipse 1" transform="translate(110 800)" fill="none" stroke="#899c88" stroke-linecap="round" stroke-width="1" stroke-dasharray="6">
      <circle cx="57" cy="57" r="57" stroke="none"/>
      <circle cx="57" cy="57" r="56.5" fill="none"/>
    </g>
    <g id="Group_57" data-name="Group 57" transform="translate(126.201 816.201)">
      <rect id="Rectangle_231" data-name="Rectangle 231" width="0.551" height="2.47" transform="translate(34.23 17.345) rotate(-15.001)" fill="#899c88" stroke="#899c88" stroke-width="0.3"/>
      <rect id="Rectangle_232" data-name="Rectangle 232" width="0.551" height="4.454" transform="matrix(0.966, -0.259, 0.259, 0.966, 33.077, 13.042)" fill="#899c88" stroke="#899c88" stroke-width="0.3"/>
      <rect id="Rectangle_233" data-name="Rectangle 233" width="0.551" height="2.395" transform="translate(31.532 7.278) rotate(-15)" fill="#899c88" stroke="#899c88" stroke-width="0.3"/>
      <rect id="Rectangle_234" data-name="Rectangle 234" width="0.551" height="3.549" transform="matrix(0.966, -0.259, 0.259, 0.966, 29.939, 1.333)" fill="#899c88" stroke="#899c88" stroke-width="0.3"/>
      <rect id="Rectangle_235" data-name="Rectangle 235" width="0.551" height="2.769" transform="matrix(0.906, -0.423, 0.423, 0.906, 30.13, 18.57)" fill="#899c88" stroke="#899c88" stroke-width="0.3"/>
      <rect id="Rectangle_236" data-name="Rectangle 236" width="0.551" height="3.895" transform="translate(27.027 11.919) rotate(-25.014)" fill="#899c88" stroke="#899c88" stroke-width="0.3"/>
      <rect id="Rectangle_237" data-name="Rectangle 237" width="0.551" height="4.323" transform="translate(23.251 3.82) rotate(-24.994)" fill="#899c88" stroke="#899c88" stroke-width="0.3"/>
      <rect id="Rectangle_238" data-name="Rectangle 238" width="0.551" height="3.217" transform="translate(26.173 20.39) rotate(-35.006)" fill="#899c88" stroke="#899c88" stroke-width="0.3"/>
      <rect id="Rectangle_239" data-name="Rectangle 239" width="0.551" height="4.93" transform="translate(19.931 11.476) rotate(-34.998)" fill="#899c88" stroke="#899c88" stroke-width="0.3"/>
      <rect id="Rectangle_240" data-name="Rectangle 240" width="0.551" height="2.491" transform="translate(17.097 7.428) rotate(-34.992)" fill="#899c88" stroke="#899c88" stroke-width="0.3"/>
      <rect id="Rectangle_241" data-name="Rectangle 241" width="0.551" height="4.523" transform="matrix(0.707, -0.707, 0.707, 0.707, 21.93, 22.318)" fill="#899c88" stroke="#899c88" stroke-width="0.3"/>
      <rect id="Rectangle_242" data-name="Rectangle 242" width="0.551" height="4.358" transform="matrix(0.707, -0.707, 0.707, 0.707, 15.576, 15.963)" fill="#899c88" stroke="#899c88" stroke-width="0.3"/>
      <rect id="Rectangle_243" data-name="Rectangle 243" width="0.551" height="5.533" transform="translate(11.664 12.05) rotate(-44.998)" fill="#899c88" stroke="#899c88" stroke-width="0.3"/>
      <rect id="Rectangle_244" data-name="Rectangle 244" width="0.551" height="2.702" transform="translate(7.114 17.547) rotate(-55)" fill="#899c88" stroke="#899c88" stroke-width="0.3"/>
      <rect id="Rectangle_245" data-name="Rectangle 245" width="0.551" height="6.073" transform="translate(11.459 20.589) rotate(-54.998)" fill="#899c88" stroke="#899c88" stroke-width="0.3"/>
      <rect id="Rectangle_246" data-name="Rectangle 246" width="0.551" height="2.353" transform="translate(20.788 27.123) rotate(-54.993)" fill="#899c88" stroke="#899c88" stroke-width="0.3"/>
      <rect id="Rectangle_247" data-name="Rectangle 247" width="0.551" height="1.332" transform="translate(19.641 31.238) rotate(-64.988)" fill="#899c88" stroke="#899c88" stroke-width="0.3"/>
      <rect id="Rectangle_248" data-name="Rectangle 248" width="0.551" height="6.685" transform="matrix(0.423, -0.906, 0.906, 0.423, 11.068, 27.238)" fill="#899c88" stroke="#899c88" stroke-width="0.3"/>
      <rect id="Rectangle_249" data-name="Rectangle 249" width="0.551" height="2.487" transform="translate(3.588 23.75) rotate(-65.002)" fill="#899c88" stroke="#899c88" stroke-width="0.3"/>
      <rect id="Rectangle_250" data-name="Rectangle 250" width="0.551" height="2.47" transform="translate(23.383 23.772) rotate(-44.999)" fill="#899c88" stroke="#899c88" stroke-width="0.3"/>
      <rect id="Rectangle_251" data-name="Rectangle 251" width="0.551" height="4.454" transform="matrix(0.707, -0.707, 0.707, 0.707, 20.233, 20.622)" fill="#899c88" stroke="#899c88" stroke-width="0.3"/>
      <rect id="Rectangle_252" data-name="Rectangle 252" width="0.551" height="2.395" transform="translate(16.014 16.403) rotate(-44.997)" fill="#899c88" stroke="#899c88" stroke-width="0.3"/>
      <rect id="Rectangle_253" data-name="Rectangle 253" width="0.551" height="3.549" transform="translate(11.662 12.051) rotate(-44.999)" fill="#899c88" stroke="#899c88" stroke-width="0.3"/>
      <rect id="Rectangle_254" data-name="Rectangle 254" width="0.551" height="2.769" transform="matrix(0.573, -0.819, 0.819, 0.573, 20.445, 26.882)" fill="#899c88" stroke="#899c88" stroke-width="0.3"/>
      <rect id="Rectangle_255" data-name="Rectangle 255" width="0.551" height="3.895" transform="matrix(0.573, -0.819, 0.819, 0.573, 14.433, 22.674)" fill="#899c88" stroke="#899c88" stroke-width="0.3"/>
      <rect id="Rectangle_256" data-name="Rectangle 256" width="0.551" height="4.323" transform="translate(7.113 17.548) rotate(-54.994)" fill="#899c88" stroke="#899c88" stroke-width="0.3"/>
      <rect id="Rectangle_257" data-name="Rectangle 257" width="0.551" height="3.216" transform="translate(17.928 30.437) rotate(-65.011)" fill="#899c88" stroke="#899c88" stroke-width="0.3"/>
      <rect id="Rectangle_258" data-name="Rectangle 258" width="0.551" height="4.93" transform="translate(8.065 25.839) rotate(-64.999)" fill="#899c88" stroke="#899c88" stroke-width="0.3"/>
      <rect id="Rectangle_259" data-name="Rectangle 259" width="0.551" height="2.492" transform="matrix(0.423, -0.906, 0.906, 0.423, 3.587, 23.75)" fill="#899c88" stroke="#899c88" stroke-width="0.3"/>
      <rect id="Rectangle_260" data-name="Rectangle 260" width="0.551" height="4.523" transform="translate(15.218 34.229) rotate(-74.997)" fill="#899c88" stroke="#899c88" stroke-width="0.3"/>
      <rect id="Rectangle_261" data-name="Rectangle 261" width="0.551" height="4.358" transform="translate(6.538 31.902) rotate(-74.997)" fill="#899c88" stroke="#899c88" stroke-width="0.3"/>
      <rect id="Rectangle_262" data-name="Rectangle 262" width="0.551" height="5.533" transform="translate(1.193 30.47) rotate(-74.997)" fill="#899c88" stroke="#899c88" stroke-width="0.3"/>
      <rect id="Rectangle_263" data-name="Rectangle 263" width="0.551" height="2.702" transform="translate(0.001 37.505) rotate(-84.998)" fill="#899c88" stroke="#899c88" stroke-width="0.3"/>
      <rect id="Rectangle_264" data-name="Rectangle 264" width="0.551" height="6.073" transform="matrix(0.087, -0.996, 0.996, 0.087, 5.286, 37.967)" fill="#899c88" stroke="#899c88" stroke-width="0.3"/>
      <rect id="Rectangle_265" data-name="Rectangle 265" width="0.551" height="2.353" transform="matrix(0.087, -0.996, 0.996, 0.087, 16.631, 38.961)" fill="#899c88" stroke="#899c88" stroke-width="0.3"/>
      <rect id="Rectangle_266" data-name="Rectangle 266" width="1.332" height="0.551" transform="translate(17.648 42.548) rotate(-4.992)" fill="#899c88" stroke="#899c88" stroke-width="0.3"/>
      <rect id="Rectangle_267" data-name="Rectangle 267" width="6.685" height="0.551" transform="translate(8.223 43.371) rotate(-4.992)" fill="#899c88" stroke="#899c88" stroke-width="0.3"/>
      <rect id="Rectangle_268" data-name="Rectangle 268" width="2.487" height="0.551" transform="translate(0.001 44.09) rotate(-4.992)" fill="#899c88" stroke="#899c88" stroke-width="0.3"/>
      <rect id="Rectangle_269" data-name="Rectangle 269" width="0.551" height="2.47" transform="translate(17.203 34.761) rotate(-75)" fill="#899c88" stroke="#899c88" stroke-width="0.3"/>
      <rect id="Rectangle_270" data-name="Rectangle 270" width="0.551" height="4.454" transform="translate(12.901 33.608) rotate(-75)" fill="#899c88" stroke="#899c88" stroke-width="0.3"/>
      <rect id="Rectangle_271" data-name="Rectangle 271" width="0.551" height="2.395" transform="translate(7.137 32.064) rotate(-74.999)" fill="#899c88" stroke="#899c88" stroke-width="0.3"/>
      <rect id="Rectangle_272" data-name="Rectangle 272" width="0.551" height="3.549" transform="matrix(0.259, -0.966, 0.966, 0.259, 1.192, 30.471)" fill="#899c88" stroke="#899c88" stroke-width="0.3"/>
      <rect id="Rectangle_273" data-name="Rectangle 273" width="0.551" height="2.769" transform="translate(16.214 38.924) rotate(-85.01)" fill="#899c88" stroke="#899c88" stroke-width="0.3"/>
      <rect id="Rectangle_274" data-name="Rectangle 274" width="0.551" height="3.895" transform="translate(8.903 38.286) rotate(-85.01)" fill="#899c88" stroke="#899c88" stroke-width="0.3"/>
      <rect id="Rectangle_275" data-name="Rectangle 275" width="0.551" height="4.323" transform="translate(0.001 37.506) rotate(-84.995)" fill="#899c88" stroke="#899c88" stroke-width="0.3"/>
      <rect id="Rectangle_276" data-name="Rectangle 276" width="3.217" height="0.551" transform="translate(15.764 42.711) rotate(-4.992)" fill="#899c88" stroke="#899c88" stroke-width="0.3"/>
      <rect id="Rectangle_277" data-name="Rectangle 277" width="4.929" height="0.551" transform="translate(4.923 43.661) rotate(-4.992)" fill="#899c88" stroke="#899c88" stroke-width="0.3"/>
      <rect id="Rectangle_278" data-name="Rectangle 278" width="2.492" height="0.551" transform="translate(0 44.091) rotate(-4.992)" fill="#899c88" stroke="#899c88" stroke-width="0.3"/>
      <rect id="Rectangle_279" data-name="Rectangle 279" width="4.523" height="0.551" transform="translate(15.218 47.367) rotate(-15.004)" fill="#899c88" stroke="#899c88" stroke-width="0.3"/>
      <rect id="Rectangle_280" data-name="Rectangle 280" width="4.358" height="0.551" transform="matrix(0.966, -0.259, 0.259, 0.966, 6.537, 49.692)" fill="#899c88" stroke="#899c88" stroke-width="0.3"/>
      <rect id="Rectangle_281" data-name="Rectangle 281" width="5.533" height="0.551" transform="translate(1.192 51.124) rotate(-15.004)" fill="#899c88" stroke="#899c88" stroke-width="0.3"/>
      <rect id="Rectangle_282" data-name="Rectangle 282" width="2.702" height="0.551" transform="translate(3.587 57.846) rotate(-25.015)" fill="#899c88" stroke="#899c88" stroke-width="0.3"/>
      <rect id="Rectangle_283" data-name="Rectangle 283" width="6.073" height="0.551" transform="translate(8.395 55.605) rotate(-25.015)" fill="#899c88" stroke="#899c88" stroke-width="0.3"/>
      <rect id="Rectangle_284" data-name="Rectangle 284" width="2.353" height="0.551" transform="translate(18.717 50.792) rotate(-25.015)" fill="#899c88" stroke="#899c88" stroke-width="0.3"/>
      <rect id="Rectangle_285" data-name="Rectangle 285" width="1.332" height="0.551" transform="translate(21.624 53.89) rotate(-34.973)" fill="#899c88" stroke="#899c88" stroke-width="0.3"/>
      <rect id="Rectangle_286" data-name="Rectangle 286" width="6.685" height="0.551" transform="matrix(0.819, -0.573, 0.573, 0.819, 13.874, 59.313)" fill="#899c88" stroke="#899c88" stroke-width="0.3"/>
      <rect id="Rectangle_287" data-name="Rectangle 287" width="2.487" height="0.551" transform="translate(7.113 64.048) rotate(-34.973)" fill="#899c88" stroke="#899c88" stroke-width="0.3"/>
      <rect id="Rectangle_288" data-name="Rectangle 288" width="2.47" height="0.551" transform="matrix(0.966, -0.259, 0.259, 0.966, 17.203, 46.836)" fill="#899c88" stroke="#899c88" stroke-width="0.3"/>
      <rect id="Rectangle_289" data-name="Rectangle 289" width="4.454" height="0.551" transform="translate(12.901 47.989) rotate(-15.004)" fill="#899c88" stroke="#899c88" stroke-width="0.3"/>
      <rect id="Rectangle_290" data-name="Rectangle 290" width="2.395" height="0.551" transform="matrix(0.966, -0.259, 0.259, 0.966, 7.137, 49.533)" fill="#899c88" stroke="#899c88" stroke-width="0.3"/>
      <rect id="Rectangle_291" data-name="Rectangle 291" width="3.55" height="0.551" transform="translate(1.192 51.126) rotate(-15.004)" fill="#899c88" stroke="#899c88" stroke-width="0.3"/>
      <rect id="Rectangle_292" data-name="Rectangle 292" width="2.769" height="0.551" transform="translate(18.337 50.968) rotate(-25.015)" fill="#899c88" stroke="#899c88" stroke-width="0.3"/>
      <rect id="Rectangle_293" data-name="Rectangle 293" width="3.895" height="0.551" transform="translate(11.687 54.071) rotate(-25.015)" fill="#899c88" stroke="#899c88" stroke-width="0.3"/>
      <rect id="Rectangle_294" data-name="Rectangle 294" width="4.323" height="0.551" transform="translate(3.588 57.848) rotate(-25.015)" fill="#899c88" stroke="#899c88" stroke-width="0.3"/>
      <rect id="Rectangle_295" data-name="Rectangle 295" width="3.217" height="0.551" transform="translate(20.074 54.972) rotate(-34.973)" fill="#899c88" stroke="#899c88" stroke-width="0.3"/>
      <rect id="Rectangle_296" data-name="Rectangle 296" width="4.929" height="0.551" transform="translate(11.161 61.214) rotate(-34.973)" fill="#899c88" stroke="#899c88" stroke-width="0.3"/>
      <rect id="Rectangle_297" data-name="Rectangle 297" width="2.491" height="0.551" transform="translate(7.112 64.049) rotate(-34.973)" fill="#899c88" stroke="#899c88" stroke-width="0.3"/>
      <rect id="Rectangle_298" data-name="Rectangle 298" width="4.523" height="0.551" transform="translate(21.93 59.278) rotate(-45)" fill="#899c88" stroke="#899c88" stroke-width="0.3"/>
      <rect id="Rectangle_299" data-name="Rectangle 299" width="4.358" height="0.551" transform="translate(15.575 65.632) rotate(-45)" fill="#899c88" stroke="#899c88" stroke-width="0.3"/>
      <rect id="Rectangle_300" data-name="Rectangle 300" width="5.533" height="0.551" transform="translate(11.662 69.544) rotate(-45)" fill="#899c88" stroke="#899c88" stroke-width="0.3"/>
      <rect id="Rectangle_301" data-name="Rectangle 301" width="2.702" height="0.551" transform="translate(17.097 74.168) rotate(-55.027)" fill="#899c88" stroke="#899c88" stroke-width="0.3"/>
      <rect id="Rectangle_302" data-name="Rectangle 302" width="6.073" height="0.551" transform="matrix(0.573, -0.819, 0.819, 0.573, 20.14, 69.824)" fill="#899c88" stroke="#899c88" stroke-width="0.3"/>
      <rect id="Rectangle_303" data-name="Rectangle 303" width="2.353" height="0.551" transform="translate(26.672 60.495) rotate(-55.027)" fill="#899c88" stroke="#899c88" stroke-width="0.3"/>
      <rect id="Rectangle_304" data-name="Rectangle 304" width="1.332" height="0.551" transform="matrix(0.423, -0.906, 0.906, 0.423, 30.739, 61.723)" fill="#899c88" stroke="#899c88" stroke-width="0.3"/>
      <rect id="Rectangle_305" data-name="Rectangle 305" width="6.685" height="0.551" transform="translate(26.739 70.296) rotate(-64.985)" fill="#899c88" stroke="#899c88" stroke-width="0.3"/>
      <rect id="Rectangle_306" data-name="Rectangle 306" width="2.487" height="0.551" transform="matrix(0.423, -0.906, 0.906, 0.423, 23.251, 77.777)" fill="#899c88" stroke="#899c88" stroke-width="0.3"/>
      <rect id="Rectangle_307" data-name="Rectangle 307" width="2.47" height="0.551" transform="matrix(0.707, -0.707, 0.707, 0.707, 23.383, 57.825)" fill="#899c88" stroke="#899c88" stroke-width="0.3"/>
      <rect id="Rectangle_308" data-name="Rectangle 308" width="4.454" height="0.551" transform="translate(20.233 60.975) rotate(-45)" fill="#899c88" stroke="#899c88" stroke-width="0.3"/>
      <rect id="Rectangle_309" data-name="Rectangle 309" width="2.395" height="0.551" transform="translate(16.014 65.194) rotate(-45)" fill="#899c88" stroke="#899c88" stroke-width="0.3"/>
      <rect id="Rectangle_310" data-name="Rectangle 310" width="3.549" height="0.551" transform="translate(11.662 69.546) rotate(-45)" fill="#899c88" stroke="#899c88" stroke-width="0.3"/>
      <rect id="Rectangle_311" data-name="Rectangle 311" width="2.769" height="0.551" transform="translate(26.432 60.837) rotate(-55.027)" fill="#899c88" stroke="#899c88" stroke-width="0.3"/>
      <rect id="Rectangle_312" data-name="Rectangle 312" width="3.894" height="0.551" transform="translate(22.224 66.849) rotate(-55.027)" fill="#899c88" stroke="#899c88" stroke-width="0.3"/>
      <rect id="Rectangle_313" data-name="Rectangle 313" width="4.323" height="0.551" transform="translate(17.098 74.17) rotate(-55.027)" fill="#899c88" stroke="#899c88" stroke-width="0.3"/>
      <rect id="Rectangle_314" data-name="Rectangle 314" width="3.216" height="0.551" transform="matrix(0.423, -0.906, 0.906, 0.423, 29.938, 63.436)" fill="#899c88" stroke="#899c88" stroke-width="0.3"/>
      <rect id="Rectangle_315" data-name="Rectangle 315" width="4.929" height="0.551" transform="translate(25.34 73.299) rotate(-64.985)" fill="#899c88" stroke="#899c88" stroke-width="0.3"/>
      <rect id="Rectangle_316" data-name="Rectangle 316" width="2.492" height="0.551" transform="matrix(0.423, -0.906, 0.906, 0.423, 23.251, 77.778)" fill="#899c88" stroke="#899c88" stroke-width="0.3"/>
      <rect id="Rectangle_317" data-name="Rectangle 317" width="4.523" height="0.551" transform="translate(33.697 66.237) rotate(-74.996)" fill="#899c88" stroke="#899c88" stroke-width="0.3"/>
      <rect id="Rectangle_318" data-name="Rectangle 318" width="4.358" height="0.551" transform="translate(31.371 74.917) rotate(-74.999)" fill="#899c88" stroke="#899c88" stroke-width="0.3"/>
      <rect id="Rectangle_319" data-name="Rectangle 319" width="5.534" height="0.551" transform="matrix(0.259, -0.966, 0.966, 0.259, 29.938, 80.262)" fill="#899c88" stroke="#899c88" stroke-width="0.3"/>
      <rect id="Rectangle_320" data-name="Rectangle 320" width="2.702" height="0.551" transform="matrix(0.087, -0.996, 0.996, 0.087, 36.956, 81.549)" fill="#899c88" stroke="#899c88" stroke-width="0.3"/>
      <rect id="Rectangle_321" data-name="Rectangle 321" width="6.073" height="0.551" transform="translate(37.419 76.265) rotate(-85.008)" fill="#899c88" stroke="#899c88" stroke-width="0.3"/>
      <rect id="Rectangle_322" data-name="Rectangle 322" width="2.353" height="0.551" transform="translate(38.413 64.919) rotate(-85.009)" fill="#899c88" stroke="#899c88" stroke-width="0.3"/>
      <rect id="Rectangle_323" data-name="Rectangle 323" width="0.551" height="1.333" transform="translate(42.433 62.623) rotate(-4.984)" fill="#899c88" stroke="#899c88" stroke-width="0.3"/>
      <rect id="Rectangle_324" data-name="Rectangle 324" width="0.551" height="6.685" transform="translate(42.791 66.715) rotate(-4.99)" fill="#899c88" stroke="#899c88" stroke-width="0.3"/>
      <rect id="Rectangle_325" data-name="Rectangle 325" width="0.551" height="2.487" transform="translate(43.875 79.119) rotate(-5.005)" fill="#899c88" stroke="#899c88" stroke-width="0.3"/>
      <rect id="Rectangle_326" data-name="Rectangle 326" width="2.47" height="0.551" transform="translate(34.23 64.252) rotate(-74.999)" fill="#899c88" stroke="#899c88" stroke-width="0.3"/>
      <rect id="Rectangle_327" data-name="Rectangle 327" width="4.454" height="0.551" transform="translate(33.077 68.555) rotate(-74.996)" fill="#899c88" stroke="#899c88" stroke-width="0.3"/>
      <rect id="Rectangle_328" data-name="Rectangle 328" width="2.395" height="0.551" transform="translate(31.532 74.319) rotate(-74.996)" fill="#899c88" stroke="#899c88" stroke-width="0.3"/>
      <rect id="Rectangle_329" data-name="Rectangle 329" width="3.549" height="0.551" transform="translate(29.939 80.263) rotate(-74.999)" fill="#899c88" stroke="#899c88" stroke-width="0.3"/>
      <rect id="Rectangle_330" data-name="Rectangle 330" width="2.769" height="0.551" transform="translate(38.376 65.336) rotate(-85.009)" fill="#899c88" stroke="#899c88" stroke-width="0.3"/>
      <rect id="Rectangle_331" data-name="Rectangle 331" width="3.894" height="0.551" transform="translate(37.737 72.647) rotate(-85.009)" fill="#899c88" stroke="#899c88" stroke-width="0.3"/>
      <rect id="Rectangle_332" data-name="Rectangle 332" width="4.323" height="0.551" transform="matrix(0.087, -0.996, 0.996, 0.087, 36.958, 81.549)" fill="#899c88" stroke="#899c88" stroke-width="0.3"/>
      <rect id="Rectangle_333" data-name="Rectangle 333" width="0.551" height="3.217" transform="translate(42.432 62.63) rotate(-5.012)" fill="#899c88" stroke="#899c88" stroke-width="0.3"/>
      <rect id="Rectangle_334" data-name="Rectangle 334" width="0.551" height="4.929" transform="translate(43.232 71.764) rotate(-5.001)" fill="#899c88" stroke="#899c88" stroke-width="0.3"/>
      <rect id="Rectangle_335" data-name="Rectangle 335" width="0.551" height="2.491" transform="translate(43.875 79.116) rotate(-4.984)" fill="#899c88" stroke="#899c88" stroke-width="0.3"/>
      <rect id="Rectangle_336" data-name="Rectangle 336" width="0.551" height="4.523" transform="translate(46.197 62.011) rotate(-14.995)" fill="#899c88" stroke="#899c88" stroke-width="0.3"/>
      <rect id="Rectangle_337" data-name="Rectangle 337" width="0.551" height="4.358" transform="translate(48.565 70.851) rotate(-14.997)" fill="#899c88" stroke="#899c88" stroke-width="0.3"/>
      <rect id="Rectangle_338" data-name="Rectangle 338" width="0.551" height="5.533" transform="matrix(0.966, -0.259, 0.259, 0.966, 49.693, 75.061)" fill="#899c88" stroke="#899c88" stroke-width="0.3"/>
      <rect id="Rectangle_339" data-name="Rectangle 339" width="0.551" height="2.702" transform="translate(56.704 75.561) rotate(-24.995)" fill="#899c88" stroke="#899c88" stroke-width="0.3"/>
      <rect id="Rectangle_340" data-name="Rectangle 340" width="0.551" height="6.073" transform="translate(53.039 67.699) rotate(-24.995)" fill="#899c88" stroke="#899c88" stroke-width="0.3"/>
      <rect id="Rectangle_341" data-name="Rectangle 341" width="0.551" height="2.353" transform="translate(49.799 60.748) rotate(-24.988)" fill="#899c88" stroke="#899c88" stroke-width="0.3"/>
      <rect id="Rectangle_342" data-name="Rectangle 342" width="0.551" height="1.332" transform="matrix(0.819, -0.574, 0.574, 0.819, 53.127, 58.882)" fill="#899c88" stroke="#899c88" stroke-width="0.3"/>
      <rect id="Rectangle_343" data-name="Rectangle 343" width="0.551" height="6.685" transform="translate(55.482 62.247) rotate(-34.99)" fill="#899c88" stroke="#899c88" stroke-width="0.3"/>
      <rect id="Rectangle_344" data-name="Rectangle 344" width="0.551" height="2.487" transform="translate(62.623 72.447) rotate(-35.004)" fill="#899c88" stroke="#899c88" stroke-width="0.3"/>
      <rect id="Rectangle_345" data-name="Rectangle 345" width="0.551" height="2.47" transform="translate(46.197 62.009) rotate(-15.001)" fill="#899c88" stroke="#899c88" stroke-width="0.3"/>
      <rect id="Rectangle_346" data-name="Rectangle 346" width="0.551" height="4.454" transform="matrix(0.966, -0.259, 0.259, 0.966, 46.837, 64.395)" fill="#899c88" stroke="#899c88" stroke-width="0.3"/>
      <rect id="Rectangle_347" data-name="Rectangle 347" width="0.551" height="2.395" transform="matrix(0.966, -0.259, 0.259, 0.966, 48.914, 72.148)" fill="#899c88" stroke="#899c88" stroke-width="0.3"/>
      <rect id="Rectangle_348" data-name="Rectangle 348" width="0.551" height="3.549" transform="matrix(0.966, -0.259, 0.259, 0.966, 50.208, 76.978)" fill="#899c88" stroke="#899c88" stroke-width="0.3"/>
      <rect id="Rectangle_349" data-name="Rectangle 349" width="0.551" height="2.769" transform="translate(49.799 60.751) rotate(-25.008)" fill="#899c88" stroke="#899c88" stroke-width="0.3"/>
      <rect id="Rectangle_350" data-name="Rectangle 350" width="0.551" height="3.895" transform="matrix(0.906, -0.423, 0.423, 0.906, 52.425, 66.381)" fill="#899c88" stroke="#899c88" stroke-width="0.3"/>
      <rect id="Rectangle_351" data-name="Rectangle 351" width="0.551" height="4.323" transform="translate(56.021 74.092) rotate(-24.991)" fill="#899c88" stroke="#899c88" stroke-width="0.3"/>
      <rect id="Rectangle_352" data-name="Rectangle 352" width="0.552" height="3.216" transform="translate(53.129 58.889) rotate(-35.013)" fill="#899c88" stroke="#899c88" stroke-width="0.3"/>
      <rect id="Rectangle_353" data-name="Rectangle 353" width="0.551" height="4.929" transform="translate(58.389 66.399) rotate(-35.001)" fill="#899c88" stroke="#899c88" stroke-width="0.3"/>
      <rect id="Rectangle_354" data-name="Rectangle 354" width="0.551" height="2.492" transform="matrix(0.819, -0.573, 0.573, 0.819, 62.622, 72.444)" fill="#899c88" stroke="#899c88" stroke-width="0.3"/>
      <rect id="Rectangle_355" data-name="Rectangle 355" width="0.551" height="4.523" transform="matrix(0.707, -0.707, 0.707, 0.707, 56.08, 56.47)" fill="#899c88" stroke="#899c88" stroke-width="0.3"/>
      <rect id="Rectangle_356" data-name="Rectangle 356" width="0.551" height="4.358" transform="matrix(0.707, -0.707, 0.707, 0.707, 62.551, 62.942)" fill="#899c88" stroke="#899c88" stroke-width="0.3"/>
      <rect id="Rectangle_357" data-name="Rectangle 357" width="0.551" height="5.533" transform="translate(65.633 66.023) rotate(-44.998)" fill="#899c88" stroke="#899c88" stroke-width="0.3"/>
      <rect id="Rectangle_358" data-name="Rectangle 358" width="0.551" height="2.702" transform="matrix(0.574, -0.819, 0.819, 0.574, 71.955, 62.952)" fill="#899c88" stroke="#899c88" stroke-width="0.3"/>
      <rect id="Rectangle_359" data-name="Rectangle 359" width="0.551" height="6.073" transform="translate(64.849 57.975) rotate(-54.994)" fill="#899c88" stroke="#899c88" stroke-width="0.3"/>
      <rect id="Rectangle_360" data-name="Rectangle 360" width="0.551" height="2.353" transform="translate(58.567 53.576) rotate(-54.993)" fill="#899c88" stroke="#899c88" stroke-width="0.3"/>
      <rect id="Rectangle_361" data-name="Rectangle 361" width="0.551" height="1.333" transform="matrix(0.423, -0.906, 0.906, 0.423, 60.517, 50.296)" fill="#899c88" stroke="#899c88" stroke-width="0.3"/>
      <rect id="Rectangle_362" data-name="Rectangle 362" width="0.551" height="6.685" transform="translate(64.239 52.032) rotate(-64.989)" fill="#899c88" stroke="#899c88" stroke-width="0.3"/>
      <rect id="Rectangle_363" data-name="Rectangle 363" width="0.551" height="2.488" transform="translate(75.523 57.295) rotate(-64.998)" fill="#899c88" stroke="#899c88" stroke-width="0.3"/>
      <rect id="Rectangle_364" data-name="Rectangle 364" width="0.551" height="2.47" transform="matrix(0.707, -0.707, 0.707, 0.707, 56.079, 56.468)" fill="#899c88" stroke="#899c88" stroke-width="0.3"/>
      <rect id="Rectangle_365" data-name="Rectangle 365" width="0.551" height="4.454" transform="translate(57.826 58.215) rotate(-45)" fill="#899c88" stroke="#899c88" stroke-width="0.3"/>
      <rect id="Rectangle_366" data-name="Rectangle 366" width="0.551" height="2.395" transform="translate(63.501 63.89) rotate(-45.005)" fill="#899c88" stroke="#899c88" stroke-width="0.3"/>
      <rect id="Rectangle_367" data-name="Rectangle 367" width="0.551" height="3.55" transform="matrix(0.707, -0.707, 0.707, 0.707, 67.037, 67.426)" fill="#899c88" stroke="#899c88" stroke-width="0.3"/>
      <rect id="Rectangle_368" data-name="Rectangle 368" width="0.551" height="2.769" transform="matrix(0.573, -0.819, 0.819, 0.573, 58.569, 53.579)" fill="#899c88" stroke="#899c88" stroke-width="0.3"/>
      <rect id="Rectangle_369" data-name="Rectangle 369" width="0.551" height="3.895" transform="translate(63.659 57.141) rotate(-55.012)" fill="#899c88" stroke="#899c88" stroke-width="0.3"/>
      <rect id="Rectangle_370" data-name="Rectangle 370" width="0.551" height="4.323" transform="matrix(0.574, -0.819, 0.819, 0.574, 70.629, 62.021)" fill="#899c88" stroke="#899c88" stroke-width="0.3"/>
      <rect id="Rectangle_371" data-name="Rectangle 371" width="0.551" height="3.217" transform="translate(60.522 50.301) rotate(-65.007)" fill="#899c88" stroke="#899c88" stroke-width="0.3"/>
      <rect id="Rectangle_372" data-name="Rectangle 372" width="0.551" height="4.929" transform="translate(68.833 54.174) rotate(-65)" fill="#899c88" stroke="#899c88" stroke-width="0.3"/>
      <rect id="Rectangle_373" data-name="Rectangle 373" width="0.551" height="2.491" transform="matrix(0.423, -0.906, 0.906, 0.423, 75.521, 57.294)" fill="#899c88" stroke="#899c88" stroke-width="0.3"/>
      <rect id="Rectangle_374" data-name="Rectangle 374" width="0.551" height="4.523" transform="matrix(0.259, -0.966, 0.966, 0.259, 61.869, 46.73)" fill="#899c88" stroke="#899c88" stroke-width="0.3"/>
      <rect id="Rectangle_375" data-name="Rectangle 375" width="0.551" height="4.358" transform="translate(70.708 49.099) rotate(-74.997)" fill="#899c88" stroke="#899c88" stroke-width="0.3"/>
      <rect id="Rectangle_376" data-name="Rectangle 376" width="0.551" height="5.533" transform="translate(74.918 50.227) rotate(-74.999)" fill="#899c88" stroke="#899c88" stroke-width="0.3"/>
      <rect id="Rectangle_377" data-name="Rectangle 377" width="0.551" height="2.702" transform="matrix(0.087, -0.996, 0.996, 0.087, 78.858, 44.406)" fill="#899c88" stroke="#899c88" stroke-width="0.3"/>
      <rect id="Rectangle_378" data-name="Rectangle 378" width="0.551" height="6.073" transform="translate(70.216 43.649) rotate(-84.995)" fill="#899c88" stroke="#899c88" stroke-width="0.3"/>
      <rect id="Rectangle_379" data-name="Rectangle 379" width="0.551" height="2.353" transform="matrix(0.087, -0.996, 0.996, 0.087, 62.576, 42.98)" fill="#899c88" stroke="#899c88" stroke-width="0.3"/>
      <rect id="Rectangle_380" data-name="Rectangle 380" width="1.333" height="0.551" transform="translate(62.576 38.615) rotate(-4.992)" fill="#899c88" stroke="#899c88" stroke-width="0.3"/>
      <rect id="Rectangle_381" data-name="Rectangle 381" width="6.685" height="0.551" transform="translate(66.668 38.258) rotate(-4.992)" fill="#899c88" stroke="#899c88" stroke-width="0.3"/>
      <rect id="Rectangle_382" data-name="Rectangle 382" width="2.488" height="0.551" transform="translate(79.071 37.174) rotate(-4.99)" fill="#899c88" stroke="#899c88" stroke-width="0.3"/>
      <rect id="Rectangle_383" data-name="Rectangle 383" width="0.551" height="2.47" transform="translate(61.867 46.729) rotate(-75)" fill="#899c88" stroke="#899c88" stroke-width="0.3"/>
      <rect id="Rectangle_384" data-name="Rectangle 384" width="0.551" height="4.454" transform="translate(64.253 47.368) rotate(-75)" fill="#899c88" stroke="#899c88" stroke-width="0.3"/>
      <rect id="Rectangle_385" data-name="Rectangle 385" width="0.551" height="2.396" transform="matrix(0.259, -0.966, 0.966, 0.259, 72.006, 49.446)" fill="#899c88" stroke="#899c88" stroke-width="0.3"/>
      <rect id="Rectangle_386" data-name="Rectangle 386" width="0.551" height="3.55" transform="translate(76.836 50.74) rotate(-74.997)" fill="#899c88" stroke="#899c88" stroke-width="0.3"/>
      <rect id="Rectangle_387" data-name="Rectangle 387" width="0.551" height="2.769" transform="matrix(0.087, -0.996, 0.996, 0.087, 62.579, 42.981)" fill="#899c88" stroke="#899c88" stroke-width="0.3"/>
      <rect id="Rectangle_388" data-name="Rectangle 388" width="0.551" height="3.895" transform="translate(68.768 43.522) rotate(-85.01)" fill="#899c88" stroke="#899c88" stroke-width="0.3"/>
      <rect id="Rectangle_389" data-name="Rectangle 389" width="0.551" height="4.323" transform="translate(77.243 44.263) rotate(-84.995)" fill="#899c88" stroke="#899c88" stroke-width="0.3"/>
      <rect id="Rectangle_390" data-name="Rectangle 390" width="3.217" height="0.551" transform="translate(62.583 38.616) rotate(-4.983)" fill="#899c88" stroke="#899c88" stroke-width="0.3"/>
      <rect id="Rectangle_391" data-name="Rectangle 391" width="4.929" height="0.551" transform="translate(71.717 37.816) rotate(-4.992)" fill="#899c88" stroke="#899c88" stroke-width="0.3"/>
      <rect id="Rectangle_392" data-name="Rectangle 392" width="2.491" height="0.551" transform="translate(79.069 37.174) rotate(-4.99)" fill="#899c88" stroke="#899c88" stroke-width="0.3"/>
      <rect id="Rectangle_393" data-name="Rectangle 393" width="4.523" height="0.551" transform="matrix(0.966, -0.259, 0.259, 0.966, 61.869, 34.868)" fill="#899c88" stroke="#899c88" stroke-width="0.3"/>
      <rect id="Rectangle_394" data-name="Rectangle 394" width="4.358" height="0.551" transform="matrix(0.966, -0.259, 0.259, 0.966, 70.709, 32.5)" fill="#899c88" stroke="#899c88" stroke-width="0.3"/>
      <rect id="Rectangle_395" data-name="Rectangle 395" width="5.534" height="0.551" transform="matrix(0.966, -0.259, 0.259, 0.966, 74.919, 31.372)" fill="#899c88" stroke="#899c88" stroke-width="0.3"/>
      <rect id="Rectangle_396" data-name="Rectangle 396" width="2.702" height="0.551" transform="translate(75.329 24.394) rotate(-25.015)" fill="#899c88" stroke="#899c88" stroke-width="0.3"/>
      <rect id="Rectangle_397" data-name="Rectangle 397" width="6.073" height="0.551" transform="translate(67.467 28.061) rotate(-25.015)" fill="#899c88" stroke="#899c88" stroke-width="0.3"/>
      <rect id="Rectangle_398" data-name="Rectangle 398" width="2.353" height="0.551" transform="translate(60.516 31.3) rotate(-25.015)" fill="#899c88" stroke="#899c88" stroke-width="0.3"/>
      <rect id="Rectangle_399" data-name="Rectangle 399" width="1.332" height="0.551" transform="matrix(0.819, -0.573, 0.573, 0.819, 58.567, 28.019)" fill="#899c88" stroke="#899c88" stroke-width="0.3"/>
      <rect id="Rectangle_400" data-name="Rectangle 400" width="6.685" height="0.551" transform="matrix(0.819, -0.573, 0.573, 0.819, 61.931, 25.663)" fill="#899c88" stroke="#899c88" stroke-width="0.3"/>
      <rect id="Rectangle_401" data-name="Rectangle 401" width="2.488" height="0.551" transform="matrix(0.819, -0.573, 0.573, 0.819, 72.131, 18.523)" fill="#899c88" stroke="#899c88" stroke-width="0.3"/>
      <rect id="Rectangle_402" data-name="Rectangle 402" width="2.47" height="0.551" transform="translate(61.867 34.868) rotate(-15.004)" fill="#899c88" stroke="#899c88" stroke-width="0.3"/>
      <rect id="Rectangle_403" data-name="Rectangle 403" width="4.454" height="0.551" transform="matrix(0.966, -0.259, 0.259, 0.966, 64.253, 34.229)" fill="#899c88" stroke="#899c88" stroke-width="0.3"/>
      <rect id="Rectangle_404" data-name="Rectangle 404" width="2.396" height="0.551" transform="matrix(0.966, -0.259, 0.259, 0.966, 72.006, 32.151)" fill="#899c88" stroke="#899c88" stroke-width="0.3"/>
      <rect id="Rectangle_405" data-name="Rectangle 405" width="3.549" height="0.551" transform="matrix(0.966, -0.259, 0.259, 0.966, 76.836, 30.857)" fill="#899c88" stroke="#899c88" stroke-width="0.3"/>
      <rect id="Rectangle_406" data-name="Rectangle 406" width="2.769" height="0.551" transform="translate(60.519 31.3) rotate(-25.015)" fill="#899c88" stroke="#899c88" stroke-width="0.3"/>
      <rect id="Rectangle_407" data-name="Rectangle 407" width="3.895" height="0.551" transform="translate(66.149 28.673) rotate(-25.015)" fill="#899c88" stroke="#899c88" stroke-width="0.3"/>
      <rect id="Rectangle_408" data-name="Rectangle 408" width="4.323" height="0.551" transform="translate(73.86 25.078) rotate(-25.015)" fill="#899c88" stroke="#899c88" stroke-width="0.3"/>
      <rect id="Rectangle_409" data-name="Rectangle 409" width="3.217" height="0.551" transform="translate(58.574 28.017) rotate(-34.99)" fill="#899c88" stroke="#899c88" stroke-width="0.3"/>
      <rect id="Rectangle_410" data-name="Rectangle 410" width="4.929" height="0.551" transform="matrix(0.819, -0.574, 0.574, 0.819, 66.084, 22.759)" fill="#899c88" stroke="#899c88" stroke-width="0.3"/>
      <rect id="Rectangle_411" data-name="Rectangle 411" width="2.491" height="0.551" transform="matrix(0.819, -0.573, 0.573, 0.819, 72.129, 18.524)" fill="#899c88" stroke="#899c88" stroke-width="0.3"/>
      <rect id="Rectangle_412" data-name="Rectangle 412" width="4.523" height="0.551" transform="translate(56.081 25.128) rotate(-45)" fill="#899c88" stroke="#899c88" stroke-width="0.3"/>
      <rect id="Rectangle_413" data-name="Rectangle 413" width="4.358" height="0.551" transform="translate(62.553 18.657) rotate(-45)" fill="#899c88" stroke="#899c88" stroke-width="0.3"/>
      <rect id="Rectangle_414" data-name="Rectangle 414" width="5.533" height="0.551" transform="translate(65.635 15.575) rotate(-45)" fill="#899c88" stroke="#899c88" stroke-width="0.3"/>
      <rect id="Rectangle_415" data-name="Rectangle 415" width="2.702" height="0.552" transform="translate(62.501 9.327) rotate(-54.999)" fill="#899c88" stroke="#899c88" stroke-width="0.3"/>
      <rect id="Rectangle_416" data-name="Rectangle 416" width="6.073" height="0.552" transform="matrix(0.574, -0.819, 0.819, 0.574, 57.525, 16.433)" fill="#899c88" stroke="#899c88" stroke-width="0.3"/>
      <rect id="Rectangle_417" data-name="Rectangle 417" width="2.353" height="0.552" transform="matrix(0.574, -0.819, 0.819, 0.574, 53.125, 22.714)" fill="#899c88" stroke="#899c88" stroke-width="0.3"/>
      <rect id="Rectangle_418" data-name="Rectangle 418" width="1.332" height="0.551" transform="matrix(0.423, -0.906, 0.906, 0.423, 49.797, 20.848)" fill="#899c88" stroke="#899c88" stroke-width="0.3"/>
      <rect id="Rectangle_419" data-name="Rectangle 419" width="6.685" height="0.551" transform="matrix(0.423, -0.906, 0.906, 0.423, 51.533, 17.125)" fill="#899c88" stroke="#899c88" stroke-width="0.3"/>
      <rect id="Rectangle_420" data-name="Rectangle 420" width="2.487" height="0.551" transform="translate(56.797 5.842) rotate(-65.011)" fill="#899c88" stroke="#899c88" stroke-width="0.3"/>
      <rect id="Rectangle_421" data-name="Rectangle 421" width="2.47" height="0.551" transform="translate(56.079 25.129) rotate(-45)" fill="#899c88" stroke="#899c88" stroke-width="0.3"/>
      <rect id="Rectangle_422" data-name="Rectangle 422" width="4.454" height="0.551" transform="translate(57.826 23.382) rotate(-45)" fill="#899c88" stroke="#899c88" stroke-width="0.3"/>
      <rect id="Rectangle_423" data-name="Rectangle 423" width="2.395" height="0.551" transform="translate(63.501 17.707) rotate(-45)" fill="#899c88" stroke="#899c88" stroke-width="0.3"/>
      <rect id="Rectangle_424" data-name="Rectangle 424" width="3.549" height="0.551" transform="translate(67.037 14.171) rotate(-45)" fill="#899c88" stroke="#899c88" stroke-width="0.3"/>
      <rect id="Rectangle_425" data-name="Rectangle 425" width="2.769" height="0.551" transform="matrix(0.573, -0.819, 0.819, 0.573, 53.128, 22.713)" fill="#899c88" stroke="#899c88" stroke-width="0.3"/>
      <rect id="Rectangle_426" data-name="Rectangle 426" width="3.895" height="0.551" transform="translate(56.691 17.623) rotate(-55.028)" fill="#899c88" stroke="#899c88" stroke-width="0.3"/>
      <rect id="Rectangle_427" data-name="Rectangle 427" width="4.323" height="0.552" transform="matrix(0.574, -0.819, 0.819, 0.574, 61.57, 10.653)" fill="#899c88" stroke="#899c88" stroke-width="0.3"/>
      <rect id="Rectangle_428" data-name="Rectangle 428" width="3.216" height="0.551" transform="translate(49.802 20.843) rotate(-65.011)" fill="#899c88" stroke="#899c88" stroke-width="0.3"/>
      <rect id="Rectangle_429" data-name="Rectangle 429" width="4.929" height="0.551" transform="translate(53.676 12.532) rotate(-65.011)" fill="#899c88" stroke="#899c88" stroke-width="0.3"/>
      <rect id="Rectangle_430" data-name="Rectangle 430" width="2.491" height="0.551" transform="matrix(0.423, -0.906, 0.906, 0.423, 56.795, 5.844)" fill="#899c88" stroke="#899c88" stroke-width="0.3"/>
      <rect id="Rectangle_431" data-name="Rectangle 431" width="4.523" height="0.551" transform="matrix(0.259, -0.966, 0.966, 0.259, 46.198, 19.586)" fill="#899c88" stroke="#899c88" stroke-width="0.3"/>
      <rect id="Rectangle_432" data-name="Rectangle 432" width="4.358" height="0.551" transform="translate(48.567 10.747) rotate(-74.997)" fill="#899c88" stroke="#899c88" stroke-width="0.3"/>
      <rect id="Rectangle_433" data-name="Rectangle 433" width="5.533" height="0.551" transform="matrix(0.259, -0.966, 0.966, 0.259, 49.696, 6.537)" fill="#899c88" stroke="#899c88" stroke-width="0.3"/>
      <rect id="Rectangle_434" data-name="Rectangle 434" width="2.702" height="0.551" transform="translate(43.858 2.692) rotate(-84.997)" fill="#899c88" stroke="#899c88" stroke-width="0.3"/>
      <rect id="Rectangle_435" data-name="Rectangle 435" width="6.073" height="0.551" transform="translate(43.101 11.334) rotate(-84.99)" fill="#899c88" stroke="#899c88" stroke-width="0.3"/>
      <rect id="Rectangle_436" data-name="Rectangle 436" width="2.353" height="0.551" transform="translate(42.432 18.974) rotate(-84.99)" fill="#899c88" stroke="#899c88" stroke-width="0.3"/>
      <rect id="Rectangle_437" data-name="Rectangle 437" width="0.551" height="1.332" transform="translate(38.5 17.695) rotate(-4.996)" fill="#899c88" stroke="#899c88" stroke-width="0.3"/>
      <rect id="Rectangle_438" data-name="Rectangle 438" width="0.551" height="6.685" transform="translate(37.677 8.27) rotate(-4.991)" fill="#899c88" stroke="#899c88" stroke-width="0.3"/>
      <rect id="Rectangle_439" data-name="Rectangle 439" width="0.551" height="2.488" transform="translate(36.958 0.048) rotate(-5.011)" fill="#899c88" stroke="#899c88" stroke-width="0.3"/>
    </g>
  </g>
</svg>
