<svg xmlns="http://www.w3.org/2000/svg" xmlns:xlink="http://www.w3.org/1999/xlink" width="76" height="76" viewBox="0 0 76 76">
  <defs>
    <clipPath id="clip-path">
      <rect id="Rectangle_449" data-name="Rectangle 449" width="44.025" height="35.624" fill="#899c88"/>
    </clipPath>
  </defs>
  <g id="round-discover3" transform="translate(-1040 -2587.26)">
    <g id="Group_66" data-name="Group 66" transform="translate(940.162 1797.422)">
      <circle id="Ellipse_2" data-name="Ellipse 2" cx="38" cy="38" r="38" transform="translate(99.838 789.838)" fill="#fff"/>
      <g id="Ellipse_1" data-name="Ellipse 1" transform="translate(104.838 794.838)" fill="none" stroke="#899c88" stroke-linecap="round" stroke-width="1" stroke-dasharray="3">
        <circle cx="33" cy="33" r="33" stroke="none"/>
        <circle cx="33" cy="33" r="32.5" fill="none"/>
      </g>
    </g>
    <g id="Group_71" data-name="Group 71" transform="translate(1054.549 2606.284)">
      <g id="Group_70" data-name="Group 70" transform="translate(1.438 1.164)" clip-path="url(#clip-path)">
        <path id="Path_516" data-name="Path 516" d="M148.966,22.936a9.276,9.276,0,0,1,3.527-2.713c-1.22.86-2.266,1.894-3.527,2.713" transform="translate(-113.488 -15.407)" fill="#899c88" fill-rule="evenodd"/>
        <path id="Path_517" data-name="Path 517" d="M104.78,31.892c.121-.019.139.064.068.068-3.624,3.49-8.058,6.116-12.278,8.75,1.571-1.933,4.293-2.716,6.173-4.341,2.225-1.28,3.971-3.038,6.037-4.477" transform="translate(-70.524 -24.294)" fill="#899c88" fill-rule="evenodd"/>
        <path id="Path_518" data-name="Path 518" d="M56.751,38.452c.069.426-1.066,1.134-1.492,1.289.308-.62,1.142-.712,1.492-1.289" transform="translate(-42.098 -29.294)" fill="#899c88" fill-rule="evenodd"/>
        <path id="Path_519" data-name="Path 519" d="M134.2,38.736a9.675,9.675,0,0,1-2.035,1.56,5.226,5.226,0,0,1,2.035-1.56" transform="translate(-100.685 -29.511)" fill="#899c88" fill-rule="evenodd"/>
        <path id="Path_520" data-name="Path 520" d="M99.977,54.7a33.161,33.161,0,0,1,5.359-4,38.642,38.642,0,0,1-5.359,4" transform="translate(-76.166 -38.625)" fill="#899c88" fill-rule="evenodd"/>
        <path id="Path_521" data-name="Path 521" d="M69.393,77.473c-.163.721-1.372,1.565-2.171,2.1.307-.849,1.509-1.383,2.171-2.1" transform="translate(-51.212 -59.022)" fill="#899c88" fill-rule="evenodd"/>
        <path id="Path_522" data-name="Path 522" d="M70.87,79.181c-.851.777-1.6,1.654-2.51,2.374a5.515,5.515,0,0,1,2.51-2.374" transform="translate(-52.079 -60.323)" fill="#899c88" fill-rule="evenodd"/>
        <path id="Path_523" data-name="Path 523" d="M70.992,84.308A6.484,6.484,0,0,1,69.5,85.936a3.071,3.071,0,0,1,1.492-1.628" transform="translate(-52.948 -64.229)" fill="#899c88" fill-rule="evenodd"/>
        <path id="Path_524" data-name="Path 524" d="M119.345,99.12c2.522,1.933,5.1,3.812,7.529,5.834a82.407,82.407,0,0,1-7.529-5.562Z" transform="translate(-90.922 -75.514)" fill="#899c88" fill-rule="evenodd"/>
        <path id="Path_525" data-name="Path 525" d="M164.187,134.912c-.2-.2-.7-.408-.543-.746.559.381,1.392.708,1.764-.068.4.516-.408.973-.882.882,1.393.655,1.5-1.214.95-1.967,2.126,1.224-.456,3.545-2.1,1.967a1.014,1.014,0,0,1,0-.543c.326.1.434.426.814.475" transform="translate(-124.436 -101.335)" fill="#899c88" fill-rule="evenodd"/>
        <path id="Path_526" data-name="Path 526" d="M44.024,0a13.559,13.559,0,0,1-1.356,3.6C38.429,10.5,31.53,14.752,25.37,19.739c.308.356.55-.111.882-.136,1.134.11,1.031,1.456,1.7,2.035.254.146.2-.13.543-.068.447.181.4.321.543.543.43-.045,5.552,3.651,7.869,5.359,2.542,1.777,5.968,3.568,6.512,5.562a1.321,1.321,0,0,1,0,.882,2.706,2.706,0,0,1-3.731,1.425c-4.157-2.475-9.1-7.359-13.363-11.328-.021-.159-.107-.255-.068-.475-.545-.877-3.082-.8-2.035-2.238q-2.376-2.033-4.884-3.934c-1.206,1.078-2.749,1.818-3.663,3.188a6.139,6.139,0,0,0,2.374,3.256c2.163-.5,3.515-2.184,5.291-2.849-1.664,1.2-3.286,3.111-5.766,3.053-.4.115-.516.524-.949.61-.225.026-.338-.02-.475-.271-.489.106-.545.748-.542,1.153-3.729,3.212-7.133,6.75-11.939,8.886-.963.38-1.8.5-2.239.068C.834,34.01-.316,32.747.272,31.746c1.925-2.63,4.931-4.287,7.6-6.037,1.886-1.211,3.7-3.775,6.105-3.256.66-.272.507-1.02,1.492-1.357-.022-.249-.167-.375-.2-.61-.059-.52,2.486-2.263,3.867-3.256-1.37-1.275-2.988-2.3-4.477-3.46a1.979,1.979,0,0,1-.95.271c-2.606-.175-3.8-1.759-5.087-3.256C6.366,8.769-.068,5.226,0,4.274c3.553.5,6.209,3.583,9.361,5.155A30.738,30.738,0,0,0,3.189,4.613C1.748,3.652,1.39,2.9,1.748,2.58c3.517,1.412,5.841,4.3,9.106,5.967-.681-.974-4.809-4.124-6.037-5.155-.715-.6-1.689-1.294-1.7-2.374a4.1,4.1,0,0,1,1.9,1.357c2.665,2.4,7.233,4.209,10.243,6.512.818.626,2.586,2.518,1.221,3.663,1.414,1.209,2.9,2.349,4.341,3.527,4.8-3.576,10.38-6.563,15.127-10.107.96-.717,2.366-1.809,3.663-2.781C41.1,2.073,42.779.372,44.024,0M21.165,16.28A25.726,25.726,0,0,0,25.1,19.468,99.7,99.7,0,0,0,40.294,6.58,13.725,13.725,0,0,0,43.346.611C36.414,6.3,28.572,11.07,21.165,16.28M13.5,9.022c-.339-.283.292-.424.136-.814A60.214,60.214,0,0,1,3.867,1.831,18.667,18.667,0,0,0,8.48,5.9c1.169.923,3.827,2.434,2.239,3.188-2.8-2.038-5.37-4.308-8.479-6.037-.1.722,5.622,4.092,7.53,6.241.118.208.37.7,0,.814C6.608,8.384,4.048,5.7.408,4.681c1.187.893,8.366,5.4,9.836,7.394.313,0,.246-.386.61-.339.005.3-.462.4-.272.678a1.572,1.572,0,0,0,.746-.543c.247.388-.265.528-.407.746.486.4.99-.541,1.357-.475,0,.382-.408.361-.543.611.439-.1.759-.687,1.153-.611a2.907,2.907,0,0,1-1.153.95c-.24-.068.058-.3-.2-.271-.168.352.613.572.814.543-.014-.2-.119-.162-.271-.339.472-.28.989-.857,1.424-.95-.16.429-.866.671-.882,1.018.472-.139.689-.893,1.153-.814a5.361,5.361,0,0,1-.747.882c.428-.092.525-.516.95-.61-.058.3.323.061.543.339a1.058,1.058,0,0,1-.407.543c.311.017.281-.307.61-.272.207.042.133.365.34.407-.01-.168-.012-.329.136-.339.564.274.984,1.05,1.56,1.086-.717-.892-3.652-2.211-2.781-3.46a1.667,1.667,0,0,0,1.017-.814c-.5.039-.637.809-1.153.61.312-.308.821-.957,1.289-.678.029-.13.025-.292.2-.272.263.1.311.413.61.475-.4-.8-.9-1.046-1.9-1.7-.251.021-.254.288-.407.407.439-.113.344.048.746.068a10.906,10.906,0,0,1-1.153.678c-.107-.467.52-.491.407-.746-.083.008-.161.02-.136.136m1.492,1.9c.212-.214.467-.446.746-.407-.146-.066-.508-.535-.475-.339.424.24-.492.5-.271.746m.543.407c.24.037.167-.24.407-.2.014-.195-.017-.345-.136-.407.1.4-.17.418-.271.61m-1.221-.068c-.106.007-.1.41.339.814,2.309,2.1,4.56,4.081,7.055,6.173a10.259,10.259,0,0,0,4.07,2.51c-1.643-1.307-9.5-7.937-11.464-9.5m1.289.611a1.27,1.27,0,0,0,.407-.339c-.182-.175-.541.2-.407.339m.271.2c.176.027.2.2.407.2-.1-.292.393-.6.2-.543-.109.207-.414.22-.611.339M12.482,13.5c.207-.049.247.07.407.068-.116-.173.078-.237-.067-.339-.02.183-.285.122-.339.272m.475.068a1.052,1.052,0,0,0,.814,0c-.274-.09-.574-.2-.814,0m3.053.746c-.134-.265-.781-.693-.814-.61.253.222.546.4.814.61m9.361,7.53c.529-.282,1.488-1.2.882-1.764.328.91-.7,1.368-.882,1.764m-.746-.814c-.41-.133-.732-.714-1.085-.679.377.166.739.706,1.085.679m1.425.882a1.427,1.427,0,0,0,1.085-1.018c-.031-.154-.171-.546-.271-.407.032.508-.481,1.056-.814,1.424m-.475.61a4.017,4.017,0,0,0,.95.61,2.457,2.457,0,0,0,1.221-1.289c-.706-.568-1.233.657-2.17.678m-1.086-.407c-.03-.339.559-.012.475-.2-.3.03-.359-.184-.543-.272a.337.337,0,0,0,.068.475m-8.072.678c-.134.115-.106.392-.407.339-.1-.379.049-.423.2-.678-.248.023-.253.289-.475.339-.081-.2-.019-.231.068-.407-.608.012-.13-.422-.068-.678-.284.076-.39.432-.678.136.1,1.075,1.095,1.257,1.288,2.238.275-.031.313.261.475,0a.694.694,0,0,1-.272-.746c-.128-.015-.15.076-.272.068-.062-.18.2-.495.136-.61m12.21-.61c-.16-.229-.222-.136-.611-.136-.186.764-.807,1.093-1.357,1.492-.037.24.24.167.2.407a1.892,1.892,0,0,0,1.764-1.764M15.4,24.556c.172-.145.3-.337.543-.407a11.113,11.113,0,0,0-1.289-1.832c-.188.128-.125.508-.543.407.1.977.991,1.441,1.289,1.831m22.453,9.226c1.211.969,3.888,2.359,4.749.339-.541.782-2.516,1.168-2.917,0a1.7,1.7,0,0,0,2.781-1.628c.137.35.435.783.271,1.221a.44.44,0,0,1,.339.068c-.154-2.13-1.674-2.662-3.12-3.731-2.642-1.789-9.121-6.713-11.057-7.6.1.259-.177.494,0,.61.043-.206.311-.186.407-.339a9.3,9.3,0,0,1,1.561,1.289c-.472.1-.932-.734-1.357-.678.423.323.825.667,1.221,1.017q-.222-.019-.2.2A18.308,18.308,0,0,1,33.578,27c-1.818-1.077-3.338-2.451-5.02-3.663-.052.287-.316.362-.475.543A105.145,105.145,0,0,1,36.97,31c-.008.128-.224.047-.2.2.391.378.912.626,1.289,1.017-1.278,0-4.857-3.509-5.766-4.07.019-.244-.268-.184-.271-.407a26.268,26.268,0,0,1-4.409-3.6c-.114.134-.389.108-.475.271a6.744,6.744,0,0,1,2.713,2.171c-.225-.045-.294-.2-.407-.068,2.89,2.16,5.57,4.984,8.411,7.258M15.535,25.166a8.576,8.576,0,0,1-2.1-2.51.746.746,0,0,0-.068,1.221c-.225.231.374.936.407.61a2.071,2.071,0,0,0,.746.882,2.332,2.332,0,0,1,.746-.068c-.213-.23.133-.323.272-.136M12.482,23.2c-.027-.162.309.037.2-.2-.132-.032-.347.182-.2.2m-.746.068c.17.012.165-.152.272-.2-.17-.011-.213.1-.272.2M5.088,28.422c.313-1.18,2.082-1.264,2.374-2.238-1.022.654-2.055,1.574-3.324,2.442-1.812,1.238-5.506,3.815-2.306,5.562,1.138.435,2.84-.674,4.07-1.288,3.49-1.744,6.465-5.311,9.225-7.394-.536.1-.788.765-1.221.746a4.653,4.653,0,0,1,.407-.611c-.466,0-.506-.663-.882-.543-.008.234.279.173.271.407-2.229,1.773-4.294,3.669-6.715,5.291-1.271.839-4.049,2.506-4.817,1.832-.671-.574.081-1.685.339-1.7.194.314.505.09.61.475a.749.749,0,0,0-.543.339c1.157.806,2.277-.43,3.324-1.085a28.485,28.485,0,0,0,4.816-3.934c-.019.062-.253.228-.271.068.334-.934,1.637-1.254,1.9-2.035a13.118,13.118,0,0,0-2.374,1.832c.046-.23.226-.066.272.068-1.336,1.289-3.287,3.1-4.545,3.6,1.567-1.148,2.472-2.543,4.07-3.663-.212-.047-.088-.181-.068-.339a9.127,9.127,0,0,0,1.764-1.289c.47-.419,1.379-.7,1.289-1.289-1.494,1.333-3.36,2.293-4.884,3.6C8.3,25.91,10.3,25.537,11.193,24.42c-2.057,1.311-4,2.735-6.1,4m8-3.731c.115-.149-.126-.377-.271-.475.044.263-.236.385-.475.543.249.23.616-.381.746-.068m3.866-.61c.062-.119.126-.236.339-.2.012-.148-.055-.216-.2-.2.011.154-.326.3-.136.407m12.956-.2c-.393-.2-.178.167,0,0M36.631,31C33.9,28.738,31,26.277,28.151,24.352c2.883,2.115,5.666,4.69,8.479,6.648m-23.2-6.105c-.053-.015-.079-.057-.068-.136a4.3,4.3,0,0,0-1.7,1.153c.726-.167,1.121-.988,1.764-1.018m15.941,1.357c-.434-.222-.876-.8-1.221-.882.4.221.914,1.021,1.221.882m-17.3-.068c.2-.031.488-.321.407-.407-.1.17-.362.181-.407.407m-.543-.271c-.578.447,0,.437,0,0m-3.867.271c-.036-.1.265-.165.068-.2.008.069-.293.137-.068.2m.068.136c.17.012.212-.1.271-.2-.17-.012-.212.1-.271.2m3.867.068a.482.482,0,0,0,.2-.136c-.09-.01-.374.106-.2.136m-1.493,1.424c.042-.17.58-.463.407-.407-.138.091-.553.257-.407.407m-.611.475c.077-.174.535-.32.407-.475-.044.208-.548.307-.407.475m-.339.2c.282.065.014-.2,0,0" transform="translate(0)" fill="#899c88" fill-rule="evenodd"/>
        <path id="Path_527" data-name="Path 527" d="M51.53,107.447c.2.059-.158.1-.068.272.056-.147.256-.151.272-.339-.085.759-1.582,1.261-2.171,1.967.32-.7,1.352-1.271,1.968-1.9" transform="translate(-37.758 -81.806)" fill="#899c88" fill-rule="evenodd"/>
      </g>
    </g>
  </g>
</svg>
