<svg xmlns="http://www.w3.org/2000/svg" width="60.314" height="60.314" viewBox="0 0 60.314 60.314">
  <g id="round-sm" transform="translate(-100 -790)">
    <circle id="Ellipse_2" data-name="Ellipse 2" cx="30.157" cy="30.157" r="30.157" transform="translate(100 790)" fill="#fff"/>
    <g id="Ellipse_1" data-name="Ellipse 1" transform="translate(104.501 794.501)" fill="none" stroke="#899c88" stroke-linecap="round" stroke-width="1" stroke-dasharray="2">
      <circle cx="25.656" cy="25.656" r="25.656" stroke="none"/>
      <circle cx="25.656" cy="25.656" r="25.156" fill="none"/>
    </g>
    <g id="Group_57" data-name="Group 57" transform="translate(111.793 801.793)">
      <rect id="Rectangle_231" data-name="Rectangle 231" width="0.248" height="1.112" transform="translate(15.407 7.807) rotate(-15.001)" fill="#899c88" stroke="#899c88" stroke-width="0.3"/>
      <rect id="Rectangle_232" data-name="Rectangle 232" width="0.248" height="2.005" transform="matrix(0.966, -0.259, 0.259, 0.966, 14.888, 5.87)" fill="#899c88" stroke="#899c88" stroke-width="0.3"/>
      <rect id="Rectangle_233" data-name="Rectangle 233" width="0.248" height="1.078" transform="translate(14.193 3.276) rotate(-15)" fill="#899c88" stroke="#899c88" stroke-width="0.3"/>
      <rect id="Rectangle_234" data-name="Rectangle 234" width="0.248" height="1.598" transform="matrix(0.966, -0.259, 0.259, 0.966, 13.476, 0.6)" fill="#899c88" stroke="#899c88" stroke-width="0.3"/>
      <rect id="Rectangle_235" data-name="Rectangle 235" width="0.248" height="1.246" transform="matrix(0.906, -0.423, 0.423, 0.906, 13.562, 8.358)" fill="#899c88" stroke="#899c88" stroke-width="0.3"/>
      <rect id="Rectangle_236" data-name="Rectangle 236" width="0.248" height="1.753" transform="translate(12.165 5.365) rotate(-25.014)" fill="#899c88" stroke="#899c88" stroke-width="0.3"/>
      <rect id="Rectangle_237" data-name="Rectangle 237" width="0.248" height="1.946" transform="translate(10.465 1.719) rotate(-24.994)" fill="#899c88" stroke="#899c88" stroke-width="0.3"/>
      <rect id="Rectangle_238" data-name="Rectangle 238" width="0.248" height="1.448" transform="translate(11.781 9.177) rotate(-35.006)" fill="#899c88" stroke="#899c88" stroke-width="0.3"/>
      <rect id="Rectangle_239" data-name="Rectangle 239" width="0.248" height="2.219" transform="translate(8.971 5.165) rotate(-34.998)" fill="#899c88" stroke="#899c88" stroke-width="0.3"/>
      <rect id="Rectangle_240" data-name="Rectangle 240" width="0.248" height="1.121" transform="translate(7.695 3.343) rotate(-34.992)" fill="#899c88" stroke="#899c88" stroke-width="0.3"/>
      <rect id="Rectangle_241" data-name="Rectangle 241" width="0.248" height="2.036" transform="matrix(0.707, -0.707, 0.707, 0.707, 9.871, 10.045)" fill="#899c88" stroke="#899c88" stroke-width="0.3"/>
      <rect id="Rectangle_242" data-name="Rectangle 242" width="0.248" height="1.962" transform="matrix(0.707, -0.707, 0.707, 0.707, 7.011, 7.185)" fill="#899c88" stroke="#899c88" stroke-width="0.3"/>
      <rect id="Rectangle_243" data-name="Rectangle 243" width="0.248" height="2.491" transform="translate(5.25 5.424) rotate(-44.998)" fill="#899c88" stroke="#899c88" stroke-width="0.3"/>
      <rect id="Rectangle_244" data-name="Rectangle 244" width="0.248" height="1.216" transform="translate(3.202 7.898) rotate(-55)" fill="#899c88" stroke="#899c88" stroke-width="0.3"/>
      <rect id="Rectangle_245" data-name="Rectangle 245" width="0.248" height="2.733" transform="translate(5.158 9.267) rotate(-54.998)" fill="#899c88" stroke="#899c88" stroke-width="0.3"/>
      <rect id="Rectangle_246" data-name="Rectangle 246" width="0.248" height="1.059" transform="translate(9.357 12.208) rotate(-54.993)" fill="#899c88" stroke="#899c88" stroke-width="0.3"/>
      <rect id="Rectangle_247" data-name="Rectangle 247" width="0.248" height="0.6" transform="translate(8.841 14.06) rotate(-64.988)" fill="#899c88" stroke="#899c88" stroke-width="0.3"/>
      <rect id="Rectangle_248" data-name="Rectangle 248" width="0.248" height="3.009" transform="matrix(0.423, -0.906, 0.906, 0.423, 4.982, 12.26)" fill="#899c88" stroke="#899c88" stroke-width="0.3"/>
      <rect id="Rectangle_249" data-name="Rectangle 249" width="0.248" height="1.12" transform="translate(1.615 10.69) rotate(-65.002)" fill="#899c88" stroke="#899c88" stroke-width="0.3"/>
      <rect id="Rectangle_250" data-name="Rectangle 250" width="0.248" height="1.112" transform="translate(10.525 10.7) rotate(-44.999)" fill="#899c88" stroke="#899c88" stroke-width="0.3"/>
      <rect id="Rectangle_251" data-name="Rectangle 251" width="0.248" height="2.005" transform="matrix(0.707, -0.707, 0.707, 0.707, 9.107, 9.282)" fill="#899c88" stroke="#899c88" stroke-width="0.3"/>
      <rect id="Rectangle_252" data-name="Rectangle 252" width="0.248" height="1.078" transform="translate(7.208 7.383) rotate(-44.997)" fill="#899c88" stroke="#899c88" stroke-width="0.3"/>
      <rect id="Rectangle_253" data-name="Rectangle 253" width="0.248" height="1.598" transform="translate(5.249 5.424) rotate(-44.999)" fill="#899c88" stroke="#899c88" stroke-width="0.3"/>
      <rect id="Rectangle_254" data-name="Rectangle 254" width="0.248" height="1.246" transform="matrix(0.573, -0.819, 0.819, 0.573, 9.202, 12.1)" fill="#899c88" stroke="#899c88" stroke-width="0.3"/>
      <rect id="Rectangle_255" data-name="Rectangle 255" width="0.248" height="1.753" transform="matrix(0.573, -0.819, 0.819, 0.573, 6.496, 10.206)" fill="#899c88" stroke="#899c88" stroke-width="0.3"/>
      <rect id="Rectangle_256" data-name="Rectangle 256" width="0.248" height="1.946" transform="translate(3.202 7.898) rotate(-54.994)" fill="#899c88" stroke="#899c88" stroke-width="0.3"/>
      <rect id="Rectangle_257" data-name="Rectangle 257" width="0.248" height="1.448" transform="translate(8.07 13.7) rotate(-65.011)" fill="#899c88" stroke="#899c88" stroke-width="0.3"/>
      <rect id="Rectangle_258" data-name="Rectangle 258" width="0.248" height="2.219" transform="translate(3.63 11.63) rotate(-64.999)" fill="#899c88" stroke="#899c88" stroke-width="0.3"/>
      <rect id="Rectangle_259" data-name="Rectangle 259" width="0.248" height="1.121" transform="matrix(0.423, -0.906, 0.906, 0.423, 1.614, 10.69)" fill="#899c88" stroke="#899c88" stroke-width="0.3"/>
      <rect id="Rectangle_260" data-name="Rectangle 260" width="0.248" height="2.036" transform="translate(6.85 15.406) rotate(-74.997)" fill="#899c88" stroke="#899c88" stroke-width="0.3"/>
      <rect id="Rectangle_261" data-name="Rectangle 261" width="0.248" height="1.962" transform="translate(2.943 14.359) rotate(-74.997)" fill="#899c88" stroke="#899c88" stroke-width="0.3"/>
      <rect id="Rectangle_262" data-name="Rectangle 262" width="0.248" height="2.491" transform="translate(0.537 13.714) rotate(-74.997)" fill="#899c88" stroke="#899c88" stroke-width="0.3"/>
      <rect id="Rectangle_263" data-name="Rectangle 263" width="0.248" height="1.216" transform="translate(0.001 16.881) rotate(-84.998)" fill="#899c88" stroke="#899c88" stroke-width="0.3"/>
      <rect id="Rectangle_264" data-name="Rectangle 264" width="0.248" height="2.733" transform="matrix(0.087, -0.996, 0.996, 0.087, 2.379, 17.089)" fill="#899c88" stroke="#899c88" stroke-width="0.3"/>
      <rect id="Rectangle_265" data-name="Rectangle 265" width="0.248" height="1.059" transform="matrix(0.087, -0.996, 0.996, 0.087, 7.486, 17.536)" fill="#899c88" stroke="#899c88" stroke-width="0.3"/>
      <rect id="Rectangle_266" data-name="Rectangle 266" width="0.6" height="0.248" transform="translate(7.943 19.151) rotate(-4.992)" fill="#899c88" stroke="#899c88" stroke-width="0.3"/>
      <rect id="Rectangle_267" data-name="Rectangle 267" width="3.009" height="0.248" transform="translate(3.701 19.521) rotate(-4.992)" fill="#899c88" stroke="#899c88" stroke-width="0.3"/>
      <rect id="Rectangle_268" data-name="Rectangle 268" width="1.12" height="0.248" transform="translate(0.001 19.845) rotate(-4.992)" fill="#899c88" stroke="#899c88" stroke-width="0.3"/>
      <rect id="Rectangle_269" data-name="Rectangle 269" width="0.248" height="1.112" transform="translate(7.743 15.646) rotate(-75)" fill="#899c88" stroke="#899c88" stroke-width="0.3"/>
      <rect id="Rectangle_270" data-name="Rectangle 270" width="0.248" height="2.005" transform="translate(5.807 15.127) rotate(-75)" fill="#899c88" stroke="#899c88" stroke-width="0.3"/>
      <rect id="Rectangle_271" data-name="Rectangle 271" width="0.248" height="1.078" transform="translate(3.212 14.432) rotate(-74.999)" fill="#899c88" stroke="#899c88" stroke-width="0.3"/>
      <rect id="Rectangle_272" data-name="Rectangle 272" width="0.248" height="1.598" transform="matrix(0.259, -0.966, 0.966, 0.259, 0.536, 13.715)" fill="#899c88" stroke="#899c88" stroke-width="0.3"/>
      <rect id="Rectangle_273" data-name="Rectangle 273" width="0.248" height="1.246" transform="translate(7.298 17.52) rotate(-85.01)" fill="#899c88" stroke="#899c88" stroke-width="0.3"/>
      <rect id="Rectangle_274" data-name="Rectangle 274" width="0.248" height="1.753" transform="translate(4.007 17.232) rotate(-85.01)" fill="#899c88" stroke="#899c88" stroke-width="0.3"/>
      <rect id="Rectangle_275" data-name="Rectangle 275" width="0.248" height="1.946" transform="translate(0 16.882) rotate(-84.995)" fill="#899c88" stroke="#899c88" stroke-width="0.3"/>
      <rect id="Rectangle_276" data-name="Rectangle 276" width="1.448" height="0.248" transform="translate(7.095 19.224) rotate(-4.992)" fill="#899c88" stroke="#899c88" stroke-width="0.3"/>
      <rect id="Rectangle_277" data-name="Rectangle 277" width="2.219" height="0.248" transform="translate(2.216 19.652) rotate(-4.992)" fill="#899c88" stroke="#899c88" stroke-width="0.3"/>
      <rect id="Rectangle_278" data-name="Rectangle 278" width="1.121" height="0.248" transform="translate(0 19.845) rotate(-4.992)" fill="#899c88" stroke="#899c88" stroke-width="0.3"/>
      <rect id="Rectangle_279" data-name="Rectangle 279" width="2.036" height="0.248" transform="translate(6.85 21.32) rotate(-15.004)" fill="#899c88" stroke="#899c88" stroke-width="0.3"/>
      <rect id="Rectangle_280" data-name="Rectangle 280" width="1.962" height="0.248" transform="matrix(0.966, -0.259, 0.259, 0.966, 2.942, 22.367)" fill="#899c88" stroke="#899c88" stroke-width="0.3"/>
      <rect id="Rectangle_281" data-name="Rectangle 281" width="2.491" height="0.248" transform="translate(0.537 23.011) rotate(-15.004)" fill="#899c88" stroke="#899c88" stroke-width="0.3"/>
      <rect id="Rectangle_282" data-name="Rectangle 282" width="1.216" height="0.248" transform="translate(1.615 26.036) rotate(-25.015)" fill="#899c88" stroke="#899c88" stroke-width="0.3"/>
      <rect id="Rectangle_283" data-name="Rectangle 283" width="2.733" height="0.248" transform="translate(3.779 25.028) rotate(-25.015)" fill="#899c88" stroke="#899c88" stroke-width="0.3"/>
      <rect id="Rectangle_284" data-name="Rectangle 284" width="1.059" height="0.248" transform="translate(8.425 22.862) rotate(-25.015)" fill="#899c88" stroke="#899c88" stroke-width="0.3"/>
      <rect id="Rectangle_285" data-name="Rectangle 285" width="0.6" height="0.248" transform="translate(9.733 24.256) rotate(-34.973)" fill="#899c88" stroke="#899c88" stroke-width="0.3"/>
      <rect id="Rectangle_286" data-name="Rectangle 286" width="3.009" height="0.248" transform="matrix(0.819, -0.573, 0.573, 0.819, 6.245, 26.697)" fill="#899c88" stroke="#899c88" stroke-width="0.3"/>
      <rect id="Rectangle_287" data-name="Rectangle 287" width="1.12" height="0.248" transform="translate(3.202 28.828) rotate(-34.973)" fill="#899c88" stroke="#899c88" stroke-width="0.3"/>
      <rect id="Rectangle_288" data-name="Rectangle 288" width="1.112" height="0.248" transform="matrix(0.966, -0.259, 0.259, 0.966, 7.743, 21.081)" fill="#899c88" stroke="#899c88" stroke-width="0.3"/>
      <rect id="Rectangle_289" data-name="Rectangle 289" width="2.005" height="0.248" transform="translate(5.807 21.6) rotate(-15.004)" fill="#899c88" stroke="#899c88" stroke-width="0.3"/>
      <rect id="Rectangle_290" data-name="Rectangle 290" width="1.078" height="0.248" transform="matrix(0.966, -0.259, 0.259, 0.966, 3.212, 22.295)" fill="#899c88" stroke="#899c88" stroke-width="0.3"/>
      <rect id="Rectangle_291" data-name="Rectangle 291" width="1.598" height="0.248" transform="translate(0.536 23.012) rotate(-15.004)" fill="#899c88" stroke="#899c88" stroke-width="0.3"/>
      <rect id="Rectangle_292" data-name="Rectangle 292" width="1.246" height="0.248" transform="translate(8.254 22.941) rotate(-25.015)" fill="#899c88" stroke="#899c88" stroke-width="0.3"/>
      <rect id="Rectangle_293" data-name="Rectangle 293" width="1.753" height="0.248" transform="translate(5.26 24.337) rotate(-25.015)" fill="#899c88" stroke="#899c88" stroke-width="0.3"/>
      <rect id="Rectangle_294" data-name="Rectangle 294" width="1.946" height="0.248" transform="translate(1.615 26.037) rotate(-25.015)" fill="#899c88" stroke="#899c88" stroke-width="0.3"/>
      <rect id="Rectangle_295" data-name="Rectangle 295" width="1.448" height="0.248" transform="translate(9.035 24.743) rotate(-34.973)" fill="#899c88" stroke="#899c88" stroke-width="0.3"/>
      <rect id="Rectangle_296" data-name="Rectangle 296" width="2.219" height="0.248" transform="translate(5.023 27.553) rotate(-34.973)" fill="#899c88" stroke="#899c88" stroke-width="0.3"/>
      <rect id="Rectangle_297" data-name="Rectangle 297" width="1.121" height="0.248" transform="translate(3.201 28.829) rotate(-34.973)" fill="#899c88" stroke="#899c88" stroke-width="0.3"/>
      <rect id="Rectangle_298" data-name="Rectangle 298" width="2.036" height="0.248" transform="translate(9.871 26.681) rotate(-45)" fill="#899c88" stroke="#899c88" stroke-width="0.3"/>
      <rect id="Rectangle_299" data-name="Rectangle 299" width="1.962" height="0.248" transform="translate(7.01 29.541) rotate(-45)" fill="#899c88" stroke="#899c88" stroke-width="0.3"/>
      <rect id="Rectangle_300" data-name="Rectangle 300" width="2.491" height="0.248" transform="translate(5.249 31.302) rotate(-45)" fill="#899c88" stroke="#899c88" stroke-width="0.3"/>
      <rect id="Rectangle_301" data-name="Rectangle 301" width="1.216" height="0.248" transform="translate(7.695 33.383) rotate(-55.027)" fill="#899c88" stroke="#899c88" stroke-width="0.3"/>
      <rect id="Rectangle_302" data-name="Rectangle 302" width="2.733" height="0.248" transform="matrix(0.573, -0.819, 0.819, 0.573, 9.065, 31.428)" fill="#899c88" stroke="#899c88" stroke-width="0.3"/>
      <rect id="Rectangle_303" data-name="Rectangle 303" width="1.059" height="0.248" transform="translate(12.005 27.229) rotate(-55.027)" fill="#899c88" stroke="#899c88" stroke-width="0.3"/>
      <rect id="Rectangle_304" data-name="Rectangle 304" width="0.6" height="0.248" transform="matrix(0.423, -0.906, 0.906, 0.423, 13.836, 27.782)" fill="#899c88" stroke="#899c88" stroke-width="0.3"/>
      <rect id="Rectangle_305" data-name="Rectangle 305" width="3.009" height="0.248" transform="translate(12.035 31.64) rotate(-64.985)" fill="#899c88" stroke="#899c88" stroke-width="0.3"/>
      <rect id="Rectangle_306" data-name="Rectangle 306" width="1.12" height="0.248" transform="matrix(0.423, -0.906, 0.906, 0.423, 10.465, 35.007)" fill="#899c88" stroke="#899c88" stroke-width="0.3"/>
      <rect id="Rectangle_307" data-name="Rectangle 307" width="1.112" height="0.248" transform="matrix(0.707, -0.707, 0.707, 0.707, 10.525, 26.027)" fill="#899c88" stroke="#899c88" stroke-width="0.3"/>
      <rect id="Rectangle_308" data-name="Rectangle 308" width="2.005" height="0.248" transform="translate(9.107 27.445) rotate(-45)" fill="#899c88" stroke="#899c88" stroke-width="0.3"/>
      <rect id="Rectangle_309" data-name="Rectangle 309" width="1.078" height="0.248" transform="translate(7.208 29.344) rotate(-45)" fill="#899c88" stroke="#899c88" stroke-width="0.3"/>
      <rect id="Rectangle_310" data-name="Rectangle 310" width="1.598" height="0.248" transform="translate(5.249 31.303) rotate(-45)" fill="#899c88" stroke="#899c88" stroke-width="0.3"/>
      <rect id="Rectangle_311" data-name="Rectangle 311" width="1.246" height="0.248" transform="translate(11.897 27.383) rotate(-55.027)" fill="#899c88" stroke="#899c88" stroke-width="0.3"/>
      <rect id="Rectangle_312" data-name="Rectangle 312" width="1.753" height="0.248" transform="translate(10.003 30.089) rotate(-55.027)" fill="#899c88" stroke="#899c88" stroke-width="0.3"/>
      <rect id="Rectangle_313" data-name="Rectangle 313" width="1.946" height="0.248" transform="translate(7.696 33.384) rotate(-55.027)" fill="#899c88" stroke="#899c88" stroke-width="0.3"/>
      <rect id="Rectangle_314" data-name="Rectangle 314" width="1.448" height="0.248" transform="matrix(0.423, -0.906, 0.906, 0.423, 13.475, 28.553)" fill="#899c88" stroke="#899c88" stroke-width="0.3"/>
      <rect id="Rectangle_315" data-name="Rectangle 315" width="2.219" height="0.248" transform="translate(11.406 32.992) rotate(-64.985)" fill="#899c88" stroke="#899c88" stroke-width="0.3"/>
      <rect id="Rectangle_316" data-name="Rectangle 316" width="1.121" height="0.248" transform="matrix(0.423, -0.906, 0.906, 0.423, 10.465, 35.008)" fill="#899c88" stroke="#899c88" stroke-width="0.3"/>
      <rect id="Rectangle_317" data-name="Rectangle 317" width="2.036" height="0.248" transform="translate(15.167 29.813) rotate(-74.996)" fill="#899c88" stroke="#899c88" stroke-width="0.3"/>
      <rect id="Rectangle_318" data-name="Rectangle 318" width="1.962" height="0.248" transform="translate(14.12 33.72) rotate(-74.999)" fill="#899c88" stroke="#899c88" stroke-width="0.3"/>
      <rect id="Rectangle_319" data-name="Rectangle 319" width="2.491" height="0.248" transform="matrix(0.259, -0.966, 0.966, 0.259, 13.475, 36.126)" fill="#899c88" stroke="#899c88" stroke-width="0.3"/>
      <rect id="Rectangle_320" data-name="Rectangle 320" width="1.216" height="0.248" transform="matrix(0.087, -0.996, 0.996, 0.087, 16.634, 36.705)" fill="#899c88" stroke="#899c88" stroke-width="0.3"/>
      <rect id="Rectangle_321" data-name="Rectangle 321" width="2.733" height="0.248" transform="translate(16.843 34.327) rotate(-85.008)" fill="#899c88" stroke="#899c88" stroke-width="0.3"/>
      <rect id="Rectangle_322" data-name="Rectangle 322" width="1.059" height="0.248" transform="translate(17.29 29.22) rotate(-85.009)" fill="#899c88" stroke="#899c88" stroke-width="0.3"/>
      <rect id="Rectangle_323" data-name="Rectangle 323" width="0.248" height="0.6" transform="translate(19.099 28.187) rotate(-4.984)" fill="#899c88" stroke="#899c88" stroke-width="0.3"/>
      <rect id="Rectangle_324" data-name="Rectangle 324" width="0.248" height="3.009" transform="translate(19.26 30.028) rotate(-4.99)" fill="#899c88" stroke="#899c88" stroke-width="0.3"/>
      <rect id="Rectangle_325" data-name="Rectangle 325" width="0.248" height="1.12" transform="translate(19.748 35.611) rotate(-5.005)" fill="#899c88" stroke="#899c88" stroke-width="0.3"/>
      <rect id="Rectangle_326" data-name="Rectangle 326" width="1.112" height="0.248" transform="translate(15.407 28.92) rotate(-74.999)" fill="#899c88" stroke="#899c88" stroke-width="0.3"/>
      <rect id="Rectangle_327" data-name="Rectangle 327" width="2.005" height="0.248" transform="translate(14.888 30.857) rotate(-74.996)" fill="#899c88" stroke="#899c88" stroke-width="0.3"/>
      <rect id="Rectangle_328" data-name="Rectangle 328" width="1.078" height="0.248" transform="translate(14.193 33.451) rotate(-74.996)" fill="#899c88" stroke="#899c88" stroke-width="0.3"/>
      <rect id="Rectangle_329" data-name="Rectangle 329" width="1.598" height="0.248" transform="translate(13.476 36.127) rotate(-74.999)" fill="#899c88" stroke="#899c88" stroke-width="0.3"/>
      <rect id="Rectangle_330" data-name="Rectangle 330" width="1.246" height="0.248" transform="translate(17.273 29.408) rotate(-85.009)" fill="#899c88" stroke="#899c88" stroke-width="0.3"/>
      <rect id="Rectangle_331" data-name="Rectangle 331" width="1.753" height="0.248" transform="translate(16.986 32.698) rotate(-85.009)" fill="#899c88" stroke="#899c88" stroke-width="0.3"/>
      <rect id="Rectangle_332" data-name="Rectangle 332" width="1.946" height="0.248" transform="matrix(0.087, -0.996, 0.996, 0.087, 16.635, 36.705)" fill="#899c88" stroke="#899c88" stroke-width="0.3"/>
      <rect id="Rectangle_333" data-name="Rectangle 333" width="0.248" height="1.448" transform="translate(19.099 28.19) rotate(-5.012)" fill="#899c88" stroke="#899c88" stroke-width="0.3"/>
      <rect id="Rectangle_334" data-name="Rectangle 334" width="0.248" height="2.219" transform="translate(19.459 32.301) rotate(-5.001)" fill="#899c88" stroke="#899c88" stroke-width="0.3"/>
      <rect id="Rectangle_335" data-name="Rectangle 335" width="0.248" height="1.121" transform="translate(19.748 35.61) rotate(-4.984)" fill="#899c88" stroke="#899c88" stroke-width="0.3"/>
      <rect id="Rectangle_336" data-name="Rectangle 336" width="0.248" height="2.036" transform="translate(20.794 27.911) rotate(-14.995)" fill="#899c88" stroke="#899c88" stroke-width="0.3"/>
      <rect id="Rectangle_337" data-name="Rectangle 337" width="0.248" height="1.962" transform="translate(21.86 31.89) rotate(-14.997)" fill="#899c88" stroke="#899c88" stroke-width="0.3"/>
      <rect id="Rectangle_338" data-name="Rectangle 338" width="0.248" height="2.491" transform="matrix(0.966, -0.259, 0.259, 0.966, 22.367, 33.785)" fill="#899c88" stroke="#899c88" stroke-width="0.3"/>
      <rect id="Rectangle_339" data-name="Rectangle 339" width="0.248" height="1.216" transform="translate(25.523 34.01) rotate(-24.995)" fill="#899c88" stroke="#899c88" stroke-width="0.3"/>
      <rect id="Rectangle_340" data-name="Rectangle 340" width="0.248" height="2.733" transform="translate(23.873 30.472) rotate(-24.995)" fill="#899c88" stroke="#899c88" stroke-width="0.3"/>
      <rect id="Rectangle_341" data-name="Rectangle 341" width="0.248" height="1.059" transform="translate(22.414 27.343) rotate(-24.988)" fill="#899c88" stroke="#899c88" stroke-width="0.3"/>
      <rect id="Rectangle_342" data-name="Rectangle 342" width="0.248" height="0.6" transform="matrix(0.819, -0.574, 0.574, 0.819, 23.913, 26.503)" fill="#899c88" stroke="#899c88" stroke-width="0.3"/>
      <rect id="Rectangle_343" data-name="Rectangle 343" width="0.248" height="3.009" transform="translate(24.973 28.018) rotate(-34.99)" fill="#899c88" stroke="#899c88" stroke-width="0.3"/>
      <rect id="Rectangle_344" data-name="Rectangle 344" width="0.248" height="1.12" transform="translate(28.187 32.609) rotate(-35.004)" fill="#899c88" stroke="#899c88" stroke-width="0.3"/>
      <rect id="Rectangle_345" data-name="Rectangle 345" width="0.248" height="1.112" transform="translate(20.794 27.91) rotate(-15.001)" fill="#899c88" stroke="#899c88" stroke-width="0.3"/>
      <rect id="Rectangle_346" data-name="Rectangle 346" width="0.248" height="2.005" transform="matrix(0.966, -0.259, 0.259, 0.966, 21.081, 28.984)" fill="#899c88" stroke="#899c88" stroke-width="0.3"/>
      <rect id="Rectangle_347" data-name="Rectangle 347" width="0.248" height="1.078" transform="matrix(0.966, -0.259, 0.259, 0.966, 22.016, 32.474)" fill="#899c88" stroke="#899c88" stroke-width="0.3"/>
      <rect id="Rectangle_348" data-name="Rectangle 348" width="0.248" height="1.598" transform="matrix(0.966, -0.259, 0.259, 0.966, 22.599, 34.648)" fill="#899c88" stroke="#899c88" stroke-width="0.3"/>
      <rect id="Rectangle_349" data-name="Rectangle 349" width="0.248" height="1.246" transform="translate(22.415 27.344) rotate(-25.008)" fill="#899c88" stroke="#899c88" stroke-width="0.3"/>
      <rect id="Rectangle_350" data-name="Rectangle 350" width="0.248" height="1.753" transform="matrix(0.906, -0.423, 0.423, 0.906, 23.597, 29.878)" fill="#899c88" stroke="#899c88" stroke-width="0.3"/>
      <rect id="Rectangle_351" data-name="Rectangle 351" width="0.248" height="1.946" transform="translate(25.215 33.349) rotate(-24.991)" fill="#899c88" stroke="#899c88" stroke-width="0.3"/>
      <rect id="Rectangle_352" data-name="Rectangle 352" width="0.248" height="1.448" transform="translate(23.913 26.506) rotate(-35.013)" fill="#899c88" stroke="#899c88" stroke-width="0.3"/>
      <rect id="Rectangle_353" data-name="Rectangle 353" width="0.248" height="2.219" transform="translate(26.281 29.886) rotate(-35.001)" fill="#899c88" stroke="#899c88" stroke-width="0.3"/>
      <rect id="Rectangle_354" data-name="Rectangle 354" width="0.248" height="1.121" transform="matrix(0.819, -0.573, 0.573, 0.819, 28.186, 32.607)" fill="#899c88" stroke="#899c88" stroke-width="0.3"/>
      <rect id="Rectangle_355" data-name="Rectangle 355" width="0.248" height="2.036" transform="matrix(0.707, -0.707, 0.707, 0.707, 25.242, 25.417)" fill="#899c88" stroke="#899c88" stroke-width="0.3"/>
      <rect id="Rectangle_356" data-name="Rectangle 356" width="0.248" height="1.962" transform="matrix(0.707, -0.707, 0.707, 0.707, 28.155, 28.33)" fill="#899c88" stroke="#899c88" stroke-width="0.3"/>
      <rect id="Rectangle_357" data-name="Rectangle 357" width="0.248" height="2.491" transform="translate(29.542 29.717) rotate(-44.998)" fill="#899c88" stroke="#899c88" stroke-width="0.3"/>
      <rect id="Rectangle_358" data-name="Rectangle 358" width="0.248" height="1.216" transform="matrix(0.574, -0.819, 0.819, 0.574, 32.387, 28.335)" fill="#899c88" stroke="#899c88" stroke-width="0.3"/>
      <rect id="Rectangle_359" data-name="Rectangle 359" width="0.248" height="2.733" transform="translate(29.189 26.095) rotate(-54.994)" fill="#899c88" stroke="#899c88" stroke-width="0.3"/>
      <rect id="Rectangle_360" data-name="Rectangle 360" width="0.248" height="1.059" transform="translate(26.361 24.115) rotate(-54.993)" fill="#899c88" stroke="#899c88" stroke-width="0.3"/>
      <rect id="Rectangle_361" data-name="Rectangle 361" width="0.248" height="0.6" transform="matrix(0.423, -0.906, 0.906, 0.423, 27.239, 22.638)" fill="#899c88" stroke="#899c88" stroke-width="0.3"/>
      <rect id="Rectangle_362" data-name="Rectangle 362" width="0.248" height="3.009" transform="translate(28.914 23.42) rotate(-64.989)" fill="#899c88" stroke="#899c88" stroke-width="0.3"/>
      <rect id="Rectangle_363" data-name="Rectangle 363" width="0.248" height="1.12" transform="translate(33.993 25.789) rotate(-64.998)" fill="#899c88" stroke="#899c88" stroke-width="0.3"/>
      <rect id="Rectangle_364" data-name="Rectangle 364" width="0.248" height="1.112" transform="matrix(0.707, -0.707, 0.707, 0.707, 25.241, 25.416)" fill="#899c88" stroke="#899c88" stroke-width="0.3"/>
      <rect id="Rectangle_365" data-name="Rectangle 365" width="0.248" height="2.005" transform="translate(26.028 26.203) rotate(-45)" fill="#899c88" stroke="#899c88" stroke-width="0.3"/>
      <rect id="Rectangle_366" data-name="Rectangle 366" width="0.248" height="1.078" transform="translate(28.582 28.757) rotate(-45.005)" fill="#899c88" stroke="#899c88" stroke-width="0.3"/>
      <rect id="Rectangle_367" data-name="Rectangle 367" width="0.248" height="1.598" transform="matrix(0.707, -0.707, 0.707, 0.707, 30.174, 30.349)" fill="#899c88" stroke="#899c88" stroke-width="0.3"/>
      <rect id="Rectangle_368" data-name="Rectangle 368" width="0.248" height="1.246" transform="matrix(0.573, -0.819, 0.819, 0.573, 26.362, 24.116)" fill="#899c88" stroke="#899c88" stroke-width="0.3"/>
      <rect id="Rectangle_369" data-name="Rectangle 369" width="0.248" height="1.753" transform="translate(28.653 25.719) rotate(-55.012)" fill="#899c88" stroke="#899c88" stroke-width="0.3"/>
      <rect id="Rectangle_370" data-name="Rectangle 370" width="0.248" height="1.946" transform="matrix(0.574, -0.819, 0.819, 0.574, 31.79, 27.916)" fill="#899c88" stroke="#899c88" stroke-width="0.3"/>
      <rect id="Rectangle_371" data-name="Rectangle 371" width="0.248" height="1.448" transform="translate(27.241 22.64) rotate(-65.007)" fill="#899c88" stroke="#899c88" stroke-width="0.3"/>
      <rect id="Rectangle_372" data-name="Rectangle 372" width="0.248" height="2.219" transform="translate(30.982 24.384) rotate(-65)" fill="#899c88" stroke="#899c88" stroke-width="0.3"/>
      <rect id="Rectangle_373" data-name="Rectangle 373" width="0.248" height="1.121" transform="matrix(0.423, -0.906, 0.906, 0.423, 33.992, 25.788)" fill="#899c88" stroke="#899c88" stroke-width="0.3"/>
      <rect id="Rectangle_374" data-name="Rectangle 374" width="0.248" height="2.036" transform="matrix(0.259, -0.966, 0.966, 0.259, 27.847, 21.033)" fill="#899c88" stroke="#899c88" stroke-width="0.3"/>
      <rect id="Rectangle_375" data-name="Rectangle 375" width="0.248" height="1.962" transform="translate(31.826 22.1) rotate(-74.997)" fill="#899c88" stroke="#899c88" stroke-width="0.3"/>
      <rect id="Rectangle_376" data-name="Rectangle 376" width="0.248" height="2.491" transform="translate(33.721 22.607) rotate(-74.999)" fill="#899c88" stroke="#899c88" stroke-width="0.3"/>
      <rect id="Rectangle_377" data-name="Rectangle 377" width="0.248" height="1.216" transform="matrix(0.087, -0.996, 0.996, 0.087, 35.494, 19.987)" fill="#899c88" stroke="#899c88" stroke-width="0.3"/>
      <rect id="Rectangle_378" data-name="Rectangle 378" width="0.248" height="2.733" transform="translate(31.604 19.647) rotate(-84.995)" fill="#899c88" stroke="#899c88" stroke-width="0.3"/>
      <rect id="Rectangle_379" data-name="Rectangle 379" width="0.248" height="1.059" transform="matrix(0.087, -0.996, 0.996, 0.087, 28.166, 19.345)" fill="#899c88" stroke="#899c88" stroke-width="0.3"/>
      <rect id="Rectangle_380" data-name="Rectangle 380" width="0.6" height="0.248" transform="translate(28.166 17.381) rotate(-4.992)" fill="#899c88" stroke="#899c88" stroke-width="0.3"/>
      <rect id="Rectangle_381" data-name="Rectangle 381" width="3.009" height="0.248" transform="translate(30.007 17.22) rotate(-4.992)" fill="#899c88" stroke="#899c88" stroke-width="0.3"/>
      <rect id="Rectangle_382" data-name="Rectangle 382" width="1.12" height="0.248" transform="translate(35.59 16.732) rotate(-4.99)" fill="#899c88" stroke="#899c88" stroke-width="0.3"/>
      <rect id="Rectangle_383" data-name="Rectangle 383" width="0.248" height="1.112" transform="translate(27.847 21.033) rotate(-75)" fill="#899c88" stroke="#899c88" stroke-width="0.3"/>
      <rect id="Rectangle_384" data-name="Rectangle 384" width="0.248" height="2.005" transform="translate(28.921 21.321) rotate(-75)" fill="#899c88" stroke="#899c88" stroke-width="0.3"/>
      <rect id="Rectangle_385" data-name="Rectangle 385" width="0.248" height="1.078" transform="matrix(0.259, -0.966, 0.966, 0.259, 32.41, 22.256)" fill="#899c88" stroke="#899c88" stroke-width="0.3"/>
      <rect id="Rectangle_386" data-name="Rectangle 386" width="0.248" height="1.598" transform="translate(34.584 22.838) rotate(-74.997)" fill="#899c88" stroke="#899c88" stroke-width="0.3"/>
      <rect id="Rectangle_387" data-name="Rectangle 387" width="0.248" height="1.246" transform="matrix(0.087, -0.996, 0.996, 0.087, 28.167, 19.346)" fill="#899c88" stroke="#899c88" stroke-width="0.3"/>
      <rect id="Rectangle_388" data-name="Rectangle 388" width="0.248" height="1.753" transform="translate(30.953 19.589) rotate(-85.01)" fill="#899c88" stroke="#899c88" stroke-width="0.3"/>
      <rect id="Rectangle_389" data-name="Rectangle 389" width="0.248" height="1.946" transform="translate(34.768 19.923) rotate(-84.995)" fill="#899c88" stroke="#899c88" stroke-width="0.3"/>
      <rect id="Rectangle_390" data-name="Rectangle 390" width="1.448" height="0.248" transform="translate(28.169 17.381) rotate(-4.983)" fill="#899c88" stroke="#899c88" stroke-width="0.3"/>
      <rect id="Rectangle_391" data-name="Rectangle 391" width="2.219" height="0.248" transform="translate(32.28 17.021) rotate(-4.992)" fill="#899c88" stroke="#899c88" stroke-width="0.3"/>
      <rect id="Rectangle_392" data-name="Rectangle 392" width="1.121" height="0.248" transform="translate(35.589 16.732) rotate(-4.99)" fill="#899c88" stroke="#899c88" stroke-width="0.3"/>
      <rect id="Rectangle_393" data-name="Rectangle 393" width="2.036" height="0.248" transform="matrix(0.966, -0.259, 0.259, 0.966, 27.848, 15.694)" fill="#899c88" stroke="#899c88" stroke-width="0.3"/>
      <rect id="Rectangle_394" data-name="Rectangle 394" width="1.962" height="0.248" transform="matrix(0.966, -0.259, 0.259, 0.966, 31.826, 14.628)" fill="#899c88" stroke="#899c88" stroke-width="0.3"/>
      <rect id="Rectangle_395" data-name="Rectangle 395" width="2.491" height="0.248" transform="matrix(0.966, -0.259, 0.259, 0.966, 33.721, 14.121)" fill="#899c88" stroke="#899c88" stroke-width="0.3"/>
      <rect id="Rectangle_396" data-name="Rectangle 396" width="1.216" height="0.248" transform="translate(33.906 10.98) rotate(-25.015)" fill="#899c88" stroke="#899c88" stroke-width="0.3"/>
      <rect id="Rectangle_397" data-name="Rectangle 397" width="2.733" height="0.248" transform="translate(30.367 12.63) rotate(-25.015)" fill="#899c88" stroke="#899c88" stroke-width="0.3"/>
      <rect id="Rectangle_398" data-name="Rectangle 398" width="1.059" height="0.248" transform="translate(27.239 14.088) rotate(-25.015)" fill="#899c88" stroke="#899c88" stroke-width="0.3"/>
      <rect id="Rectangle_399" data-name="Rectangle 399" width="0.6" height="0.248" transform="matrix(0.819, -0.573, 0.573, 0.819, 26.361, 12.611)" fill="#899c88" stroke="#899c88" stroke-width="0.3"/>
      <rect id="Rectangle_400" data-name="Rectangle 400" width="3.009" height="0.248" transform="matrix(0.819, -0.573, 0.573, 0.819, 27.876, 11.551)" fill="#899c88" stroke="#899c88" stroke-width="0.3"/>
      <rect id="Rectangle_401" data-name="Rectangle 401" width="1.12" height="0.248" transform="matrix(0.819, -0.573, 0.573, 0.819, 32.467, 8.337)" fill="#899c88" stroke="#899c88" stroke-width="0.3"/>
      <rect id="Rectangle_402" data-name="Rectangle 402" width="1.112" height="0.248" transform="translate(27.847 15.694) rotate(-15.004)" fill="#899c88" stroke="#899c88" stroke-width="0.3"/>
      <rect id="Rectangle_403" data-name="Rectangle 403" width="2.005" height="0.248" transform="matrix(0.966, -0.259, 0.259, 0.966, 28.921, 15.406)" fill="#899c88" stroke="#899c88" stroke-width="0.3"/>
      <rect id="Rectangle_404" data-name="Rectangle 404" width="1.078" height="0.248" transform="matrix(0.966, -0.259, 0.259, 0.966, 32.41, 14.471)" fill="#899c88" stroke="#899c88" stroke-width="0.3"/>
      <rect id="Rectangle_405" data-name="Rectangle 405" width="1.598" height="0.248" transform="matrix(0.966, -0.259, 0.259, 0.966, 34.584, 13.889)" fill="#899c88" stroke="#899c88" stroke-width="0.3"/>
      <rect id="Rectangle_406" data-name="Rectangle 406" width="1.246" height="0.248" transform="translate(27.24 14.088) rotate(-25.015)" fill="#899c88" stroke="#899c88" stroke-width="0.3"/>
      <rect id="Rectangle_407" data-name="Rectangle 407" width="1.753" height="0.248" transform="translate(29.774 12.906) rotate(-25.015)" fill="#899c88" stroke="#899c88" stroke-width="0.3"/>
      <rect id="Rectangle_408" data-name="Rectangle 408" width="1.946" height="0.248" transform="translate(33.245 11.287) rotate(-25.015)" fill="#899c88" stroke="#899c88" stroke-width="0.3"/>
      <rect id="Rectangle_409" data-name="Rectangle 409" width="1.448" height="0.248" transform="translate(26.364 12.611) rotate(-34.99)" fill="#899c88" stroke="#899c88" stroke-width="0.3"/>
      <rect id="Rectangle_410" data-name="Rectangle 410" width="2.219" height="0.248" transform="matrix(0.819, -0.574, 0.574, 0.819, 29.745, 10.244)" fill="#899c88" stroke="#899c88" stroke-width="0.3"/>
      <rect id="Rectangle_411" data-name="Rectangle 411" width="1.121" height="0.248" transform="matrix(0.819, -0.573, 0.573, 0.819, 32.466, 8.338)" fill="#899c88" stroke="#899c88" stroke-width="0.3"/>
      <rect id="Rectangle_412" data-name="Rectangle 412" width="2.036" height="0.248" transform="translate(25.242 11.31) rotate(-45)" fill="#899c88" stroke="#899c88" stroke-width="0.3"/>
      <rect id="Rectangle_413" data-name="Rectangle 413" width="1.962" height="0.248" transform="translate(28.155 8.397) rotate(-45)" fill="#899c88" stroke="#899c88" stroke-width="0.3"/>
      <rect id="Rectangle_414" data-name="Rectangle 414" width="2.491" height="0.248" transform="translate(29.542 7.01) rotate(-45)" fill="#899c88" stroke="#899c88" stroke-width="0.3"/>
      <rect id="Rectangle_415" data-name="Rectangle 415" width="1.216" height="0.248" transform="translate(28.132 4.198) rotate(-54.999)" fill="#899c88" stroke="#899c88" stroke-width="0.3"/>
      <rect id="Rectangle_416" data-name="Rectangle 416" width="2.733" height="0.248" transform="matrix(0.574, -0.819, 0.819, 0.574, 25.892, 7.396)" fill="#899c88" stroke="#899c88" stroke-width="0.3"/>
      <rect id="Rectangle_417" data-name="Rectangle 417" width="1.059" height="0.248" transform="matrix(0.574, -0.819, 0.819, 0.574, 23.912, 10.224)" fill="#899c88" stroke="#899c88" stroke-width="0.3"/>
      <rect id="Rectangle_418" data-name="Rectangle 418" width="0.6" height="0.248" transform="matrix(0.423, -0.906, 0.906, 0.423, 22.414, 9.384)" fill="#899c88" stroke="#899c88" stroke-width="0.3"/>
      <rect id="Rectangle_419" data-name="Rectangle 419" width="3.009" height="0.248" transform="matrix(0.423, -0.906, 0.906, 0.423, 23.195, 7.708)" fill="#899c88" stroke="#899c88" stroke-width="0.3"/>
      <rect id="Rectangle_420" data-name="Rectangle 420" width="1.12" height="0.248" transform="translate(25.564 2.629) rotate(-65.011)" fill="#899c88" stroke="#899c88" stroke-width="0.3"/>
      <rect id="Rectangle_421" data-name="Rectangle 421" width="1.112" height="0.248" transform="translate(25.241 11.31) rotate(-45)" fill="#899c88" stroke="#899c88" stroke-width="0.3"/>
      <rect id="Rectangle_422" data-name="Rectangle 422" width="2.005" height="0.248" transform="translate(26.028 10.524) rotate(-45)" fill="#899c88" stroke="#899c88" stroke-width="0.3"/>
      <rect id="Rectangle_423" data-name="Rectangle 423" width="1.078" height="0.248" transform="translate(28.582 7.97) rotate(-45)" fill="#899c88" stroke="#899c88" stroke-width="0.3"/>
      <rect id="Rectangle_424" data-name="Rectangle 424" width="1.598" height="0.248" transform="translate(30.174 6.378) rotate(-45)" fill="#899c88" stroke="#899c88" stroke-width="0.3"/>
      <rect id="Rectangle_425" data-name="Rectangle 425" width="1.246" height="0.248" transform="matrix(0.573, -0.819, 0.819, 0.573, 23.913, 10.223)" fill="#899c88" stroke="#899c88" stroke-width="0.3"/>
      <rect id="Rectangle_426" data-name="Rectangle 426" width="1.753" height="0.248" transform="translate(25.517 7.932) rotate(-55.028)" fill="#899c88" stroke="#899c88" stroke-width="0.3"/>
      <rect id="Rectangle_427" data-name="Rectangle 427" width="1.946" height="0.248" transform="matrix(0.574, -0.819, 0.819, 0.574, 27.713, 4.795)" fill="#899c88" stroke="#899c88" stroke-width="0.3"/>
      <rect id="Rectangle_428" data-name="Rectangle 428" width="1.448" height="0.248" transform="translate(22.416 9.381) rotate(-65.011)" fill="#899c88" stroke="#899c88" stroke-width="0.3"/>
      <rect id="Rectangle_429" data-name="Rectangle 429" width="2.219" height="0.248" transform="translate(24.16 5.641) rotate(-65.011)" fill="#899c88" stroke="#899c88" stroke-width="0.3"/>
      <rect id="Rectangle_430" data-name="Rectangle 430" width="1.121" height="0.248" transform="matrix(0.423, -0.906, 0.906, 0.423, 25.564, 2.63)" fill="#899c88" stroke="#899c88" stroke-width="0.3"/>
      <rect id="Rectangle_431" data-name="Rectangle 431" width="2.036" height="0.248" transform="matrix(0.259, -0.966, 0.966, 0.259, 20.794, 8.816)" fill="#899c88" stroke="#899c88" stroke-width="0.3"/>
      <rect id="Rectangle_432" data-name="Rectangle 432" width="1.962" height="0.248" transform="translate(21.86 4.837) rotate(-74.997)" fill="#899c88" stroke="#899c88" stroke-width="0.3"/>
      <rect id="Rectangle_433" data-name="Rectangle 433" width="2.491" height="0.248" transform="matrix(0.259, -0.966, 0.966, 0.259, 22.368, 2.942)" fill="#899c88" stroke="#899c88" stroke-width="0.3"/>
      <rect id="Rectangle_434" data-name="Rectangle 434" width="1.216" height="0.248" transform="translate(19.74 1.212) rotate(-84.997)" fill="#899c88" stroke="#899c88" stroke-width="0.3"/>
      <rect id="Rectangle_435" data-name="Rectangle 435" width="2.733" height="0.248" transform="translate(19.4 5.101) rotate(-84.99)" fill="#899c88" stroke="#899c88" stroke-width="0.3"/>
      <rect id="Rectangle_436" data-name="Rectangle 436" width="1.059" height="0.248" transform="translate(19.099 8.54) rotate(-84.99)" fill="#899c88" stroke="#899c88" stroke-width="0.3"/>
      <rect id="Rectangle_437" data-name="Rectangle 437" width="0.248" height="0.6" transform="translate(17.329 7.964) rotate(-4.996)" fill="#899c88" stroke="#899c88" stroke-width="0.3"/>
      <rect id="Rectangle_438" data-name="Rectangle 438" width="0.248" height="3.009" transform="translate(16.959 3.722) rotate(-4.991)" fill="#899c88" stroke="#899c88" stroke-width="0.3"/>
      <rect id="Rectangle_439" data-name="Rectangle 439" width="0.248" height="1.12" transform="translate(16.635 0.022) rotate(-5.011)" fill="#899c88" stroke="#899c88" stroke-width="0.3"/>
    </g>
  </g>
</svg>
