<svg xmlns="http://www.w3.org/2000/svg" width="5.839" height="11.115" viewBox="0 0 5.839 11.115">
  <g id="selector" transform="translate(-507.228 -751.835)">
    <path id="Path_293" data-name="Path 293" d="M1.348,2.92,3.313.954a.543.543,0,0,0,0-.786.543.543,0,0,0-.786,0L.168,2.527h0a.543.543,0,0,0,0,.786L2.527,5.671a.51.51,0,0,0,.393.168h0a.51.51,0,0,0,.393-.168.543.543,0,0,0,0-.786Z" transform="translate(513.067 751.835) rotate(90)" fill="#919191"/>
    <path id="Path_294" data-name="Path 294" d="M1.348,2.92,3.313.954a.543.543,0,0,0,0-.786.543.543,0,0,0-.786,0L.168,2.527h0a.543.543,0,0,0,0,.786L2.527,5.671a.51.51,0,0,0,.393.168h0a.51.51,0,0,0,.393-.168.543.543,0,0,0,0-.786Z" transform="translate(507.228 762.95) rotate(-90)" fill="#919191"/>
  </g>
</svg>
